<svg width="50" height="50" viewBox="0 0 50 50" fill="none" xmlns="http://www.w3.org/2000/svg">
<path d="M15 1H14V2H15V1Z" fill="#CBDBFC"/>
<path d="M36 1H35V2H36V1Z" fill="#E7EEFE"/>
<path d="M37 1H36V2H37V1Z" fill="#CBDBFC"/>
<path d="M15 2H14V3H15V2Z" fill="#CBDBFC"/>
<path d="M16 2H15V3H16V2Z" fill="#E7EEFE"/>
<path d="M35 2H34V3H35V2Z" fill="#E7EEFE"/>
<path d="M36 2H35V3H36V2Z" fill="#CBDBFC"/>
<path d="M15 3H14V4H15V3Z" fill="#CBDBFC"/>
<path d="M16 3H15V4H16V3Z" fill="white"/>
<path d="M17 3H16V4H17V3Z" fill="#E7EEFE"/>
<path d="M34 3H33V4H34V3Z" fill="#E7EEFE"/>
<path d="M35 3H34V4H35V3Z" fill="white"/>
<path d="M36 3H35V4H36V3Z" fill="#CBDBFC"/>
<path d="M15 4H14V5H15V4Z" fill="#CBDBFC"/>
<path d="M16 4H15V5H16V4Z" fill="white"/>
<path d="M17 4H16V5H17V4Z" fill="white"/>
<path d="M18 4H17V5H18V4Z" fill="#E7EEFE"/>
<path d="M19 4H18V5H19V4Z" fill="#E7EEFE"/>
<path d="M34 4H33V5H34V4Z" fill="#E7EEFE"/>
<path d="M35 4H34V5H35V4Z" fill="#FFE5FC"/>
<path d="M36 4H35V5H36V4Z" fill="#CBDBFC"/>
<path d="M15 5H14V6H15V5Z" fill="#CBDBFC"/>
<path d="M16 5H15V6H16V5Z" fill="white"/>
<path d="M17 5H16V6H17V5Z" fill="#FFE5FC"/>
<path d="M18 5H17V6H18V5Z" fill="white"/>
<path d="M19 5H18V6H19V5Z" fill="white"/>
<path d="M20 5H19V6H20V5Z" fill="#E7EEFE"/>
<path d="M33 5H32V6H33V5Z" fill="#E7EEFE"/>
<path d="M34 5H33V6H34V5Z" fill="white"/>
<path d="M35 5H34V6H35V5Z" fill="#FFE5FC"/>
<path d="M36 5H35V6H36V5Z" fill="#CBDBFC"/>
<path d="M15 6H14V7H15V6Z" fill="#CBDBFC"/>
<path d="M16 6H15V7H16V6Z" fill="white"/>
<path d="M17 6H16V7H17V6Z" fill="#FFE5FC"/>
<path d="M18 6H17V7H18V6Z" fill="#FFE5FC"/>
<path d="M19 6H18V7H19V6Z" fill="white"/>
<path d="M20 6H19V7H20V6Z" fill="white"/>
<path d="M21 6H20V7H21V6Z" fill="#E7EEFE"/>
<path d="M33 6H32V7H33V6Z" fill="#E7EEFE"/>
<path d="M34 6H33V7H34V6Z" fill="#FFE5FC"/>
<path d="M35 6H34V7H35V6Z" fill="#CBDBFC"/>
<path d="M15 7H14V8H15V7Z" fill="#CBDBFC"/>
<path d="M16 7H15V8H16V7Z" fill="white"/>
<path d="M17 7H16V8H17V7Z" fill="#FFE5FC"/>
<path d="M18 7H17V8H18V7Z" fill="#FFE5FC"/>
<path d="M19 7H18V8H19V7Z" fill="#FFE5FC"/>
<path d="M20 7H19V8H20V7Z" fill="white"/>
<path d="M21 7H20V8H21V7Z" fill="white"/>
<path d="M22 7H21V8H22V7Z" fill="#E7EEFE"/>
<path d="M32 7H31V8H32V7Z" fill="#E7EEFE"/>
<path d="M33 7H32V8H33V7Z" fill="white"/>
<path d="M34 7H33V8H34V7Z" fill="#FFE5FC"/>
<path d="M35 7H34V8H35V7Z" fill="#CBDBFC"/>
<path d="M16 8H15V9H16V8Z" fill="#CBDBFC"/>
<path d="M17 8H16V9H17V8Z" fill="white"/>
<path d="M18 8H17V9H18V8Z" fill="#FFE5FC"/>
<path d="M19 8H18V9H19V8Z" fill="#FFE5FC"/>
<path d="M20 8H19V9H20V8Z" fill="#FFE5FC"/>
<path d="M21 8H20V9H21V8Z" fill="white"/>
<path d="M22 8H21V9H22V8Z" fill="white"/>
<path d="M23 8H22V9H23V8Z" fill="#E7EEFE"/>
<path d="M31 8H30V9H31V8Z" fill="#E7EEFE"/>
<path d="M32 8H31V9H32V8Z" fill="white"/>
<path d="M33 8H32V9H33V8Z" fill="white"/>
<path d="M34 8H33V9H34V8Z" fill="#FFE5FC"/>
<path d="M35 8H34V9H35V8Z" fill="#CBDBFC"/>
<path d="M16 9H15V10H16V9Z" fill="#CBDBFC"/>
<path d="M17 9H16V10H17V9Z" fill="white"/>
<path d="M18 9H17V10H18V9Z" fill="#FFE5FC"/>
<path d="M19 9H18V10H19V9Z" fill="#FFE5FC"/>
<path d="M20 9H19V10H20V9Z" fill="#FFE5FC"/>
<path d="M21 9H20V10H21V9Z" fill="white"/>
<path d="M22 9H21V10H22V9Z" fill="white"/>
<path d="M23 9H22V10H23V9Z" fill="#E7EEFE"/>
<path d="M31 9H30V10H31V9Z" fill="#E7EEFE"/>
<path d="M32 9H31V10H32V9Z" fill="white"/>
<path d="M33 9H32V10H33V9Z" fill="#FFE5FC"/>
<path d="M34 9H33V10H34V9Z" fill="#FFE5FC"/>
<path d="M35 9H34V10H35V9Z" fill="#CBDBFC"/>
<path d="M17 10H16V11H17V10Z" fill="#CBDBFC"/>
<path d="M18 10H17V11H18V10Z" fill="white"/>
<path d="M19 10H18V11H19V10Z" fill="#FFE5FC"/>
<path d="M20 10H19V11H20V10Z" fill="#FFE5FC"/>
<path d="M21 10H20V11H21V10Z" fill="white"/>
<path d="M22 10H21V11H22V10Z" fill="white"/>
<path d="M23 10H22V11H23V10Z" fill="#E7EEFE"/>
<path d="M30 10H29V11H30V10Z" fill="#E7EEFE"/>
<path d="M31 10H30V11H31V10Z" fill="white"/>
<path d="M32 10H31V11H32V10Z" fill="white"/>
<path d="M33 10H32V11H33V10Z" fill="#FFE5FC"/>
<path d="M34 10H33V11H34V10Z" fill="white"/>
<path d="M35 10H34V11H35V10Z" fill="#CBDBFC"/>
<path d="M17 11H16V12H17V11Z" fill="#CBDBFC"/>
<path d="M18 11H17V12H18V11Z" fill="white"/>
<path d="M19 11H18V12H19V11Z" fill="white"/>
<path d="M20 11H19V12H20V11Z" fill="#FFE5FC"/>
<path d="M21 11H20V12H21V11Z" fill="#FFE5FC"/>
<path d="M22 11H21V12H22V11Z" fill="white"/>
<path d="M23 11H22V12H23V11Z" fill="#E7EEFE"/>
<path d="M24 11H23V12H24V11Z" fill="#E7EEFE"/>
<path d="M29 11H28V12H29V11Z" fill="#E7EEFE"/>
<path d="M30 11H29V12H30V11Z" fill="#E7EEFE"/>
<path d="M31 11H30V12H31V11Z" fill="white"/>
<path d="M32 11H31V12H32V11Z" fill="#FFE5FC"/>
<path d="M33 11H32V12H33V11Z" fill="white"/>
<path d="M34 11H33V12H34V11Z" fill="#CBDBFC"/>
<path d="M18 12H17V13H18V12Z" fill="#CBDBFC"/>
<path d="M19 12H18V13H19V12Z" fill="white"/>
<path d="M20 12H19V13H20V12Z" fill="white"/>
<path d="M21 12H20V13H21V12Z" fill="white"/>
<path d="M22 12H21V13H22V12Z" fill="white"/>
<path d="M23 12H22V13H23V12Z" fill="white"/>
<path d="M24 12H23V13H24V12Z" fill="#E7EEFE"/>
<path d="M25 12H24V13H25V12Z" fill="#E7EEFE"/>
<path d="M26 12H25V13H26V12Z" fill="#E7EEFE"/>
<path d="M27 12H26V13H27V12Z" fill="#E7EEFE"/>
<path d="M28 12H27V13H28V12Z" fill="#E7EEFE"/>
<path d="M29 12H28V13H29V12Z" fill="#E7EEFE"/>
<path d="M30 12H29V13H30V12Z" fill="white"/>
<path d="M31 12H30V13H31V12Z" fill="white"/>
<path d="M32 12H31V13H32V12Z" fill="white"/>
<path d="M33 12H32V13H33V12Z" fill="#E7EEFE"/>
<path d="M34 12H33V13H34V12Z" fill="#CBDBFC"/>
<path d="M18 13H17V14H18V13Z" fill="#CBDBFC"/>
<path d="M19 13H18V14H19V13Z" fill="#E7EEFE"/>
<path d="M20 13H19V14H20V13Z" fill="white"/>
<path d="M21 13H20V14H21V13Z" fill="white"/>
<path d="M22 13H21V14H22V13Z" fill="white"/>
<path d="M23 13H22V14H23V13Z" fill="white"/>
<path d="M24 13H23V14H24V13Z" fill="white"/>
<path d="M25 13H24V14H25V13Z" fill="white"/>
<path d="M26 13H25V14H26V13Z" fill="white"/>
<path d="M27 13H26V14H27V13Z" fill="white"/>
<path d="M28 13H27V14H28V13Z" fill="white"/>
<path d="M29 13H28V14H29V13Z" fill="white"/>
<path d="M30 13H29V14H30V13Z" fill="white"/>
<path d="M31 13H30V14H31V13Z" fill="white"/>
<path d="M32 13H31V14H32V13Z" fill="white"/>
<path d="M33 13H32V14H33V13Z" fill="#E7EEFE"/>
<path d="M34 13H33V14H34V13Z" fill="#CBDBFC"/>
<path d="M18 14H17V15H18V14Z" fill="#CBDBFC"/>
<path d="M19 14H18V15H19V14Z" fill="#E7EEFE"/>
<path d="M20 14H19V15H20V14Z" fill="white"/>
<path d="M21 14H20V15H21V14Z" fill="white"/>
<path d="M22 14H21V15H22V14Z" fill="white"/>
<path d="M23 14H22V15H23V14Z" fill="white"/>
<path d="M24 14H23V15H24V14Z" fill="white"/>
<path d="M25 14H24V15H25V14Z" fill="white"/>
<path d="M26 14H25V15H26V14Z" fill="white"/>
<path d="M27 14H26V15H27V14Z" fill="white"/>
<path d="M28 14H27V15H28V14Z" fill="white"/>
<path d="M29 14H28V15H29V14Z" fill="white"/>
<path d="M30 14H29V15H30V14Z" fill="white"/>
<path d="M31 14H30V15H31V14Z" fill="white"/>
<path d="M32 14H31V15H32V14Z" fill="white"/>
<path d="M33 14H32V15H33V14Z" fill="#E7EEFE"/>
<path d="M34 14H33V15H34V14Z" fill="#CBDBFC"/>
<path d="M18 15H17V16H18V15Z" fill="#CBDBFC"/>
<path d="M19 15H18V16H19V15Z" fill="#E7EEFE"/>
<path d="M20 15H19V16H20V15Z" fill="white"/>
<path d="M21 15H20V16H21V15Z" fill="white"/>
<path d="M22 15H21V16H22V15Z" fill="white"/>
<path d="M23 15H22V16H23V15Z" fill="white"/>
<path d="M24 15H23V16H24V15Z" fill="white"/>
<path d="M25 15H24V16H25V15Z" fill="white"/>
<path d="M26 15H25V16H26V15Z" fill="white"/>
<path d="M27 15H26V16H27V15Z" fill="white"/>
<path d="M28 15H27V16H28V15Z" fill="white"/>
<path d="M29 15H28V16H29V15Z" fill="white"/>
<path d="M30 15H29V16H30V15Z" fill="white"/>
<path d="M31 15H30V16H31V15Z" fill="white"/>
<path d="M32 15H31V16H32V15Z" fill="white"/>
<path d="M33 15H32V16H33V15Z" fill="#E7EEFE"/>
<path d="M34 15H33V16H34V15Z" fill="#CBDBFC"/>
<path d="M18 16H17V17H18V16Z" fill="#CBDBFC"/>
<path d="M19 16H18V17H19V16Z" fill="white"/>
<path d="M20 16H19V17H20V16Z" fill="white"/>
<path d="M21 16H20V17H21V16Z" fill="white"/>
<path d="M22 16H21V17H22V16Z" fill="white"/>
<path d="M23 16H22V17H23V16Z" fill="#45283C"/>
<path d="M24 16H23V17H24V16Z" fill="#45283C"/>
<path d="M25 16H24V17H25V16Z" fill="white"/>
<path d="M26 16H25V17H26V16Z" fill="white"/>
<path d="M27 16H26V17H27V16Z" fill="white"/>
<path d="M28 16H27V17H28V16Z" fill="white"/>
<path d="M29 16H28V17H29V16Z" fill="#45283C"/>
<path d="M30 16H29V17H30V16Z" fill="#45283C"/>
<path d="M31 16H30V17H31V16Z" fill="white"/>
<path d="M32 16H31V17H32V16Z" fill="white"/>
<path d="M33 16H32V17H33V16Z" fill="white"/>
<path d="M34 16H33V17H34V16Z" fill="#CBDBFC"/>
<path d="M17 17H16V18H17V17Z" fill="#CBDBFC"/>
<path d="M18 17H17V18H18V17Z" fill="#E7EEFE"/>
<path d="M19 17H18V18H19V17Z" fill="white"/>
<path d="M20 17H19V18H20V17Z" fill="white"/>
<path d="M21 17H20V18H21V17Z" fill="white"/>
<path d="M22 17H21V18H22V17Z" fill="#45283C"/>
<path d="M23 17H22V18H23V17Z" fill="white"/>
<path d="M24 17H23V18H24V17Z" fill="#45283C"/>
<path d="M25 17H24V18H25V17Z" fill="white"/>
<path d="M26 17H25V18H26V17Z" fill="white"/>
<path d="M27 17H26V18H27V17Z" fill="white"/>
<path d="M28 17H27V18H28V17Z" fill="white"/>
<path d="M29 17H28V18H29V17Z" fill="white"/>
<path d="M30 17H29V18H30V17Z" fill="#45283C"/>
<path d="M31 17H30V18H31V17Z" fill="#45283C"/>
<path d="M32 17H31V18H32V17Z" fill="white"/>
<path d="M33 17H32V18H33V17Z" fill="white"/>
<path d="M34 17H33V18H34V17Z" fill="#E7EEFE"/>
<path d="M35 17H34V18H35V17Z" fill="#CBDBFC"/>
<path d="M17 18H16V19H17V18Z" fill="#CBDBFC"/>
<path d="M18 18H17V19H18V18Z" fill="#E7EEFE"/>
<path d="M19 18H18V19H19V18Z" fill="white"/>
<path d="M20 18H19V19H20V18Z" fill="white"/>
<path d="M21 18H20V19H21V18Z" fill="white"/>
<path d="M22 18H21V19H22V18Z" fill="#45283C"/>
<path d="M23 18H22V19H23V18Z" fill="#45283C"/>
<path d="M24 18H23V19H24V18Z" fill="#45283C"/>
<path d="M25 18H24V19H25V18Z" fill="white"/>
<path d="M26 18H25V19H26V18Z" fill="white"/>
<path d="M27 18H26V19H27V18Z" fill="white"/>
<path d="M28 18H27V19H28V18Z" fill="white"/>
<path d="M29 18H28V19H29V18Z" fill="#45283C"/>
<path d="M30 18H29V19H30V18Z" fill="#45283C"/>
<path d="M31 18H30V19H31V18Z" fill="#45283C"/>
<path d="M32 18H31V19H32V18Z" fill="white"/>
<path d="M33 18H32V19H33V18Z" fill="white"/>
<path d="M34 18H33V19H34V18Z" fill="#E7EEFE"/>
<path d="M35 18H34V19H35V18Z" fill="#CBDBFC"/>
<path d="M16 19H15V20H16V19Z" fill="#CBDBFC"/>
<path d="M17 19H16V20H17V19Z" fill="#E7EEFE"/>
<path d="M18 19H17V20H18V19Z" fill="white"/>
<path d="M19 19H18V20H19V19Z" fill="white"/>
<path d="M20 19H19V20H20V19Z" fill="white"/>
<path d="M21 19H20V20H21V19Z" fill="white"/>
<path d="M22 19H21V20H22V19Z" fill="white"/>
<path d="M23 19H22V20H23V19Z" fill="white"/>
<path d="M24 19H23V20H24V19Z" fill="white"/>
<path d="M25 19H24V20H25V19Z" fill="white"/>
<path d="M26 19H25V20H26V19Z" fill="white"/>
<path d="M27 19H26V20H27V19Z" fill="white"/>
<path d="M28 19H27V20H28V19Z" fill="white"/>
<path d="M29 19H28V20H29V19Z" fill="white"/>
<path d="M30 19H29V20H30V19Z" fill="white"/>
<path d="M31 19H30V20H31V19Z" fill="white"/>
<path d="M32 19H31V20H32V19Z" fill="white"/>
<path d="M33 19H32V20H33V19Z" fill="white"/>
<path d="M34 19H33V20H34V19Z" fill="white"/>
<path d="M35 19H34V20H35V19Z" fill="#CBDBFC"/>
<path d="M16 20H15V21H16V20Z" fill="#CBDBFC"/>
<path d="M17 20H16V21H17V20Z" fill="#E7EEFE"/>
<path d="M18 20H17V21H18V20Z" fill="white"/>
<path d="M19 20H18V21H19V20Z" fill="#45283C"/>
<path d="M20 20H19V21H20V20Z" fill="white"/>
<path d="M21 20H20V21H21V20Z" fill="white"/>
<path d="M22 20H21V21H22V20Z" fill="white"/>
<path d="M23 20H22V21H23V20Z" fill="white"/>
<path d="M24 20H23V21H24V20Z" fill="white"/>
<path d="M25 20H24V21H25V20Z" fill="white"/>
<path d="M26 20H25V21H26V20Z" fill="white"/>
<path d="M27 20H26V21H27V20Z" fill="white"/>
<path d="M28 20H27V21H28V20Z" fill="white"/>
<path d="M29 20H28V21H29V20Z" fill="white"/>
<path d="M30 20H29V21H30V20Z" fill="white"/>
<path d="M31 20H30V21H31V20Z" fill="white"/>
<path d="M32 20H31V21H32V20Z" fill="white"/>
<path d="M33 20H32V21H33V20Z" fill="white"/>
<path d="M34 20H33V21H34V20Z" fill="white"/>
<path d="M35 20H34V21H35V20Z" fill="#45283C"/>
<path d="M36 20H35V21H36V20Z" fill="#CBDBFC"/>
<path d="M16 21H15V22H16V21Z" fill="#CBDBFC"/>
<path d="M17 21H16V22H17V21Z" fill="#E7EEFE"/>
<path d="M18 21H17V22H18V21Z" fill="white"/>
<path d="M19 21H18V22H19V21Z" fill="white"/>
<path d="M20 21H19V22H20V21Z" fill="#45283C"/>
<path d="M21 21H20V22H21V21Z" fill="#45283C"/>
<path d="M22 21H21V22H22V21Z" fill="#45283C"/>
<path d="M23 21H22V22H23V21Z" fill="white"/>
<path d="M24 21H23V22H24V21Z" fill="white"/>
<path d="M25 21H24V22H25V21Z" fill="white"/>
<path d="M26 21H25V22H26V21Z" fill="#D77BBA"/>
<path d="M27 21H26V22H27V21Z" fill="#D77BBA"/>
<path d="M28 21H27V22H28V21Z" fill="#D77BBA"/>
<path d="M29 21H28V22H29V21Z" fill="white"/>
<path d="M30 21H29V22H30V21Z" fill="white"/>
<path d="M31 21H30V22H31V21Z" fill="white"/>
<path d="M32 21H31V22H32V21Z" fill="#45283C"/>
<path d="M33 21H32V22H33V21Z" fill="#45283C"/>
<path d="M34 21H33V22H34V21Z" fill="#45283C"/>
<path d="M35 21H34V22H35V21Z" fill="white"/>
<path d="M36 21H35V22H36V21Z" fill="#E7EEFE"/>
<path d="M37 21H36V22H37V21Z" fill="#CBDBFC"/>
<path d="M16 22H15V23H16V22Z" fill="#CBDBFC"/>
<path d="M17 22H16V23H17V22Z" fill="#E7EEFE"/>
<path d="M18 22H17V23H18V22Z" fill="white"/>
<path d="M19 22H18V23H19V22Z" fill="white"/>
<path d="M20 22H19V23H20V22Z" fill="white"/>
<path d="M21 22H20V23H21V22Z" fill="white"/>
<path d="M22 22H21V23H22V22Z" fill="white"/>
<path d="M23 22H22V23H23V22Z" fill="#45283C"/>
<path d="M24 22H23V23H24V22Z" fill="white"/>
<path d="M25 22H24V23H25V22Z" fill="white"/>
<path d="M26 22H25V23H26V22Z" fill="white"/>
<path d="M27 22H26V23H27V22Z" fill="#D77BBA"/>
<path d="M28 22H27V23H28V22Z" fill="white"/>
<path d="M29 22H28V23H29V22Z" fill="white"/>
<path d="M30 22H29V23H30V22Z" fill="white"/>
<path d="M31 22H30V23H31V22Z" fill="#45283C"/>
<path d="M32 22H31V23H32V22Z" fill="white"/>
<path d="M33 22H32V23H33V22Z" fill="white"/>
<path d="M34 22H33V23H34V22Z" fill="white"/>
<path d="M35 22H34V23H35V22Z" fill="white"/>
<path d="M36 22H35V23H36V22Z" fill="#E7EEFE"/>
<path d="M37 22H36V23H37V22Z" fill="#CBDBFC"/>
<path d="M17 23H16V24H17V23Z" fill="#CBDBFC"/>
<path d="M18 23H17V24H18V23Z" fill="#E7EEFE"/>
<path d="M19 23H18V24H19V23Z" fill="white"/>
<path d="M20 23H19V24H20V23Z" fill="#45283C"/>
<path d="M21 23H20V24H21V23Z" fill="#45283C"/>
<path d="M22 23H21V24H22V23Z" fill="#45283C"/>
<path d="M23 23H22V24H23V23Z" fill="white"/>
<path d="M24 23H23V24H24V23Z" fill="white"/>
<path d="M25 23H24V24H25V23Z" fill="white"/>
<path d="M26 23H25V24H26V23Z" fill="white"/>
<path d="M27 23H26V24H27V23Z" fill="white"/>
<path d="M28 23H27V24H28V23Z" fill="white"/>
<path d="M29 23H28V24H29V23Z" fill="white"/>
<path d="M30 23H29V24H30V23Z" fill="white"/>
<path d="M31 23H30V24H31V23Z" fill="white"/>
<path d="M32 23H31V24H32V23Z" fill="#45283C"/>
<path d="M33 23H32V24H33V23Z" fill="#45283C"/>
<path d="M34 23H33V24H34V23Z" fill="#45283C"/>
<path d="M35 23H34V24H35V23Z" fill="white"/>
<path d="M36 23H35V24H36V23Z" fill="#E7EEFE"/>
<path d="M37 23H36V24H37V23Z" fill="#CBDBFC"/>
<path d="M17 24H16V25H17V24Z" fill="#CBDBFC"/>
<path d="M18 24H17V25H18V24Z" fill="#E7EEFE"/>
<path d="M19 24H18V25H19V24Z" fill="#45283C"/>
<path d="M20 24H19V25H20V24Z" fill="white"/>
<path d="M21 24H20V25H21V24Z" fill="white"/>
<path d="M22 24H21V25H22V24Z" fill="white"/>
<path d="M23 24H22V25H23V24Z" fill="white"/>
<path d="M24 24H23V25H24V24Z" fill="white"/>
<path d="M25 24H24V25H25V24Z" fill="white"/>
<path d="M26 24H25V25H26V24Z" fill="white"/>
<path d="M27 24H26V25H27V24Z" fill="#45283C"/>
<path d="M28 24H27V25H28V24Z" fill="#45283C"/>
<path d="M29 24H28V25H29V24Z" fill="white"/>
<path d="M30 24H29V25H30V24Z" fill="white"/>
<path d="M31 24H30V25H31V24Z" fill="white"/>
<path d="M32 24H31V25H32V24Z" fill="white"/>
<path d="M33 24H32V25H33V24Z" fill="white"/>
<path d="M34 24H33V25H34V24Z" fill="white"/>
<path d="M35 24H34V25H35V24Z" fill="#45283C"/>
<path d="M36 24H35V25H36V24Z" fill="#E7EEFE"/>
<path d="M37 24H36V25H37V24Z" fill="#CBDBFC"/>
<path d="M18 25H17V26H18V25Z" fill="#CBDBFC"/>
<path d="M19 25H18V26H19V25Z" fill="#E7EEFE"/>
<path d="M20 25H19V26H20V25Z" fill="white"/>
<path d="M21 25H20V26H21V25Z" fill="white"/>
<path d="M22 25H21V26H22V25Z" fill="white"/>
<path d="M23 25H22V26H23V25Z" fill="white"/>
<path d="M24 25H23V26H24V25Z" fill="white"/>
<path d="M25 25H24V26H25V25Z" fill="white"/>
<path d="M26 25H25V26H26V25Z" fill="#45283C"/>
<path d="M27 25H26V26H27V25Z" fill="white"/>
<path d="M28 25H27V26H28V25Z" fill="white"/>
<path d="M29 25H28V26H29V25Z" fill="#45283C"/>
<path d="M30 25H29V26H30V25Z" fill="white"/>
<path d="M31 25H30V26H31V25Z" fill="white"/>
<path d="M32 25H31V26H32V25Z" fill="white"/>
<path d="M33 25H32V26H33V25Z" fill="white"/>
<path d="M34 25H33V26H34V25Z" fill="white"/>
<path d="M35 25H34V26H35V25Z" fill="#E7EEFE"/>
<path d="M36 25H35V26H36V25Z" fill="#E7EEFE"/>
<path d="M37 25H36V26H37V25Z" fill="#CBDBFC"/>
<path d="M18 26H17V27H18V26Z" fill="#CBDBFC"/>
<path d="M19 26H18V27H19V26Z" fill="#E7EEFE"/>
<path d="M20 26H19V27H20V26Z" fill="#E7EEFE"/>
<path d="M21 26H20V27H21V26Z" fill="white"/>
<path d="M22 26H21V27H22V26Z" fill="white"/>
<path d="M23 26H22V27H23V26Z" fill="white"/>
<path d="M24 26H23V27H24V26Z" fill="white"/>
<path d="M25 26H24V27H25V26Z" fill="white"/>
<path d="M26 26H25V27H26V26Z" fill="white"/>
<path d="M27 26H26V27H27V26Z" fill="white"/>
<path d="M28 26H27V27H28V26Z" fill="white"/>
<path d="M29 26H28V27H29V26Z" fill="white"/>
<path d="M30 26H29V27H30V26Z" fill="white"/>
<path d="M31 26H30V27H31V26Z" fill="white"/>
<path d="M32 26H31V27H32V26Z" fill="white"/>
<path d="M33 26H32V27H33V26Z" fill="white"/>
<path d="M34 26H33V27H34V26Z" fill="#E7EEFE"/>
<path d="M35 26H34V27H35V26Z" fill="#E7EEFE"/>
<path d="M36 26H35V27H36V26Z" fill="#E7EEFE"/>
<path d="M37 26H36V27H37V26Z" fill="#CBDBFC"/>
<path d="M18 27H17V28H18V27Z" fill="#CBDBFC"/>
<path d="M19 27H18V28H19V27Z" fill="#CBDBFC"/>
<path d="M20 27H19V28H20V27Z" fill="#E7EEFE"/>
<path d="M21 27H20V28H21V27Z" fill="#E7EEFE"/>
<path d="M22 27H21V28H22V27Z" fill="white"/>
<path d="M23 27H22V28H23V27Z" fill="white"/>
<path d="M24 27H23V28H24V27Z" fill="white"/>
<path d="M25 27H24V28H25V27Z" fill="white"/>
<path d="M26 27H25V28H26V27Z" fill="white"/>
<path d="M27 27H26V28H27V27Z" fill="white"/>
<path d="M28 27H27V28H28V27Z" fill="white"/>
<path d="M29 27H28V28H29V27Z" fill="white"/>
<path d="M30 27H29V28H30V27Z" fill="white"/>
<path d="M31 27H30V28H31V27Z" fill="white"/>
<path d="M32 27H31V28H32V27Z" fill="white"/>
<path d="M33 27H32V28H33V27Z" fill="white"/>
<path d="M34 27H33V28H34V27Z" fill="#E7EEFE"/>
<path d="M35 27H34V28H35V27Z" fill="#CBDBFC"/>
<path d="M36 27H35V28H36V27Z" fill="#CBDBFC"/>
<path d="M37 27H36V28H37V27Z" fill="#CBDBFC"/>
<path d="M17 28H16V29H17V28Z" fill="#CBDBFC"/>
<path d="M18 28H17V29H18V28Z" fill="#CBDBFC"/>
<path d="M19 28H18V29H19V28Z" fill="#CBDBFC"/>
<path d="M20 28H19V29H20V28Z" fill="#CBDBFC"/>
<path d="M21 28H20V29H21V28Z" fill="#E7EEFE"/>
<path d="M22 28H21V29H22V28Z" fill="white"/>
<path d="M23 28H22V29H23V28Z" fill="white"/>
<path d="M24 28H23V29H24V28Z" fill="white"/>
<path d="M25 28H24V29H25V28Z" fill="white"/>
<path d="M26 28H25V29H26V28Z" fill="white"/>
<path d="M27 28H26V29H27V28Z" fill="white"/>
<path d="M28 28H27V29H28V28Z" fill="white"/>
<path d="M29 28H28V29H29V28Z" fill="white"/>
<path d="M30 28H29V29H30V28Z" fill="white"/>
<path d="M31 28H30V29H31V28Z" fill="white"/>
<path d="M32 28H31V29H32V28Z" fill="white"/>
<path d="M33 28H32V29H33V28Z" fill="#E7EEFE"/>
<path d="M34 28H33V29H34V28Z" fill="#CBDBFC"/>
<path d="M35 28H34V29H35V28Z" fill="#CBDBFC"/>
<path d="M36 28H35V29H36V28Z" fill="#CBDBFC"/>
<path d="M37 28H36V29H37V28Z" fill="#CBDBFC"/>
<path d="M38 28H37V29H38V28Z" fill="#CBDBFC"/>
<path d="M16 29H15V30H16V29Z" fill="#CBDBFC"/>
<path d="M17 29H16V30H17V29Z" fill="#CBDBFC"/>
<path d="M18 29H17V30H18V29Z" fill="#CBDBFC"/>
<path d="M19 29H18V30H19V29Z" fill="#CBDBFC"/>
<path d="M20 29H19V30H20V29Z" fill="#CBDBFC"/>
<path d="M21 29H20V30H21V29Z" fill="#E7EEFE"/>
<path d="M22 29H21V30H22V29Z" fill="#E7EEFE"/>
<path d="M23 29H22V30H23V29Z" fill="white"/>
<path d="M24 29H23V30H24V29Z" fill="white"/>
<path d="M25 29H24V30H25V29Z" fill="white"/>
<path d="M26 29H25V30H26V29Z" fill="white"/>
<path d="M27 29H26V30H27V29Z" fill="white"/>
<path d="M28 29H27V30H28V29Z" fill="white"/>
<path d="M29 29H28V30H29V29Z" fill="white"/>
<path d="M30 29H29V30H30V29Z" fill="white"/>
<path d="M31 29H30V30H31V29Z" fill="white"/>
<path d="M32 29H31V30H32V29Z" fill="#E7EEFE"/>
<path d="M33 29H32V30H33V29Z" fill="#CBDBFC"/>
<path d="M34 29H33V30H34V29Z" fill="#CBDBFC"/>
<path d="M35 29H34V30H35V29Z" fill="#CBDBFC"/>
<path d="M36 29H35V30H36V29Z" fill="#CBDBFC"/>
<path d="M37 29H36V30H37V29Z" fill="#CBDBFC"/>
<path d="M38 29H37V30H38V29Z" fill="#CBDBFC"/>
<path d="M16 30H15V31H16V30Z" fill="#CBDBFC"/>
<path d="M17 30H16V31H17V30Z" fill="#CBDBFC"/>
<path d="M18 30H17V31H18V30Z" fill="#CBDBFC"/>
<path d="M19 30H18V31H19V30Z" fill="#A5B4CC"/>
<path d="M20 30H19V31H20V30Z" fill="#CBDBFC"/>
<path d="M21 30H20V31H21V30Z" fill="#CBDBFC"/>
<path d="M22 30H21V31H22V30Z" fill="#CBDBFC"/>
<path d="M23 30H22V31H23V30Z" fill="#E7EEFE"/>
<path d="M24 30H23V31H24V30Z" fill="#E7EEFE"/>
<path d="M25 30H24V31H25V30Z" fill="white"/>
<path d="M26 30H25V31H26V30Z" fill="white"/>
<path d="M27 30H26V31H27V30Z" fill="white"/>
<path d="M28 30H27V31H28V30Z" fill="white"/>
<path d="M29 30H28V31H29V30Z" fill="white"/>
<path d="M30 30H29V31H30V30Z" fill="#E7EEFE"/>
<path d="M31 30H30V31H31V30Z" fill="#E7EEFE"/>
<path d="M32 30H31V31H32V30Z" fill="#CBDBFC"/>
<path d="M33 30H32V31H33V30Z" fill="#CBDBFC"/>
<path d="M34 30H33V31H34V30Z" fill="#CBDBFC"/>
<path d="M35 30H34V31H35V30Z" fill="#A5B4CC"/>
<path d="M36 30H35V31H36V30Z" fill="#CBDBFC"/>
<path d="M37 30H36V31H37V30Z" fill="#CBDBFC"/>
<path d="M38 30H37V31H38V30Z" fill="#CBDBFC"/>
<path d="M15 31H14V32H15V31Z" fill="#CBDBFC"/>
<path d="M16 31H15V32H16V31Z" fill="#CBDBFC"/>
<path d="M17 31H16V32H17V31Z" fill="#E7EEFE"/>
<path d="M18 31H17V32H18V31Z" fill="#CBDBFC"/>
<path d="M19 31H18V32H19V31Z" fill="#A5B4CC"/>
<path d="M20 31H19V32H20V31Z" fill="#CBDBFC"/>
<path d="M21 31H20V32H21V31Z" fill="#CBDBFC"/>
<path d="M22 31H21V32H22V31Z" fill="#CBDBFC"/>
<path d="M23 31H22V32H23V31Z" fill="#CBDBFC"/>
<path d="M24 31H23V32H24V31Z" fill="#CBDBFC"/>
<path d="M25 31H24V32H25V31Z" fill="#E7EEFE"/>
<path d="M26 31H25V32H26V31Z" fill="#E7EEFE"/>
<path d="M27 31H26V32H27V31Z" fill="#E7EEFE"/>
<path d="M28 31H27V32H28V31Z" fill="#E7EEFE"/>
<path d="M29 31H28V32H29V31Z" fill="#E7EEFE"/>
<path d="M30 31H29V32H30V31Z" fill="#CBDBFC"/>
<path d="M31 31H30V32H31V31Z" fill="#CBDBFC"/>
<path d="M32 31H31V32H32V31Z" fill="#CBDBFC"/>
<path d="M33 31H32V32H33V31Z" fill="#CBDBFC"/>
<path d="M34 31H33V32H34V31Z" fill="#CBDBFC"/>
<path d="M35 31H34V32H35V31Z" fill="#A5B4CC"/>
<path d="M36 31H35V32H36V31Z" fill="#CBDBFC"/>
<path d="M37 31H36V32H37V31Z" fill="#CBDBFC"/>
<path d="M38 31H37V32H38V31Z" fill="#CBDBFC"/>
<path d="M39 31H38V32H39V31Z" fill="#CBDBFC"/>
<path d="M15 32H14V33H15V32Z" fill="#CBDBFC"/>
<path d="M16 32H15V33H16V32Z" fill="#CBDBFC"/>
<path d="M17 32H16V33H17V32Z" fill="#E7EEFE"/>
<path d="M18 32H17V33H18V32Z" fill="#CBDBFC"/>
<path d="M19 32H18V33H19V32Z" fill="#A5B4CC"/>
<path d="M20 32H19V33H20V32Z" fill="#A5B4CC"/>
<path d="M21 32H20V33H21V32Z" fill="#CBDBFC"/>
<path d="M22 32H21V33H22V32Z" fill="#CBDBFC"/>
<path d="M23 32H22V33H23V32Z" fill="#CBDBFC"/>
<path d="M24 32H23V33H24V32Z" fill="#CBDBFC"/>
<path d="M25 32H24V33H25V32Z" fill="#CBDBFC"/>
<path d="M26 32H25V33H26V32Z" fill="#CBDBFC"/>
<path d="M27 32H26V33H27V32Z" fill="#CBDBFC"/>
<path d="M28 32H27V33H28V32Z" fill="#CBDBFC"/>
<path d="M29 32H28V33H29V32Z" fill="#CBDBFC"/>
<path d="M30 32H29V33H30V32Z" fill="#CBDBFC"/>
<path d="M31 32H30V33H31V32Z" fill="#CBDBFC"/>
<path d="M32 32H31V33H32V32Z" fill="#CBDBFC"/>
<path d="M33 32H32V33H33V32Z" fill="#A5B4CC"/>
<path d="M34 32H33V33H34V32Z" fill="#A5B4CC"/>
<path d="M35 32H34V33H35V32Z" fill="#A5B4CC"/>
<path d="M36 32H35V33H36V32Z" fill="#CBDBFC"/>
<path d="M37 32H36V33H37V32Z" fill="#CBDBFC"/>
<path d="M38 32H37V33H38V32Z" fill="#E7EEFE"/>
<path d="M39 32H38V33H39V32Z" fill="#CBDBFC"/>
<path d="M15 33H14V34H15V33Z" fill="#CBDBFC"/>
<path d="M16 33H15V34H16V33Z" fill="#E7EEFE"/>
<path d="M17 33H16V34H17V33Z" fill="#E7EEFE"/>
<path d="M18 33H17V34H18V33Z" fill="#CBDBFC"/>
<path d="M19 33H18V34H19V33Z" fill="#A5B4CC"/>
<path d="M20 33H19V34H20V33Z" fill="#A5B4CC"/>
<path d="M21 33H20V34H21V33Z" fill="#A5B4CC"/>
<path d="M22 33H21V34H22V33Z" fill="#A5B4CC"/>
<path d="M23 33H22V34H23V33Z" fill="#CBDBFC"/>
<path d="M24 33H23V34H24V33Z" fill="#CBDBFC"/>
<path d="M25 33H24V34H25V33Z" fill="#CBDBFC"/>
<path d="M26 33H25V34H26V33Z" fill="#CBDBFC"/>
<path d="M27 33H26V34H27V33Z" fill="#CBDBFC"/>
<path d="M28 33H27V34H28V33Z" fill="#CBDBFC"/>
<path d="M29 33H28V34H29V33Z" fill="#CBDBFC"/>
<path d="M30 33H29V34H30V33Z" fill="#CBDBFC"/>
<path d="M31 33H30V34H31V33Z" fill="#A5B4CC"/>
<path d="M32 33H31V34H32V33Z" fill="#A5B4CC"/>
<path d="M33 33H32V34H33V33Z" fill="#A5B4CC"/>
<path d="M34 33H33V34H34V33Z" fill="#A5B4CC"/>
<path d="M35 33H34V34H35V33Z" fill="#A5B4CC"/>
<path d="M36 33H35V34H36V33Z" fill="#CBDBFC"/>
<path d="M37 33H36V34H37V33Z" fill="#CBDBFC"/>
<path d="M38 33H37V34H38V33Z" fill="#E7EEFE"/>
<path d="M39 33H38V34H39V33Z" fill="#CBDBFC"/>
<path d="M15 34H14V35H15V34Z" fill="#CBDBFC"/>
<path d="M14 34H13V35H14V34Z" fill="#CBDBFC"/>
<path d="M16 34H15V35H16V34Z" fill="#E7EEFE"/>
<path d="M17 34H16V35H17V34Z" fill="white"/>
<path d="M18 34H17V35H18V34Z" fill="#CBDBFC"/>
<path d="M19 34H18V35H19V34Z" fill="#A5B4CC"/>
<path d="M20 34H19V35H20V34Z" fill="#A5B4CC"/>
<path d="M21 34H20V35H21V34Z" fill="#A5B4CC"/>
<path d="M22 34H21V35H22V34Z" fill="#A5B4CC"/>
<path d="M23 34H22V35H23V34Z" fill="#A5B4CC"/>
<path d="M24 34H23V35H24V34Z" fill="#A5B4CC"/>
<path d="M25 34H24V35H25V34Z" fill="#A5B4CC"/>
<path d="M26 34H25V35H26V34Z" fill="#A5B4CC"/>
<path d="M27 34H26V35H27V34Z" fill="#A5B4CC"/>
<path d="M28 34H27V35H28V34Z" fill="#A5B4CC"/>
<path d="M29 34H28V35H29V34Z" fill="#A5B4CC"/>
<path d="M30 34H29V35H30V34Z" fill="#A5B4CC"/>
<path d="M31 34H30V35H31V34Z" fill="#A5B4CC"/>
<path d="M32 34H31V35H32V34Z" fill="#A5B4CC"/>
<path d="M33 34H32V35H33V34Z" fill="#A5B4CC"/>
<path d="M34 34H33V35H34V34Z" fill="#A5B4CC"/>
<path d="M35 34H34V35H35V34Z" fill="#CBDBFC"/>
<path d="M36 34H35V35H36V34Z" fill="#CBDBFC"/>
<path d="M37 34H36V35H37V34Z" fill="#CBDBFC"/>
<path d="M38 34H37V35H38V34Z" fill="#E7EEFE"/>
<path d="M39 34H38V35H39V34Z" fill="#CBDBFC"/>
<path d="M40 34H39V35H40V34Z" fill="#CBDBFC"/>
<path d="M15 35H14V36H15V35Z" fill="#E7EEFE"/>
<path d="M14 35H13V36H14V35Z" fill="#CBDBFC"/>
<path d="M16 35H15V36H16V35Z" fill="#E7EEFE"/>
<path d="M17 35H16V36H17V35Z" fill="white"/>
<path d="M18 35H17V36H18V35Z" fill="#CBDBFC"/>
<path d="M19 35H18V36H19V35Z" fill="#A5B4CC"/>
<path d="M20 35H19V36H20V35Z" fill="#A5B4CC"/>
<path d="M21 35H20V36H21V35Z" fill="#A5B4CC"/>
<path d="M22 35H21V36H22V35Z" fill="#A5B4CC"/>
<path d="M23 35H22V36H23V35Z" fill="#A5B4CC"/>
<path d="M24 35H23V36H24V35Z" fill="#A5B4CC"/>
<path d="M25 35H24V36H25V35Z" fill="#A5B4CC"/>
<path d="M26 35H25V36H26V35Z" fill="#A5B4CC"/>
<path d="M27 35H26V36H27V35Z" fill="#A5B4CC"/>
<path d="M28 35H27V36H28V35Z" fill="#A5B4CC"/>
<path d="M29 35H28V36H29V35Z" fill="#A5B4CC"/>
<path d="M30 35H29V36H30V35Z" fill="#A5B4CC"/>
<path d="M31 35H30V36H31V35Z" fill="#A5B4CC"/>
<path d="M32 35H31V36H32V35Z" fill="#A5B4CC"/>
<path d="M33 35H32V36H33V35Z" fill="#A5B4CC"/>
<path d="M34 35H33V36H34V35Z" fill="#A5B4CC"/>
<path d="M35 35H34V36H35V35Z" fill="#CBDBFC"/>
<path d="M36 35H35V36H36V35Z" fill="#CBDBFC"/>
<path d="M37 35H36V36H37V35Z" fill="#E7EEFE"/>
<path d="M38 35H37V36H38V35Z" fill="#E7EEFE"/>
<path d="M39 35H38V36H39V35Z" fill="#E7EEFE"/>
<path d="M40 35H39V36H40V35Z" fill="#CBDBFC"/>
<path d="M15 36H14V37H15V36Z" fill="#E7EEFE"/>
<path d="M14 36H13V37H14V36Z" fill="#CBDBFC"/>
<path d="M16 36H15V37H16V36Z" fill="white"/>
<path d="M17 36H16V37H17V36Z" fill="white"/>
<path d="M18 36H17V37H18V36Z" fill="#CBDBFC"/>
<path d="M19 36H18V37H19V36Z" fill="#A5B4CC"/>
<path d="M20 36H19V37H20V36Z" fill="#A5B4CC"/>
<path d="M21 36H20V37H21V36Z" fill="#A5B4CC"/>
<path d="M22 36H21V37H22V36Z" fill="#A5B4CC"/>
<path d="M23 36H22V37H23V36Z" fill="#A5B4CC"/>
<path d="M24 36H23V37H24V36Z" fill="#A5B4CC"/>
<path d="M25 36H24V37H25V36Z" fill="#A5B4CC"/>
<path d="M26 36H25V37H26V36Z" fill="#A5B4CC"/>
<path d="M27 36H26V37H27V36Z" fill="#A5B4CC"/>
<path d="M28 36H27V37H28V36Z" fill="#A5B4CC"/>
<path d="M29 36H28V37H29V36Z" fill="#A5B4CC"/>
<path d="M30 36H29V37H30V36Z" fill="#A5B4CC"/>
<path d="M31 36H30V37H31V36Z" fill="#A5B4CC"/>
<path d="M32 36H31V37H32V36Z" fill="#A5B4CC"/>
<path d="M33 36H32V37H33V36Z" fill="#A5B4CC"/>
<path d="M34 36H33V37H34V36Z" fill="#A5B4CC"/>
<path d="M35 36H34V37H35V36Z" fill="#CBDBFC"/>
<path d="M36 36H35V37H36V36Z" fill="#E7EEFE"/>
<path d="M37 36H36V37H37V36Z" fill="white"/>
<path d="M38 36H37V37H38V36Z" fill="#E7EEFE"/>
<path d="M39 36H38V37H39V36Z" fill="#E7EEFE"/>
<path d="M40 36H39V37H40V36Z" fill="#CBDBFC"/>
<path d="M15 37H14V38H15V37Z" fill="#E7EEFE"/>
<path d="M14 37H13V38H14V37Z" fill="#CBDBFC"/>
<path d="M16 37H15V38H16V37Z" fill="white"/>
<path d="M17 37H16V38H17V37Z" fill="white"/>
<path d="M18 37H17V38H18V37Z" fill="#CBDBFC"/>
<path d="M19 37H18V38H19V37Z" fill="#CBDBFC"/>
<path d="M20 37H19V38H20V37Z" fill="#A5B4CC"/>
<path d="M21 37H20V38H21V37Z" fill="#A5B4CC"/>
<path d="M22 37H21V38H22V37Z" fill="#A5B4CC"/>
<path d="M23 37H22V38H23V37Z" fill="#A5B4CC"/>
<path d="M24 37H23V38H24V37Z" fill="#A5B4CC"/>
<path d="M25 37H24V38H25V37Z" fill="#A5B4CC"/>
<path d="M26 37H25V38H26V37Z" fill="#A5B4CC"/>
<path d="M27 37H26V38H27V37Z" fill="#A5B4CC"/>
<path d="M28 37H27V38H28V37Z" fill="#A5B4CC"/>
<path d="M29 37H28V38H29V37Z" fill="#A5B4CC"/>
<path d="M30 37H29V38H30V37Z" fill="#A5B4CC"/>
<path d="M31 37H30V38H31V37Z" fill="#A5B4CC"/>
<path d="M32 37H31V38H32V37Z" fill="#A5B4CC"/>
<path d="M33 37H32V38H33V37Z" fill="#A5B4CC"/>
<path d="M34 37H33V38H34V37Z" fill="#CBDBFC"/>
<path d="M35 37H34V38H35V37Z" fill="#CBDBFC"/>
<path d="M36 37H35V38H36V37Z" fill="white"/>
<path d="M37 37H36V38H37V37Z" fill="white"/>
<path d="M38 37H37V38H38V37Z" fill="#E7EEFE"/>
<path d="M39 37H38V38H39V37Z" fill="#E7EEFE"/>
<path d="M40 37H39V38H40V37Z" fill="#CBDBFC"/>
<path d="M15 38H14V39H15V38Z" fill="#E7EEFE"/>
<path d="M14 38H13V39H14V38Z" fill="#CBDBFC"/>
<path d="M16 38H15V39H16V38Z" fill="white"/>
<path d="M17 38H16V39H17V38Z" fill="white"/>
<path d="M18 38H17V39H18V38Z" fill="#E7EEFE"/>
<path d="M19 38H18V39H19V38Z" fill="#CBDBFC"/>
<path d="M20 38H19V39H20V38Z" fill="#CBDBFC"/>
<path d="M21 38H20V39H21V38Z" fill="#5D6673"/>
<path d="M22 38H21V39H22V38Z" fill="#A5B4CC"/>
<path d="M23 38H22V39H23V38Z" fill="#A5B4CC"/>
<path d="M24 38H23V39H24V38Z" fill="#A5B4CC"/>
<path d="M25 38H24V39H25V38Z" fill="#A5B4CC"/>
<path d="M26 38H25V39H26V38Z" fill="#A5B4CC"/>
<path d="M27 38H26V39H27V38Z" fill="#A5B4CC"/>
<path d="M28 38H27V39H28V38Z" fill="#A5B4CC"/>
<path d="M29 38H28V39H29V38Z" fill="#A5B4CC"/>
<path d="M30 38H29V39H30V38Z" fill="#A5B4CC"/>
<path d="M31 38H30V39H31V38Z" fill="#A5B4CC"/>
<path d="M32 38H31V39H32V38Z" fill="#5D6673"/>
<path d="M33 38H32V39H33V38Z" fill="#CBDBFC"/>
<path d="M34 38H33V39H34V38Z" fill="#CBDBFC"/>
<path d="M35 38H34V39H35V38Z" fill="white"/>
<path d="M36 38H35V39H36V38Z" fill="white"/>
<path d="M37 38H36V39H37V38Z" fill="white"/>
<path d="M38 38H37V39H38V38Z" fill="#E7EEFE"/>
<path d="M39 38H38V39H39V38Z" fill="#E7EEFE"/>
<path d="M40 38H39V39H40V38Z" fill="#CBDBFC"/>
<path d="M15 39H14V40H15V39Z" fill="#E7EEFE"/>
<path d="M14 39H13V40H14V39Z" fill="#CBDBFC"/>
<path d="M16 39H15V40H16V39Z" fill="white"/>
<path d="M17 39H16V40H17V39Z" fill="white"/>
<path d="M18 39H17V40H18V39Z" fill="white"/>
<path d="M19 39H18V40H19V39Z" fill="#E7EEFE"/>
<path d="M20 39H19V40H20V39Z" fill="#CBDBFC"/>
<path d="M21 39H20V40H21V39Z" fill="#A5B4CC"/>
<path d="M22 39H21V40H22V39Z" fill="#5D6673"/>
<path d="M23 39H22V40H23V39Z" fill="#5D6673"/>
<path d="M24 39H23V40H24V39Z" fill="#5D6673"/>
<path d="M25 39H24V40H25V39Z" fill="#A5B4CC"/>
<path d="M26 39H25V40H26V39Z" fill="#A5B4CC"/>
<path d="M27 39H26V40H27V39Z" fill="#A5B4CC"/>
<path d="M28 39H27V40H28V39Z" fill="#A5B4CC"/>
<path d="M29 39H28V40H29V39Z" fill="#A5B4CC"/>
<path d="M30 39H29V40H30V39Z" fill="#5D6673"/>
<path d="M31 39H30V40H31V39Z" fill="#5D6673"/>
<path d="M32 39H31V40H32V39Z" fill="#5D6673"/>
<path d="M33 39H32V40H33V39Z" fill="#CBDBFC"/>
<path d="M34 39H33V40H34V39Z" fill="white"/>
<path d="M35 39H34V40H35V39Z" fill="white"/>
<path d="M36 39H35V40H36V39Z" fill="white"/>
<path d="M37 39H36V40H37V39Z" fill="white"/>
<path d="M38 39H37V40H38V39Z" fill="#E7EEFE"/>
<path d="M39 39H38V40H39V39Z" fill="#CBDBFC"/>
<path d="M40 39H39V40H40V39Z" fill="#CBDBFC"/>
<path d="M15 40H14V41H15V40Z" fill="#E7EEFE"/>
<path d="M14 40H13V41H14V40Z" fill="#CBDBFC"/>
<path d="M16 40H15V41H16V40Z" fill="white"/>
<path d="M17 40H16V41H17V40Z" fill="white"/>
<path d="M18 40H17V41H18V40Z" fill="white"/>
<path d="M19 40H18V41H19V40Z" fill="white"/>
<path d="M20 40H19V41H20V40Z" fill="white"/>
<path d="M21 40H20V41H21V40Z" fill="white"/>
<path d="M22 40H21V41H22V40Z" fill="#A5B4CC"/>
<path d="M23 40H22V41H23V40Z" fill="#5D6673"/>
<path d="M24 40H23V41H24V40Z" fill="#5D6673"/>
<path d="M25 40H24V41H25V40Z" fill="#5D6673"/>
<path d="M26 40H25V41H26V40Z" fill="#A5B4CC"/>
<path d="M27 40H26V41H27V40Z" fill="#A5B4CC"/>
<path d="M28 40H27V41H28V40Z" fill="#A5B4CC"/>
<path d="M29 40H28V41H29V40Z" fill="#5D6673"/>
<path d="M30 40H29V41H30V40Z" fill="#5D6673"/>
<path d="M31 40H30V41H31V40Z" fill="#5D6673"/>
<path d="M32 40H31V41H32V40Z" fill="#5D6673"/>
<path d="M33 40H32V41H33V40Z" fill="white"/>
<path d="M34 40H33V41H34V40Z" fill="white"/>
<path d="M35 40H34V41H35V40Z" fill="white"/>
<path d="M36 40H35V41H36V40Z" fill="white"/>
<path d="M37 40H36V41H37V40Z" fill="#E7EEFE"/>
<path d="M38 40H37V41H38V40Z" fill="#E7EEFE"/>
<path d="M39 40H38V41H39V40Z" fill="#CBDBFC"/>
<path d="M40 40H39V41H40V40Z" fill="#A5B4CC"/>
<path d="M15 41H14V42H15V41Z" fill="#E7EEFE"/>
<path d="M14 41H13V42H14V41Z" fill="#CBDBFC"/>
<path d="M16 41H15V42H16V41Z" fill="#E7EEFE"/>
<path d="M17 41H16V42H17V41Z" fill="white"/>
<path d="M18 41H17V42H18V41Z" fill="white"/>
<path d="M19 41H18V42H19V41Z" fill="white"/>
<path d="M20 41H19V42H20V41Z" fill="white"/>
<path d="M21 41H20V42H21V41Z" fill="white"/>
<path d="M22 41H21V42H22V41Z" fill="white"/>
<path d="M23 41H22V42H23V41Z" fill="#5D6673"/>
<path d="M24 41H23V42H24V41Z" fill="#5D6673"/>
<path d="M25 41H24V42H25V41Z" fill="#5D6673"/>
<path d="M26 41H25V42H26V41Z" fill="#5D6673"/>
<path d="M27 41H26V42H27V41Z" fill="#5D6673"/>
<path d="M28 41H27V42H28V41Z" fill="#5D6673"/>
<path d="M29 41H28V42H29V41Z" fill="#5D6673"/>
<path d="M30 41H29V42H30V41Z" fill="#5D6673"/>
<path d="M31 41H30V42H31V41Z" fill="white"/>
<path d="M32 41H31V42H32V41Z" fill="white"/>
<path d="M33 41H32V42H33V41Z" fill="white"/>
<path d="M34 41H33V42H34V41Z" fill="white"/>
<path d="M35 41H34V42H35V41Z" fill="white"/>
<path d="M36 41H35V42H36V41Z" fill="white"/>
<path d="M37 41H36V42H37V41Z" fill="#E7EEFE"/>
<path d="M38 41H37V42H38V41Z" fill="#CBDBFC"/>
<path d="M39 41H38V42H39V41Z" fill="#CBDBFC"/>
<path d="M40 41H39V42H40V41Z" fill="#A5B4CC"/>
<path d="M15 42H14V43H15V42Z" fill="#CBDBFC"/>
<path d="M14 42H13V43H14V42Z" fill="#A5B4CC"/>
<path d="M16 42H15V43H16V42Z" fill="#E7EEFE"/>
<path d="M17 42H16V43H17V42Z" fill="#E7EEFE"/>
<path d="M18 42H17V43H18V42Z" fill="white"/>
<path d="M19 42H18V43H19V42Z" fill="white"/>
<path d="M20 42H19V43H20V42Z" fill="white"/>
<path d="M21 42H20V43H21V42Z" fill="white"/>
<path d="M22 42H21V43H22V42Z" fill="white"/>
<path d="M23 42H22V43H23V42Z" fill="#5D6673"/>
<path d="M24 42H23V43H24V42Z" fill="#5D6673"/>
<path d="M25 42H24V43H25V42Z" fill="#5D6673"/>
<path d="M26 42H25V43H26V42Z" fill="#5D6673"/>
<path d="M27 42H26V43H27V42Z" fill="#5D6673"/>
<path d="M28 42H27V43H28V42Z" fill="#5D6673"/>
<path d="M29 42H28V43H29V42Z" fill="#5D6673"/>
<path d="M30 42H29V43H30V42Z" fill="#5D6673"/>
<path d="M31 42H30V43H31V42Z" fill="white"/>
<path d="M32 42H31V43H32V42Z" fill="white"/>
<path d="M33 42H32V43H33V42Z" fill="white"/>
<path d="M34 42H33V43H34V42Z" fill="white"/>
<path d="M35 42H34V43H35V42Z" fill="white"/>
<path d="M36 42H35V43H36V42Z" fill="#E7EEFE"/>
<path d="M37 42H36V43H37V42Z" fill="#CBDBFC"/>
<path d="M38 42H37V43H38V42Z" fill="#CBDBFC"/>
<path d="M39 42H38V43H39V42Z" fill="#A5B4CC"/>
<path d="M40 42H39V43H40V42Z" fill="#A5B4CC"/>
<path d="M15 43H14V44H15V43Z" fill="#CBDBFC"/>
<path d="M14 43H13V44H14V43Z" fill="#A5B4CC"/>
<path d="M16 43H15V44H16V43Z" fill="#CBDBFC"/>
<path d="M17 43H16V44H17V43Z" fill="#E7EEFE"/>
<path d="M18 43H17V44H18V43Z" fill="white"/>
<path d="M19 43H18V44H19V43Z" fill="white"/>
<path d="M20 43H19V44H20V43Z" fill="white"/>
<path d="M21 43H20V44H21V43Z" fill="white"/>
<path d="M22 43H21V44H22V43Z" fill="white"/>
<path d="M23 43H22V44H23V43Z" fill="white"/>
<path d="M24 43H23V44H24V43Z" fill="white"/>
<path d="M25 43H24V44H25V43Z" fill="#5D6673"/>
<path d="M26 43H25V44H26V43Z" fill="#5D6673"/>
<path d="M27 43H26V44H27V43Z" fill="#5D6673"/>
<path d="M28 43H27V44H28V43Z" fill="white"/>
<path d="M29 43H28V44H29V43Z" fill="white"/>
<path d="M30 43H29V44H30V43Z" fill="white"/>
<path d="M31 43H30V44H31V43Z" fill="white"/>
<path d="M32 43H31V44H32V43Z" fill="white"/>
<path d="M33 43H32V44H33V43Z" fill="white"/>
<path d="M34 43H33V44H34V43Z" fill="white"/>
<path d="M35 43H34V44H35V43Z" fill="#E7EEFE"/>
<path d="M36 43H35V44H36V43Z" fill="#CBDBFC"/>
<path d="M37 43H36V44H37V43Z" fill="#CBDBFC"/>
<path d="M38 43H37V44H38V43Z" fill="#A5B4CC"/>
<path d="M39 43H38V44H39V43Z" fill="#A5B4CC"/>
<path d="M15 44H14V45H15V44Z" fill="#A5B4CC"/>
<path d="M14 44H13V45H14V44Z" fill="#A5B4CC"/>
<path d="M16 44H15V45H16V44Z" fill="#CBDBFC"/>
<path d="M17 44H16V45H17V44Z" fill="#CBDBFC"/>
<path d="M18 44H17V45H18V44Z" fill="#E7EEFE"/>
<path d="M19 44H18V45H19V44Z" fill="white"/>
<path d="M20 44H19V45H20V44Z" fill="white"/>
<path d="M21 44H20V45H21V44Z" fill="white"/>
<path d="M22 44H21V45H22V44Z" fill="white"/>
<path d="M23 44H22V45H23V44Z" fill="white"/>
<path d="M24 44H23V45H24V44Z" fill="white"/>
<path d="M25 44H24V45H25V44Z" fill="#5D6673"/>
<path d="M26 44H25V45H26V44Z" fill="#5D6673"/>
<path d="M27 44H26V45H27V44Z" fill="white"/>
<path d="M28 44H27V45H28V44Z" fill="white"/>
<path d="M29 44H28V45H29V44Z" fill="white"/>
<path d="M30 44H29V45H30V44Z" fill="white"/>
<path d="M31 44H30V45H31V44Z" fill="white"/>
<path d="M32 44H31V45H32V44Z" fill="white"/>
<path d="M33 44H32V45H33V44Z" fill="white"/>
<path d="M34 44H33V45H34V44Z" fill="white"/>
<path d="M35 44H34V45H35V44Z" fill="#CBDBFC"/>
<path d="M36 44H35V45H36V44Z" fill="#A5B4CC"/>
<path d="M37 44H36V45H37V44Z" fill="#A5B4CC"/>
<path d="M38 44H37V45H38V44Z" fill="#A5B4CC"/>
<path d="M39 44H38V45H39V44Z" fill="#5D6673"/>
<path d="M15 45H14V46H15V45Z" fill="#A5B4CC"/>
<path d="M16 45H15V46H16V45Z" fill="#A5B4CC"/>
<path d="M17 45H16V46H17V45Z" fill="#CBDBFC"/>
<path d="M18 45H17V46H18V45Z" fill="#CBDBFC"/>
<path d="M19 45H18V46H19V45Z" fill="#E7EEFE"/>
<path d="M20 45H19V46H20V45Z" fill="white"/>
<path d="M21 45H20V46H21V45Z" fill="white"/>
<path d="M22 45H21V46H22V45Z" fill="white"/>
<path d="M23 45H22V46H23V45Z" fill="white"/>
<path d="M24 45H23V46H24V45Z" fill="white"/>
<path d="M25 45H24V46H25V45Z" fill="white"/>
<path d="M26 45H25V46H26V45Z" fill="#5D6673"/>
<path d="M27 45H26V46H27V45Z" fill="white"/>
<path d="M28 45H27V46H28V45Z" fill="white"/>
<path d="M29 45H28V46H29V45Z" fill="white"/>
<path d="M30 45H29V46H30V45Z" fill="white"/>
<path d="M31 45H30V46H31V45Z" fill="white"/>
<path d="M32 45H31V46H32V45Z" fill="white"/>
<path d="M33 45H32V46H33V45Z" fill="white"/>
<path d="M34 45H33V46H34V45Z" fill="#E7EEFE"/>
<path d="M35 45H34V46H35V45Z" fill="#A5B4CC"/>
<path d="M36 45H35V46H36V45Z" fill="#A5B4CC"/>
<path d="M37 45H36V46H37V45Z" fill="#A5B4CC"/>
<path d="M38 45H37V46H38V45Z" fill="#5D6673"/>
<path d="M39 45H38V46H39V45Z" fill="#5D6673"/>
<path d="M15 46H14V47H15V46Z" fill="#5D6673"/>
<path d="M16 46H15V47H16V46Z" fill="#A5B4CC"/>
<path d="M17 46H16V47H17V46Z" fill="#A5B4CC"/>
<path d="M18 46H17V47H18V46Z" fill="#CBDBFC"/>
<path d="M19 46H18V47H19V46Z" fill="#CBDBFC"/>
<path d="M20 46H19V47H20V46Z" fill="#E7EEFE"/>
<path d="M21 46H20V47H21V46Z" fill="white"/>
<path d="M22 46H21V47H22V46Z" fill="white"/>
<path d="M23 46H22V47H23V46Z" fill="white"/>
<path d="M24 46H23V47H24V46Z" fill="white"/>
<path d="M25 46H24V47H25V46Z" fill="white"/>
<path d="M26 46H25V47H26V46Z" fill="#5D6673"/>
<path d="M27 46H26V47H27V46Z" fill="white"/>
<path d="M28 46H27V47H28V46Z" fill="white"/>
<path d="M29 46H28V47H29V46Z" fill="white"/>
<path d="M30 46H29V47H30V46Z" fill="white"/>
<path d="M31 46H30V47H31V46Z" fill="white"/>
<path d="M32 46H31V47H32V46Z" fill="white"/>
<path d="M33 46H32V47H33V46Z" fill="#E7EEFE"/>
<path d="M34 46H33V47H34V46Z" fill="#CBDBFC"/>
<path d="M35 46H34V47H35V46Z" fill="#A5B4CC"/>
<path d="M36 46H35V47H36V46Z" fill="#A5B4CC"/>
<path d="M37 46H36V47H37V46Z" fill="#5D6673"/>
<path d="M38 46H37V47H38V46Z" fill="#5D6673"/>
<path d="M39 46H38V47H39V46Z" fill="#5D6673"/>
<path d="M15 47H14V48H15V47Z" fill="#5D6673"/>
<path d="M16 47H15V48H16V47Z" fill="#5D6673"/>
<path d="M17 47H16V48H17V47Z" fill="#A5B4CC"/>
<path d="M18 47H17V48H18V47Z" fill="#A5B4CC"/>
<path d="M19 47H18V48H19V47Z" fill="#CBDBFC"/>
<path d="M20 47H19V48H20V47Z" fill="#CBDBFC"/>
<path d="M21 47H20V48H21V47Z" fill="#CBDBFC"/>
<path d="M22 47H21V48H22V47Z" fill="#E7EEFE"/>
<path d="M23 47H22V48H23V47Z" fill="#E7EEFE"/>
<path d="M24 47H23V48H24V47Z" fill="white"/>
<path d="M25 47H24V48H25V47Z" fill="white"/>
<path d="M26 47H25V48H26V47Z" fill="#5D6673"/>
<path d="M27 47H26V48H27V47Z" fill="white"/>
<path d="M28 47H27V48H28V47Z" fill="white"/>
<path d="M29 47H28V48H29V47Z" fill="#E7EEFE"/>
<path d="M30 47H29V48H30V47Z" fill="#E7EEFE"/>
<path d="M31 47H30V48H31V47Z" fill="#E7EEFE"/>
<path d="M32 47H31V48H32V47Z" fill="#E7EEFE"/>
<path d="M33 47H32V48H33V47Z" fill="#CBDBFC"/>
<path d="M34 47H33V48H34V47Z" fill="#A5B4CC"/>
<path d="M35 47H34V48H35V47Z" fill="#A5B4CC"/>
<path d="M36 47H35V48H36V47Z" fill="#5D6673"/>
<path d="M37 47H36V48H37V47Z" fill="#5D6673"/>
<path d="M38 47H37V48H38V47Z" fill="#5D6673"/>
<path d="M39 47H38V48H39V47Z" fill="#5D6673"/>
<path d="M15 48H14V49H15V48Z" fill="#5D6673"/>
<path d="M16 48H15V49H16V48Z" fill="#5D6673"/>
<path d="M17 48H16V49H17V48Z" fill="#5D6673"/>
<path d="M18 48H17V49H18V48Z" fill="#A5B4CC"/>
<path d="M19 48H18V49H19V48Z" fill="#A5B4CC"/>
<path d="M20 48H19V49H20V48Z" fill="#CBDBFC"/>
<path d="M21 48H20V49H21V48Z" fill="#CBDBFC"/>
<path d="M22 48H21V49H22V48Z" fill="#CBDBFC"/>
<path d="M23 48H22V49H23V48Z" fill="#CBDBFC"/>
<path d="M24 48H23V49H24V48Z" fill="#CBDBFC"/>
<path d="M25 48H24V49H25V48Z" fill="#CBDBFC"/>
<path d="M26 48H25V49H26V48Z" fill="#5D6673"/>
<path d="M27 48H26V49H27V48Z" fill="#CBDBFC"/>
<path d="M28 48H27V49H28V48Z" fill="#CBDBFC"/>
<path d="M29 48H28V49H29V48Z" fill="#CBDBFC"/>
<path d="M30 48H29V49H30V48Z" fill="#CBDBFC"/>
<path d="M31 48H30V49H31V48Z" fill="#CBDBFC"/>
<path d="M32 48H31V49H32V48Z" fill="#CBDBFC"/>
<path d="M33 48H32V49H33V48Z" fill="#A5B4CC"/>
<path d="M34 48H33V49H34V48Z" fill="#A5B4CC"/>
<path d="M35 48H34V49H35V48Z" fill="#5D6673"/>
<path d="M36 48H35V49H36V48Z" fill="#5D6673"/>
<path d="M37 48H36V49H37V48Z" fill="#5D6673"/>
<path d="M38 48H37V49H38V48Z" fill="#5D6673"/>
<path d="M16 49H15V50H16V49Z" fill="#5D6673"/>
<path d="M17 49H16V50H17V49Z" fill="#5D6673"/>
<path d="M18 49H17V50H18V49Z" fill="#5D6673"/>
<path d="M19 49H18V50H19V49Z" fill="#5D6673"/>
<path d="M20 49H19V50H20V49Z" fill="#5D6673"/>
<path d="M21 49H20V50H21V49Z" fill="#5D6673"/>
<path d="M22 49H21V50H22V49Z" fill="#5D6673"/>
<path d="M23 49H22V50H23V49Z" fill="#5D6673"/>
<path d="M24 49H23V50H24V49Z" fill="#5D6673"/>
<path d="M25 49H24V50H25V49Z" fill="#5D6673"/>
<path d="M26 49H25V50H26V49Z" fill="#5D6673"/>
<path d="M27 49H26V50H27V49Z" fill="#5D6673"/>
<path d="M28 49H27V50H28V49Z" fill="#5D6673"/>
<path d="M29 49H28V50H29V49Z" fill="#5D6673"/>
<path d="M30 49H29V50H30V49Z" fill="#5D6673"/>
<path d="M31 49H30V50H31V49Z" fill="#5D6673"/>
<path d="M32 49H31V50H32V49Z" fill="#5D6673"/>
<path d="M33 49H32V50H33V49Z" fill="#5D6673"/>
<path d="M34 49H33V50H34V49Z" fill="#5D6673"/>
<path d="M35 49H34V50H35V49Z" fill="#5D6673"/>
<path d="M36 49H35V50H36V49Z" fill="#5D6673"/>
<path d="M37 49H36V50H37V49Z" fill="#5D6673"/>
</svg>
