<svg width="220" height="301" viewBox="0 0 220 301" fill="none" xmlns="http://www.w3.org/2000/svg">
<g clip-path="url(#clip0_1271_230871)">
<path d="M219.214 190.518C219.214 251.052 170.141 300.125 109.607 300.125C49.0727 300.125 0 251.052 0 190.518C0 121.128 49.0727 0 109.607 0C170.141 0 219.214 116.93 219.214 190.518Z" fill="url(#paint0_linear_1271_230871)" fill-opacity="0.2"/>
<path d="M218.613 175.8C218.876 179.141 219.053 182.422 219.144 185.631L216.645 185.702C216.691 187.328 216.714 188.934 216.714 190.518C216.714 192.086 216.68 193.646 216.614 195.197L219.111 195.304C218.973 198.518 218.697 201.697 218.288 204.834L215.809 204.511C215.403 207.622 214.863 210.692 214.196 213.713L216.637 214.252C215.946 217.383 215.121 220.464 214.169 223.488L211.784 222.737C210.844 225.722 209.776 228.651 208.588 231.517L210.897 232.474C209.671 235.43 208.32 238.321 206.85 241.139L204.633 239.983C203.188 242.752 201.626 245.451 199.953 248.071L202.061 249.417C200.342 252.109 198.509 254.72 196.569 257.245L194.587 255.722C192.686 258.195 190.681 260.582 188.576 262.878L190.419 264.568C188.263 266.918 186.007 269.175 183.656 271.33L181.967 269.487C179.671 271.592 177.284 273.598 174.811 275.498L176.334 277.48C173.809 279.421 171.197 281.253 168.505 282.972L167.16 280.865C164.539 282.538 161.841 284.1 159.072 285.544L160.228 287.761C157.41 289.231 154.519 290.582 151.563 291.808L150.606 289.499C147.739 290.687 144.811 291.755 141.825 292.695L142.576 295.08C139.552 296.032 136.472 296.857 133.341 297.549L132.802 295.107C129.78 295.774 126.711 296.314 123.599 296.72L123.923 299.199C120.786 299.608 117.607 299.884 114.393 300.022L114.285 297.525C112.734 297.591 111.175 297.625 109.607 297.625C108.039 297.625 106.48 297.591 104.928 297.525L104.821 300.022C101.607 299.884 98.4282 299.608 95.2913 299.199L95.6146 296.72C92.503 296.314 89.4336 295.774 86.4123 295.107L85.8734 297.549C82.7424 296.857 79.6616 296.032 76.6375 295.08L77.3886 292.695C74.4034 291.755 71.4745 290.687 68.6084 289.499L67.6508 291.808C64.6949 290.582 61.8044 289.231 58.9857 287.761L60.1419 285.544C57.3728 284.1 54.6745 282.538 52.0537 280.865L50.7085 282.972C48.0167 281.253 45.4049 279.421 42.88 277.48L44.4033 275.498C41.9304 273.598 39.5427 271.592 37.247 269.487L35.5576 271.33C33.2069 269.175 30.9505 266.918 28.7954 264.568L30.6381 262.878C28.5334 260.582 26.5275 258.195 24.6272 255.722L22.6449 257.245C20.7046 254.72 18.8718 252.108 17.1534 249.417L19.2606 248.071C17.5875 245.451 16.0255 242.752 14.581 239.983L12.3644 241.139C10.8941 238.321 9.5428 235.43 8.31707 232.474L10.6263 231.517C9.43784 228.651 8.37022 225.722 7.42984 222.737L5.04535 223.488C4.09272 220.464 3.26766 217.383 2.57648 214.252L5.01771 213.713C4.35075 210.692 3.81135 207.622 3.40546 204.511L0.92646 204.834C0.51728 201.697 0.240734 198.518 0.102634 195.304L2.60033 195.197C2.5337 193.646 2.50003 192.086 2.50003 190.518C2.50003 188.947 2.52561 187.348 2.57642 185.722L0.0776367 185.644C0.176939 182.467 0.370971 179.195 0.656456 175.845L3.14743 176.057C3.41494 172.918 3.76401 169.706 4.19213 166.433L1.71325 166.109C2.12999 162.924 2.6205 159.684 3.18227 156.403L5.64642 156.824C6.1854 153.676 6.79084 150.486 7.46058 147.267L5.01297 146.758C5.67051 143.597 6.38924 140.408 7.16706 137.201L9.59662 137.79C10.3543 134.666 11.1686 131.524 12.0377 128.374L9.62769 127.709C10.4919 124.576 11.4098 121.434 12.3793 118.294L14.7681 119.031C15.7217 115.941 16.7257 112.853 17.7782 109.773L15.4125 108.964C16.4682 105.875 17.5724 102.795 18.7232 99.7325L21.0634 100.612C22.2053 97.573 23.3932 94.5519 24.6253 91.5568L22.3134 90.6057C23.561 87.573 24.8538 84.5665 26.1899 81.5946L28.4701 82.6197C29.8063 79.6477 31.1857 76.7116 32.6065 73.8198L30.3627 72.7174C31.8146 69.7625 33.3096 66.8527 34.8459 63.997L37.0476 65.1815C38.5944 62.3062 40.1828 59.4879 41.8103 56.7359L39.6585 55.4633C41.3442 52.6129 43.0726 49.8313 44.8413 47.1287L46.9332 48.4977C48.7294 45.7532 50.566 43.0938 52.4405 40.5303L50.4225 39.0547C52.3847 36.3713 54.3897 33.7888 56.4349 31.3194L58.3603 32.914C60.4533 30.387 62.5855 27.9848 64.7536 25.7201L62.9477 23.9913C65.2645 21.5713 67.6257 19.3009 70.0279 17.1959L71.6756 19.0762C74.1326 16.9231 76.6257 14.9543 79.1507 13.1852L77.7161 11.1377C80.4659 9.21104 83.2614 7.50739 86.098 6.04828L87.2415 8.2714C90.098 6.80206 92.9845 5.59751 95.8961 4.67618L95.1418 2.29266C98.2909 1.29617 101.482 0.610835 104.71 0.263722L104.977 2.74939C106.513 2.58419 108.056 2.50009 109.607 2.50009C111.164 2.50009 112.714 2.58181 114.256 2.74241L114.515 0.255859C117.754 0.593174 120.957 1.25988 124.117 2.2306L123.383 4.6204C126.316 5.52127 129.222 6.70031 132.097 8.13988L133.216 5.90452C136.079 7.33817 138.9 9.01443 141.674 10.9128L140.262 12.976C142.814 14.7217 145.332 16.6667 147.813 18.796L149.441 16.8989C151.872 18.9859 154.262 21.2396 156.605 23.6445L154.814 25.3892C157.005 27.6368 159.158 30.0232 161.27 32.5362L163.184 30.9274C165.253 33.3883 167.28 35.9646 169.263 38.6443L167.254 40.1314C169.147 42.6897 171.001 45.3461 172.813 48.0904L174.9 46.7127C176.68 49.4085 178.419 52.1855 180.114 55.0339L177.965 56.3124C179.603 59.0646 181.201 61.8858 182.755 64.7669L184.956 63.5796C186.498 66.4387 187.999 69.3546 189.455 72.3187L187.211 73.4209C188.633 76.3167 190.013 79.2597 191.348 82.2418L193.63 81.2201C194.964 84.1979 196.253 87.2135 197.496 90.2587L195.181 91.2035C196.406 94.2036 197.585 97.2331 198.718 100.284L201.062 99.4141C202.202 102.484 203.294 105.576 204.337 108.68L201.968 109.477C203.005 112.563 203.993 115.663 204.93 118.768L207.324 118.045C208.274 121.193 209.172 124.346 210.017 127.496L207.602 128.144C208.448 131.299 209.24 134.452 209.975 137.593L212.41 137.023C213.163 140.239 213.857 143.445 214.491 146.63L212.039 147.118C212.681 150.34 213.259 153.54 213.773 156.71L216.241 156.31C216.773 159.588 217.236 162.835 217.628 166.04L215.147 166.344C215.547 169.611 215.872 172.832 216.121 175.996L218.613 175.8Z" stroke="white" stroke-opacity="0.1" stroke-width="5" stroke-dasharray="10 10"/>
</g>
<defs>
<linearGradient id="paint0_linear_1271_230871" x1="109.607" y1="0" x2="109.607" y2="300.125" gradientUnits="userSpaceOnUse">
<stop stop-color="white" stop-opacity="0.2"/>
<stop offset="1" stop-color="white" stop-opacity="0.4"/>
</linearGradient>
<clipPath id="clip0_1271_230871">
<rect width="220" height="301" fill="white"/>
</clipPath>
</defs>
</svg>
