<svg width="50" height="50" viewBox="0 0 50 50" fill="none" xmlns="http://www.w3.org/2000/svg">
<path d="M15 16H14V17H15V16Z" fill="#967699"/>
<path d="M16 16H15V17H16V16Z" fill="#967699"/>
<path d="M17 16H16V17H17V16Z" fill="#967699"/>
<path d="M18 16H17V17H18V16Z" fill="#967699"/>
<path d="M19 16H18V17H19V16Z" fill="#967699"/>
<path d="M20 16H19V17H20V16Z" fill="#967699"/>
<path d="M21 16H20V17H21V16Z" fill="#967699"/>
<path d="M22 16H21V17H22V16Z" fill="#967699"/>
<path d="M23 16H22V17H23V16Z" fill="#967699"/>
<path d="M24 16H23V17H24V16Z" fill="#967699"/>
<path d="M25 16H24V17H25V16Z" fill="#967699"/>
<path d="M26 16H25V17H26V16Z" fill="#967699"/>
<path d="M27 16H26V17H27V16Z" fill="#967699"/>
<path d="M28 16H27V17H28V16Z" fill="#967699"/>
<path d="M29 16H28V17H29V16Z" fill="#967699"/>
<path d="M30 16H29V17H30V16Z" fill="#967699"/>
<path d="M31 16H30V17H31V16Z" fill="#967699"/>
<path d="M32 16H31V17H32V16Z" fill="#967699"/>
<path d="M10 17H9V18H10V17Z" fill="#967699"/>
<path d="M11 17H10V18H11V17Z" fill="#967699"/>
<path d="M12 17H11V18H12V17Z" fill="#967699"/>
<path d="M13 17H12V18H13V17Z" fill="#967699"/>
<path d="M14 17H13V18H14V17Z" fill="#967699"/>
<path d="M15 17H14V18H15V17Z" fill="#967699"/>
<path d="M16 17H15V18H16V17Z" fill="#967699"/>
<path d="M17 17H16V18H17V17Z" fill="#967699"/>
<path d="M18 17H17V18H18V17Z" fill="#967699"/>
<path d="M19 17H18V18H19V17Z" fill="#967699"/>
<path d="M20 17H19V18H20V17Z" fill="#967699"/>
<path d="M21 17H20V18H21V17Z" fill="#967699"/>
<path d="M22 17H21V18H22V17Z" fill="#967699"/>
<path d="M23 17H22V18H23V17Z" fill="#967699"/>
<path d="M24 17H23V18H24V17Z" fill="#967699"/>
<path d="M25 17H24V18H25V17Z" fill="#967699"/>
<path d="M26 17H25V18H26V17Z" fill="#967699"/>
<path d="M27 17H26V18H27V17Z" fill="#967699"/>
<path d="M28 17H27V18H28V17Z" fill="#967699"/>
<path d="M29 17H28V18H29V17Z" fill="#967699"/>
<path d="M30 17H29V18H30V17Z" fill="#967699"/>
<path d="M31 17H30V18H31V17Z" fill="#967699"/>
<path d="M32 17H31V18H32V17Z" fill="#967699"/>
<path d="M33 17H32V18H33V17Z" fill="#967699"/>
<path d="M34 17H33V18H34V17Z" fill="#967699"/>
<path d="M35 17H34V18H35V17Z" fill="#967699"/>
<path d="M36 17H35V18H36V17Z" fill="#967699"/>
<path d="M37 17H36V18H37V17Z" fill="#967699"/>
<path d="M7 18H6V19H7V18Z" fill="#7F5B82"/>
<path d="M8 18H7V19H8V18Z" fill="#967699"/>
<path d="M9 18H8V19H9V18Z" fill="#967699"/>
<path d="M10 18H9V19H10V18Z" fill="#967699"/>
<path d="M11 18H10V19H11V18Z" fill="#967699"/>
<path d="M12 18H11V19H12V18Z" fill="#967699"/>
<path d="M13 18H12V19H13V18Z" fill="#967699"/>
<path d="M14 18H13V19H14V18Z" fill="#967699"/>
<path d="M15 18H14V19H15V18Z" fill="#967699"/>
<path d="M16 18H15V19H16V18Z" fill="#967699"/>
<path d="M17 18H16V19H17V18Z" fill="#967699"/>
<path d="M18 18H17V19H18V18Z" fill="#967699"/>
<path d="M19 18H18V19H19V18Z" fill="#967699"/>
<path d="M20 18H19V19H20V18Z" fill="#967699"/>
<path d="M21 18H20V19H21V18Z" fill="#967699"/>
<path d="M22 18H21V19H22V18Z" fill="#967699"/>
<path d="M23 18H22V19H23V18Z" fill="#967699"/>
<path d="M24 18H23V19H24V18Z" fill="#967699"/>
<path d="M25 18H24V19H25V18Z" fill="#967699"/>
<path d="M26 18H25V19H26V18Z" fill="#967699"/>
<path d="M27 18H26V19H27V18Z" fill="#967699"/>
<path d="M28 18H27V19H28V18Z" fill="#967699"/>
<path d="M29 18H28V19H29V18Z" fill="#967699"/>
<path d="M30 18H29V19H30V18Z" fill="#967699"/>
<path d="M31 18H30V19H31V18Z" fill="#967699"/>
<path d="M32 18H31V19H32V18Z" fill="#967699"/>
<path d="M33 18H32V19H33V18Z" fill="#967699"/>
<path d="M34 18H33V19H34V18Z" fill="#967699"/>
<path d="M35 18H34V19H35V18Z" fill="#967699"/>
<path d="M36 18H35V19H36V18Z" fill="#967699"/>
<path d="M37 18H36V19H37V18Z" fill="#967699"/>
<path d="M6 19H5V20H6V19Z" fill="#7F5B82"/>
<path d="M7 19H6V20H7V19Z" fill="#967699"/>
<path d="M8 19H7V20H8V19Z" fill="#967699"/>
<path d="M9 19H8V20H9V19Z" fill="#967699"/>
<path d="M10 19H9V20H10V19Z" fill="#967699"/>
<path d="M11 19H10V20H11V19Z" fill="#967699"/>
<path d="M12 19H11V20H12V19Z" fill="#967699"/>
<path d="M13 19H12V20H13V19Z" fill="#967699"/>
<path d="M14 19H13V20H14V19Z" fill="#967699"/>
<path d="M15 19H14V20H15V19Z" fill="#967699"/>
<path d="M16 19H15V20H16V19Z" fill="#967699"/>
<path d="M17 19H16V20H17V19Z" fill="#967699"/>
<path d="M18 19H17V20H18V19Z" fill="#967699"/>
<path d="M19 19H18V20H19V19Z" fill="#967699"/>
<path d="M20 19H19V20H20V19Z" fill="#967699"/>
<path d="M21 19H20V20H21V19Z" fill="#967699"/>
<path d="M22 19H21V20H22V19Z" fill="#967699"/>
<path d="M23 19H22V20H23V19Z" fill="#967699"/>
<path d="M24 19H23V20H24V19Z" fill="#967699"/>
<path d="M25 19H24V20H25V19Z" fill="#967699"/>
<path d="M26 19H25V20H26V19Z" fill="#967699"/>
<path d="M27 19H26V20H27V19Z" fill="#967699"/>
<path d="M28 19H27V20H28V19Z" fill="#967699"/>
<path d="M29 19H28V20H29V19Z" fill="#967699"/>
<path d="M30 19H29V20H30V19Z" fill="#967699"/>
<path d="M31 19H30V20H31V19Z" fill="#967699"/>
<path d="M32 19H31V20H32V19Z" fill="#967699"/>
<path d="M33 19H32V20H33V19Z" fill="#967699"/>
<path d="M34 19H33V20H34V19Z" fill="#967699"/>
<path d="M35 19H34V20H35V19Z" fill="#967699"/>
<path d="M36 19H35V20H36V19Z" fill="#967699"/>
<path d="M37 19H36V20H37V19Z" fill="#967699"/>
<path d="M38 19H37V20H38V19Z" fill="#967699"/>
<path d="M39 19H38V20H39V19Z" fill="#967699"/>
<path d="M40 19H39V20H40V19Z" fill="#967699"/>
<path d="M41 19H40V20H41V19Z" fill="#7F5B82"/>
<path d="M5 20H4V21H5V20Z" fill="#7F5B82"/>
<path d="M6 20H5V21H6V20Z" fill="#967699"/>
<path d="M7 20H6V21H7V20Z" fill="#967699"/>
<path d="M8 20H7V21H8V20Z" fill="#967699"/>
<path d="M9 20H8V21H9V20Z" fill="#967699"/>
<path d="M10 20H9V21H10V20Z" fill="#967699"/>
<path d="M11 20H10V21H11V20Z" fill="#967699"/>
<path d="M12 20H11V21H12V20Z" fill="#967699"/>
<path d="M13 20H12V21H13V20Z" fill="#967699"/>
<path d="M14 20H13V21H14V20Z" fill="#967699"/>
<path d="M15 20H14V21H15V20Z" fill="#967699"/>
<path d="M16 20H15V21H16V20Z" fill="#967699"/>
<path d="M17 20H16V21H17V20Z" fill="#967699"/>
<path d="M18 20H17V21H18V20Z" fill="#967699"/>
<path d="M19 20H18V21H19V20Z" fill="#967699"/>
<path d="M20 20H19V21H20V20Z" fill="#967699"/>
<path d="M21 20H20V21H21V20Z" fill="#967699"/>
<path d="M22 20H21V21H22V20Z" fill="#7F5B82"/>
<path d="M23 20H22V21H23V20Z" fill="#7F5B82"/>
<path d="M24 20H23V21H24V20Z" fill="#7F5B82"/>
<path d="M25 20H24V21H25V20Z" fill="#7F5B82"/>
<path d="M26 20H25V21H26V20Z" fill="#7F5B82"/>
<path d="M27 20H26V21H27V20Z" fill="#7F5B82"/>
<path d="M28 20H27V21H28V20Z" fill="#7F5B82"/>
<path d="M29 20H28V21H29V20Z" fill="#967699"/>
<path d="M30 20H29V21H30V20Z" fill="#967699"/>
<path d="M31 20H30V21H31V20Z" fill="#967699"/>
<path d="M32 20H31V21H32V20Z" fill="#967699"/>
<path d="M33 20H32V21H33V20Z" fill="#967699"/>
<path d="M34 20H33V21H34V20Z" fill="#967699"/>
<path d="M35 20H34V21H35V20Z" fill="#967699"/>
<path d="M36 20H35V21H36V20Z" fill="#967699"/>
<path d="M37 20H36V21H37V20Z" fill="#967699"/>
<path d="M38 20H37V21H38V20Z" fill="#967699"/>
<path d="M39 20H38V21H39V20Z" fill="#967699"/>
<path d="M40 20H39V21H40V20Z" fill="#967699"/>
<path d="M41 20H40V21H41V20Z" fill="#967699"/>
<path d="M42 20H41V21H42V20Z" fill="#7F5B82"/>
<path d="M4 21H3V22H4V21Z" fill="#634E65"/>
<path d="M5 21H4V22H5V21Z" fill="#967699"/>
<path d="M6 21H5V22H6V21Z" fill="#967699"/>
<path d="M7 21H6V22H7V21Z" fill="#967699"/>
<path d="M8 21H7V22H8V21Z" fill="#967699"/>
<path d="M9 21H8V22H9V21Z" fill="#967699"/>
<path d="M10 21H9V22H10V21Z" fill="#967699"/>
<path d="M11 21H10V22H11V21Z" fill="#967699"/>
<path d="M12 21H11V22H12V21Z" fill="#967699"/>
<path d="M13 21H12V22H13V21Z" fill="#967699"/>
<path d="M14 21H13V22H14V21Z" fill="#967699"/>
<path d="M15 21H14V22H15V21Z" fill="#967699"/>
<path d="M16 21H15V22H16V21Z" fill="#967699"/>
<path d="M17 21H16V22H17V21Z" fill="#967699"/>
<path d="M18 21H17V22H18V21Z" fill="#967699"/>
<path d="M19 21H18V22H19V21Z" fill="#967699"/>
<path d="M20 21H19V22H20V21Z" fill="#967699"/>
<path d="M21 21H20V22H21V21Z" fill="#7F5B82"/>
<path d="M22 21H21V22H22V21Z" fill="#634E65"/>
<path d="M23 21H22V22H23V21Z" fill="#634E65"/>
<path d="M24 21H23V22H24V21Z" fill="#634E65"/>
<path d="M25 21H24V22H25V21Z" fill="#634E65"/>
<path d="M26 21H25V22H26V21Z" fill="#634E65"/>
<path d="M27 21H26V22H27V21Z" fill="#634E65"/>
<path d="M28 21H27V22H28V21Z" fill="#634E65"/>
<path d="M29 21H28V22H29V21Z" fill="#7F5B82"/>
<path d="M30 21H29V22H30V21Z" fill="#967699"/>
<path d="M31 21H30V22H31V21Z" fill="#967699"/>
<path d="M32 21H31V22H32V21Z" fill="#967699"/>
<path d="M33 21H32V22H33V21Z" fill="#967699"/>
<path d="M34 21H33V22H34V21Z" fill="#967699"/>
<path d="M35 21H34V22H35V21Z" fill="#967699"/>
<path d="M36 21H35V22H36V21Z" fill="#967699"/>
<path d="M37 21H36V22H37V21Z" fill="#967699"/>
<path d="M38 21H37V22H38V21Z" fill="#967699"/>
<path d="M39 21H38V22H39V21Z" fill="#967699"/>
<path d="M40 21H39V22H40V21Z" fill="#967699"/>
<path d="M41 21H40V22H41V21Z" fill="#967699"/>
<path d="M42 21H41V22H42V21Z" fill="#967699"/>
<path d="M43 21H42V22H43V21Z" fill="#634E65"/>
<path d="M44 21H43V22H44V21Z" fill="#634E65"/>
<path d="M3 22H2V23H3V22Z" fill="#634E65"/>
<path d="M4 22H3V23H4V22Z" fill="#967699"/>
<path d="M5 22H4V23H5V22Z" fill="#967699"/>
<path d="M6 22H5V23H6V22Z" fill="#967699"/>
<path d="M7 22H6V23H7V22Z" fill="#967699"/>
<path d="M8 22H7V23H8V22Z" fill="#967699"/>
<path d="M9 22H8V23H9V22Z" fill="#967699"/>
<path d="M10 22H9V23H10V22Z" fill="#967699"/>
<path d="M11 22H10V23H11V22Z" fill="#967699"/>
<path d="M12 22H11V23H12V22Z" fill="#967699"/>
<path d="M13 22H12V23H13V22Z" fill="#967699"/>
<path d="M14 22H13V23H14V22Z" fill="#7F5B82"/>
<path d="M15 22H14V23H15V22Z" fill="#7F5B82"/>
<path d="M16 22H15V23H16V22Z" fill="#634E65"/>
<path d="M17 22H16V23H17V22Z" fill="#634E65"/>
<path d="M18 22H17V23H18V22Z" fill="#634E65"/>
<path d="M19 22H18V23H19V22Z" fill="#634E65"/>
<path d="M20 22H19V23H20V22Z" fill="#634E65"/>
<path d="M21 22H20V23H21V22Z" fill="#634E65"/>
<path d="M22 22H21V23H22V22Z" fill="#634E65"/>
<path d="M23 22H22V23H23V22Z" fill="#634E65"/>
<path d="M24 22H23V23H24V22Z" fill="#634E65"/>
<path d="M25 22H24V23H25V22Z" fill="#634E65"/>
<path d="M26 22H25V23H26V22Z" fill="#634E65"/>
<path d="M27 22H26V23H27V22Z" fill="#634E65"/>
<path d="M28 22H27V23H28V22Z" fill="#634E65"/>
<path d="M29 22H28V23H29V22Z" fill="#634E65"/>
<path d="M30 22H29V23H30V22Z" fill="#634E65"/>
<path d="M31 22H30V23H31V22Z" fill="#634E65"/>
<path d="M32 22H31V23H32V22Z" fill="#634E65"/>
<path d="M33 22H32V23H33V22Z" fill="#634E65"/>
<path d="M34 22H33V23H34V22Z" fill="#634E65"/>
<path d="M35 22H34V23H35V22Z" fill="#7F5B82"/>
<path d="M36 22H35V23H36V22Z" fill="#7F5B82"/>
<path d="M37 22H36V23H37V22Z" fill="#967699"/>
<path d="M38 22H37V23H38V22Z" fill="#967699"/>
<path d="M39 22H38V23H39V22Z" fill="#967699"/>
<path d="M40 22H39V23H40V22Z" fill="#967699"/>
<path d="M41 22H40V23H41V22Z" fill="#967699"/>
<path d="M42 22H41V23H42V22Z" fill="#967699"/>
<path d="M43 22H42V23H43V22Z" fill="#967699"/>
<path d="M44 22H43V23H44V22Z" fill="#967699"/>
<path d="M45 22H44V23H45V22Z" fill="#634E65"/>
<path d="M46 22H45V23H46V22Z" fill="#634E65"/>
<path d="M47 22H46V23H47V22Z" fill="#634E65"/>
<path d="M2 23H1V24H2V23Z" fill="#634E65"/>
<path d="M3 23H2V24H3V23Z" fill="#7F5B82"/>
<path d="M4 23H3V24H4V23Z" fill="#967699"/>
<path d="M5 23H4V24H5V23Z" fill="#967699"/>
<path d="M6 23H5V24H6V23Z" fill="#967699"/>
<path d="M7 23H6V24H7V23Z" fill="#967699"/>
<path d="M8 23H7V24H8V23Z" fill="#967699"/>
<path d="M9 23H8V24H9V23Z" fill="#967699"/>
<path d="M10 23H9V24H10V23Z" fill="#967699"/>
<path d="M11 23H10V24H11V23Z" fill="#967699"/>
<path d="M12 23H11V24H12V23Z" fill="#967699"/>
<path d="M13 23H12V24H13V23Z" fill="#967699"/>
<path d="M14 23H13V24H14V23Z" fill="#967699"/>
<path d="M15 23H14V24H15V23Z" fill="#967699"/>
<path d="M16 23H15V24H16V23Z" fill="#967699"/>
<path d="M17 23H16V24H17V23Z" fill="#967699"/>
<path d="M18 23H17V24H18V23Z" fill="#967699"/>
<path d="M19 23H18V24H19V23Z" fill="#7F5B82"/>
<path d="M20 23H19V24H20V23Z" fill="#7F5B82"/>
<path d="M21 23H20V24H21V23Z" fill="#634E65"/>
<path d="M22 23H21V24H22V23Z" fill="#634E65"/>
<path d="M23 23H22V24H23V23Z" fill="#634E65"/>
<path d="M24 23H23V24H24V23Z" fill="#634E65"/>
<path d="M25 23H24V24H25V23Z" fill="#634E65"/>
<path d="M26 23H25V24H26V23Z" fill="#634E65"/>
<path d="M27 23H26V24H27V23Z" fill="#634E65"/>
<path d="M28 23H27V24H28V23Z" fill="#634E65"/>
<path d="M29 23H28V24H29V23Z" fill="#634E65"/>
<path d="M30 23H29V24H30V23Z" fill="#7F5B82"/>
<path d="M31 23H30V24H31V23Z" fill="#967699"/>
<path d="M32 23H31V24H32V23Z" fill="#967699"/>
<path d="M33 23H32V24H33V23Z" fill="#967699"/>
<path d="M34 23H33V24H34V23Z" fill="#967699"/>
<path d="M35 23H34V24H35V23Z" fill="#967699"/>
<path d="M36 23H35V24H36V23Z" fill="#967699"/>
<path d="M37 23H36V24H37V23Z" fill="#967699"/>
<path d="M38 23H37V24H38V23Z" fill="#967699"/>
<path d="M39 23H38V24H39V23Z" fill="#967699"/>
<path d="M40 23H39V24H40V23Z" fill="#967699"/>
<path d="M41 23H40V24H41V23Z" fill="#967699"/>
<path d="M42 23H41V24H42V23Z" fill="#967699"/>
<path d="M43 23H42V24H43V23Z" fill="#967699"/>
<path d="M44 23H43V24H44V23Z" fill="#967699"/>
<path d="M45 23H44V24H45V23Z" fill="#967699"/>
<path d="M46 23H45V24H46V23Z" fill="#967699"/>
<path d="M47 23H46V24H47V23Z" fill="#967699"/>
<path d="M48 23H47V24H48V23Z" fill="#634E65"/>
<path d="M2 24H1V25H2V24Z" fill="#634E65"/>
<path d="M3 24H2V25H3V24Z" fill="#634E65"/>
<path d="M4 24H3V25H4V24Z" fill="#7F5B82"/>
<path d="M5 24H4V25H5V24Z" fill="#7F5B82"/>
<path d="M6 24H5V25H6V24Z" fill="#967699"/>
<path d="M7 24H6V25H7V24Z" fill="#967699"/>
<path d="M8 24H7V25H8V24Z" fill="#967699"/>
<path d="M9 24H8V25H9V24Z" fill="#967699"/>
<path d="M10 24H9V25H10V24Z" fill="#967699"/>
<path d="M11 24H10V25H11V24Z" fill="#967699"/>
<path d="M12 24H11V25H12V24Z" fill="#967699"/>
<path d="M13 24H12V25H13V24Z" fill="#967699"/>
<path d="M14 24H13V25H14V24Z" fill="#967699"/>
<path d="M15 24H14V25H15V24Z" fill="#967699"/>
<path d="M16 24H15V25H16V24Z" fill="#967699"/>
<path d="M17 24H16V25H17V24Z" fill="#967699"/>
<path d="M18 24H17V25H18V24Z" fill="#967699"/>
<path d="M19 24H18V25H19V24Z" fill="#967699"/>
<path d="M20 24H19V25H20V24Z" fill="#967699"/>
<path d="M21 24H20V25H21V24Z" fill="#967699"/>
<path d="M22 24H21V25H22V24Z" fill="#967699"/>
<path d="M23 24H22V25H23V24Z" fill="#967699"/>
<path d="M24 24H23V25H24V24Z" fill="#967699"/>
<path d="M25 24H24V25H25V24Z" fill="#7F5B82"/>
<path d="M26 24H25V25H26V24Z" fill="#634E65"/>
<path d="M27 24H26V25H27V24Z" fill="#634E65"/>
<path d="M28 24H27V25H28V24Z" fill="#7F5B82"/>
<path d="M29 24H28V25H29V24Z" fill="#967699"/>
<path d="M30 24H29V25H30V24Z" fill="#967699"/>
<path d="M31 24H30V25H31V24Z" fill="#967699"/>
<path d="M32 24H31V25H32V24Z" fill="#967699"/>
<path d="M33 24H32V25H33V24Z" fill="#967699"/>
<path d="M34 24H33V25H34V24Z" fill="#967699"/>
<path d="M35 24H34V25H35V24Z" fill="#967699"/>
<path d="M36 24H35V25H36V24Z" fill="#967699"/>
<path d="M37 24H36V25H37V24Z" fill="#967699"/>
<path d="M38 24H37V25H38V24Z" fill="#967699"/>
<path d="M39 24H38V25H39V24Z" fill="#967699"/>
<path d="M40 24H39V25H40V24Z" fill="#967699"/>
<path d="M41 24H40V25H41V24Z" fill="#967699"/>
<path d="M42 24H41V25H42V24Z" fill="#967699"/>
<path d="M43 24H42V25H43V24Z" fill="#967699"/>
<path d="M44 24H43V25H44V24Z" fill="#967699"/>
<path d="M45 24H44V25H45V24Z" fill="#967699"/>
<path d="M46 24H45V25H46V24Z" fill="#967699"/>
<path d="M47 24H46V25H47V24Z" fill="#967699"/>
<path d="M48 24H47V25H48V24Z" fill="#7F5B82"/>
<path d="M49 24H48V25H49V24Z" fill="#634E65"/>
<path d="M2 25H1V26H2V25Z" fill="#634E65"/>
<path d="M3 25H2V26H3V25Z" fill="#634E65"/>
<path d="M4 25H3V26H4V25Z" fill="#634E65"/>
<path d="M5 25H4V26H5V25Z" fill="#634E65"/>
<path d="M6 25H5V26H6V25Z" fill="#7F5B82"/>
<path d="M7 25H6V26H7V25Z" fill="#7F5B82"/>
<path d="M8 25H7V26H8V25Z" fill="#7F5B82"/>
<path d="M9 25H8V26H9V25Z" fill="#7F5B82"/>
<path d="M10 25H9V26H10V25Z" fill="#967699"/>
<path d="M11 25H10V26H11V25Z" fill="#967699"/>
<path d="M12 25H11V26H12V25Z" fill="#967699"/>
<path d="M13 25H12V26H13V25Z" fill="#967699"/>
<path d="M14 25H13V26H14V25Z" fill="#967699"/>
<path d="M15 25H14V26H15V25Z" fill="#967699"/>
<path d="M16 25H15V26H16V25Z" fill="#967699"/>
<path d="M17 25H16V26H17V25Z" fill="#967699"/>
<path d="M18 25H17V26H18V25Z" fill="#967699"/>
<path d="M19 25H18V26H19V25Z" fill="#967699"/>
<path d="M20 25H19V26H20V25Z" fill="#967699"/>
<path d="M21 25H20V26H21V25Z" fill="#967699"/>
<path d="M22 25H21V26H22V25Z" fill="#967699"/>
<path d="M23 25H22V26H23V25Z" fill="#967699"/>
<path d="M24 25H23V26H24V25Z" fill="#967699"/>
<path d="M25 25H24V26H25V25Z" fill="#967699"/>
<path d="M26 25H25V26H26V25Z" fill="#7F5B82"/>
<path d="M27 25H26V26H27V25Z" fill="#7F5B82"/>
<path d="M28 25H27V26H28V25Z" fill="#967699"/>
<path d="M29 25H28V26H29V25Z" fill="#967699"/>
<path d="M30 25H29V26H30V25Z" fill="#967699"/>
<path d="M31 25H30V26H31V25Z" fill="#967699"/>
<path d="M32 25H31V26H32V25Z" fill="#967699"/>
<path d="M33 25H32V26H33V25Z" fill="#967699"/>
<path d="M34 25H33V26H34V25Z" fill="#967699"/>
<path d="M35 25H34V26H35V25Z" fill="#967699"/>
<path d="M36 25H35V26H36V25Z" fill="#967699"/>
<path d="M37 25H36V26H37V25Z" fill="#967699"/>
<path d="M38 25H37V26H38V25Z" fill="#967699"/>
<path d="M39 25H38V26H39V25Z" fill="#967699"/>
<path d="M40 25H39V26H40V25Z" fill="#967699"/>
<path d="M41 25H40V26H41V25Z" fill="#967699"/>
<path d="M42 25H41V26H42V25Z" fill="#967699"/>
<path d="M43 25H42V26H43V25Z" fill="#967699"/>
<path d="M44 25H43V26H44V25Z" fill="#967699"/>
<path d="M45 25H44V26H45V25Z" fill="#967699"/>
<path d="M46 25H45V26H46V25Z" fill="#967699"/>
<path d="M47 25H46V26H47V25Z" fill="#967699"/>
<path d="M48 25H47V26H48V25Z" fill="#7F5B82"/>
<path d="M49 25H48V26H49V25Z" fill="#634E65"/>
<path d="M3 26H2V27H3V26Z" fill="#634E65"/>
<path d="M4 26H3V27H4V26Z" fill="#634E65"/>
<path d="M5 26H4V27H5V26Z" fill="#634E65"/>
<path d="M6 26H5V27H6V26Z" fill="#634E65"/>
<path d="M7 26H6V27H7V26Z" fill="#634E65"/>
<path d="M8 26H7V27H8V26Z" fill="#634E65"/>
<path d="M9 26H8V27H9V26Z" fill="#634E65"/>
<path d="M10 26H9V27H10V26Z" fill="#7F5B82"/>
<path d="M11 26H10V27H11V26Z" fill="#7F5B82"/>
<path d="M12 26H11V27H12V26Z" fill="#7F5B82"/>
<path d="M13 26H12V27H13V26Z" fill="#967699"/>
<path d="M14 26H13V27H14V26Z" fill="#967699"/>
<path d="M15 26H14V27H15V26Z" fill="#967699"/>
<path d="M16 26H15V27H16V26Z" fill="#967699"/>
<path d="M17 26H16V27H17V26Z" fill="#967699"/>
<path d="M18 26H17V27H18V26Z" fill="#967699"/>
<path d="M19 26H18V27H19V26Z" fill="#967699"/>
<path d="M20 26H19V27H20V26Z" fill="#967699"/>
<path d="M21 26H20V27H21V26Z" fill="#967699"/>
<path d="M22 26H21V27H22V26Z" fill="#967699"/>
<path d="M23 26H22V27H23V26Z" fill="#967699"/>
<path d="M24 26H23V27H24V26Z" fill="#967699"/>
<path d="M25 26H24V27H25V26Z" fill="#967699"/>
<path d="M26 26H25V27H26V26Z" fill="#967699"/>
<path d="M27 26H26V27H27V26Z" fill="#967699"/>
<path d="M28 26H27V27H28V26Z" fill="#967699"/>
<path d="M29 26H28V27H29V26Z" fill="#967699"/>
<path d="M30 26H29V27H30V26Z" fill="#967699"/>
<path d="M31 26H30V27H31V26Z" fill="#967699"/>
<path d="M32 26H31V27H32V26Z" fill="#967699"/>
<path d="M33 26H32V27H33V26Z" fill="#967699"/>
<path d="M34 26H33V27H34V26Z" fill="#967699"/>
<path d="M35 26H34V27H35V26Z" fill="#967699"/>
<path d="M36 26H35V27H36V26Z" fill="#967699"/>
<path d="M37 26H36V27H37V26Z" fill="#967699"/>
<path d="M38 26H37V27H38V26Z" fill="#967699"/>
<path d="M39 26H38V27H39V26Z" fill="#967699"/>
<path d="M40 26H39V27H40V26Z" fill="#967699"/>
<path d="M41 26H40V27H41V26Z" fill="#967699"/>
<path d="M42 26H41V27H42V26Z" fill="#967699"/>
<path d="M43 26H42V27H43V26Z" fill="#967699"/>
<path d="M44 26H43V27H44V26Z" fill="#967699"/>
<path d="M45 26H44V27H45V26Z" fill="#967699"/>
<path d="M46 26H45V27H46V26Z" fill="#967699"/>
<path d="M47 26H46V27H47V26Z" fill="#967699"/>
<path d="M48 26H47V27H48V26Z" fill="#7F5B82"/>
<path d="M49 26H48V27H49V26Z" fill="#634E65"/>
<path d="M50 26H49V27H50V26Z" fill="#634E65"/>
<path d="M6 27H5V28H6V27Z" fill="#634E65"/>
<path d="M7 27H6V28H7V27Z" fill="#634E65"/>
<path d="M8 27H7V28H8V27Z" fill="#634E65"/>
<path d="M9 27H8V28H9V27Z" fill="#634E65"/>
<path d="M10 27H9V28H10V27Z" fill="#634E65"/>
<path d="M11 27H10V28H11V27Z" fill="#634E65"/>
<path d="M12 27H11V28H12V27Z" fill="#634E65"/>
<path d="M13 27H12V28H13V27Z" fill="#7F5B82"/>
<path d="M14 27H13V28H14V27Z" fill="#967699"/>
<path d="M15 27H14V28H15V27Z" fill="#967699"/>
<path d="M16 27H15V28H16V27Z" fill="#967699"/>
<path d="M17 27H16V28H17V27Z" fill="#967699"/>
<path d="M18 27H17V28H18V27Z" fill="#967699"/>
<path d="M19 27H18V28H19V27Z" fill="#967699"/>
<path d="M20 27H19V28H20V27Z" fill="#967699"/>
<path d="M21 27H20V28H21V27Z" fill="#967699"/>
<path d="M22 27H21V28H22V27Z" fill="#967699"/>
<path d="M23 27H22V28H23V27Z" fill="#967699"/>
<path d="M24 27H23V28H24V27Z" fill="#967699"/>
<path d="M25 27H24V28H25V27Z" fill="#967699"/>
<path d="M26 27H25V28H26V27Z" fill="#967699"/>
<path d="M27 27H26V28H27V27Z" fill="#967699"/>
<path d="M28 27H27V28H28V27Z" fill="#967699"/>
<path d="M29 27H28V28H29V27Z" fill="#967699"/>
<path d="M30 27H29V28H30V27Z" fill="#967699"/>
<path d="M31 27H30V28H31V27Z" fill="#967699"/>
<path d="M32 27H31V28H32V27Z" fill="#967699"/>
<path d="M33 27H32V28H33V27Z" fill="#967699"/>
<path d="M34 27H33V28H34V27Z" fill="#967699"/>
<path d="M35 27H34V28H35V27Z" fill="#967699"/>
<path d="M36 27H35V28H36V27Z" fill="#967699"/>
<path d="M37 27H36V28H37V27Z" fill="#967699"/>
<path d="M38 27H37V28H38V27Z" fill="#967699"/>
<path d="M39 27H38V28H39V27Z" fill="#967699"/>
<path d="M40 27H39V28H40V27Z" fill="#967699"/>
<path d="M41 27H40V28H41V27Z" fill="#967699"/>
<path d="M42 27H41V28H42V27Z" fill="#967699"/>
<path d="M43 27H42V28H43V27Z" fill="#967699"/>
<path d="M44 27H43V28H44V27Z" fill="#967699"/>
<path d="M45 27H44V28H45V27Z" fill="#967699"/>
<path d="M46 27H45V28H46V27Z" fill="#967699"/>
<path d="M47 27H46V28H47V27Z" fill="#7F5B82"/>
<path d="M48 27H47V28H48V27Z" fill="#634E65"/>
<path d="M49 27H48V28H49V27Z" fill="#634E65"/>
<path d="M50 27H49V28H50V27Z" fill="#634E65"/>
<path d="M10 28H9V29H10V28Z" fill="#634E65"/>
<path d="M11 28H10V29H11V28Z" fill="#634E65"/>
<path d="M12 28H11V29H12V28Z" fill="#634E65"/>
<path d="M13 28H12V29H13V28Z" fill="#634E65"/>
<path d="M14 28H13V29H14V28Z" fill="#7F5B82"/>
<path d="M15 28H14V29H15V28Z" fill="#7F5B82"/>
<path d="M16 28H15V29H16V28Z" fill="#7F5B82"/>
<path d="M17 28H16V29H17V28Z" fill="#967699"/>
<path d="M18 28H17V29H18V28Z" fill="#967699"/>
<path d="M19 28H18V29H19V28Z" fill="#967699"/>
<path d="M20 28H19V29H20V28Z" fill="#967699"/>
<path d="M21 28H20V29H21V28Z" fill="#967699"/>
<path d="M22 28H21V29H22V28Z" fill="#967699"/>
<path d="M23 28H22V29H23V28Z" fill="#967699"/>
<path d="M24 28H23V29H24V28Z" fill="#967699"/>
<path d="M25 28H24V29H25V28Z" fill="#967699"/>
<path d="M26 28H25V29H26V28Z" fill="#967699"/>
<path d="M27 28H26V29H27V28Z" fill="#967699"/>
<path d="M28 28H27V29H28V28Z" fill="#967699"/>
<path d="M29 28H28V29H29V28Z" fill="#967699"/>
<path d="M30 28H29V29H30V28Z" fill="#967699"/>
<path d="M31 28H30V29H31V28Z" fill="#967699"/>
<path d="M32 28H31V29H32V28Z" fill="#967699"/>
<path d="M33 28H32V29H33V28Z" fill="#967699"/>
<path d="M34 28H33V29H34V28Z" fill="#967699"/>
<path d="M35 28H34V29H35V28Z" fill="#967699"/>
<path d="M36 28H35V29H36V28Z" fill="#967699"/>
<path d="M37 28H36V29H37V28Z" fill="#967699"/>
<path d="M38 28H37V29H38V28Z" fill="#967699"/>
<path d="M39 28H38V29H39V28Z" fill="#967699"/>
<path d="M40 28H39V29H40V28Z" fill="#967699"/>
<path d="M41 28H40V29H41V28Z" fill="#967699"/>
<path d="M42 28H41V29H42V28Z" fill="#967699"/>
<path d="M43 28H42V29H43V28Z" fill="#967699"/>
<path d="M44 28H43V29H44V28Z" fill="#7F5B82"/>
<path d="M45 28H44V29H45V28Z" fill="#7F5B82"/>
<path d="M46 28H45V29H46V28Z" fill="#7F5B82"/>
<path d="M47 28H46V29H47V28Z" fill="#634E65"/>
<path d="M48 28H47V29H48V28Z" fill="#634E65"/>
<path d="M49 28H48V29H49V28Z" fill="#634E65"/>
<path d="M11 29H10V30H11V29Z" fill="#634E65"/>
<path d="M12 29H11V30H12V29Z" fill="#634E65"/>
<path d="M13 29H12V30H13V29Z" fill="#634E65"/>
<path d="M14 29H13V30H14V29Z" fill="#634E65"/>
<path d="M15 29H14V30H15V29Z" fill="#634E65"/>
<path d="M16 29H15V30H16V29Z" fill="#634E65"/>
<path d="M17 29H16V30H17V29Z" fill="#7F5B82"/>
<path d="M18 29H17V30H18V29Z" fill="#7F5B82"/>
<path d="M19 29H18V30H19V29Z" fill="#967699"/>
<path d="M20 29H19V30H20V29Z" fill="#967699"/>
<path d="M21 29H20V30H21V29Z" fill="#967699"/>
<path d="M22 29H21V30H22V29Z" fill="#967699"/>
<path d="M23 29H22V30H23V29Z" fill="#967699"/>
<path d="M24 29H23V30H24V29Z" fill="#967699"/>
<path d="M25 29H24V30H25V29Z" fill="#967699"/>
<path d="M26 29H25V30H26V29Z" fill="#967699"/>
<path d="M27 29H26V30H27V29Z" fill="#967699"/>
<path d="M28 29H27V30H28V29Z" fill="#967699"/>
<path d="M29 29H28V30H29V29Z" fill="#967699"/>
<path d="M30 29H29V30H30V29Z" fill="#967699"/>
<path d="M31 29H30V30H31V29Z" fill="#7F5B82"/>
<path d="M32 29H31V30H32V29Z" fill="#7F5B82"/>
<path d="M33 29H32V30H33V29Z" fill="#7F5B82"/>
<path d="M34 29H33V30H34V29Z" fill="#7F5B82"/>
<path d="M35 29H34V30H35V29Z" fill="#7F5B82"/>
<path d="M36 29H35V30H36V29Z" fill="#7F5B82"/>
<path d="M37 29H36V30H37V29Z" fill="#7F5B82"/>
<path d="M38 29H37V30H38V29Z" fill="#7F5B82"/>
<path d="M39 29H38V30H39V29Z" fill="#7F5B82"/>
<path d="M40 29H39V30H40V29Z" fill="#7F5B82"/>
<path d="M41 29H40V30H41V29Z" fill="#7F5B82"/>
<path d="M42 29H41V30H42V29Z" fill="#7F5B82"/>
<path d="M43 29H42V30H43V29Z" fill="#7F5B82"/>
<path d="M44 29H43V30H44V29Z" fill="#634E65"/>
<path d="M45 29H44V30H45V29Z" fill="#634E65"/>
<path d="M46 29H45V30H46V29Z" fill="#634E65"/>
<path d="M47 29H46V30H47V29Z" fill="#634E65"/>
<path d="M48 29H47V30H48V29Z" fill="#634E65"/>
<path d="M49 29H48V30H49V29Z" fill="#634E65"/>
<path d="M14 30H13V31H14V30Z" fill="#634E65"/>
<path d="M15 30H14V31H15V30Z" fill="#634E65"/>
<path d="M16 30H15V31H16V30Z" fill="#634E65"/>
<path d="M17 30H16V31H17V30Z" fill="#634E65"/>
<path d="M18 30H17V31H18V30Z" fill="#634E65"/>
<path d="M19 30H18V31H19V30Z" fill="#7F5B82"/>
<path d="M20 30H19V31H20V30Z" fill="#7F5B82"/>
<path d="M21 30H20V31H21V30Z" fill="#7F5B82"/>
<path d="M22 30H21V31H22V30Z" fill="#7F5B82"/>
<path d="M23 30H22V31H23V30Z" fill="#7F5B82"/>
<path d="M24 30H23V31H24V30Z" fill="#7F5B82"/>
<path d="M25 30H24V31H25V30Z" fill="#7F5B82"/>
<path d="M26 30H25V31H26V30Z" fill="#7F5B82"/>
<path d="M27 30H26V31H27V30Z" fill="#7F5B82"/>
<path d="M28 30H27V31H28V30Z" fill="#7F5B82"/>
<path d="M29 30H28V31H29V30Z" fill="#7F5B82"/>
<path d="M30 30H29V31H30V30Z" fill="#7F5B82"/>
<path d="M31 30H30V31H31V30Z" fill="#634E65"/>
<path d="M32 30H31V31H32V30Z" fill="#634E65"/>
<path d="M33 30H32V31H33V30Z" fill="#634E65"/>
<path d="M34 30H33V31H34V30Z" fill="#634E65"/>
<path d="M35 30H34V31H35V30Z" fill="#634E65"/>
<path d="M36 30H35V31H36V30Z" fill="#634E65"/>
<path d="M37 30H36V31H37V30Z" fill="#634E65"/>
<path d="M38 30H37V31H38V30Z" fill="#634E65"/>
<path d="M39 30H38V31H39V30Z" fill="#634E65"/>
<path d="M40 30H39V31H40V30Z" fill="#634E65"/>
<path d="M41 30H40V31H41V30Z" fill="#634E65"/>
<path d="M42 30H41V31H42V30Z" fill="#634E65"/>
<path d="M43 30H42V31H43V30Z" fill="#634E65"/>
<path d="M44 30H43V31H44V30Z" fill="#634E65"/>
<path d="M45 30H44V31H45V30Z" fill="#634E65"/>
<path d="M46 30H45V31H46V30Z" fill="#634E65"/>
<path d="M47 30H46V31H47V30Z" fill="#634E65"/>
<path d="M16 31H15V32H16V31Z" fill="#634E65"/>
<path d="M17 31H16V32H17V31Z" fill="#634E65"/>
<path d="M18 31H17V32H18V31Z" fill="#634E65"/>
<path d="M19 31H18V32H19V31Z" fill="#634E65"/>
<path d="M20 31H19V32H20V31Z" fill="#634E65"/>
<path d="M21 31H20V32H21V31Z" fill="#634E65"/>
<path d="M22 31H21V32H22V31Z" fill="#634E65"/>
<path d="M23 31H22V32H23V31Z" fill="#634E65"/>
<path d="M24 31H23V32H24V31Z" fill="#634E65"/>
<path d="M25 31H24V32H25V31Z" fill="#634E65"/>
<path d="M26 31H25V32H26V31Z" fill="#634E65"/>
<path d="M27 31H26V32H27V31Z" fill="#634E65"/>
<path d="M28 31H27V32H28V31Z" fill="#634E65"/>
<path d="M29 31H28V32H29V31Z" fill="#634E65"/>
<path d="M30 31H29V32H30V31Z" fill="#634E65"/>
<path d="M31 31H30V32H31V31Z" fill="#634E65"/>
<path d="M32 31H31V32H32V31Z" fill="#634E65"/>
<path d="M33 31H32V32H33V31Z" fill="#634E65"/>
<path d="M34 31H33V32H34V31Z" fill="#634E65"/>
<path d="M35 31H34V32H35V31Z" fill="#634E65"/>
<path d="M36 31H35V32H36V31Z" fill="#634E65"/>
<path d="M37 31H36V32H37V31Z" fill="#634E65"/>
<path d="M38 31H37V32H38V31Z" fill="#634E65"/>
<path d="M39 31H38V32H39V31Z" fill="#634E65"/>
<path d="M40 31H39V32H40V31Z" fill="#634E65"/>
<path d="M41 31H40V32H41V31Z" fill="#634E65"/>
<path d="M42 31H41V32H42V31Z" fill="#634E65"/>
<path d="M43 31H42V32H43V31Z" fill="#634E65"/>
<path d="M19 32H18V33H19V32Z" fill="#634E65"/>
<path d="M20 32H19V33H20V32Z" fill="#634E65"/>
<path d="M21 32H20V33H21V32Z" fill="#634E65"/>
<path d="M22 32H21V33H22V32Z" fill="#634E65"/>
<path d="M23 32H22V33H23V32Z" fill="#634E65"/>
<path d="M24 32H23V33H24V32Z" fill="#634E65"/>
<path d="M25 32H24V33H25V32Z" fill="#634E65"/>
<path d="M26 32H25V33H26V32Z" fill="#634E65"/>
<path d="M27 32H26V33H27V32Z" fill="#634E65"/>
<path d="M28 32H27V33H28V32Z" fill="#634E65"/>
<path d="M29 32H28V33H29V32Z" fill="#634E65"/>
<path d="M30 32H29V33H30V32Z" fill="#634E65"/>
</svg>
