<svg width="50" height="50" viewBox="0 0 50 50" fill="none" xmlns="http://www.w3.org/2000/svg">
<path d="M31.5416 38.118H29.6726V39.996H31.5416V38.118Z" fill="#7F665B"/>
<path d="M29.6725 38.118H27.8035V39.996H29.6725V38.118Z" fill="#7F665B"/>
<path d="M27.8036 38.118H25.9346V39.996H27.8036V38.118Z" fill="#8A6C5E"/>
<path d="M25.9344 38.118H24.0654V39.996H25.9344V38.118Z" fill="#8A6C5E"/>
<path d="M24.0654 38.118H22.1964V39.996H24.0654V38.118Z" fill="#8A6C5E"/>
<path d="M22.1965 38.118H20.3275V39.996H22.1965V38.118Z" fill="#8A6C5E"/>
<path d="M20.3275 38.118H18.4585V39.996H20.3275V38.118Z" fill="#907365"/>
<path d="M35.2798 36.2402H33.4108V38.1182H35.2798V36.2402Z" fill="#7F665B"/>
<path d="M33.4106 36.2402H31.5416V38.1182H33.4106V36.2402Z" fill="#7F665B"/>
<path d="M31.5416 36.2402H29.6726V38.1182H31.5416V36.2402Z" fill="#907365"/>
<path d="M29.6725 36.2402H27.8035V38.1182H29.6725V36.2402Z" fill="#A2806E"/>
<path d="M27.8036 36.2402H25.9346V38.1182H27.8036V36.2402Z" fill="#A2806E"/>
<path d="M25.9344 36.2402H24.0654V38.1182H25.9344V36.2402Z" fill="#A2806E"/>
<path d="M24.0654 36.2402H22.1964V38.1182H24.0654V36.2402Z" fill="#A2806E"/>
<path d="M22.1965 36.2402H20.3275V38.1182H22.1965V36.2402Z" fill="#A2806E"/>
<path d="M20.3275 36.2402H18.4585V38.1182H20.3275V36.2402Z" fill="#A2806E"/>
<path d="M18.4585 36.2402H16.5895V38.1182H18.4585V36.2402Z" fill="#907365"/>
<path d="M16.5893 36.2402H14.7203V38.1182H16.5893V36.2402Z" fill="#7F665B"/>
<path d="M35.2798 34.3621H33.4108V36.2401H35.2798V34.3621Z" fill="#7F665B"/>
<path d="M33.4106 34.3621H31.5416V36.2401H33.4106V34.3621Z" fill="#907365"/>
<path d="M31.5416 34.3621H29.6726V36.2401H31.5416V34.3621Z" fill="#A2806E"/>
<path d="M29.6725 34.3621H27.8035V36.2401H29.6725V34.3621Z" fill="#A2806E"/>
<path d="M27.8036 34.3621H25.9346V36.2401H27.8036V34.3621Z" fill="#A2806E"/>
<path d="M25.9344 34.3621H24.0654V36.2401H25.9344V34.3621Z" fill="#A2806E"/>
<path d="M24.0654 34.3621H22.1964V36.2401H24.0654V34.3621Z" fill="#A2806E"/>
<path d="M22.1965 34.3621H20.3275V36.2401H22.1965V34.3621Z" fill="#A2806E"/>
<path d="M20.3275 34.3621H18.4585V36.2401H20.3275V34.3621Z" fill="#A2806E"/>
<path d="M18.4585 34.3621H16.5895V36.2401H18.4585V34.3621Z" fill="#A2806E"/>
<path d="M16.5893 34.3621H14.7203V36.2401H16.5893V34.3621Z" fill="#7F665B"/>
<path d="M37.1487 32.5026H35.2797V34.3806H37.1487V32.5026Z" fill="#7F665B"/>
<path d="M35.2798 32.5026H33.4108V34.3806H35.2798V32.5026Z" fill="#907365"/>
<path d="M33.4106 32.5026H31.5416V34.3806H33.4106V32.5026Z" fill="#A2806E"/>
<path d="M31.5416 32.5026H29.6726V34.3806H31.5416V32.5026Z" fill="#A2806E"/>
<path d="M29.6725 32.5026H27.8035V34.3806H29.6725V32.5026Z" fill="#A2806E"/>
<path d="M27.8036 32.5026H25.9346V34.3806H27.8036V32.5026Z" fill="#9C8170"/>
<path d="M25.9344 32.5026H24.0654V34.3806H25.9344V32.5026Z" fill="#AC8E7B"/>
<path d="M24.0654 32.5026H22.1964V34.3806H24.0654V32.5026Z" fill="#AC8E7B"/>
<path d="M22.1965 32.5026H20.3275V34.3806H22.1965V32.5026Z" fill="#AC8E7B"/>
<path d="M20.3275 32.5026H18.4585V34.3806H20.3275V32.5026Z" fill="#A2806E"/>
<path d="M18.4585 32.5026H16.5895V34.3806H18.4585V32.5026Z" fill="#A2806E"/>
<path d="M16.5893 32.5026H14.7203V34.3806H16.5893V32.5026Z" fill="#A2806E"/>
<path d="M14.7204 32.5026H12.8514V34.3806H14.7204V32.5026Z" fill="#7F665B"/>
<path d="M39.0177 30.6247H37.1487V32.5027H39.0177V30.6247Z" fill="#7F665B"/>
<path d="M37.1487 30.6247H35.2797V32.5027H37.1487V30.6247Z" fill="#907365"/>
<path d="M35.2798 30.6247H33.4108V32.5027H35.2798V30.6247Z" fill="#A2806E"/>
<path d="M33.4106 30.6247H31.5416V32.5027H33.4106V30.6247Z" fill="#A2806E"/>
<path d="M31.5416 30.6247H29.6726V32.5027H31.5416V30.6247Z" fill="#A2806E"/>
<path d="M29.6725 30.6247H27.8035V32.5027H29.6725V30.6247Z" fill="#9A7968"/>
<path d="M27.8036 30.6247H25.9346V32.5027H27.8036V30.6247Z" fill="#735155"/>
<path d="M25.9344 30.6247H24.0654V32.5027H25.9344V30.6247Z" fill="#735155"/>
<path d="M24.0654 30.6247H22.1964V32.5027H24.0654V30.6247Z" fill="#AC8E7B"/>
<path d="M22.1965 30.6247H20.3275V32.5027H22.1965V30.6247Z" fill="#735155"/>
<path d="M20.3275 30.6247H18.4585V32.5027H20.3275V30.6247Z" fill="#A2806E"/>
<path d="M18.4585 30.6247H16.5895V32.5027H18.4585V30.6247Z" fill="#A2806E"/>
<path d="M16.5893 30.6247H14.7203V32.5027H16.5893V30.6247Z" fill="#A2806E"/>
<path d="M14.7204 30.6247H12.8514V32.5027H14.7204V30.6247Z" fill="#A2806E"/>
<path d="M12.8514 30.6247H10.9824V32.5027H12.8514V30.6247Z" fill="#7F665B"/>
<path d="M39.0177 28.7466H37.1487V30.6246H39.0177V28.7466Z" fill="#7F665B"/>
<path d="M37.1487 28.7466H35.2797V30.6246H37.1487V28.7466Z" fill="#907365"/>
<path d="M35.2798 28.7466H33.4108V30.6246H35.2798V28.7466Z" fill="#A2806E"/>
<path d="M33.4106 28.7466H31.5416V30.6246H33.4106V28.7466Z" fill="#A2806E"/>
<path d="M31.5416 28.7466H29.6726V30.6246H31.5416V28.7466Z" fill="#9A7968"/>
<path d="M29.6725 28.7466H27.8035V30.6246H29.6725V28.7466Z" fill="#735155"/>
<path d="M27.8036 28.7466H25.9346V30.6246H27.8036V28.7466Z" fill="#AC8E7B"/>
<path d="M25.9344 28.7466H24.0654V30.6246H25.9344V28.7466Z" fill="#22151F"/>
<path d="M24.0654 28.7466H22.1964V30.6246H24.0654V28.7466Z" fill="#534C68"/>
<path d="M22.1965 28.7466H20.3275V30.6246H22.1965V28.7466Z" fill="#AC8E7B"/>
<path d="M20.3275 28.7466H18.4585V30.6246H20.3275V28.7466Z" fill="#735155"/>
<path d="M18.4585 28.7466H16.5895V30.6246H18.4585V28.7466Z" fill="#A2806E"/>
<path d="M16.5893 28.7466H14.7203V30.6246H16.5893V28.7466Z" fill="#A2806E"/>
<path d="M14.7204 28.7466H12.8514V30.6246H14.7204V28.7466Z" fill="#A2806E"/>
<path d="M12.8514 28.7466H10.9824V30.6246H12.8514V28.7466Z" fill="#7F665B"/>
<path d="M39.0177 26.8688H37.1487V28.7468H39.0177V26.8688Z" fill="#7F665B"/>
<path d="M37.1487 26.8688H35.2797V28.7468H37.1487V26.8688Z" fill="#907365"/>
<path d="M35.2798 26.8688H33.4108V28.7468H35.2798V26.8688Z" fill="#A2806E"/>
<path d="M33.4106 26.8688H31.5416V28.7468H33.4106V26.8688Z" fill="#A2806E"/>
<path d="M31.5416 26.8688H29.6726V28.7468H31.5416V26.8688Z" fill="#A2806E"/>
<path d="M29.6725 26.8688H27.8035V28.7468H29.6725V26.8688Z" fill="#A2806E"/>
<path d="M27.8036 26.8688H25.9346V28.7468H27.8036V26.8688Z" fill="#A2806E"/>
<path d="M25.9344 26.8688H24.0654V28.7468H25.9344V26.8688Z" fill="#22151F"/>
<path d="M24.0654 26.8688H22.1964V28.7468H24.0654V26.8688Z" fill="#22151F"/>
<path d="M22.1965 26.8688H20.3275V28.7468H22.1965V26.8688Z" fill="#A2806E"/>
<path d="M20.3275 26.8688H18.4585V28.7468H20.3275V26.8688Z" fill="#A2806E"/>
<path d="M18.4585 26.8688H16.5895V28.7468H18.4585V26.8688Z" fill="#A2806E"/>
<path d="M16.5893 26.8688H14.7203V28.7468H16.5893V26.8688Z" fill="#A2806E"/>
<path d="M14.7204 26.8688H12.8514V28.7468H14.7204V26.8688Z" fill="#A2806E"/>
<path d="M12.8514 26.8688H10.9824V28.7468H12.8514V26.8688Z" fill="#7F665B"/>
<path d="M39.0177 24.9907H37.1487V26.8687H39.0177V24.9907Z" fill="#7F665B"/>
<path d="M37.1487 24.9907H35.2797V26.8687H37.1487V24.9907Z" fill="#907365"/>
<path d="M35.2798 24.9907H33.4108V26.8687H35.2798V24.9907Z" fill="#A2806E"/>
<path d="M33.4106 24.9907H31.5416V26.8687H33.4106V24.9907Z" fill="#907365"/>
<path d="M31.5416 24.9907H29.6726V26.8687H31.5416V24.9907Z" fill="#22151F"/>
<path d="M29.6725 24.9907H27.8035V26.8687H29.6725V24.9907Z" fill="#22151F"/>
<path d="M27.8036 24.9907H25.9346V26.8687H27.8036V24.9907Z" fill="#907365"/>
<path d="M25.9344 24.9907H24.0654V26.8687H25.9344V24.9907Z" fill="#A2806E"/>
<path d="M24.0654 24.9907H22.1964V26.8687H24.0654V24.9907Z" fill="#A2806E"/>
<path d="M22.1965 24.9907H20.3275V26.8687H22.1965V24.9907Z" fill="#352526"/>
<path d="M20.3275 24.9907H18.4585V26.8687H20.3275V24.9907Z" fill="#22151F"/>
<path d="M18.4585 24.9907H16.5895V26.8687H18.4585V24.9907Z" fill="#907365"/>
<path d="M16.5893 24.9907H14.7203V26.8687H16.5893V24.9907Z" fill="#A2806E"/>
<path d="M14.7204 24.9907H12.8514V26.8687H14.7204V24.9907Z" fill="#A2806E"/>
<path d="M12.8514 24.9907H10.9824V26.8687H12.8514V24.9907Z" fill="#7F665B"/>
<path d="M39.0177 23.1313H37.1487V25.0093H39.0177V23.1313Z" fill="#7F665B"/>
<path d="M37.1487 23.1313H35.2797V25.0093H37.1487V23.1313Z" fill="#907365"/>
<path d="M35.2798 23.1313H33.4108V25.0093H35.2798V23.1313Z" fill="#A2806E"/>
<path d="M33.4106 23.1313H31.5416V25.0093H33.4106V23.1313Z" fill="#A2806E"/>
<path d="M31.5416 23.1313H29.6726V25.0093H31.5416V23.1313Z" fill="#E5D8CE"/>
<path d="M29.6725 23.1313H27.8035V25.0093H29.6725V23.1313Z" fill="#22151F"/>
<path d="M27.8036 23.1313H25.9346V25.0093H27.8036V23.1313Z" fill="#7F665B"/>
<path d="M25.9344 23.1313H24.0654V25.0093H25.9344V23.1313Z" fill="#A2806E"/>
<path d="M24.0654 23.1313H22.1964V25.0093H24.0654V23.1313Z" fill="#A2806E"/>
<path d="M22.1965 23.1313H20.3275V25.0093H22.1965V23.1313Z" fill="#E5D8CE"/>
<path d="M20.3275 23.1313H18.4585V25.0093H20.3275V23.1313Z" fill="#22151F"/>
<path d="M18.4585 23.1313H16.5895V25.0093H18.4585V23.1313Z" fill="#7F665B"/>
<path d="M16.5893 23.1313H14.7203V25.0093H16.5893V23.1313Z" fill="#A2806E"/>
<path d="M14.7204 23.1313H12.8514V25.0093H14.7204V23.1313Z" fill="#7F665B"/>
<path d="M37.1487 21.2534H35.2797V23.1314H37.1487V21.2534Z" fill="#7F665B"/>
<path d="M35.2798 21.2534H33.4108V23.1314H35.2798V21.2534Z" fill="#907365"/>
<path d="M33.4106 21.2534H31.5416V23.1314H33.4106V21.2534Z" fill="#A2806E"/>
<path d="M31.5416 21.2534H29.6726V23.1314H31.5416V21.2534Z" fill="#A2806E"/>
<path d="M29.6725 21.2534H27.8035V23.1314H29.6725V21.2534Z" fill="#7F665B"/>
<path d="M27.8036 21.2534H25.9346V23.1314H27.8036V21.2534Z" fill="#A2806E"/>
<path d="M25.9344 21.2534H24.0654V23.1314H25.9344V21.2534Z" fill="#A2806E"/>
<path d="M24.0654 21.2534H22.1964V23.1314H24.0654V21.2534Z" fill="#A2806E"/>
<path d="M22.1965 21.2534H20.3275V23.1314H22.1965V21.2534Z" fill="#A2806E"/>
<path d="M20.3275 21.2534H18.4585V23.1314H20.3275V21.2534Z" fill="#7F665B"/>
<path d="M18.4585 21.2534H16.5895V23.1314H18.4585V21.2534Z" fill="#A2806E"/>
<path d="M16.5893 21.2534H14.7203V23.1314H16.5893V21.2534Z" fill="#A2806E"/>
<path d="M14.7204 21.2534H12.8514V23.1314H14.7204V21.2534Z" fill="#7F665B"/>
<path d="M37.1487 19.3753H35.2797V21.2533H37.1487V19.3753Z" fill="#7F665B"/>
<path d="M35.2798 19.3753H33.4108V21.2533H35.2798V19.3753Z" fill="#907365"/>
<path d="M33.4106 19.3753H31.5416V21.2533H33.4106V19.3753Z" fill="#A2806E"/>
<path d="M31.5416 19.3753H29.6726V21.2533H31.5416V19.3753Z" fill="#A2806E"/>
<path d="M29.6725 19.3753H27.8035V21.2533H29.6725V19.3753Z" fill="#A2806E"/>
<path d="M27.8036 19.3753H25.9346V21.2533H27.8036V19.3753Z" fill="#A2806E"/>
<path d="M25.9344 19.3753H24.0654V21.2533H25.9344V19.3753Z" fill="#A2806E"/>
<path d="M24.0654 19.3753H22.1964V21.2533H24.0654V19.3753Z" fill="#A2806E"/>
<path d="M22.1965 19.3753H20.3275V21.2533H22.1965V19.3753Z" fill="#A2806E"/>
<path d="M20.3275 19.3753H18.4585V21.2533H20.3275V19.3753Z" fill="#A2806E"/>
<path d="M18.4585 19.3753H16.5895V21.2533H18.4585V19.3753Z" fill="#A2806E"/>
<path d="M16.5893 19.3753H14.7203V21.2533H16.5893V19.3753Z" fill="#A2806E"/>
<path d="M14.7204 19.3753H12.8514V21.2533H14.7204V19.3753Z" fill="#7F665B"/>
<path d="M39.0177 17.4973H37.1487V19.3753H39.0177V17.4973Z" fill="#7F665B"/>
<path d="M37.1487 17.4973H35.2797V19.3753H37.1487V17.4973Z" fill="#87675F"/>
<path d="M35.2798 17.4973H33.4108V19.3753H35.2798V17.4973Z" fill="#7F665B"/>
<path d="M33.4106 17.4973H31.5416V19.3753H33.4106V17.4973Z" fill="#907365"/>
<path d="M31.5416 17.4973H29.6726V19.3753H31.5416V17.4973Z" fill="#A2806E"/>
<path d="M29.6725 17.4973H27.8035V19.3753H29.6725V17.4973Z" fill="#A2806E"/>
<path d="M27.8036 17.4973H25.9346V19.3753H27.8036V17.4973Z" fill="#A2806E"/>
<path d="M25.9344 17.4973H24.0654V19.3753H25.9344V17.4973Z" fill="#A2806E"/>
<path d="M24.0654 17.4973H22.1964V19.3753H24.0654V17.4973Z" fill="#A2806E"/>
<path d="M22.1965 17.4973H20.3275V19.3753H22.1965V17.4973Z" fill="#A2806E"/>
<path d="M20.3275 17.4973H18.4585V19.3753H20.3275V17.4973Z" fill="#A2806E"/>
<path d="M18.4585 17.4973H16.5895V19.3753H18.4585V17.4973Z" fill="#A2806E"/>
<path d="M16.5893 17.4973H14.7203V19.3753H16.5893V17.4973Z" fill="#907365"/>
<path d="M14.7204 17.4973H12.8514V19.3753H14.7204V17.4973Z" fill="#7F665B"/>
<path d="M39.0177 15.6193H37.1487V17.4973H39.0177V15.6193Z" fill="#7F665B"/>
<path d="M37.1487 15.6193H35.2797V17.4973H37.1487V15.6193Z" fill="#735155"/>
<path d="M35.2798 15.6193H33.4108V17.4973H35.2798V15.6193Z" fill="#87675F"/>
<path d="M33.4106 15.6193H31.5416V17.4973H33.4106V15.6193Z" fill="#7F665B"/>
<path d="M31.5416 15.6193H29.6726V17.4973H31.5416V15.6193Z" fill="#907365"/>
<path d="M29.6725 15.6193H27.8035V17.4973H29.6725V15.6193Z" fill="#A2806E"/>
<path d="M27.8036 15.6193H25.9346V17.4973H27.8036V15.6193Z" fill="#A2806E"/>
<path d="M25.9344 15.6193H24.0654V17.4973H25.9344V15.6193Z" fill="#A2806E"/>
<path d="M24.0654 15.6193H22.1964V17.4973H24.0654V15.6193Z" fill="#A2806E"/>
<path d="M22.1965 15.6193H20.3275V17.4973H22.1965V15.6193Z" fill="#A2806E"/>
<path d="M20.3275 15.6193H18.4585V17.4973H20.3275V15.6193Z" fill="#A2806E"/>
<path d="M18.4585 15.6193H16.5895V17.4973H18.4585V15.6193Z" fill="#7F665B"/>
<path d="M16.5893 15.6193H14.7203V17.4973H16.5893V15.6193Z" fill="#87675F"/>
<path d="M14.7204 15.6193H12.8514V17.4973H14.7204V15.6193Z" fill="#735155"/>
<path d="M12.8514 15.6193H10.9824V17.4973H12.8514V15.6193Z" fill="#7F665B"/>
<path d="M39.0177 13.7598H37.1487V15.6378H39.0177V13.7598Z" fill="#7F665B"/>
<path d="M37.1487 13.7598H35.2797V15.6378H37.1487V13.7598Z" fill="#624241"/>
<path d="M35.2798 13.7598H33.4108V15.6378H35.2798V13.7598Z" fill="#735155"/>
<path d="M33.4106 13.7598H31.5416V15.6378H33.4106V13.7598Z" fill="#87675F"/>
<path d="M31.5416 13.7598H29.6726V15.6378H31.5416V13.7598Z" fill="#7F665B"/>
<path d="M29.6725 13.7598H27.8035V15.6378H29.6725V13.7598Z" fill="#907365"/>
<path d="M27.8036 13.7598H25.9346V15.6378H27.8036V13.7598Z" fill="#A2806E"/>
<path d="M25.9344 13.7598H24.0654V15.6378H25.9344V13.7598Z" fill="#A2806E"/>
<path d="M24.0654 13.7598H22.1964V15.6378H24.0654V13.7598Z" fill="#A2806E"/>
<path d="M22.1965 13.7598H20.3275V15.6378H22.1965V13.7598Z" fill="#A2806E"/>
<path d="M20.3275 13.7598H18.4585V15.6378H20.3275V13.7598Z" fill="#7F665B"/>
<path d="M18.4585 13.7598H16.5895V15.6378H18.4585V13.7598Z" fill="#87675F"/>
<path d="M16.5893 13.7598H14.7203V15.6378H16.5893V13.7598Z" fill="#735155"/>
<path d="M14.7204 13.7598H12.8514V15.6378H14.7204V13.7598Z" fill="#624241"/>
<path d="M12.8514 13.7599H10.9824V15.6379H12.8514V13.7599Z" fill="#7F665B"/>
<path d="M39.0177 11.882H37.1487V13.76H39.0177V11.882Z" fill="#7F665B"/>
<path d="M37.1487 11.882H35.2797V13.76H37.1487V11.882Z" fill="#7F665B"/>
<path d="M35.2798 11.882H33.4108V13.76H35.2798V11.882Z" fill="#624241"/>
<path d="M33.4106 11.882H31.5416V13.76H33.4106V11.882Z" fill="#735155"/>
<path d="M31.5416 11.882H29.6726V13.76H31.5416V11.882Z" fill="#7F665B"/>
<path d="M29.6725 11.882H27.8035V13.76H29.6725V11.882Z" fill="#7F665B"/>
<path d="M27.8036 11.882H25.9346V13.76H27.8036V11.882Z" fill="#7F665B"/>
<path d="M25.9344 11.882H24.0654V13.76H25.9344V11.882Z" fill="#7F665B"/>
<path d="M24.0654 11.882H22.1964V13.76H24.0654V11.882Z" fill="#7F665B"/>
<path d="M22.1965 11.882H20.3275V13.76H22.1965V11.882Z" fill="#7F665B"/>
<path d="M20.3275 11.882H18.4585V13.76H20.3275V11.882Z" fill="#7F665B"/>
<path d="M18.4585 11.882H16.5895V13.76H18.4585V11.882Z" fill="#624241"/>
<path d="M16.5893 11.882H14.7203V13.76H16.5893V11.882Z" fill="#624241"/>
<path d="M14.7204 11.882H12.8514V13.76H14.7204V11.882Z" fill="#7F665B"/>
<path d="M37.1487 10.004H35.2797V11.882H37.1487V10.004Z" fill="#7F665B"/>
<path d="M35.2798 10.004H33.4108V11.882H35.2798V10.004Z" fill="#7F665B"/>
<path d="M33.4106 10.004H31.5416V11.882H33.4106V10.004Z" fill="#7F665B"/>
<path d="M31.5416 10.004H29.6726V11.882H31.5416V10.004Z" fill="#7F665B"/>
<path d="M20.3275 10.004H18.4585V11.882H20.3275V10.004Z" fill="#7F665B"/>
<path d="M18.4585 10.004H16.5895V11.882H18.4585V10.004Z" fill="#7F665B"/>
<path d="M16.5893 10.004H14.7203V11.882H16.5893V10.004Z" fill="#7F665B"/>
<path d="M14.7204 10.004H12.8514V11.882H14.7204V10.004Z" fill="#7F665B"/>
</svg>
