<svg width="50" height="50" viewBox="0 0 50 50" fill="none" xmlns="http://www.w3.org/2000/svg">
<rect x="7" y="16" width="12" height="13" fill="#AC9A94"/>
<rect x="28" y="37" width="3" height="5" fill="#AC9A94"/>
<rect x="27" y="32" width="3" height="5" fill="#AC9A94"/>
<rect x="26" y="27" width="3" height="5" fill="#AC9A94"/>
<rect x="23" y="24" width="3" height="5" fill="#AC9A94"/>
<rect x="19" y="24" width="4" height="5" fill="#AC9A94"/>
<rect x="9" y="14" width="10" height="2" fill="#AC9A94"/>
<rect x="8" y="15" width="1" height="1" fill="#AC9A94"/>
<rect x="6" y="18" width="1" height="1" fill="#AC9A94"/>
<rect x="3" y="23" width="1" height="1" fill="#AC9A94"/>
<rect x="2" y="24" width="1" height="1" fill="#AC9A94"/>
<rect x="2" y="25" width="1" height="7" fill="#AC9A94"/>
<rect x="1" y="32" width="1" height="1" fill="#AC9A94"/>
<rect x="3" y="32" width="1" height="1" fill="#AC9A94"/>
<rect x="3" y="33" width="1" height="1" fill="#AC9A94"/>
<rect x="1" y="33" width="1" height="1" fill="#AC9A94"/>
<rect x="6" y="19" width="1" height="9" fill="#AC9A94"/>
<rect x="5" y="19" width="1" height="9" fill="#AC9A94"/>
<rect x="4" y="20" width="1" height="6" fill="#AC9A94"/>
<rect x="10" y="13" width="1" height="1" fill="#AC9A94"/>
<rect x="11" y="13" width="1" height="1" fill="#AC9A94"/>
<path d="M11 12H12V13H11V12Z" fill="#AC9A94"/>
<rect x="12" y="12" width="1" height="1" fill="#AC9A94"/>
<rect x="12" y="13" width="1" height="1" fill="#AC9A94"/>
<rect x="13" y="13" width="1" height="1" fill="#AC9A94"/>
<rect x="14" y="13" width="1" height="1" fill="#AC9A94"/>
<rect x="14" y="12" width="1" height="1" fill="#AC9A94"/>
<rect x="15" y="12" width="1" height="1" fill="#AC9A94"/>
<rect x="16" y="12" width="1" height="1" fill="#AC9A94"/>
<rect x="17" y="12" width="1" height="1" fill="#AC9A94"/>
<rect x="34" y="20" width="1" height="1" fill="#AC9A94"/>
<rect x="34" y="21" width="1" height="1" fill="#AC9A94"/>
<rect x="35" y="20" width="1" height="1" fill="#AC9A94"/>
<rect x="36" y="19" width="1" height="1" fill="#AC9A94"/>
<rect x="39" y="18" width="3" height="1" fill="#AC9A94"/>
<rect x="32" y="21" width="1" height="1" fill="#AC9A94"/>
<rect x="33" y="21" width="1" height="1" fill="#AC9A94"/>
<rect x="28" y="16" width="6" height="1" fill="#AC9A94"/>
<rect x="28" y="15" width="3" height="1" fill="#AC9A94"/>
<rect x="28" y="11" width="1" height="4" fill="#AC9A94"/>
<rect x="31" y="15" width="4" height="1" fill="#AC9A94"/>
<rect x="29" y="14" width="5" height="1" fill="#AC9A94"/>
<rect x="29" y="12" width="5" height="3" fill="#AC9A94"/>
<rect x="35" y="14" width="4" height="3" fill="#AC9A94"/>
<rect x="34" y="14" width="1" height="1" fill="#23191B"/>
<rect x="34" y="12" width="3" height="1" fill="#AC9A94"/>
<rect x="39" y="15" width="1" height="1" fill="#AC9A94"/>
<rect x="42" y="18" width="1" height="1" fill="#AC9A94"/>
<rect x="40" y="19" width="4" height="1" fill="#AC9A94"/>
<rect x="41" y="20" width="3" height="1" fill="#AC9A94"/>
<rect x="42" y="21" width="2" height="1" fill="#AC9A94"/>
<rect x="42" y="22" width="2" height="1" fill="#AC9A94"/>
<rect x="41" y="23" width="3" height="1" fill="#AC9A94"/>
<rect x="40" y="24" width="3" height="1" fill="#AC9A94"/>
<rect x="44" y="20" width="1" height="3" fill="#AC9A94"/>
<rect x="39" y="16" width="2" height="1" fill="#AC9A94"/>
<rect x="39" y="17" width="3" height="1" fill="#AC9A94"/>
<rect x="34" y="16" width="1" height="1" fill="#AC9A94"/>
<rect x="34" y="17" width="4" height="2" fill="#AC9A94"/>
<rect x="28" y="17" width="6" height="4" fill="#AC9A94"/>
<rect x="31" y="21" width="1" height="1" fill="#AC9A94"/>
<rect x="29" y="11" width="7" height="1" fill="#AC9A94"/>
<rect x="29" y="10" width="6" height="1" fill="#AC9A94"/>
<rect x="31" y="22" width="1" height="1" fill="#AC9A94"/>
<rect x="27" y="23" width="1" height="1" fill="#AC9A94"/>
<rect x="27" y="24" width="1" height="1" fill="#AC9A94"/>
<rect x="27" y="25" width="1" height="1" fill="#AC9A94"/>
<rect x="26" y="25" width="1" height="1" fill="#AC9A94"/>
<rect x="26" y="24" width="1" height="1" fill="#AC9A94"/>
<rect x="19" y="23" width="8" height="1" fill="#AC9A94"/>
<rect x="19" y="22" width="7" height="1" fill="#AC9A94"/>
<rect x="19" y="21" width="7" height="1" fill="#AC9A94"/>
<rect x="26" y="21" width="5" height="2" fill="#AC9A94"/>
<rect x="35" y="19" width="1" height="1" fill="#AC9A94"/>
<rect x="38" y="17" width="1" height="1" fill="#AC9A94"/>
<rect x="34" y="13" width="1" height="1" fill="#AC9A94"/>
<rect x="35" y="13" width="1" height="1" fill="#AC9A94"/>
<rect x="36" y="13" width="1" height="1" fill="#AC9A94"/>
<rect x="37" y="13" width="1" height="1" fill="#AC9A94"/>
<rect x="34" y="19" width="1" height="1" fill="#AC9A94"/>
<rect x="15" y="13" width="1" height="1" fill="#AC9A94"/>
<rect x="16" y="13" width="1" height="1" fill="#AC9A94"/>
<rect x="17" y="13" width="1" height="1" fill="#AC9A94"/>
<rect x="18" y="13" width="1" height="1" fill="#AC9A94"/>
<rect x="19" y="14" width="2" height="7" fill="#AC9A94"/>
<rect x="20" y="13" width="1" height="1" fill="#AC9A94"/>
<rect x="21" y="14" width="1" height="1" fill="#AC9A94"/>
<rect x="22" y="15" width="1" height="1" fill="#AC9A94"/>
<rect x="21" y="15" width="1" height="1" fill="#AC9A94"/>
<rect x="19" y="13" width="1" height="1" fill="#AC9A94"/>
<rect x="18" y="12" width="1" height="1" fill="#AC9A94"/>
<rect x="21" y="16" width="7" height="5" fill="#AC9A94"/>
<rect x="24" y="15" width="1" height="1" fill="#AC9A94"/>
<rect x="25" y="15" width="1" height="1" fill="#AC9A94"/>
<rect x="26" y="15" width="1" height="1" fill="#AC9A94"/>
<rect x="27" y="15" width="1" height="1" fill="#AC9A94"/>
<rect x="27" y="14" width="1" height="1" fill="#AC9A94"/>
<rect x="27" y="13" width="1" height="1" fill="#AC9A94"/>
<rect x="27" y="13" width="1" height="1" fill="#AC9A94"/>
<rect x="25" y="14" width="1" height="1" fill="#AC9A94"/>
<rect x="27" y="12" width="1" height="1" fill="#AC9A94"/>
<rect x="26" y="11" width="1" height="1" fill="#9B857E"/>
<rect x="26" y="11" width="1" height="1" fill="#9B857E"/>
<rect x="25" y="11" width="1" height="1" fill="#9B857E"/>
<rect x="24" y="11" width="1" height="1" fill="#9B857E"/>
<rect x="23" y="12" width="1" height="1" fill="#9B857E"/>
<rect x="22" y="13" width="1" height="1" fill="#9B857E"/>
<rect x="22" y="14" width="1" height="1" fill="#9B857E"/>
<rect x="22" y="15" width="1" height="1" fill="#9B857E"/>
<rect x="22" y="16" width="1" height="1" fill="#9B857E"/>
<rect x="23" y="17" width="1" height="1" fill="#9B857E"/>
<rect x="23" y="18" width="1" height="1" fill="#9B857E"/>
<rect x="24" y="19" width="1" height="1" fill="#9B857E"/>
<rect x="25" y="19" width="1" height="1" fill="#9B857E"/>
<rect x="26" y="19" width="1" height="1" fill="#9B857E"/>
<rect x="27" y="18" width="1" height="1" fill="#9B857E"/>
<rect x="23" y="12" width="5" height="7" fill="#9B857E"/>
<rect x="27" y="12" width="1" height="1" fill="#9B857E"/>
<rect x="13" y="12" width="1" height="1" fill="#AC9A94"/>
<rect x="26" y="26" width="1" height="1" fill="#AC9A94"/>
<rect x="27" y="26" width="1" height="1" fill="#AC9A94"/>
<rect x="28" y="26" width="1" height="1" fill="#AC9A94"/>
<rect x="29" y="29" width="1" height="1" fill="#AC9A94"/>
<rect x="25" y="29" width="1" height="1" fill="#AC9A94"/>
<rect x="25" y="30" width="1" height="1" fill="#AC9A94"/>
<rect x="25" y="30" width="1" height="2" fill="#AC9A94"/>
<rect x="24" y="30" width="1" height="1" fill="#AC9A94"/>
<rect x="24" y="31" width="1" height="1" fill="#AC9A94"/>
<rect x="25" y="32" width="1" height="1" fill="#AC9A94"/>
<rect x="20" y="30" width="1" height="1" fill="#65544E"/>
<rect x="20" y="31" width="3" height="5" fill="#65544E"/>
<rect x="21" y="30" width="1" height="1" fill="#65544E"/>
<rect x="22" y="30" width="1" height="1" fill="#65544E"/>
<rect x="22" y="30" width="1" height="1" fill="#65544E"/>
<rect x="22" y="30" width="1" height="1" fill="#65544E"/>
<rect x="21" y="29" width="1" height="1" fill="#65544E"/>
<rect x="20" y="29" width="1" height="1" fill="#65544E"/>
<rect x="19" y="34" width="1" height="1" fill="#65544E"/>
<rect x="19" y="35" width="1" height="1" fill="#65544E"/>
<rect x="19" y="36" width="1" height="1" fill="#65544E"/>
<rect x="20" y="36" width="1" height="1" fill="#65544E"/>
<rect x="21" y="36" width="1" height="1" fill="#65544E"/>
<rect x="21" y="37" width="1" height="1" fill="#65544E"/>
<rect x="20" y="37" width="1" height="1" fill="#65544E"/>
<rect x="19" y="37" width="1" height="1" fill="#65544E"/>
<rect x="19" y="38" width="1" height="1" fill="#65544E"/>
<rect x="20" y="38" width="1" height="1" fill="#65544E"/>
<rect x="19" y="39" width="1" height="1" fill="#65544E"/>
<rect x="18" y="39" width="1" height="1" fill="#65544E"/>
<rect x="18" y="40" width="1" height="1" fill="#65544E"/>
<rect x="17" y="40" width="1" height="1" fill="#65544E"/>
<rect x="17" y="41" width="1" height="1" fill="#65544E"/>
<rect x="18" y="41" width="1" height="1" fill="#65544E"/>
<rect x="19" y="41" width="1" height="1" fill="#65544E"/>
<rect x="20" y="41" width="1" height="1" fill="#65544E"/>
<rect x="20" y="40" width="1" height="1" fill="#65544E"/>
<rect x="20" y="39" width="1" height="1" fill="#65544E"/>
<rect x="19" y="40" width="1" height="1" fill="#65544E"/>
<rect x="19" y="40" width="1" height="1" fill="#65544E"/>
<rect x="23" y="33" width="1" height="1" fill="#65544E"/>
<rect x="23" y="32" width="1" height="1" fill="#65544E"/>
<rect x="23" y="31" width="1" height="1" fill="#65544E"/>
<rect x="23" y="30" width="1" height="1" fill="#65544E"/>
<rect x="18" y="38" width="1" height="1" fill="#65544E"/>
<rect x="22" y="29" width="1" height="1" fill="#65544E"/>
<rect x="24" y="29" width="1" height="1" fill="#AC9A94"/>
<rect x="23" y="29" width="1" height="1" fill="#AC9A94"/>
<rect x="7" y="29" width="1" height="1" fill="#AC9A94"/>
<rect x="8" y="29" width="1" height="1" fill="#AC9A94"/>
<rect x="9" y="29" width="1" height="1" fill="#AC9A94"/>
<rect x="10" y="29" width="1" height="1" fill="#AC9A94"/>
<rect x="11" y="29" width="1" height="1" fill="#AC9A94"/>
<rect x="12" y="29" width="1" height="1" fill="#AC9A94"/>
<rect x="14" y="29" width="1" height="1" fill="#AC9A94"/>
<rect x="14" y="29" width="1" height="1" fill="#AC9A94"/>
<rect x="14" y="29" width="1" height="1" fill="#AC9A94"/>
<rect x="14" y="29" width="1" height="1" fill="#AC9A94"/>
<rect x="15" y="29" width="1" height="1" fill="#AC9A94"/>
<rect x="16" y="29" width="1" height="1" fill="#AC9A94"/>
<rect x="17" y="29" width="1" height="1" fill="#AC9A94"/>
<rect x="18" y="29" width="1" height="1" fill="#AC9A94"/>
<rect x="18" y="29" width="1" height="1" fill="#AC9A94"/>
<rect x="18" y="29" width="1" height="1" fill="#AC9A94"/>
<rect x="19" y="29" width="1" height="1" fill="#AC9A94"/>
<rect x="19" y="29" width="1" height="1" fill="#AC9A94"/>
<rect x="19" y="29" width="1" height="1" fill="#AC9A94"/>
<rect x="19" y="29" width="1" height="1" fill="#AC9A94"/>
<rect x="20" y="29" width="1" height="1" fill="#AC9A94"/>
<rect x="20" y="29" width="1" height="1" fill="#AC9A94"/>
<rect x="21" y="29" width="1" height="1" fill="#AC9A94"/>
<rect x="22" y="29" width="1" height="1" fill="#AC9A94"/>
<rect x="13" y="29" width="1" height="1" fill="#AC9A94"/>
<rect x="13" y="30" width="1" height="1" fill="#AC9A94"/>
<rect x="12" y="30" width="1" height="1" fill="#AC9A94"/>
<rect x="12" y="30" width="1" height="1" fill="#AC9A94"/>
<rect x="12" y="31" width="1" height="1" fill="#AC9A94"/>
<rect x="13" y="31" width="1" height="1" fill="#65544E"/>
<rect x="14" y="31" width="1" height="1" fill="#65544E"/>
<rect x="15" y="31" width="1" height="1" fill="#65544E"/>
<rect x="16" y="31" width="1" height="1" fill="#65544E"/>
<rect width="1" height="1" transform="matrix(1 0 0 -1 15 33)" fill="#65544E"/>
<rect x="14" y="33" width="1" height="1" fill="#65544E"/>
<rect x="13" y="34" width="1" height="1" fill="#65544E"/>
<rect x="12" y="34" width="1" height="1" fill="#65544E"/>
<rect x="12" y="35" width="1" height="1" fill="#65544E"/>
<rect x="12" y="35" width="1" height="1" fill="#65544E"/>
<rect x="9" y="40" width="1" height="1" fill="#65544E"/>
<rect x="8" y="40" width="1" height="1" fill="#65544E"/>
<rect x="8" y="39" width="1" height="1" fill="#65544E"/>
<rect x="9" y="38" width="1" height="1" fill="#65544E"/>
<rect x="9" y="39" width="1" height="1" fill="#65544E"/>
<rect x="9" y="37" width="1" height="1" fill="#65544E"/>
<rect x="9" y="36" width="1" height="1" fill="#65544E"/>
<rect x="10" y="34" width="1" height="1" fill="#65544E"/>
<rect x="10" y="33" width="1" height="1" fill="#AC9A94"/>
<rect x="11" y="33" width="1" height="1" fill="#65544E"/>
<rect x="11" y="34" width="1" height="1" fill="#65544E"/>
<rect x="12" y="33" width="1" height="1" fill="#65544E"/>
<rect x="13" y="32" width="1" height="1" fill="#65544E"/>
<rect x="14" y="32" width="1" height="1" fill="#65544E"/>
<rect x="13" y="33" width="1" height="1" fill="#65544E"/>
<rect x="12" y="32" width="1" height="1" fill="#65544E"/>
<rect x="11" y="35" width="1" height="1" fill="#65544E"/>
<rect x="14" y="30" width="1" height="1" fill="#65544E"/>
<rect x="15" y="30" width="1" height="1" fill="#65544E"/>
<rect x="16" y="30" width="1" height="1" fill="#65544E"/>
<rect x="6" y="28" width="1" height="1" fill="#AC9A94"/>
<rect x="6" y="29" width="1" height="1" fill="#AC9A94"/>
<rect x="6" y="30" width="6" height="3" fill="#AC9A94"/>
<rect x="6" y="33" width="4" height="3" fill="#AC9A94"/>
<rect x="6" y="36" width="3" height="3" fill="#AC9A94"/>
<rect x="5" y="39" width="3" height="3" fill="#AC9A94"/>
<rect x="5" y="37" width="1" height="2" fill="#AC9A94"/>
<path d="M10 37H11V41H10V37Z" fill="#65544E"/>
<path d="M10 35H11V37H10V35Z" fill="#65544E"/>
<path d="M10 39H11V41H10V39Z" fill="#65544E"/>
<path d="M10 39H11V41H10V39Z" fill="#65544E"/>
<rect x="29" y="30" width="1" height="1" fill="#AC9A94"/>
<rect x="29" y="31" width="1" height="1" fill="#AC9A94"/>
<rect x="27" y="37" width="1" height="1" fill="#AC9A94"/>
<rect x="27" y="38" width="1" height="1" fill="#AC9A94"/>
<rect x="27" y="39" width="1" height="1" fill="#AC9A94"/>
<rect x="27" y="40" width="1" height="1" fill="#AC9A94"/>
<rect x="27" y="41" width="1" height="1" fill="#AC9A94"/>
<rect x="26" y="37" width="1" height="1" fill="#AC9A94"/>
<rect x="26" y="36" width="1" height="1" fill="#AC9A94"/>
<rect x="26" y="35" width="1" height="1" fill="#AC9A94"/>
<rect x="26" y="34" width="1" height="1" fill="#AC9A94"/>
<rect x="26" y="33" width="1" height="1" fill="#AC9A94"/>
<rect x="26" y="32" width="1" height="1" fill="#AC9A94"/>
<rect x="26" y="38" width="1" height="1" fill="#AC9A94"/>
<path d="M27.5 39H28.5V40H27.5V39Z" fill="#AC9A94"/>
<path d="M27.5 40H28.5V41H27.5V40Z" fill="#AC9A94"/>
<path d="M27.5 41H28.5V42H27.5V41Z" fill="#AC9A94"/>
<rect x="7" y="16" width="7" height="13" fill="#AC9A94"/>
<rect x="14" y="16" width="4" height="12" fill="#AC9A94"/>
<rect x="18" y="16" width="1" height="11" fill="#AC9A94"/>
<rect x="28" y="37" width="3" height="5" fill="#AC9A94"/>
<rect x="27" y="32" width="3" height="5" fill="#AC9A94"/>
<rect x="26" y="27" width="3" height="5" fill="#AC9A94"/>
<rect x="23" y="24" width="3" height="5" fill="#AC9A94"/>
<rect x="20" y="26" width="2" height="3" fill="#997F76"/>
<rect x="19" y="27" width="1" height="2" fill="#997F76"/>
<rect x="19" y="26" width="1" height="1" fill="#997F76"/>
<rect x="19" y="24" width="2" height="2" fill="#AC9A94"/>
<rect x="21" y="24" width="1" height="2" fill="#997F76"/>
<rect x="22" y="24" width="1" height="4" fill="#AC9A94"/>
<rect x="22" y="28" width="1" height="1" fill="#997F76"/>
<rect x="9" y="14" width="10" height="2" fill="#AC9A94"/>
<rect x="8" y="15" width="1" height="1" fill="#AC9A94"/>
<rect x="6" y="18" width="1" height="1" fill="#AC9A94"/>
<rect x="3" y="23" width="1" height="1" fill="#AC9A94"/>
<rect x="2" y="24" width="1" height="1" fill="#AC9A94"/>
<rect x="2" y="25" width="1" height="7" fill="#AC9A94"/>
<rect x="1" y="32" width="1" height="1" fill="#AC9A94"/>
<rect x="3" y="32" width="1" height="1" fill="#AC9A94"/>
<rect x="3" y="33" width="1" height="1" fill="#AC9A94"/>
<rect x="1" y="33" width="1" height="1" fill="#AC9A94"/>
<rect x="6" y="19" width="1" height="9" fill="#AC9A94"/>
<rect x="5" y="19" width="1" height="9" fill="#AC9A94"/>
<rect x="4" y="20" width="1" height="6" fill="#AC9A94"/>
<rect x="10" y="13" width="1" height="1" fill="#AC9A94"/>
<rect x="11" y="13" width="1" height="1" fill="#AC9A94"/>
<path d="M11 12H12V13H11V12Z" fill="#AC9A94"/>
<rect x="12" y="12" width="1" height="1" fill="#AC9A94"/>
<rect x="12" y="13" width="1" height="1" fill="#AC9A94"/>
<rect x="13" y="13" width="1" height="1" fill="#AC9A94"/>
<rect x="14" y="13" width="1" height="1" fill="#AC9A94"/>
<rect x="14" y="12" width="1" height="1" fill="#AC9A94"/>
<rect x="15" y="12" width="1" height="1" fill="#AC9A94"/>
<rect x="16" y="12" width="1" height="1" fill="#AC9A94"/>
<rect x="17" y="12" width="1" height="1" fill="#AC9A94"/>
<rect x="34" y="20" width="1" height="1" fill="#AC9A94"/>
<rect x="32" y="21" width="1" height="1" fill="#AC9A94"/>
<rect x="33" y="21" width="1" height="1" fill="#AC9A94"/>
<rect x="28" y="16" width="6" height="1" fill="#AC9A94"/>
<rect x="28" y="15" width="3" height="1" fill="#AC9A94"/>
<rect x="28" y="11" width="1" height="4" fill="#AC9A94"/>
<rect x="31" y="15" width="4" height="1" fill="#AC9A94"/>
<rect x="29" y="14" width="5" height="1" fill="#AC9A94"/>
<rect x="29" y="12" width="5" height="3" fill="#AC9A94"/>
<rect x="35" y="14" width="4" height="3" fill="#AC9A94"/>
<rect x="34" y="14" width="1" height="1" fill="#23191B"/>
<rect x="34" y="12" width="3" height="1" fill="#AC9A94"/>
<rect x="34" y="16" width="1" height="1" fill="#AC9A94"/>
<rect x="34" y="17" width="4" height="2" fill="#AC9A94"/>
<rect x="28" y="17" width="6" height="4" fill="#AC9A94"/>
<rect x="31" y="21" width="1" height="1" fill="#AC9A94"/>
<rect x="29" y="11" width="7" height="1" fill="#AC9A94"/>
<rect x="29" y="10" width="6" height="1" fill="#AC9A94"/>
<rect x="31" y="22" width="1" height="1" fill="#AC9A94"/>
<rect x="26" y="23" width="2" height="1" fill="#997F76"/>
<rect x="27" y="24" width="1" height="1" fill="#997F76"/>
<rect x="25" y="22" width="1" height="1" fill="#997F76"/>
<rect x="27" y="25" width="1" height="1" fill="#AC9A94"/>
<rect x="26" y="25" width="1" height="1" fill="#AC9A94"/>
<rect x="26" y="24" width="1" height="1" fill="#AC9A94"/>
<rect x="19" y="23" width="7" height="1" fill="#AC9A94"/>
<rect x="19" y="22" width="6" height="1" fill="#AC9A94"/>
<rect x="19" y="21" width="7" height="1" fill="#AC9A94"/>
<rect x="26" y="21" width="5" height="2" fill="#AC9A94"/>
<rect x="35" y="19" width="1" height="1" fill="#AC9A94"/>
<rect x="34" y="19" width="1" height="1" fill="#AC9A94"/>
<rect x="15" y="13" width="1" height="1" fill="#AC9A94"/>
<rect x="16" y="13" width="1" height="1" fill="#AC9A94"/>
<rect x="17" y="13" width="1" height="1" fill="#AC9A94"/>
<rect x="18" y="13" width="1" height="1" fill="#AC9A94"/>
<rect x="19" y="14" width="1" height="7" fill="#AC9A94"/>
<rect x="20" y="13" width="1" height="1" fill="#AC9A94"/>
<rect x="20" y="13" width="2" height="2" fill="#A68E87"/>
<rect x="22" y="15" width="1" height="1" fill="#AC9A94"/>
<rect x="20" y="15" width="2" height="1" fill="#A68E87"/>
<rect x="19" y="13" width="1" height="1" fill="#AC9A94"/>
<rect x="18" y="12" width="1" height="1" fill="#AC9A94"/>
<rect x="20" y="16" width="8" height="5" fill="#AC9A94"/>
<rect x="24" y="15" width="1" height="1" fill="#AC9A94"/>
<rect x="25" y="15" width="1" height="1" fill="#AC9A94"/>
<rect x="26" y="15" width="1" height="1" fill="#AC9A94"/>
<rect x="27" y="15" width="1" height="1" fill="#AC9A94"/>
<rect x="27" y="14" width="1" height="1" fill="#AC9A94"/>
<rect x="27" y="13" width="1" height="1" fill="#AC9A94"/>
<rect x="27" y="13" width="1" height="1" fill="#AC9A94"/>
<rect x="25" y="14" width="1" height="1" fill="#AC9A94"/>
<rect x="27" y="12" width="1" height="1" fill="#AC9A94"/>
<rect x="26" y="11" width="1" height="1" fill="#9B857E"/>
<rect x="26" y="11" width="1" height="1" fill="#A68E87"/>
<rect x="25" y="11" width="1" height="1" fill="#A68E87"/>
<rect x="24" y="11" width="1" height="1" fill="#A68E87"/>
<rect x="23" y="12" width="1" height="1" fill="#9B857E"/>
<rect x="22" y="12" width="1" height="2" fill="#A68E87"/>
<rect x="22" y="12" width="1" height="2" fill="#A68E87"/>
<rect x="21" y="12" width="1" height="1" fill="#A68E87"/>
<rect x="22" y="14" width="1" height="1" fill="#A68E87"/>
<rect x="22" y="15" width="1" height="1" fill="#A68E87"/>
<rect x="21" y="16" width="2" height="1" fill="#A68E87"/>
<rect x="22" y="17" width="1" height="1" fill="#A68E87"/>
<rect x="23" y="17" width="1" height="1" fill="#9B857E"/>
<rect x="23" y="18" width="1" height="1" fill="#9B857E"/>
<rect x="24" y="19" width="1" height="1" fill="#A68E87"/>
<rect x="25" y="19" width="1" height="1" fill="#A68E87"/>
<rect x="26" y="19" width="1" height="1" fill="#A68E87"/>
<rect x="27" y="18" width="1" height="1" fill="#9B857E"/>
<rect x="23" y="12" width="5" height="7" fill="#A68E87"/>
<rect x="27" y="12" width="1" height="1" fill="#A68E87"/>
<rect x="13" y="12" width="1" height="1" fill="#AC9A94"/>
<rect x="26" y="26" width="1" height="1" fill="#AC9A94"/>
<rect x="27" y="26" width="1" height="1" fill="#AC9A94"/>
<rect x="28" y="26" width="1" height="1" fill="#AC9A94"/>
<rect x="29" y="29" width="1" height="1" fill="#AC9A94"/>
<rect x="25" y="29" width="1" height="1" fill="#AC9A94"/>
<rect x="25" y="30" width="1" height="1" fill="#AC9A94"/>
<rect x="25" y="30" width="1" height="2" fill="#AC9A94"/>
<rect x="24" y="30" width="1" height="1" fill="#AC9A94"/>
<rect x="24" y="31" width="1" height="1" fill="#AC9A94"/>
<rect x="25" y="32" width="1" height="1" fill="#AC9A94"/>
<rect x="20" y="30" width="1" height="1" fill="#65544E"/>
<rect x="20" y="31" width="3" height="5" fill="#65544E"/>
<rect x="21" y="30" width="1" height="1" fill="#65544E"/>
<rect x="22" y="30" width="1" height="1" fill="#65544E"/>
<rect x="22" y="30" width="1" height="1" fill="#65544E"/>
<rect x="22" y="30" width="1" height="1" fill="#65544E"/>
<rect x="21" y="29" width="1" height="1" fill="#997F76"/>
<rect x="20" y="29" width="1" height="1" fill="#997F76"/>
<rect x="19" y="34" width="1" height="1" fill="#65544E"/>
<rect x="19" y="35" width="1" height="1" fill="#65544E"/>
<rect x="19" y="36" width="1" height="1" fill="#65544E"/>
<rect x="20" y="36" width="1" height="1" fill="#65544E"/>
<rect x="21" y="36" width="1" height="1" fill="#65544E"/>
<rect x="21" y="37" width="1" height="1" fill="#65544E"/>
<rect x="20" y="37" width="1" height="1" fill="#65544E"/>
<rect x="19" y="37" width="1" height="1" fill="#65544E"/>
<rect x="19" y="38" width="1" height="1" fill="#65544E"/>
<rect x="20" y="38" width="1" height="1" fill="#65544E"/>
<rect x="19" y="39" width="1" height="1" fill="#65544E"/>
<rect x="18" y="39" width="1" height="1" fill="#65544E"/>
<rect x="18" y="40" width="1" height="1" fill="#65544E"/>
<rect x="17" y="40" width="1" height="1" fill="#65544E"/>
<rect x="20" y="40" width="1" height="1" fill="#65544E"/>
<rect x="20" y="39" width="1" height="1" fill="#65544E"/>
<rect x="19" y="40" width="1" height="1" fill="#65544E"/>
<rect x="19" y="40" width="1" height="1" fill="#65544E"/>
<rect x="23" y="33" width="1" height="1" fill="#65544E"/>
<rect x="23" y="32" width="1" height="1" fill="#65544E"/>
<rect x="23" y="31" width="1" height="1" fill="#65544E"/>
<rect x="23" y="30" width="1" height="1" fill="#65544E"/>
<rect x="18" y="38" width="1" height="1" fill="#65544E"/>
<rect x="22" y="29" width="1" height="1" fill="#997F76"/>
<rect x="24" y="29" width="1" height="1" fill="#AC9A94"/>
<rect x="23" y="29" width="1" height="1" fill="#997F76"/>
<rect x="7" y="29" width="1" height="1" fill="#AC9A94"/>
<rect x="8" y="29" width="1" height="1" fill="#AC9A94"/>
<rect x="9" y="29" width="1" height="1" fill="#AC9A94"/>
<rect x="10" y="29" width="1" height="1" fill="#AC9A94"/>
<rect x="11" y="29" width="1" height="1" fill="#AC9A94"/>
<rect x="12" y="29" width="1" height="1" fill="#AC9A94"/>
<rect x="14" y="29" width="1" height="1" fill="#997F76"/>
<rect x="14" y="29" width="1" height="1" fill="#997F76"/>
<rect x="14" y="29" width="1" height="1" fill="#997F76"/>
<rect x="14" y="29" width="1" height="1" fill="#997F76"/>
<rect x="14" y="28" width="1" height="1" fill="#AC9A94"/>
<rect x="15" y="29" width="1" height="1" fill="#997F76"/>
<rect x="15" y="28" width="1" height="1" fill="#997F76"/>
<rect x="16" y="29" width="1" height="1" fill="#997F76"/>
<rect x="16" y="28" width="1" height="1" fill="#997F76"/>
<rect x="17" y="29" width="1" height="1" fill="#997F76"/>
<rect x="17" y="28" width="1" height="1" fill="#997F76"/>
<rect x="18" y="29" width="1" height="1" fill="#997F76"/>
<rect x="18" y="29" width="1" height="1" fill="#997F76"/>
<rect x="18" y="29" width="1" height="1" fill="#997F76"/>
<rect x="18" y="28" width="1" height="1" fill="#997F76"/>
<rect x="18" y="27" width="1" height="1" fill="#997F76"/>
<rect x="19" y="29" width="1" height="1" fill="#997F76"/>
<rect x="19" y="29" width="1" height="1" fill="#997F76"/>
<rect x="19" y="29" width="1" height="1" fill="#997F76"/>
<rect x="19" y="29" width="1" height="1" fill="#997F76"/>
<rect x="20" y="29" width="1" height="1" fill="#997F76"/>
<rect x="20" y="29" width="1" height="1" fill="#997F76"/>
<rect x="21" y="29" width="1" height="1" fill="#997F76"/>
<rect x="22" y="29" width="1" height="1" fill="#997F76"/>
<rect x="13" y="29" width="1" height="1" fill="#AC9A94"/>
<rect x="13" y="30" width="1" height="1" fill="#997F76"/>
<rect x="12" y="30" width="1" height="1" fill="#AC9A94"/>
<rect x="12" y="30" width="1" height="1" fill="#AC9A94"/>
<rect x="11" y="30" width="1" height="1" fill="#AC9A94"/>
<rect x="12" y="31" width="1" height="1" fill="#997F76"/>
<rect x="11" y="32" width="1" height="1" fill="#997F76"/>
<rect x="11" y="31" width="1" height="1" fill="#AC9A94"/>
<rect x="13" y="31" width="1" height="1" fill="#65544E"/>
<rect x="14" y="31" width="1" height="1" fill="#65544E"/>
<rect x="15" y="31" width="1" height="1" fill="#65544E"/>
<rect x="16" y="31" width="1" height="1" fill="#65544E"/>
<rect width="1" height="1" transform="matrix(1 0 0 -1 15 33)" fill="#65544E"/>
<rect x="14" y="33" width="1" height="1" fill="#65544E"/>
<rect x="13" y="34" width="1" height="1" fill="#65544E"/>
<rect x="12" y="34" width="1" height="1" fill="#65544E"/>
<rect x="12" y="35" width="1" height="1" fill="#65544E"/>
<rect x="12" y="35" width="1" height="1" fill="#65544E"/>
<rect x="9" y="40" width="1" height="1" fill="#65544E"/>
<rect x="8" y="40" width="1" height="1" fill="#65544E"/>
<rect x="8" y="39" width="1" height="1" fill="#65544E"/>
<rect x="9" y="38" width="1" height="1" fill="#65544E"/>
<rect x="9" y="39" width="1" height="1" fill="#65544E"/>
<rect x="9" y="37" width="1" height="1" fill="#65544E"/>
<rect x="9" y="36" width="1" height="1" fill="#65544E"/>
<rect x="10" y="34" width="1" height="1" fill="#65544E"/>
<rect x="10" y="33" width="1" height="1" fill="#997F76"/>
<rect x="9" y="33" width="1" height="1" fill="#AC9A94"/>
<rect x="10" y="32" width="1" height="1" fill="#AC9A94"/>
<rect x="10" y="31" width="1" height="1" fill="#AC9A94"/>
<rect x="10" y="30" width="1" height="1" fill="#AC9A94"/>
<rect x="11" y="33" width="1" height="1" fill="#65544E"/>
<rect x="11" y="34" width="1" height="1" fill="#65544E"/>
<rect x="12" y="33" width="1" height="1" fill="#65544E"/>
<rect x="13" y="32" width="1" height="1" fill="#65544E"/>
<rect x="14" y="32" width="1" height="1" fill="#65544E"/>
<rect x="13" y="33" width="1" height="1" fill="#65544E"/>
<rect x="12" y="32" width="1" height="1" fill="#65544E"/>
<rect x="11" y="35" width="1" height="1" fill="#65544E"/>
<rect x="14" y="30" width="1" height="1" fill="#997F76"/>
<rect x="15" y="30" width="1" height="1" fill="#65544E"/>
<rect x="16" y="30" width="1" height="1" fill="#65544E"/>
<rect x="6" y="28" width="1" height="1" fill="#AC9A94"/>
<rect x="6" y="29" width="1" height="1" fill="#AC9A94"/>
<rect x="6" y="30" width="4" height="3" fill="#AC9A94"/>
<rect x="6" y="33" width="3" height="3" fill="#AC9A94"/>
<rect x="9" y="34" width="1" height="2" fill="#997F76"/>
<rect x="6" y="36" width="3" height="3" fill="#AC9A94"/>
<rect x="5" y="39" width="3" height="3" fill="#AC9A94"/>
<rect x="5" y="37" width="1" height="2" fill="#AC9A94"/>
<path d="M10 37H11V41H10V37Z" fill="#65544E"/>
<path d="M10 35H11V37H10V35Z" fill="#65544E"/>
<path d="M10 39H11V41H10V39Z" fill="#65544E"/>
<path d="M10 39H11V41H10V39Z" fill="#65544E"/>
<rect x="29" y="30" width="1" height="1" fill="#AC9A94"/>
<rect x="29" y="31" width="1" height="1" fill="#AC9A94"/>
<rect x="27" y="37" width="1" height="1" fill="#AC9A94"/>
<rect x="27" y="38" width="1" height="1" fill="#AC9A94"/>
<rect x="27" y="39" width="1" height="1" fill="#AC9A94"/>
<rect x="27" y="40" width="1" height="1" fill="#AC9A94"/>
<rect x="26" y="37" width="1" height="1" fill="#AC9A94"/>
<rect x="26" y="36" width="1" height="1" fill="#AC9A94"/>
<rect x="26" y="35" width="1" height="1" fill="#AC9A94"/>
<rect x="26" y="34" width="1" height="1" fill="#AC9A94"/>
<rect x="26" y="33" width="1" height="1" fill="#AC9A94"/>
<rect x="26" y="32" width="1" height="1" fill="#AC9A94"/>
<rect x="26" y="38" width="1" height="1" fill="#AC9A94"/>
<path d="M27.5 39H28.5V40H27.5V39Z" fill="#AC9A94"/>
<path d="M27.5 40H28.5V41H27.5V40Z" fill="#AC9A94"/>
<path d="M27.5 41H28.5V42H27.5V41Z" fill="#AC9A94"/>
</svg>
