<?xml version="1.0" encoding="UTF-8" ?>
<svg version="1.1" width="50" height="50" xmlns="http://www.w3.org/2000/svg" shape-rendering="crispEdges">
<rect x="10" y="7" width="1" height="1" fill="#CBDBFC" />
<rect x="11" y="7" width="1" height="1" fill="#E7EEFE" />
<rect x="10" y="8" width="1" height="1" fill="#CBDBFC" />
<rect x="11" y="8" width="1" height="1" fill="#FFFFFF" />
<rect x="12" y="8" width="1" height="1" fill="#E7EEFE" />
<rect x="13" y="8" width="1" height="1" fill="#E7EEFE" />
<rect x="38" y="8" width="1" height="1" fill="#E7EEFE" />
<rect x="39" y="8" width="1" height="1" fill="#E7EEFE" />
<rect x="40" y="8" width="1" height="1" fill="#CBDBFC" />
<rect x="10" y="9" width="1" height="1" fill="#CBDBFC" />
<rect x="11" y="9" width="1" height="1" fill="#FFE5FC" />
<rect x="12" y="9" width="1" height="1" fill="#FFFFFF" />
<rect x="13" y="9" width="1" height="1" fill="#FFFFFF" />
<rect x="14" y="9" width="1" height="1" fill="#E7EEFE" />
<rect x="36" y="9" width="1" height="1" fill="#E7EEFE" />
<rect x="37" y="9" width="1" height="1" fill="#E7EEFE" />
<rect x="38" y="9" width="1" height="1" fill="#FFFFFF" />
<rect x="39" y="9" width="1" height="1" fill="#CBDBFC" />
<rect x="10" y="10" width="1" height="1" fill="#CBDBFC" />
<rect x="11" y="10" width="1" height="1" fill="#FFE5FC" />
<rect x="12" y="10" width="1" height="1" fill="#FFE5FC" />
<rect x="13" y="10" width="1" height="1" fill="#FFFFFF" />
<rect x="14" y="10" width="1" height="1" fill="#FFFFFF" />
<rect x="15" y="10" width="1" height="1" fill="#E7EEFE" />
<rect x="35" y="10" width="1" height="1" fill="#E7EEFE" />
<rect x="36" y="10" width="1" height="1" fill="#FFFFFF" />
<rect x="37" y="10" width="1" height="1" fill="#FFE5FC" />
<rect x="38" y="10" width="1" height="1" fill="#CBDBFC" />
<rect x="11" y="11" width="1" height="1" fill="#CBDBFC" />
<rect x="12" y="11" width="1" height="1" fill="#FFE5FC" />
<rect x="13" y="11" width="1" height="1" fill="#FFE5FC" />
<rect x="14" y="11" width="1" height="1" fill="#FFFFFF" />
<rect x="15" y="11" width="1" height="1" fill="#FFFFFF" />
<rect x="16" y="11" width="1" height="1" fill="#E7EEFE" />
<rect x="34" y="11" width="1" height="1" fill="#E7EEFE" />
<rect x="35" y="11" width="1" height="1" fill="#FFFFFF" />
<rect x="36" y="11" width="1" height="1" fill="#FFE5FC" />
<rect x="37" y="11" width="1" height="1" fill="#FFE5FC" />
<rect x="38" y="11" width="1" height="1" fill="#CBDBFC" />
<rect x="11" y="12" width="1" height="1" fill="#CBDBFC" />
<rect x="12" y="12" width="1" height="1" fill="#FFE5FC" />
<rect x="13" y="12" width="1" height="1" fill="#FFE5FC" />
<rect x="14" y="12" width="1" height="1" fill="#FFE5FC" />
<rect x="15" y="12" width="1" height="1" fill="#FFFFFF" />
<rect x="16" y="12" width="1" height="1" fill="#FFFFFF" />
<rect x="17" y="12" width="1" height="1" fill="#E7EEFE" />
<rect x="32" y="12" width="1" height="1" fill="#E7EEFE" />
<rect x="33" y="12" width="1" height="1" fill="#E7EEFE" />
<rect x="34" y="12" width="1" height="1" fill="#FFFFFF" />
<rect x="35" y="12" width="1" height="1" fill="#FFE5FC" />
<rect x="36" y="12" width="1" height="1" fill="#FFE5FC" />
<rect x="37" y="12" width="1" height="1" fill="#CBDBFC" />
<rect x="12" y="13" width="1" height="1" fill="#CBDBFC" />
<rect x="13" y="13" width="1" height="1" fill="#FFE5FC" />
<rect x="14" y="13" width="1" height="1" fill="#FFE5FC" />
<rect x="15" y="13" width="1" height="1" fill="#FFE5FC" />
<rect x="16" y="13" width="1" height="1" fill="#FFFFFF" />
<rect x="17" y="13" width="1" height="1" fill="#FFFFFF" />
<rect x="18" y="13" width="1" height="1" fill="#E7EEFE" />
<rect x="31" y="13" width="1" height="1" fill="#E7EEFE" />
<rect x="32" y="13" width="1" height="1" fill="#FFFFFF" />
<rect x="33" y="13" width="1" height="1" fill="#FFFFFF" />
<rect x="34" y="13" width="1" height="1" fill="#FFE5FC" />
<rect x="35" y="13" width="1" height="1" fill="#FFE5FC" />
<rect x="36" y="13" width="1" height="1" fill="#CBDBFC" />
<rect x="13" y="14" width="1" height="1" fill="#CBDBFC" />
<rect x="14" y="14" width="1" height="1" fill="#FFE5FC" />
<rect x="15" y="14" width="1" height="1" fill="#FFE5FC" />
<rect x="16" y="14" width="1" height="1" fill="#FFE5FC" />
<rect x="17" y="14" width="1" height="1" fill="#FFFFFF" />
<rect x="18" y="14" width="1" height="1" fill="#FFFFFF" />
<rect x="19" y="14" width="1" height="1" fill="#E7EEFE" />
<rect x="30" y="14" width="1" height="1" fill="#E7EEFE" />
<rect x="31" y="14" width="1" height="1" fill="#FFFFFF" />
<rect x="32" y="14" width="1" height="1" fill="#FFFFFF" />
<rect x="33" y="14" width="1" height="1" fill="#FFE5FC" />
<rect x="34" y="14" width="1" height="1" fill="#FFE5FC" />
<rect x="35" y="14" width="1" height="1" fill="#CBDBFC" />
<rect x="14" y="15" width="1" height="1" fill="#CBDBFC" />
<rect x="15" y="15" width="1" height="1" fill="#FFE5FC" />
<rect x="16" y="15" width="1" height="1" fill="#FFE5FC" />
<rect x="17" y="15" width="1" height="1" fill="#FFE5FC" />
<rect x="18" y="15" width="1" height="1" fill="#FFFFFF" />
<rect x="19" y="15" width="1" height="1" fill="#FFFFFF" />
<rect x="20" y="15" width="1" height="1" fill="#E7EEFE" />
<rect x="29" y="15" width="1" height="1" fill="#E7EEFE" />
<rect x="30" y="15" width="1" height="1" fill="#FFFFFF" />
<rect x="31" y="15" width="1" height="1" fill="#FFFFFF" />
<rect x="32" y="15" width="1" height="1" fill="#FFE5FC" />
<rect x="33" y="15" width="1" height="1" fill="#FFE5FC" />
<rect x="34" y="15" width="1" height="1" fill="#FFE5FC" />
<rect x="35" y="15" width="1" height="1" fill="#CBDBFC" />
<rect x="15" y="16" width="1" height="1" fill="#CBDBFC" />
<rect x="16" y="16" width="1" height="1" fill="#FFE5FC" />
<rect x="17" y="16" width="1" height="1" fill="#FFE5FC" />
<rect x="18" y="16" width="1" height="1" fill="#FFE5FC" />
<rect x="19" y="16" width="1" height="1" fill="#FFFFFF" />
<rect x="20" y="16" width="1" height="1" fill="#FFFFFF" />
<rect x="21" y="16" width="1" height="1" fill="#E7EEFE" />
<rect x="28" y="16" width="1" height="1" fill="#E7EEFE" />
<rect x="29" y="16" width="1" height="1" fill="#FFFFFF" />
<rect x="30" y="16" width="1" height="1" fill="#FFFFFF" />
<rect x="31" y="16" width="1" height="1" fill="#FFE5FC" />
<rect x="32" y="16" width="1" height="1" fill="#FFE5FC" />
<rect x="33" y="16" width="1" height="1" fill="#FFE5FC" />
<rect x="34" y="16" width="1" height="1" fill="#CBDBFC" />
<rect x="15" y="17" width="1" height="1" fill="#CBDBFC" />
<rect x="16" y="17" width="1" height="1" fill="#FFE5FC" />
<rect x="17" y="17" width="1" height="1" fill="#FFE5FC" />
<rect x="18" y="17" width="1" height="1" fill="#FFE5FC" />
<rect x="19" y="17" width="1" height="1" fill="#FFFFFF" />
<rect x="20" y="17" width="1" height="1" fill="#FFFFFF" />
<rect x="21" y="17" width="1" height="1" fill="#FFFFFF" />
<rect x="22" y="17" width="1" height="1" fill="#E7EEFE" />
<rect x="23" y="17" width="1" height="1" fill="#E7EEFE" />
<rect x="24" y="17" width="1" height="1" fill="#E7EEFE" />
<rect x="25" y="17" width="1" height="1" fill="#E7EEFE" />
<rect x="26" y="17" width="1" height="1" fill="#E7EEFE" />
<rect x="27" y="17" width="1" height="1" fill="#E7EEFE" />
<rect x="28" y="17" width="1" height="1" fill="#FFFFFF" />
<rect x="29" y="17" width="1" height="1" fill="#FFFFFF" />
<rect x="30" y="17" width="1" height="1" fill="#FFFFFF" />
<rect x="31" y="17" width="1" height="1" fill="#FFE5FC" />
<rect x="32" y="17" width="1" height="1" fill="#FFE5FC" />
<rect x="33" y="17" width="1" height="1" fill="#FFE5FC" />
<rect x="34" y="17" width="1" height="1" fill="#CBDBFC" />
<rect x="16" y="18" width="1" height="1" fill="#CBDBFC" />
<rect x="17" y="18" width="1" height="1" fill="#FFE5FC" />
<rect x="18" y="18" width="1" height="1" fill="#FFE5FC" />
<rect x="19" y="18" width="1" height="1" fill="#FFFFFF" />
<rect x="20" y="18" width="1" height="1" fill="#FFFFFF" />
<rect x="21" y="18" width="1" height="1" fill="#FFFFFF" />
<rect x="22" y="18" width="1" height="1" fill="#FFFFFF" />
<rect x="23" y="18" width="1" height="1" fill="#FFFFFF" />
<rect x="24" y="18" width="1" height="1" fill="#FFFFFF" />
<rect x="25" y="18" width="1" height="1" fill="#FFFFFF" />
<rect x="26" y="18" width="1" height="1" fill="#FFFFFF" />
<rect x="27" y="18" width="1" height="1" fill="#FFFFFF" />
<rect x="28" y="18" width="1" height="1" fill="#FFFFFF" />
<rect x="29" y="18" width="1" height="1" fill="#FFFFFF" />
<rect x="30" y="18" width="1" height="1" fill="#FFFFFF" />
<rect x="31" y="18" width="1" height="1" fill="#E7EEFE" />
<rect x="32" y="18" width="1" height="1" fill="#CBDBFC" />
<rect x="33" y="18" width="1" height="1" fill="#CBDBFC" />
<rect x="16" y="19" width="1" height="1" fill="#CBDBFC" />
<rect x="17" y="19" width="1" height="1" fill="#E7EEFE" />
<rect x="18" y="19" width="1" height="1" fill="#FFFFFF" />
<rect x="19" y="19" width="1" height="1" fill="#FFFFFF" />
<rect x="20" y="19" width="1" height="1" fill="#FFFFFF" />
<rect x="21" y="19" width="1" height="1" fill="#FFFFFF" />
<rect x="22" y="19" width="1" height="1" fill="#FFFFFF" />
<rect x="23" y="19" width="1" height="1" fill="#FFFFFF" />
<rect x="24" y="19" width="1" height="1" fill="#FFFFFF" />
<rect x="25" y="19" width="1" height="1" fill="#FFFFFF" />
<rect x="26" y="19" width="1" height="1" fill="#FFFFFF" />
<rect x="27" y="19" width="1" height="1" fill="#FFFFFF" />
<rect x="28" y="19" width="1" height="1" fill="#FFFFFF" />
<rect x="29" y="19" width="1" height="1" fill="#FFFFFF" />
<rect x="30" y="19" width="1" height="1" fill="#FFFFFF" />
<rect x="31" y="19" width="1" height="1" fill="#FFFFFF" />
<rect x="32" y="19" width="1" height="1" fill="#E7EEFE" />
<rect x="16" y="20" width="1" height="1" fill="#CBDBFC" />
<rect x="17" y="20" width="1" height="1" fill="#E7EEFE" />
<rect x="18" y="20" width="1" height="1" fill="#FFFFFF" />
<rect x="19" y="20" width="1" height="1" fill="#FFFFFF" />
<rect x="20" y="20" width="1" height="1" fill="#FFFFFF" />
<rect x="21" y="20" width="1" height="1" fill="#FFFFFF" />
<rect x="22" y="20" width="1" height="1" fill="#FFFFFF" />
<rect x="23" y="20" width="1" height="1" fill="#FFFFFF" />
<rect x="24" y="20" width="1" height="1" fill="#FFFFFF" />
<rect x="25" y="20" width="1" height="1" fill="#FFFFFF" />
<rect x="26" y="20" width="1" height="1" fill="#FFFFFF" />
<rect x="27" y="20" width="1" height="1" fill="#FFFFFF" />
<rect x="28" y="20" width="1" height="1" fill="#FFFFFF" />
<rect x="29" y="20" width="1" height="1" fill="#FFFFFF" />
<rect x="30" y="20" width="1" height="1" fill="#FFFFFF" />
<rect x="31" y="20" width="1" height="1" fill="#FFFFFF" />
<rect x="32" y="20" width="1" height="1" fill="#E7EEFE" />
<rect x="33" y="20" width="1" height="1" fill="#CBDBFC" />
<rect x="16" y="21" width="1" height="1" fill="#CBDBFC" />
<rect x="17" y="21" width="1" height="1" fill="#E7EEFE" />
<rect x="18" y="21" width="1" height="1" fill="#FFFFFF" />
<rect x="19" y="21" width="1" height="1" fill="#FFFFFF" />
<rect x="20" y="21" width="1" height="1" fill="#FFFFFF" />
<rect x="21" y="21" width="1" height="1" fill="#45283C" />
<rect x="22" y="21" width="1" height="1" fill="#45283C" />
<rect x="23" y="21" width="1" height="1" fill="#FFFFFF" />
<rect x="24" y="21" width="1" height="1" fill="#FFFFFF" />
<rect x="25" y="21" width="1" height="1" fill="#FFFFFF" />
<rect x="26" y="21" width="1" height="1" fill="#FFFFFF" />
<rect x="27" y="21" width="1" height="1" fill="#45283C" />
<rect x="28" y="21" width="1" height="1" fill="#45283C" />
<rect x="29" y="21" width="1" height="1" fill="#FFFFFF" />
<rect x="30" y="21" width="1" height="1" fill="#FFFFFF" />
<rect x="31" y="21" width="1" height="1" fill="#FFFFFF" />
<rect x="32" y="21" width="1" height="1" fill="#FFFFFF" />
<rect x="33" y="21" width="1" height="1" fill="#CBDBFC" />
<rect x="16" y="22" width="1" height="1" fill="#CBDBFC" />
<rect x="17" y="22" width="1" height="1" fill="#E7EEFE" />
<rect x="18" y="22" width="1" height="1" fill="#FFFFFF" />
<rect x="19" y="22" width="1" height="1" fill="#FFFFFF" />
<rect x="20" y="22" width="1" height="1" fill="#45283C" />
<rect x="21" y="22" width="1" height="1" fill="#FFFFFF" />
<rect x="22" y="22" width="1" height="1" fill="#45283C" />
<rect x="23" y="22" width="1" height="1" fill="#FFFFFF" />
<rect x="24" y="22" width="1" height="1" fill="#FFFFFF" />
<rect x="25" y="22" width="1" height="1" fill="#FFFFFF" />
<rect x="26" y="22" width="1" height="1" fill="#FFFFFF" />
<rect x="27" y="22" width="1" height="1" fill="#FFFFFF" />
<rect x="28" y="22" width="1" height="1" fill="#45283C" />
<rect x="29" y="22" width="1" height="1" fill="#45283C" />
<rect x="30" y="22" width="1" height="1" fill="#FFFFFF" />
<rect x="31" y="22" width="1" height="1" fill="#FFFFFF" />
<rect x="32" y="22" width="1" height="1" fill="#FFFFFF" />
<rect x="33" y="22" width="1" height="1" fill="#E7EEFE" />
<rect x="34" y="22" width="1" height="1" fill="#CBDBFC" />
<rect x="16" y="23" width="1" height="1" fill="#CBDBFC" />
<rect x="17" y="23" width="1" height="1" fill="#E7EEFE" />
<rect x="18" y="23" width="1" height="1" fill="#FFFFFF" />
<rect x="19" y="23" width="1" height="1" fill="#FFFFFF" />
<rect x="20" y="23" width="1" height="1" fill="#45283C" />
<rect x="21" y="23" width="1" height="1" fill="#45283C" />
<rect x="22" y="23" width="1" height="1" fill="#45283C" />
<rect x="23" y="23" width="1" height="1" fill="#FFFFFF" />
<rect x="24" y="23" width="1" height="1" fill="#FFFFFF" />
<rect x="25" y="23" width="1" height="1" fill="#FFFFFF" />
<rect x="26" y="23" width="1" height="1" fill="#FFFFFF" />
<rect x="27" y="23" width="1" height="1" fill="#45283C" />
<rect x="28" y="23" width="1" height="1" fill="#45283C" />
<rect x="29" y="23" width="1" height="1" fill="#45283C" />
<rect x="30" y="23" width="1" height="1" fill="#FFFFFF" />
<rect x="31" y="23" width="1" height="1" fill="#FFFFFF" />
<rect x="32" y="23" width="1" height="1" fill="#FFFFFF" />
<rect x="33" y="23" width="1" height="1" fill="#E7EEFE" />
<rect x="34" y="23" width="1" height="1" fill="#CBDBFC" />
<rect x="15" y="24" width="1" height="1" fill="#CBDBFC" />
<rect x="16" y="24" width="1" height="1" fill="#E7EEFE" />
<rect x="17" y="24" width="1" height="1" fill="#FFFFFF" />
<rect x="18" y="24" width="1" height="1" fill="#FFFFFF" />
<rect x="19" y="24" width="1" height="1" fill="#FFFFFF" />
<rect x="20" y="24" width="1" height="1" fill="#FFFFFF" />
<rect x="21" y="24" width="1" height="1" fill="#FFFFFF" />
<rect x="22" y="24" width="1" height="1" fill="#FFFFFF" />
<rect x="23" y="24" width="1" height="1" fill="#FFFFFF" />
<rect x="24" y="24" width="1" height="1" fill="#FFFFFF" />
<rect x="25" y="24" width="1" height="1" fill="#FFFFFF" />
<rect x="26" y="24" width="1" height="1" fill="#FFFFFF" />
<rect x="27" y="24" width="1" height="1" fill="#FFFFFF" />
<rect x="28" y="24" width="1" height="1" fill="#FFFFFF" />
<rect x="29" y="24" width="1" height="1" fill="#FFFFFF" />
<rect x="30" y="24" width="1" height="1" fill="#FFFFFF" />
<rect x="31" y="24" width="1" height="1" fill="#FFFFFF" />
<rect x="32" y="24" width="1" height="1" fill="#FFFFFF" />
<rect x="33" y="24" width="1" height="1" fill="#E7EEFE" />
<rect x="34" y="24" width="1" height="1" fill="#CBDBFC" />
<rect x="15" y="25" width="1" height="1" fill="#CBDBFC" />
<rect x="16" y="25" width="1" height="1" fill="#E7EEFE" />
<rect x="17" y="25" width="1" height="1" fill="#FFFFFF" />
<rect x="18" y="25" width="1" height="1" fill="#45283C" />
<rect x="19" y="25" width="1" height="1" fill="#FFFFFF" />
<rect x="20" y="25" width="1" height="1" fill="#FFFFFF" />
<rect x="21" y="25" width="1" height="1" fill="#FFFFFF" />
<rect x="22" y="25" width="1" height="1" fill="#FFFFFF" />
<rect x="23" y="25" width="1" height="1" fill="#FFFFFF" />
<rect x="24" y="25" width="1" height="1" fill="#FFFFFF" />
<rect x="25" y="25" width="1" height="1" fill="#FFFFFF" />
<rect x="26" y="25" width="1" height="1" fill="#FFFFFF" />
<rect x="27" y="25" width="1" height="1" fill="#FFFFFF" />
<rect x="28" y="25" width="1" height="1" fill="#FFFFFF" />
<rect x="29" y="25" width="1" height="1" fill="#FFFFFF" />
<rect x="30" y="25" width="1" height="1" fill="#FFFFFF" />
<rect x="31" y="25" width="1" height="1" fill="#FFFFFF" />
<rect x="32" y="25" width="1" height="1" fill="#45283C" />
<rect x="33" y="25" width="1" height="1" fill="#E7EEFE" />
<rect x="34" y="25" width="1" height="1" fill="#CBDBFC" />
<rect x="15" y="26" width="1" height="1" fill="#CBDBFC" />
<rect x="16" y="26" width="1" height="1" fill="#E7EEFE" />
<rect x="17" y="26" width="1" height="1" fill="#FFFFFF" />
<rect x="18" y="26" width="1" height="1" fill="#FFFFFF" />
<rect x="19" y="26" width="1" height="1" fill="#45283C" />
<rect x="20" y="26" width="1" height="1" fill="#45283C" />
<rect x="21" y="26" width="1" height="1" fill="#45283C" />
<rect x="22" y="26" width="1" height="1" fill="#FFFFFF" />
<rect x="23" y="26" width="1" height="1" fill="#FFFFFF" />
<rect x="24" y="26" width="1" height="1" fill="#D77BBA" />
<rect x="25" y="26" width="1" height="1" fill="#D77BBA" />
<rect x="26" y="26" width="1" height="1" fill="#D77BBA" />
<rect x="27" y="26" width="1" height="1" fill="#FFFFFF" />
<rect x="28" y="26" width="1" height="1" fill="#FFFFFF" />
<rect x="29" y="26" width="1" height="1" fill="#45283C" />
<rect x="30" y="26" width="1" height="1" fill="#45283C" />
<rect x="31" y="26" width="1" height="1" fill="#45283C" />
<rect x="32" y="26" width="1" height="1" fill="#FFFFFF" />
<rect x="33" y="26" width="1" height="1" fill="#E7EEFE" />
<rect x="34" y="26" width="1" height="1" fill="#CBDBFC" />
<rect x="15" y="27" width="1" height="1" fill="#CBDBFC" />
<rect x="16" y="27" width="1" height="1" fill="#E7EEFE" />
<rect x="17" y="27" width="1" height="1" fill="#FFFFFF" />
<rect x="18" y="27" width="1" height="1" fill="#FFFFFF" />
<rect x="19" y="27" width="1" height="1" fill="#FFFFFF" />
<rect x="20" y="27" width="1" height="1" fill="#FFFFFF" />
<rect x="21" y="27" width="1" height="1" fill="#FFFFFF" />
<rect x="22" y="27" width="1" height="1" fill="#45283C" />
<rect x="23" y="27" width="1" height="1" fill="#FFFFFF" />
<rect x="24" y="27" width="1" height="1" fill="#FFFFFF" />
<rect x="25" y="27" width="1" height="1" fill="#D77BBA" />
<rect x="26" y="27" width="1" height="1" fill="#FFFFFF" />
<rect x="27" y="27" width="1" height="1" fill="#FFFFFF" />
<rect x="28" y="27" width="1" height="1" fill="#45283C" />
<rect x="29" y="27" width="1" height="1" fill="#FFFFFF" />
<rect x="30" y="27" width="1" height="1" fill="#FFFFFF" />
<rect x="31" y="27" width="1" height="1" fill="#FFFFFF" />
<rect x="32" y="27" width="1" height="1" fill="#FFFFFF" />
<rect x="33" y="27" width="1" height="1" fill="#FFFFFF" />
<rect x="34" y="27" width="1" height="1" fill="#E7EEFE" />
<rect x="35" y="27" width="1" height="1" fill="#CBDBFC" />
<rect x="15" y="28" width="1" height="1" fill="#CBDBFC" />
<rect x="16" y="28" width="1" height="1" fill="#E7EEFE" />
<rect x="17" y="28" width="1" height="1" fill="#FFFFFF" />
<rect x="18" y="28" width="1" height="1" fill="#FFFFFF" />
<rect x="19" y="28" width="1" height="1" fill="#45283C" />
<rect x="20" y="28" width="1" height="1" fill="#45283C" />
<rect x="21" y="28" width="1" height="1" fill="#45283C" />
<rect x="22" y="28" width="1" height="1" fill="#FFFFFF" />
<rect x="23" y="28" width="1" height="1" fill="#FFFFFF" />
<rect x="24" y="28" width="1" height="1" fill="#FFFFFF" />
<rect x="25" y="28" width="1" height="1" fill="#FFFFFF" />
<rect x="26" y="28" width="1" height="1" fill="#FFFFFF" />
<rect x="27" y="28" width="1" height="1" fill="#FFFFFF" />
<rect x="28" y="28" width="1" height="1" fill="#FFFFFF" />
<rect x="29" y="28" width="1" height="1" fill="#45283C" />
<rect x="30" y="28" width="1" height="1" fill="#45283C" />
<rect x="31" y="28" width="1" height="1" fill="#45283C" />
<rect x="32" y="28" width="1" height="1" fill="#FFFFFF" />
<rect x="33" y="28" width="1" height="1" fill="#FFFFFF" />
<rect x="34" y="28" width="1" height="1" fill="#E7EEFE" />
<rect x="35" y="28" width="1" height="1" fill="#CBDBFC" />
<rect x="15" y="29" width="1" height="1" fill="#CBDBFC" />
<rect x="16" y="29" width="1" height="1" fill="#E7EEFE" />
<rect x="17" y="29" width="1" height="1" fill="#FFFFFF" />
<rect x="18" y="29" width="1" height="1" fill="#45283C" />
<rect x="19" y="29" width="1" height="1" fill="#FFFFFF" />
<rect x="20" y="29" width="1" height="1" fill="#FFFFFF" />
<rect x="21" y="29" width="1" height="1" fill="#FFFFFF" />
<rect x="22" y="29" width="1" height="1" fill="#FFFFFF" />
<rect x="23" y="29" width="1" height="1" fill="#FFFFFF" />
<rect x="24" y="29" width="1" height="1" fill="#45283C" />
<rect x="25" y="29" width="1" height="1" fill="#45283C" />
<rect x="26" y="29" width="1" height="1" fill="#45283C" />
<rect x="27" y="29" width="1" height="1" fill="#FFFFFF" />
<rect x="28" y="29" width="1" height="1" fill="#FFFFFF" />
<rect x="29" y="29" width="1" height="1" fill="#FFFFFF" />
<rect x="30" y="29" width="1" height="1" fill="#FFFFFF" />
<rect x="31" y="29" width="1" height="1" fill="#FFFFFF" />
<rect x="32" y="29" width="1" height="1" fill="#45283C" />
<rect x="33" y="29" width="1" height="1" fill="#FFFFFF" />
<rect x="34" y="29" width="1" height="1" fill="#E7EEFE" />
<rect x="35" y="29" width="1" height="1" fill="#CBDBFC" />
<rect x="15" y="30" width="1" height="1" fill="#CBDBFC" />
<rect x="16" y="30" width="1" height="1" fill="#E7EEFE" />
<rect x="17" y="30" width="1" height="1" fill="#FFFFFF" />
<rect x="18" y="30" width="1" height="1" fill="#FFFFFF" />
<rect x="19" y="30" width="1" height="1" fill="#FFFFFF" />
<rect x="20" y="30" width="1" height="1" fill="#FFFFFF" />
<rect x="21" y="30" width="1" height="1" fill="#FFFFFF" />
<rect x="22" y="30" width="1" height="1" fill="#FFFFFF" />
<rect x="23" y="30" width="1" height="1" fill="#45283C" />
<rect x="24" y="30" width="1" height="1" fill="#B4283C" />
<rect x="25" y="30" width="1" height="1" fill="#FFFFFF" />
<rect x="26" y="30" width="1" height="1" fill="#B4283C" />
<rect x="27" y="30" width="1" height="1" fill="#45283C" />
<rect x="28" y="30" width="1" height="1" fill="#FFFFFF" />
<rect x="29" y="30" width="1" height="1" fill="#FFFFFF" />
<rect x="30" y="30" width="1" height="1" fill="#FFFFFF" />
<rect x="31" y="30" width="1" height="1" fill="#FFFFFF" />
<rect x="32" y="30" width="1" height="1" fill="#FFFFFF" />
<rect x="33" y="30" width="1" height="1" fill="#FFFFFF" />
<rect x="34" y="30" width="1" height="1" fill="#E7EEFE" />
<rect x="35" y="30" width="1" height="1" fill="#CBDBFC" />
<rect x="15" y="31" width="1" height="1" fill="#CBDBFC" />
<rect x="16" y="31" width="1" height="1" fill="#CBDBFC" />
<rect x="17" y="31" width="1" height="1" fill="#E7EEFE" />
<rect x="18" y="31" width="1" height="1" fill="#FFFFFF" />
<rect x="19" y="31" width="1" height="1" fill="#FFFFFF" />
<rect x="20" y="31" width="1" height="1" fill="#FFFFFF" />
<rect x="21" y="31" width="1" height="1" fill="#FFFFFF" />
<rect x="22" y="31" width="1" height="1" fill="#FFFFFF" />
<rect x="23" y="31" width="1" height="1" fill="#FFFFFF" />
<rect x="24" y="31" width="1" height="1" fill="#FFFFFF" />
<rect x="25" y="31" width="1" height="1" fill="#FFFFFF" />
<rect x="26" y="31" width="1" height="1" fill="#FFFFFF" />
<rect x="27" y="31" width="1" height="1" fill="#FFFFFF" />
<rect x="28" y="31" width="1" height="1" fill="#FFFFFF" />
<rect x="29" y="31" width="1" height="1" fill="#FFFFFF" />
<rect x="30" y="31" width="1" height="1" fill="#FFFFFF" />
<rect x="31" y="31" width="1" height="1" fill="#FFFFFF" />
<rect x="32" y="31" width="1" height="1" fill="#FFFFFF" />
<rect x="33" y="31" width="1" height="1" fill="#FFFFFF" />
<rect x="34" y="31" width="1" height="1" fill="#E7EEFE" />
<rect x="35" y="31" width="1" height="1" fill="#CBDBFC" />
<rect x="16" y="32" width="1" height="1" fill="#CBDBFC" />
<rect x="17" y="32" width="1" height="1" fill="#E7EEFE" />
<rect x="18" y="32" width="1" height="1" fill="#FFFFFF" />
<rect x="19" y="32" width="1" height="1" fill="#FFFFFF" />
<rect x="20" y="32" width="1" height="1" fill="#FFFFFF" />
<rect x="21" y="32" width="1" height="1" fill="#FFFFFF" />
<rect x="22" y="32" width="1" height="1" fill="#FFFFFF" />
<rect x="23" y="32" width="1" height="1" fill="#FFFFFF" />
<rect x="24" y="32" width="1" height="1" fill="#FFFFFF" />
<rect x="25" y="32" width="1" height="1" fill="#FFFFFF" />
<rect x="26" y="32" width="1" height="1" fill="#FFFFFF" />
<rect x="27" y="32" width="1" height="1" fill="#FFFFFF" />
<rect x="28" y="32" width="1" height="1" fill="#FFFFFF" />
<rect x="29" y="32" width="1" height="1" fill="#FFFFFF" />
<rect x="30" y="32" width="1" height="1" fill="#FFFFFF" />
<rect x="31" y="32" width="1" height="1" fill="#FFFFFF" />
<rect x="32" y="32" width="1" height="1" fill="#FFFFFF" />
<rect x="33" y="32" width="1" height="1" fill="#E7EEFE" />
<rect x="34" y="32" width="1" height="1" fill="#CBDBFC" />
<rect x="17" y="33" width="1" height="1" fill="#CBDBFC" />
<rect x="18" y="33" width="1" height="1" fill="#E7EEFE" />
<rect x="19" y="33" width="1" height="1" fill="#FFFFFF" />
<rect x="20" y="33" width="1" height="1" fill="#FFFFFF" />
<rect x="21" y="33" width="1" height="1" fill="#FFFFFF" />
<rect x="22" y="33" width="1" height="1" fill="#FFFFFF" />
<rect x="23" y="33" width="1" height="1" fill="#FFFFFF" />
<rect x="24" y="33" width="1" height="1" fill="#FFFFFF" />
<rect x="25" y="33" width="1" height="1" fill="#FFFFFF" />
<rect x="26" y="33" width="1" height="1" fill="#FFFFFF" />
<rect x="27" y="33" width="1" height="1" fill="#FFFFFF" />
<rect x="28" y="33" width="1" height="1" fill="#FFFFFF" />
<rect x="29" y="33" width="1" height="1" fill="#FFFFFF" />
<rect x="30" y="33" width="1" height="1" fill="#FFFFFF" />
<rect x="31" y="33" width="1" height="1" fill="#FFFFFF" />
<rect x="32" y="33" width="1" height="1" fill="#FFFFFF" />
<rect x="33" y="33" width="1" height="1" fill="#E7EEFE" />
<rect x="34" y="33" width="1" height="1" fill="#CBDBFC" />
<rect x="17" y="34" width="1" height="1" fill="#CBDBFC" />
<rect x="18" y="34" width="1" height="1" fill="#CBDBFC" />
<rect x="19" y="34" width="1" height="1" fill="#E7EEFE" />
<rect x="20" y="34" width="1" height="1" fill="#FFFFFF" />
<rect x="21" y="34" width="1" height="1" fill="#FFFFFF" />
<rect x="22" y="34" width="1" height="1" fill="#FFFFFF" />
<rect x="23" y="34" width="1" height="1" fill="#FFFFFF" />
<rect x="24" y="34" width="1" height="1" fill="#E7EEFE" />
<rect x="25" y="34" width="1" height="1" fill="#E7EEFE" />
<rect x="26" y="34" width="1" height="1" fill="#E7EEFE" />
<rect x="27" y="34" width="1" height="1" fill="#E7EEFE" />
<rect x="28" y="34" width="1" height="1" fill="#FFFFFF" />
<rect x="29" y="34" width="1" height="1" fill="#FFFFFF" />
<rect x="30" y="34" width="1" height="1" fill="#FFFFFF" />
<rect x="31" y="34" width="1" height="1" fill="#FFFFFF" />
<rect x="32" y="34" width="1" height="1" fill="#E7EEFE" />
<rect x="33" y="34" width="1" height="1" fill="#CBDBFC" />
<rect x="34" y="34" width="1" height="1" fill="#CBDBFC" />
<rect x="18" y="35" width="1" height="1" fill="#CBDBFC" />
<rect x="19" y="35" width="1" height="1" fill="#CBDBFC" />
<rect x="20" y="35" width="1" height="1" fill="#E7EEFE" />
<rect x="21" y="35" width="1" height="1" fill="#E7EEFE" />
<rect x="22" y="35" width="1" height="1" fill="#E7EEFE" />
<rect x="23" y="35" width="1" height="1" fill="#E7EEFE" />
<rect x="24" y="35" width="1" height="1" fill="#CBDBFC" />
<rect x="25" y="35" width="1" height="1" fill="#CBDBFC" />
<rect x="26" y="35" width="1" height="1" fill="#CBDBFC" />
<rect x="27" y="35" width="1" height="1" fill="#CBDBFC" />
<rect x="28" y="35" width="1" height="1" fill="#E7EEFE" />
<rect x="29" y="35" width="1" height="1" fill="#E7EEFE" />
<rect x="30" y="35" width="1" height="1" fill="#E7EEFE" />
<rect x="31" y="35" width="1" height="1" fill="#E7EEFE" />
<rect x="32" y="35" width="1" height="1" fill="#CBDBFC" />
<rect x="33" y="35" width="1" height="1" fill="#CBDBFC" />
<rect x="19" y="36" width="1" height="1" fill="#CBDBFC" />
<rect x="20" y="36" width="1" height="1" fill="#CBDBFC" />
<rect x="21" y="36" width="1" height="1" fill="#CBDBFC" />
<rect x="22" y="36" width="1" height="1" fill="#CBDBFC" />
<rect x="23" y="36" width="1" height="1" fill="#CBDBFC" />
<rect x="24" y="36" width="1" height="1" fill="#CBDBFC" />
<rect x="25" y="36" width="1" height="1" fill="#CBDBFC" />
<rect x="26" y="36" width="1" height="1" fill="#CBDBFC" />
<rect x="27" y="36" width="1" height="1" fill="#CBDBFC" />
<rect x="28" y="36" width="1" height="1" fill="#CBDBFC" />
<rect x="29" y="36" width="1" height="1" fill="#CBDBFC" />
<rect x="30" y="36" width="1" height="1" fill="#CBDBFC" />
<rect x="31" y="36" width="1" height="1" fill="#CBDBFC" />
<rect x="32" y="36" width="1" height="1" fill="#CBDBFC" />
<rect x="20" y="37" width="1" height="1" fill="#CBDBFC" />
<rect x="21" y="37" width="1" height="1" fill="#CBDBFC" />
<rect x="22" y="37" width="1" height="1" fill="#CBDBFC" />
<rect x="23" y="37" width="1" height="1" fill="#CBDBFC" />
<rect x="24" y="37" width="1" height="1" fill="#CBDBFC" />
<rect x="25" y="37" width="1" height="1" fill="#CBDBFC" />
<rect x="26" y="37" width="1" height="1" fill="#CBDBFC" />
<rect x="27" y="37" width="1" height="1" fill="#CBDBFC" />
<rect x="28" y="37" width="1" height="1" fill="#CBDBFC" />
<rect x="29" y="37" width="1" height="1" fill="#CBDBFC" />
<rect x="30" y="37" width="1" height="1" fill="#CBDBFC" />
<rect x="31" y="37" width="1" height="1" fill="#CBDBFC" />
</svg>