<svg width="50" height="50" viewBox="0 0 50 50" fill="none" xmlns="http://www.w3.org/2000/svg">
<path d="M10 7H9V8H10V7Z" fill="#CBDBFC"/>
<path d="M11 7H10V8H11V7Z" fill="#E7EEFE"/>
<path d="M10 8H9V9H10V8Z" fill="#CBDBFC"/>
<path d="M11 8H10V9H11V8Z" fill="white"/>
<path d="M12 8H11V9H12V8Z" fill="#E7EEFE"/>
<path d="M13 8H12V9H13V8Z" fill="#E7EEFE"/>
<path d="M38 8H37V9H38V8Z" fill="#E7EEFE"/>
<path d="M39 8H38V9H39V8Z" fill="#E7EEFE"/>
<path d="M40 8H39V9H40V8Z" fill="#CBDBFC"/>
<path d="M10 9H9V10H10V9Z" fill="#CBDBFC"/>
<path d="M11 9H10V10H11V9Z" fill="#FFE5FC"/>
<path d="M12 9H11V10H12V9Z" fill="white"/>
<path d="M13 9H12V10H13V9Z" fill="white"/>
<path d="M14 9H13V10H14V9Z" fill="#E7EEFE"/>
<path d="M36 9H35V10H36V9Z" fill="#E7EEFE"/>
<path d="M37 9H36V10H37V9Z" fill="#E7EEFE"/>
<path d="M38 9H37V10H38V9Z" fill="white"/>
<path d="M39 9H38V10H39V9Z" fill="#CBDBFC"/>
<path d="M10 10H9V11H10V10Z" fill="#CBDBFC"/>
<path d="M11 10H10V11H11V10Z" fill="#FFE5FC"/>
<path d="M12 10H11V11H12V10Z" fill="#FFE5FC"/>
<path d="M13 10H12V11H13V10Z" fill="white"/>
<path d="M14 10H13V11H14V10Z" fill="white"/>
<path d="M15 10H14V11H15V10Z" fill="#E7EEFE"/>
<path d="M35 10H34V11H35V10Z" fill="#E7EEFE"/>
<path d="M36 10H35V11H36V10Z" fill="white"/>
<path d="M37 10H36V11H37V10Z" fill="#FFE5FC"/>
<path d="M38 10H37V11H38V10Z" fill="#CBDBFC"/>
<path d="M11 11H10V12H11V11Z" fill="#CBDBFC"/>
<path d="M12 11H11V12H12V11Z" fill="#FFE5FC"/>
<path d="M13 11H12V12H13V11Z" fill="#FFE5FC"/>
<path d="M14 11H13V12H14V11Z" fill="white"/>
<path d="M15 11H14V12H15V11Z" fill="white"/>
<path d="M16 11H15V12H16V11Z" fill="#E7EEFE"/>
<path d="M34 11H33V12H34V11Z" fill="#E7EEFE"/>
<path d="M35 11H34V12H35V11Z" fill="white"/>
<path d="M36 11H35V12H36V11Z" fill="#FFE5FC"/>
<path d="M37 11H36V12H37V11Z" fill="#FFE5FC"/>
<path d="M38 11H37V12H38V11Z" fill="#CBDBFC"/>
<path d="M11 12H10V13H11V12Z" fill="#CBDBFC"/>
<path d="M12 12H11V13H12V12Z" fill="#FFE5FC"/>
<path d="M13 12H12V13H13V12Z" fill="#FFE5FC"/>
<path d="M14 12H13V13H14V12Z" fill="#FFE5FC"/>
<path d="M15 12H14V13H15V12Z" fill="white"/>
<path d="M16 12H15V13H16V12Z" fill="white"/>
<path d="M17 12H16V13H17V12Z" fill="#E7EEFE"/>
<path d="M32 12H31V13H32V12Z" fill="#E7EEFE"/>
<path d="M33 12H32V13H33V12Z" fill="#E7EEFE"/>
<path d="M34 12H33V13H34V12Z" fill="white"/>
<path d="M35 12H34V13H35V12Z" fill="#FFE5FC"/>
<path d="M36 12H35V13H36V12Z" fill="#FFE5FC"/>
<path d="M37 12H36V13H37V12Z" fill="#CBDBFC"/>
<path d="M12 13H11V14H12V13Z" fill="#CBDBFC"/>
<path d="M13 13H12V14H13V13Z" fill="#FFE5FC"/>
<path d="M14 13H13V14H14V13Z" fill="#FFE5FC"/>
<path d="M15 13H14V14H15V13Z" fill="#FFE5FC"/>
<path d="M16 13H15V14H16V13Z" fill="white"/>
<path d="M17 13H16V14H17V13Z" fill="white"/>
<path d="M18 13H17V14H18V13Z" fill="#E7EEFE"/>
<path d="M31 13H30V14H31V13Z" fill="#E7EEFE"/>
<path d="M32 13H31V14H32V13Z" fill="white"/>
<path d="M33 13H32V14H33V13Z" fill="white"/>
<path d="M34 13H33V14H34V13Z" fill="#FFE5FC"/>
<path d="M35 13H34V14H35V13Z" fill="#FFE5FC"/>
<path d="M36 13H35V14H36V13Z" fill="#CBDBFC"/>
<path d="M13 14H12V15H13V14Z" fill="#CBDBFC"/>
<path d="M14 14H13V15H14V14Z" fill="#FFE5FC"/>
<path d="M15 14H14V15H15V14Z" fill="#FFE5FC"/>
<path d="M16 14H15V15H16V14Z" fill="#FFE5FC"/>
<path d="M17 14H16V15H17V14Z" fill="white"/>
<path d="M18 14H17V15H18V14Z" fill="white"/>
<path d="M19 14H18V15H19V14Z" fill="#E7EEFE"/>
<path d="M30 14H29V15H30V14Z" fill="#E7EEFE"/>
<path d="M31 14H30V15H31V14Z" fill="white"/>
<path d="M32 14H31V15H32V14Z" fill="white"/>
<path d="M33 14H32V15H33V14Z" fill="#FFE5FC"/>
<path d="M34 14H33V15H34V14Z" fill="#FFE5FC"/>
<path d="M35 14H34V15H35V14Z" fill="#CBDBFC"/>
<path d="M14 15H13V16H14V15Z" fill="#CBDBFC"/>
<path d="M15 15H14V16H15V15Z" fill="#FFE5FC"/>
<path d="M16 15H15V16H16V15Z" fill="#FFE5FC"/>
<path d="M17 15H16V16H17V15Z" fill="#FFE5FC"/>
<path d="M18 15H17V16H18V15Z" fill="white"/>
<path d="M19 15H18V16H19V15Z" fill="white"/>
<path d="M20 15H19V16H20V15Z" fill="#E7EEFE"/>
<path d="M29 15H28V16H29V15Z" fill="#E7EEFE"/>
<path d="M30 15H29V16H30V15Z" fill="white"/>
<path d="M31 15H30V16H31V15Z" fill="white"/>
<path d="M32 15H31V16H32V15Z" fill="#FFE5FC"/>
<path d="M33 15H32V16H33V15Z" fill="#FFE5FC"/>
<path d="M34 15H33V16H34V15Z" fill="#FFE5FC"/>
<path d="M35 15H34V16H35V15Z" fill="#CBDBFC"/>
<path d="M15 16H14V17H15V16Z" fill="#CBDBFC"/>
<path d="M16 16H15V17H16V16Z" fill="#FFE5FC"/>
<path d="M17 16H16V17H17V16Z" fill="#FFE5FC"/>
<path d="M18 16H17V17H18V16Z" fill="#FFE5FC"/>
<path d="M19 16H18V17H19V16Z" fill="white"/>
<path d="M20 16H19V17H20V16Z" fill="white"/>
<path d="M21 16H20V17H21V16Z" fill="#E7EEFE"/>
<path d="M28 16H27V17H28V16Z" fill="#E7EEFE"/>
<path d="M29 16H28V17H29V16Z" fill="white"/>
<path d="M30 16H29V17H30V16Z" fill="white"/>
<path d="M31 16H30V17H31V16Z" fill="#FFE5FC"/>
<path d="M32 16H31V17H32V16Z" fill="#FFE5FC"/>
<path d="M33 16H32V17H33V16Z" fill="#FFE5FC"/>
<path d="M34 16H33V17H34V16Z" fill="#CBDBFC"/>
<path d="M15 17H14V18H15V17Z" fill="#CBDBFC"/>
<path d="M16 17H15V18H16V17Z" fill="#FFE5FC"/>
<path d="M17 17H16V18H17V17Z" fill="#FFE5FC"/>
<path d="M18 17H17V18H18V17Z" fill="#FFE5FC"/>
<path d="M19 17H18V18H19V17Z" fill="white"/>
<path d="M20 17H19V18H20V17Z" fill="white"/>
<path d="M21 17H20V18H21V17Z" fill="white"/>
<path d="M22 17H21V18H22V17Z" fill="#E7EEFE"/>
<path d="M23 17H22V18H23V17Z" fill="#E7EEFE"/>
<path d="M24 17H23V18H24V17Z" fill="#E7EEFE"/>
<path d="M25 17H24V18H25V17Z" fill="#E7EEFE"/>
<path d="M26 17H25V18H26V17Z" fill="#E7EEFE"/>
<path d="M27 17H26V18H27V17Z" fill="#E7EEFE"/>
<path d="M28 17H27V18H28V17Z" fill="white"/>
<path d="M29 17H28V18H29V17Z" fill="white"/>
<path d="M30 17H29V18H30V17Z" fill="white"/>
<path d="M31 17H30V18H31V17Z" fill="#FFE5FC"/>
<path d="M32 17H31V18H32V17Z" fill="#FFE5FC"/>
<path d="M33 17H32V18H33V17Z" fill="#FFE5FC"/>
<path d="M34 17H33V18H34V17Z" fill="#CBDBFC"/>
<path d="M16 18H15V19H16V18Z" fill="#CBDBFC"/>
<path d="M17 18H16V19H17V18Z" fill="#FFE5FC"/>
<path d="M18 18H17V19H18V18Z" fill="#FFE5FC"/>
<path d="M19 18H18V19H19V18Z" fill="white"/>
<path d="M20 18H19V19H20V18Z" fill="white"/>
<path d="M21 18H20V19H21V18Z" fill="white"/>
<path d="M22 18H21V19H22V18Z" fill="white"/>
<path d="M23 18H22V19H23V18Z" fill="white"/>
<path d="M24 18H23V19H24V18Z" fill="white"/>
<path d="M25 18H24V19H25V18Z" fill="white"/>
<path d="M26 18H25V19H26V18Z" fill="white"/>
<path d="M27 18H26V19H27V18Z" fill="white"/>
<path d="M28 18H27V19H28V18Z" fill="white"/>
<path d="M29 18H28V19H29V18Z" fill="white"/>
<path d="M30 18H29V19H30V18Z" fill="white"/>
<path d="M31 18H30V19H31V18Z" fill="#E7EEFE"/>
<path d="M32 18H31V19H32V18Z" fill="#CBDBFC"/>
<path d="M33 18H32V19H33V18Z" fill="#CBDBFC"/>
<path d="M16 19H15V20H16V19Z" fill="#CBDBFC"/>
<path d="M17 19H16V20H17V19Z" fill="#E7EEFE"/>
<path d="M18 19H17V20H18V19Z" fill="white"/>
<path d="M19 19H18V20H19V19Z" fill="white"/>
<path d="M20 19H19V20H20V19Z" fill="white"/>
<path d="M21 19H20V20H21V19Z" fill="white"/>
<path d="M22 19H21V20H22V19Z" fill="white"/>
<path d="M23 19H22V20H23V19Z" fill="white"/>
<path d="M24 19H23V20H24V19Z" fill="white"/>
<path d="M25 19H24V20H25V19Z" fill="white"/>
<path d="M26 19H25V20H26V19Z" fill="white"/>
<path d="M27 19H26V20H27V19Z" fill="white"/>
<path d="M28 19H27V20H28V19Z" fill="white"/>
<path d="M29 19H28V20H29V19Z" fill="white"/>
<path d="M30 19H29V20H30V19Z" fill="white"/>
<path d="M31 19H30V20H31V19Z" fill="white"/>
<path d="M32 19H31V20H32V19Z" fill="#E7EEFE"/>
<path d="M16 20H15V21H16V20Z" fill="#CBDBFC"/>
<path d="M17 20H16V21H17V20Z" fill="#E7EEFE"/>
<path d="M18 20H17V21H18V20Z" fill="white"/>
<path d="M19 20H18V21H19V20Z" fill="white"/>
<path d="M20 20H19V21H20V20Z" fill="white"/>
<path d="M21 20H20V21H21V20Z" fill="white"/>
<path d="M22 20H21V21H22V20Z" fill="white"/>
<path d="M23 20H22V21H23V20Z" fill="white"/>
<path d="M24 20H23V21H24V20Z" fill="white"/>
<path d="M25 20H24V21H25V20Z" fill="white"/>
<path d="M26 20H25V21H26V20Z" fill="white"/>
<path d="M27 20H26V21H27V20Z" fill="white"/>
<path d="M28 20H27V21H28V20Z" fill="white"/>
<path d="M29 20H28V21H29V20Z" fill="white"/>
<path d="M30 20H29V21H30V20Z" fill="white"/>
<path d="M31 20H30V21H31V20Z" fill="white"/>
<path d="M32 20H31V21H32V20Z" fill="#E7EEFE"/>
<path d="M33 20H32V21H33V20Z" fill="#CBDBFC"/>
<path d="M16 21H15V22H16V21Z" fill="#CBDBFC"/>
<path d="M17 21H16V22H17V21Z" fill="#E7EEFE"/>
<path d="M18 21H17V22H18V21Z" fill="white"/>
<path d="M19 21H18V22H19V21Z" fill="white"/>
<path d="M20 21H19V22H20V21Z" fill="white"/>
<path d="M21 21H20V22H21V21Z" fill="#45283C"/>
<path d="M22 21H21V22H22V21Z" fill="#45283C"/>
<path d="M23 21H22V22H23V21Z" fill="white"/>
<path d="M24 21H23V22H24V21Z" fill="white"/>
<path d="M25 21H24V22H25V21Z" fill="white"/>
<path d="M26 21H25V22H26V21Z" fill="white"/>
<path d="M27 21H26V22H27V21Z" fill="#45283C"/>
<path d="M28 21H27V22H28V21Z" fill="#45283C"/>
<path d="M29 21H28V22H29V21Z" fill="white"/>
<path d="M30 21H29V22H30V21Z" fill="white"/>
<path d="M31 21H30V22H31V21Z" fill="white"/>
<path d="M32 21H31V22H32V21Z" fill="white"/>
<path d="M33 21H32V22H33V21Z" fill="#CBDBFC"/>
<path d="M16 22H15V23H16V22Z" fill="#CBDBFC"/>
<path d="M17 22H16V23H17V22Z" fill="#E7EEFE"/>
<path d="M18 22H17V23H18V22Z" fill="white"/>
<path d="M19 22H18V23H19V22Z" fill="white"/>
<path d="M20 22H19V23H20V22Z" fill="#45283C"/>
<path d="M21 22H20V23H21V22Z" fill="white"/>
<path d="M22 22H21V23H22V22Z" fill="#45283C"/>
<path d="M23 22H22V23H23V22Z" fill="white"/>
<path d="M24 22H23V23H24V22Z" fill="white"/>
<path d="M25 22H24V23H25V22Z" fill="white"/>
<path d="M26 22H25V23H26V22Z" fill="white"/>
<path d="M27 22H26V23H27V22Z" fill="white"/>
<path d="M28 22H27V23H28V22Z" fill="#45283C"/>
<path d="M29 22H28V23H29V22Z" fill="#45283C"/>
<path d="M30 22H29V23H30V22Z" fill="white"/>
<path d="M31 22H30V23H31V22Z" fill="white"/>
<path d="M32 22H31V23H32V22Z" fill="white"/>
<path d="M33 22H32V23H33V22Z" fill="#E7EEFE"/>
<path d="M34 22H33V23H34V22Z" fill="#CBDBFC"/>
<path d="M16 23H15V24H16V23Z" fill="#CBDBFC"/>
<path d="M17 23H16V24H17V23Z" fill="#E7EEFE"/>
<path d="M18 23H17V24H18V23Z" fill="white"/>
<path d="M19 23H18V24H19V23Z" fill="white"/>
<path d="M20 23H19V24H20V23Z" fill="#45283C"/>
<path d="M21 23H20V24H21V23Z" fill="#45283C"/>
<path d="M22 23H21V24H22V23Z" fill="#45283C"/>
<path d="M23 23H22V24H23V23Z" fill="white"/>
<path d="M24 23H23V24H24V23Z" fill="white"/>
<path d="M25 23H24V24H25V23Z" fill="white"/>
<path d="M26 23H25V24H26V23Z" fill="white"/>
<path d="M27 23H26V24H27V23Z" fill="#45283C"/>
<path d="M28 23H27V24H28V23Z" fill="#45283C"/>
<path d="M29 23H28V24H29V23Z" fill="#45283C"/>
<path d="M30 23H29V24H30V23Z" fill="white"/>
<path d="M31 23H30V24H31V23Z" fill="white"/>
<path d="M32 23H31V24H32V23Z" fill="white"/>
<path d="M33 23H32V24H33V23Z" fill="#E7EEFE"/>
<path d="M34 23H33V24H34V23Z" fill="#CBDBFC"/>
<path d="M15 24H14V25H15V24Z" fill="#CBDBFC"/>
<path d="M16 24H15V25H16V24Z" fill="#E7EEFE"/>
<path d="M17 24H16V25H17V24Z" fill="white"/>
<path d="M18 24H17V25H18V24Z" fill="white"/>
<path d="M19 24H18V25H19V24Z" fill="white"/>
<path d="M20 24H19V25H20V24Z" fill="white"/>
<path d="M21 24H20V25H21V24Z" fill="white"/>
<path d="M22 24H21V25H22V24Z" fill="white"/>
<path d="M23 24H22V25H23V24Z" fill="white"/>
<path d="M24 24H23V25H24V24Z" fill="white"/>
<path d="M25 24H24V25H25V24Z" fill="white"/>
<path d="M26 24H25V25H26V24Z" fill="white"/>
<path d="M27 24H26V25H27V24Z" fill="white"/>
<path d="M28 24H27V25H28V24Z" fill="white"/>
<path d="M29 24H28V25H29V24Z" fill="white"/>
<path d="M30 24H29V25H30V24Z" fill="white"/>
<path d="M31 24H30V25H31V24Z" fill="white"/>
<path d="M32 24H31V25H32V24Z" fill="white"/>
<path d="M33 24H32V25H33V24Z" fill="#E7EEFE"/>
<path d="M34 24H33V25H34V24Z" fill="#CBDBFC"/>
<path d="M15 25H14V26H15V25Z" fill="#CBDBFC"/>
<path d="M16 25H15V26H16V25Z" fill="#E7EEFE"/>
<path d="M17 25H16V26H17V25Z" fill="white"/>
<path d="M18 25H17V26H18V25Z" fill="#45283C"/>
<path d="M19 25H18V26H19V25Z" fill="white"/>
<path d="M20 25H19V26H20V25Z" fill="white"/>
<path d="M21 25H20V26H21V25Z" fill="white"/>
<path d="M22 25H21V26H22V25Z" fill="white"/>
<path d="M23 25H22V26H23V25Z" fill="white"/>
<path d="M24 25H23V26H24V25Z" fill="white"/>
<path d="M25 25H24V26H25V25Z" fill="white"/>
<path d="M26 25H25V26H26V25Z" fill="white"/>
<path d="M27 25H26V26H27V25Z" fill="white"/>
<path d="M28 25H27V26H28V25Z" fill="white"/>
<path d="M29 25H28V26H29V25Z" fill="white"/>
<path d="M30 25H29V26H30V25Z" fill="white"/>
<path d="M31 25H30V26H31V25Z" fill="white"/>
<path d="M32 25H31V26H32V25Z" fill="#45283C"/>
<path d="M33 25H32V26H33V25Z" fill="#E7EEFE"/>
<path d="M34 25H33V26H34V25Z" fill="#CBDBFC"/>
<path d="M15 26H14V27H15V26Z" fill="#CBDBFC"/>
<path d="M16 26H15V27H16V26Z" fill="#E7EEFE"/>
<path d="M17 26H16V27H17V26Z" fill="white"/>
<path d="M18 26H17V27H18V26Z" fill="white"/>
<path d="M19 26H18V27H19V26Z" fill="#45283C"/>
<path d="M20 26H19V27H20V26Z" fill="#45283C"/>
<path d="M21 26H20V27H21V26Z" fill="#45283C"/>
<path d="M22 26H21V27H22V26Z" fill="white"/>
<path d="M23 26H22V27H23V26Z" fill="white"/>
<path d="M24 26H23V27H24V26Z" fill="#D77BBA"/>
<path d="M25 26H24V27H25V26Z" fill="#D77BBA"/>
<path d="M26 26H25V27H26V26Z" fill="#D77BBA"/>
<path d="M27 26H26V27H27V26Z" fill="white"/>
<path d="M28 26H27V27H28V26Z" fill="white"/>
<path d="M29 26H28V27H29V26Z" fill="#45283C"/>
<path d="M30 26H29V27H30V26Z" fill="#45283C"/>
<path d="M31 26H30V27H31V26Z" fill="#45283C"/>
<path d="M32 26H31V27H32V26Z" fill="white"/>
<path d="M33 26H32V27H33V26Z" fill="#E7EEFE"/>
<path d="M34 26H33V27H34V26Z" fill="#CBDBFC"/>
<path d="M15 27H14V28H15V27Z" fill="#CBDBFC"/>
<path d="M16 27H15V28H16V27Z" fill="#E7EEFE"/>
<path d="M17 27H16V28H17V27Z" fill="white"/>
<path d="M18 27H17V28H18V27Z" fill="white"/>
<path d="M19 27H18V28H19V27Z" fill="white"/>
<path d="M20 27H19V28H20V27Z" fill="white"/>
<path d="M21 27H20V28H21V27Z" fill="white"/>
<path d="M22 27H21V28H22V27Z" fill="#45283C"/>
<path d="M23 27H22V28H23V27Z" fill="white"/>
<path d="M24 27H23V28H24V27Z" fill="white"/>
<path d="M25 27H24V28H25V27Z" fill="#D77BBA"/>
<path d="M26 27H25V28H26V27Z" fill="white"/>
<path d="M27 27H26V28H27V27Z" fill="white"/>
<path d="M28 27H27V28H28V27Z" fill="#45283C"/>
<path d="M29 27H28V28H29V27Z" fill="white"/>
<path d="M30 27H29V28H30V27Z" fill="white"/>
<path d="M31 27H30V28H31V27Z" fill="white"/>
<path d="M32 27H31V28H32V27Z" fill="white"/>
<path d="M33 27H32V28H33V27Z" fill="white"/>
<path d="M34 27H33V28H34V27Z" fill="#E7EEFE"/>
<path d="M35 27H34V28H35V27Z" fill="#CBDBFC"/>
<path d="M15 28H14V29H15V28Z" fill="#CBDBFC"/>
<path d="M16 28H15V29H16V28Z" fill="#E7EEFE"/>
<path d="M17 28H16V29H17V28Z" fill="white"/>
<path d="M18 28H17V29H18V28Z" fill="white"/>
<path d="M19 28H18V29H19V28Z" fill="#45283C"/>
<path d="M20 28H19V29H20V28Z" fill="#45283C"/>
<path d="M21 28H20V29H21V28Z" fill="#45283C"/>
<path d="M22 28H21V29H22V28Z" fill="white"/>
<path d="M23 28H22V29H23V28Z" fill="white"/>
<path d="M24 28H23V29H24V28Z" fill="white"/>
<path d="M25 28H24V29H25V28Z" fill="white"/>
<path d="M26 28H25V29H26V28Z" fill="white"/>
<path d="M27 28H26V29H27V28Z" fill="white"/>
<path d="M28 28H27V29H28V28Z" fill="white"/>
<path d="M29 28H28V29H29V28Z" fill="#45283C"/>
<path d="M30 28H29V29H30V28Z" fill="#45283C"/>
<path d="M31 28H30V29H31V28Z" fill="#45283C"/>
<path d="M32 28H31V29H32V28Z" fill="white"/>
<path d="M33 28H32V29H33V28Z" fill="white"/>
<path d="M34 28H33V29H34V28Z" fill="#E7EEFE"/>
<path d="M35 28H34V29H35V28Z" fill="#CBDBFC"/>
<path d="M15 29H14V30H15V29Z" fill="#CBDBFC"/>
<path d="M16 29H15V30H16V29Z" fill="#E7EEFE"/>
<path d="M17 29H16V30H17V29Z" fill="white"/>
<path d="M18 29H17V30H18V29Z" fill="#45283C"/>
<path d="M19 29H18V30H19V29Z" fill="white"/>
<path d="M20 29H19V30H20V29Z" fill="white"/>
<path d="M21 29H20V30H21V29Z" fill="white"/>
<path d="M22 29H21V30H22V29Z" fill="white"/>
<path d="M23 29H22V30H23V29Z" fill="white"/>
<path d="M24 29H23V30H24V29Z" fill="#45283C"/>
<path d="M25 29H24V30H25V29Z" fill="#45283C"/>
<path d="M26 29H25V30H26V29Z" fill="#45283C"/>
<path d="M27 29H26V30H27V29Z" fill="white"/>
<path d="M28 29H27V30H28V29Z" fill="white"/>
<path d="M29 29H28V30H29V29Z" fill="white"/>
<path d="M30 29H29V30H30V29Z" fill="white"/>
<path d="M31 29H30V30H31V29Z" fill="white"/>
<path d="M32 29H31V30H32V29Z" fill="#45283C"/>
<path d="M33 29H32V30H33V29Z" fill="white"/>
<path d="M34 29H33V30H34V29Z" fill="#E7EEFE"/>
<path d="M35 29H34V30H35V29Z" fill="#CBDBFC"/>
<path d="M15 30H14V31H15V30Z" fill="#CBDBFC"/>
<path d="M16 30H15V31H16V30Z" fill="#E7EEFE"/>
<path d="M17 30H16V31H17V30Z" fill="white"/>
<path d="M18 30H17V31H18V30Z" fill="white"/>
<path d="M19 30H18V31H19V30Z" fill="white"/>
<path d="M20 30H19V31H20V30Z" fill="white"/>
<path d="M21 30H20V31H21V30Z" fill="white"/>
<path d="M22 30H21V31H22V30Z" fill="white"/>
<path d="M23 30H22V31H23V30Z" fill="#45283C"/>
<path d="M24 30H23V31H24V30Z" fill="#B4283C"/>
<path d="M25 30H24V31H25V30Z" fill="white"/>
<path d="M26 30H25V31H26V30Z" fill="#B4283C"/>
<path d="M27 30H26V31H27V30Z" fill="#45283C"/>
<path d="M28 30H27V31H28V30Z" fill="white"/>
<path d="M29 30H28V31H29V30Z" fill="white"/>
<path d="M30 30H29V31H30V30Z" fill="white"/>
<path d="M31 30H30V31H31V30Z" fill="white"/>
<path d="M32 30H31V31H32V30Z" fill="white"/>
<path d="M33 30H32V31H33V30Z" fill="white"/>
<path d="M34 30H33V31H34V30Z" fill="#E7EEFE"/>
<path d="M35 30H34V31H35V30Z" fill="#CBDBFC"/>
<path d="M15 31H14V32H15V31Z" fill="#CBDBFC"/>
<path d="M16 31H15V32H16V31Z" fill="#CBDBFC"/>
<path d="M17 31H16V32H17V31Z" fill="#E7EEFE"/>
<path d="M18 31H17V32H18V31Z" fill="white"/>
<path d="M19 31H18V32H19V31Z" fill="white"/>
<path d="M20 31H19V32H20V31Z" fill="white"/>
<path d="M21 31H20V32H21V31Z" fill="white"/>
<path d="M22 31H21V32H22V31Z" fill="white"/>
<path d="M23 31H22V32H23V31Z" fill="white"/>
<path d="M24 31H23V32H24V31Z" fill="white"/>
<path d="M25 31H24V32H25V31Z" fill="white"/>
<path d="M26 31H25V32H26V31Z" fill="white"/>
<path d="M27 31H26V32H27V31Z" fill="white"/>
<path d="M28 31H27V32H28V31Z" fill="white"/>
<path d="M29 31H28V32H29V31Z" fill="white"/>
<path d="M30 31H29V32H30V31Z" fill="white"/>
<path d="M31 31H30V32H31V31Z" fill="white"/>
<path d="M32 31H31V32H32V31Z" fill="white"/>
<path d="M33 31H32V32H33V31Z" fill="white"/>
<path d="M34 31H33V32H34V31Z" fill="#E7EEFE"/>
<path d="M35 31H34V32H35V31Z" fill="#CBDBFC"/>
<path d="M16 32H15V33H16V32Z" fill="#CBDBFC"/>
<path d="M17 32H16V33H17V32Z" fill="#E7EEFE"/>
<path d="M18 32H17V33H18V32Z" fill="white"/>
<path d="M19 32H18V33H19V32Z" fill="white"/>
<path d="M20 32H19V33H20V32Z" fill="white"/>
<path d="M21 32H20V33H21V32Z" fill="white"/>
<path d="M22 32H21V33H22V32Z" fill="white"/>
<path d="M23 32H22V33H23V32Z" fill="white"/>
<path d="M24 32H23V33H24V32Z" fill="white"/>
<path d="M25 32H24V33H25V32Z" fill="white"/>
<path d="M26 32H25V33H26V32Z" fill="white"/>
<path d="M27 32H26V33H27V32Z" fill="white"/>
<path d="M28 32H27V33H28V32Z" fill="white"/>
<path d="M29 32H28V33H29V32Z" fill="white"/>
<path d="M30 32H29V33H30V32Z" fill="white"/>
<path d="M31 32H30V33H31V32Z" fill="white"/>
<path d="M32 32H31V33H32V32Z" fill="white"/>
<path d="M33 32H32V33H33V32Z" fill="#E7EEFE"/>
<path d="M34 32H33V33H34V32Z" fill="#CBDBFC"/>
<path d="M17 33H16V34H17V33Z" fill="#CBDBFC"/>
<path d="M18 33H17V34H18V33Z" fill="#E7EEFE"/>
<path d="M19 33H18V34H19V33Z" fill="white"/>
<path d="M20 33H19V34H20V33Z" fill="white"/>
<path d="M21 33H20V34H21V33Z" fill="white"/>
<path d="M22 33H21V34H22V33Z" fill="white"/>
<path d="M23 33H22V34H23V33Z" fill="white"/>
<path d="M24 33H23V34H24V33Z" fill="white"/>
<path d="M25 33H24V34H25V33Z" fill="white"/>
<path d="M26 33H25V34H26V33Z" fill="white"/>
<path d="M27 33H26V34H27V33Z" fill="white"/>
<path d="M28 33H27V34H28V33Z" fill="white"/>
<path d="M29 33H28V34H29V33Z" fill="white"/>
<path d="M30 33H29V34H30V33Z" fill="white"/>
<path d="M31 33H30V34H31V33Z" fill="white"/>
<path d="M32 33H31V34H32V33Z" fill="white"/>
<path d="M33 33H32V34H33V33Z" fill="#E7EEFE"/>
<path d="M34 33H33V34H34V33Z" fill="#CBDBFC"/>
<path d="M17 34H16V35H17V34Z" fill="#CBDBFC"/>
<path d="M18 34H17V35H18V34Z" fill="#CBDBFC"/>
<path d="M19 34H18V35H19V34Z" fill="#E7EEFE"/>
<path d="M20 34H19V35H20V34Z" fill="white"/>
<path d="M21 34H20V35H21V34Z" fill="white"/>
<path d="M22 34H21V35H22V34Z" fill="white"/>
<path d="M23 34H22V35H23V34Z" fill="white"/>
<path d="M24 34H23V35H24V34Z" fill="#E7EEFE"/>
<path d="M25 34H24V35H25V34Z" fill="#E7EEFE"/>
<path d="M26 34H25V35H26V34Z" fill="#E7EEFE"/>
<path d="M27 34H26V35H27V34Z" fill="#E7EEFE"/>
<path d="M28 34H27V35H28V34Z" fill="white"/>
<path d="M29 34H28V35H29V34Z" fill="white"/>
<path d="M30 34H29V35H30V34Z" fill="white"/>
<path d="M31 34H30V35H31V34Z" fill="white"/>
<path d="M32 34H31V35H32V34Z" fill="#E7EEFE"/>
<path d="M33 34H32V35H33V34Z" fill="#CBDBFC"/>
<path d="M34 34H33V35H34V34Z" fill="#CBDBFC"/>
<path d="M18 35H17V36H18V35Z" fill="#CBDBFC"/>
<path d="M19 35H18V36H19V35Z" fill="#CBDBFC"/>
<path d="M20 35H19V36H20V35Z" fill="#E7EEFE"/>
<path d="M21 35H20V36H21V35Z" fill="#E7EEFE"/>
<path d="M22 35H21V36H22V35Z" fill="#E7EEFE"/>
<path d="M23 35H22V36H23V35Z" fill="#E7EEFE"/>
<path d="M24 35H23V36H24V35Z" fill="#CBDBFC"/>
<path d="M25 35H24V36H25V35Z" fill="#CBDBFC"/>
<path d="M26 35H25V36H26V35Z" fill="#CBDBFC"/>
<path d="M27 35H26V36H27V35Z" fill="#CBDBFC"/>
<path d="M28 35H27V36H28V35Z" fill="#E7EEFE"/>
<path d="M29 35H28V36H29V35Z" fill="#E7EEFE"/>
<path d="M30 35H29V36H30V35Z" fill="#E7EEFE"/>
<path d="M31 35H30V36H31V35Z" fill="#E7EEFE"/>
<path d="M32 35H31V36H32V35Z" fill="#CBDBFC"/>
<path d="M33 35H32V36H33V35Z" fill="#CBDBFC"/>
<path d="M19 36H18V37H19V36Z" fill="#CBDBFC"/>
<path d="M20 36H19V37H20V36Z" fill="#CBDBFC"/>
<path d="M21 36H20V37H21V36Z" fill="#CBDBFC"/>
<path d="M22 36H21V37H22V36Z" fill="#CBDBFC"/>
<path d="M23 36H22V37H23V36Z" fill="#CBDBFC"/>
<path d="M24 36H23V37H24V36Z" fill="#CBDBFC"/>
<path d="M25 36H24V37H25V36Z" fill="#CBDBFC"/>
<path d="M26 36H25V37H26V36Z" fill="#CBDBFC"/>
<path d="M27 36H26V37H27V36Z" fill="#CBDBFC"/>
<path d="M28 36H27V37H28V36Z" fill="#CBDBFC"/>
<path d="M29 36H28V37H29V36Z" fill="#CBDBFC"/>
<path d="M30 36H29V37H30V36Z" fill="#CBDBFC"/>
<path d="M31 36H30V37H31V36Z" fill="#CBDBFC"/>
<path d="M32 36H31V37H32V36Z" fill="#CBDBFC"/>
<path d="M20 37H19V38H20V37Z" fill="#CBDBFC"/>
<path d="M21 37H20V38H21V37Z" fill="#CBDBFC"/>
<path d="M22 37H21V38H22V37Z" fill="#CBDBFC"/>
<path d="M23 37H22V38H23V37Z" fill="#CBDBFC"/>
<path d="M24 37H23V38H24V37Z" fill="#CBDBFC"/>
<path d="M25 37H24V38H25V37Z" fill="#CBDBFC"/>
<path d="M26 37H25V38H26V37Z" fill="#CBDBFC"/>
<path d="M27 37H26V38H27V37Z" fill="#CBDBFC"/>
<path d="M28 37H27V38H28V37Z" fill="#CBDBFC"/>
<path d="M29 37H28V38H29V37Z" fill="#CBDBFC"/>
<path d="M30 37H29V38H30V37Z" fill="#CBDBFC"/>
<path d="M31 37H30V38H31V37Z" fill="#CBDBFC"/>
</svg>
