<svg width="50" height="50" viewBox="0 0 50 50" fill="none" xmlns="http://www.w3.org/2000/svg">
<rect x="13" y="13" width="1" height="1" fill="#AC9A94"/>
<rect x="13" y="13" width="1" height="1" fill="#AC9A94"/>
<rect x="13" y="14" width="1" height="1" fill="#AC9A94"/>
<rect x="17" y="14" width="7" height="1" fill="#AC9A94"/>
<rect x="28" y="14" width="3" height="1" fill="#AC9A94"/>
<rect x="13" y="15" width="1" height="1" fill="#AC9A94"/>
<rect x="14" y="15" width="1" height="1" fill="#AC9A94"/>
<rect x="13" y="16" width="1" height="1" fill="#AC9A94"/>
<rect x="14" y="17" width="1" height="1" fill="#AC9A94"/>
<rect x="14" y="17" width="1" height="1" fill="black"/>
<rect x="14" y="18" width="1" height="1" fill="#AC9A94"/>
<rect x="14" y="18" width="1" height="4" fill="#AC9A94"/>
<rect x="13" y="17" width="1" height="3" fill="#AC9A94"/>
<rect x="31" y="14" width="1" height="1" fill="#9B857E"/>
<rect x="31" y="15" width="1" height="1" fill="#AC9A94"/>
<rect x="31" y="15" width="1" height="1" fill="#9B857E"/>
<rect x="30" y="15" width="1" height="1" fill="#AC9A94"/>
<rect x="30" y="16" width="1" height="1" fill="#9B857E"/>
<rect x="29" y="15" width="1" height="4" fill="#AC9A94"/>
<rect x="27" y="24" width="2" height="1" fill="#BE505E"/>
<rect x="28" y="15" width="1" height="5" fill="#AC9A94"/>
<rect x="28" y="20" width="1" height="1" fill="#9B857E"/>
<rect x="29" y="19" width="1" height="1" fill="#9B857E"/>
<path d="M15 15H25V21H15V15Z" fill="#AC9A94"/>
<rect x="15" y="21" width="11" height="1" fill="#AC9A94"/>
<rect x="15" y="22" width="9" height="1" fill="#AC9A94"/>
<rect x="30" y="22" width="1" height="1" fill="#9B857E"/>
<rect x="15" y="23" width="2" height="1" fill="#9B857E"/>
<rect x="14" y="22" width="1" height="1" fill="#9B857E"/>
<rect x="13" y="21" width="1" height="1" fill="#9B857E"/>
<rect x="13" y="20" width="1" height="1" fill="#9B857E"/>
<rect x="17" y="23" width="5" height="1" fill="#AC9A94"/>
<rect x="17" y="24" width="5" height="1" fill="#AC9A94"/>
<rect x="26" y="19" width="1" height="3" fill="#AC9A94"/>
<rect x="25" y="19" width="1" height="2" fill="#AC9A94"/>
<rect x="27" y="18" width="1" height="4" fill="#AC9A94"/>
<rect x="27" y="18" width="1" height="4" fill="#AC9A94"/>
<rect x="27" y="17" width="1" height="1" fill="#9B857E"/>
<rect x="27" y="14" width="1" height="1" fill="#9B857E"/>
<rect x="24" y="14" width="1" height="1" fill="#9B857E"/>
<rect x="16" y="14" width="1" height="1" fill="#9B857E"/>
<rect x="26" y="18" width="1" height="1" fill="#9B857E"/>
<rect x="25" y="18" width="1" height="1" fill="#9B857E"/>
<rect x="24" y="17" width="1" height="1" fill="#9B857E"/>
<rect x="16" y="17" width="1" height="1" fill="#9B857E"/>
<rect x="15" y="18" width="1" height="1" fill="#9B857E"/>
<rect x="14" y="18" width="1" height="1" fill="#9B857E"/>
<rect x="26" y="15" width="1" height="1" fill="#AC9A94"/>
<rect x="31" y="13" width="1" height="1" fill="#9B857E"/>
<rect x="31" y="12" width="1" height="1" fill="#9B857E"/>
<rect x="32" y="12" width="1" height="1" fill="#9B857E"/>
<rect x="32" y="11" width="1" height="1" fill="#9B857E"/>
<rect x="32" y="10" width="1" height="1" fill="#9B857E"/>
<rect x="32" y="9" width="1" height="1" fill="#9B857E"/>
<rect x="32" y="8" width="1" height="1" fill="#9B857E"/>
<rect x="33" y="8" width="1" height="1" fill="#9B857E"/>
<rect x="33" y="7" width="1" height="1" fill="#9B857E"/>
<rect x="32" y="7" width="1" height="1" fill="#9B857E"/>
<rect x="32" y="6" width="1" height="1" fill="#9B857E"/>
<rect x="31" y="6" width="1" height="1" fill="#9B857E"/>
<rect x="33" y="6" width="1" height="1" fill="#9B857E"/>
<rect x="31" y="11" width="1" height="1" fill="#9B857E"/>
<rect x="31" y="10" width="1" height="1" fill="#9B857E"/>
<rect x="31" y="9" width="1" height="1" fill="#9B857E"/>
<rect x="31" y="8" width="1" height="1" fill="#9B857E"/>
<rect x="31" y="7" width="1" height="1" fill="#9B857E"/>
<rect x="29" y="6" width="2" height="2" fill="#AC9A94"/>
<rect x="30" y="6" width="1" height="1" fill="#9B857E"/>
<rect x="30" y="7" width="1" height="1" fill="#AC9A94"/>
<rect x="29" y="8" width="2" height="1" fill="#AC9A94"/>
<rect x="29" y="5" width="2" height="1" fill="#9B857E"/>
<rect x="31" y="5" width="1" height="1" fill="#9B857E"/>
<rect x="17" y="5" width="12" height="4" fill="#AC9A94"/>
<rect x="14" y="9" width="17" height="5" fill="#AC9A94"/>
<rect x="14" y="16" width="1" height="1" fill="black"/>
<rect x="13" y="15" width="1" height="1" fill="#AC9A94"/>
<rect x="15" y="16" width="1" height="1" fill="black"/>
<rect x="16" y="16" width="1" height="1" fill="black"/>
<rect x="15" y="17" width="1" height="1" fill="black"/>
<rect x="15" y="15" width="1" height="1" fill="#E5D8CE"/>
<rect x="16" y="15" width="1" height="1" fill="black"/>
<rect x="15" y="14" width="1" height="1" fill="#E5D8CE"/>
<rect x="14" y="14" width="1" height="2" fill="black"/>
<rect x="26" y="16" width="1" height="1" fill="black"/>
<rect x="26" y="17" width="1" height="1" fill="black"/>
<rect x="25" y="16" width="1" height="1" fill="black"/>
<rect x="25" y="17" width="1" height="1" fill="black"/>
<rect x="24" y="16" width="1" height="1" fill="black"/>
<rect x="26" y="15" width="1" height="1" fill="black"/>
<rect x="26" y="14" width="1" height="1" fill="black"/>
<rect x="25" y="15" width="1" height="1" fill="black"/>
<rect x="24" y="15" width="1" height="1" fill="black"/>
<rect x="25" y="14" width="1" height="1" fill="black"/>
<rect x="26" y="14" width="1" height="2" fill="#E5D8CE"/>
<rect x="27" y="16" width="1" height="1" fill="black"/>
<rect x="27" y="15" width="1" height="1" fill="black"/>
<rect x="13" y="12" width="1" height="1" fill="#AC9A94"/>
<rect x="13" y="11" width="1" height="1" fill="#AC9A94"/>
<rect x="13" y="10" width="1" height="1" fill="#AC9A94"/>
<rect x="13" y="9" width="1" height="1" fill="#AC9A94"/>
<rect x="14" y="8" width="1" height="1" fill="#AC9A94"/>
<rect x="13" y="8" width="1" height="1" fill="#AC9A94"/>
<rect x="13" y="7" width="1" height="1" fill="#806D68"/>
<rect x="13" y="6" width="1" height="1" fill="#806D68"/>
<rect x="14" y="7" width="1" height="1" fill="#AC9A94"/>
<rect x="15" y="6" width="1" height="1" fill="#AC9A94"/>
<rect x="15" y="7" width="1" height="1" fill="#AC9A94"/>
<rect x="16" y="7" width="1" height="1" fill="#AC9A94"/>
<rect x="16" y="8" width="1" height="1" fill="#AC9A94"/>
<rect x="16" y="6" width="1" height="1" fill="#AC9A94"/>
<rect x="15" y="8" width="1" height="1" fill="#AC9A94"/>
<path d="M15 8H16V9H15V8Z" fill="#AC9A94"/>
<rect x="16" y="5" width="1" height="1" fill="#AC9A94"/>
<rect x="17" y="4" width="11" height="1" fill="#AC9A94"/>
<rect x="18" y="3" width="9" height="1" fill="#AC9A94"/>
<rect x="19" y="2" width="1" height="1" fill="#AC9A94"/>
<rect x="20" y="2" width="1" height="1" fill="#AC9A94"/>
<rect x="20" y="1" width="1" height="1" fill="#AC9A94"/>
<rect x="21" y="1" width="1" height="1" fill="#AC9A94"/>
<rect x="22" y="1" width="1" height="1" fill="#AC9A94"/>
<rect x="24" y="1" width="1" height="1" fill="#AC9A94"/>
<rect x="25" y="1" width="1" height="1" fill="#AC9A94"/>
<rect x="25" y="1" width="1" height="1" fill="#AC9A94"/>
<rect x="26" y="2" width="1" height="1" fill="#AC9A94"/>
<rect x="27" y="3" width="1" height="1" fill="#AC9A94"/>
<rect x="28" y="4" width="1" height="1" fill="#9B857E"/>
<rect x="21" y="2" width="5" height="1" fill="#AC9A94"/>
<rect x="23" y="1" width="1" height="1" fill="#AC9A94"/>
<rect x="9" width="4" height="7" fill="#8C7872"/>
<rect x="34" y="2" width="8" height="19" fill="#A68E87"/>
<rect x="29" y="2" width="5" height="1" fill="#A68E87"/>
<rect x="29" y="3" width="5" height="1" fill="#A68E87"/>
<rect x="29" y="4" width="5" height="1" fill="#A68E87"/>
<rect x="33" y="5" width="1" height="1" fill="#A68E87"/>
<rect x="32" y="5" width="1" height="1" fill="#A68E87"/>
<rect x="32" y="5" width="1" height="1" fill="#A68E87"/>
<rect x="30" y="1" width="1" height="1" fill="#A68E87"/>
<rect x="31" y="1" width="1" height="1" fill="#A68E87"/>
<rect x="32" y="1" width="1" height="1" fill="#A68E87"/>
<rect x="33" y="1" width="1" height="1" fill="#A68E87"/>
<rect x="34" y="1" width="1" height="1" fill="#A68E87"/>
<rect x="35" y="1" width="1" height="1" fill="#A68E87"/>
<rect x="36" y="1" width="1" height="1" fill="#A68E87"/>
<rect x="37" y="1" width="1" height="1" fill="#A68E87"/>
<rect x="38" y="1" width="1" height="1" fill="#A68E87"/>
<rect x="39" y="1" width="1" height="1" fill="#A68E87"/>
<rect x="40" y="1" width="1" height="1" fill="#A68E87"/>
<rect x="41" y="1" width="1" height="1" fill="#A68E87"/>
<rect x="42" y="2" width="1" height="1" fill="#A68E87"/>
<rect x="42" y="2" width="1" height="18" fill="#A68E87"/>
<rect x="43" y="3" width="1" height="16" fill="#A68E87"/>
<rect x="44" y="4" width="1" height="15" fill="#A68E87"/>
<rect x="45" y="5" width="1" height="1" fill="#A68E87"/>
<rect x="45" y="6" width="1" height="12" fill="#A68E87"/>
<rect x="46" y="6" width="1" height="11" fill="#A68E87"/>
<rect x="47" y="7" width="1" height="9" fill="#A68E87"/>
<rect x="31" y="21" width="9" height="1" fill="#A68E87"/>
<rect x="31" y="22" width="8" height="1" fill="#A68E87"/>
<rect x="31" y="23" width="7" height="1" fill="#A68E87"/>
<rect x="31" y="24" width="6" height="1" fill="#A68E87"/>
<rect x="31" y="25" width="5" height="1" fill="#A68E87"/>
<rect x="32" y="26" width="3" height="1" fill="#A68E87"/>
<rect width="3" height="5" transform="matrix(1 0 0 -1 31 21)" fill="#A68E87"/>
<rect x="34" y="16" width="1" height="7" transform="rotate(180 34 16)" fill="#A68E87"/>
<rect x="33" y="16" width="1" height="3" transform="rotate(180 33 16)" fill="#A68E87"/>
<rect x="15" y="1" width="1" height="3" fill="#8C7872"/>
<rect x="14" width="1" height="5" fill="#8C7872"/>
<rect x="13" width="1" height="6" fill="#8C7872"/>
<rect x="8" y="1" width="1" height="19" fill="#8C7872"/>
<rect x="9" y="7" width="1" height="14" fill="#8C7872"/>
<rect x="10" y="7" width="1" height="15" fill="#8C7872"/>
<rect x="11" y="7" width="1" height="15" fill="#8C7872"/>
<rect x="11" y="9" width="1" height="12" fill="#806D68"/>
<rect x="10" y="11" width="1" height="8" fill="#806D68"/>
<rect x="12" y="7" width="1" height="15" fill="#806D68"/>
<rect x="7" y="2" width="1" height="17" fill="#8C7872"/>
<rect x="6" y="3" width="1" height="15" fill="#8C7872"/>
<rect x="5" y="4" width="1" height="13" fill="#8C7872"/>
<rect x="4" y="5" width="1" height="11" fill="#8C7872"/>
<rect x="3" y="7" width="1" height="8" fill="#8C7872"/>
<rect x="16" y="3" width="1" height="2" fill="#806D68"/>
<rect x="15" y="4" width="1" height="2" fill="#806D68"/>
<rect x="14" y="5" width="1" height="2" fill="#806D68"/>
<rect x="16" y="2" width="1" height="1" fill="#8C7872"/>
<rect x="26" y="23" width="3" height="1" fill="#864950"/>
<rect x="24" y="24" width="1" height="1" fill="#864950"/>
<rect x="25" y="24" width="2" height="1" fill="#864950"/>
<rect x="29" y="20" width="1" height="1" fill="#9B857E"/>
<rect x="29" y="23" width="1" height="1" fill="#BE505E"/>
<rect x="28" y="22" width="2" height="1" fill="#864950"/>
<rect x="27" y="21" width="1" height="1" fill="#9B857E"/>
<rect x="29" y="24" width="1" height="1" fill="#9B857E"/>
<rect x="28" y="25" width="1" height="1" fill="#9B857E"/>
<rect x="27" y="25" width="1" height="1" fill="#9B857E"/>
<rect x="22" y="25" width="1" height="1" fill="#9B857E"/>
<rect x="23" y="24" width="1" height="1" fill="#864950"/>
<rect x="23" y="23" width="2" height="1" fill="#9B857E"/>
<rect x="22" y="23" width="1" height="1" fill="#9B857E"/>
<rect x="22" y="24" width="1" height="1" fill="#9B857E"/>
<rect x="25" y="23" width="1" height="1" fill="#864950"/>
<rect x="24" y="22" width="2" height="1" fill="#9B857E"/>
<rect x="26" y="22" width="2" height="1" fill="#9B857E"/>
<rect x="30" y="19" width="1" height="1" fill="#9B857E"/>
<rect x="30" y="20" width="1" height="1" fill="#9B857E"/>
<rect x="30" y="21" width="1" height="1" fill="#9B857E"/>
<rect x="29" y="21" width="1" height="1" fill="#9B857E"/>
<rect x="28" y="21" width="1" height="1" fill="#9B857E"/>
<rect x="30" y="23" width="1" height="1" fill="#9B857E"/>
<rect x="30" y="24" width="1" height="1" fill="#9B857E"/>
<rect x="30" y="18" width="1" height="1" fill="#9B857E"/>
<rect x="30" y="17" width="1" height="1" fill="#9B857E"/>
<rect x="23" y="25" width="4" height="1" fill="#9B857E"/>
<rect x="17" y="25" width="4" height="1" fill="#AC9A94"/>
<rect x="17" y="26" width="4" height="1" fill="#AC9A94"/>
<rect x="17" y="27" width="4" height="1" fill="#AC9A94"/>
<rect x="17" y="28" width="4" height="1" fill="#AC9A94"/>
<rect x="16" y="29" width="4" height="1" fill="#AC9A94"/>
<rect x="16" y="30" width="4" height="1" fill="#AC9A94"/>
<rect x="20" y="29" width="1" height="2" fill="#9B857E"/>
<rect x="21" y="24" width="1" height="5" fill="#9B857E"/>
<rect x="16" y="31" width="4" height="1" fill="#AC9A94"/>
<rect x="20" y="31" width="1" height="1" fill="#9B857E"/>
<rect x="21" y="29" width="1" height="1" fill="#9B857E"/>
<rect x="16" y="32" width="4" height="1" fill="#AC9A94"/>
<rect x="20" y="32" width="1" height="1" fill="#9B857E"/>
<rect x="16" y="33" width="4" height="1" fill="#AC9A94"/>
<rect x="20" y="33" width="1" height="1" fill="#9B857E"/>
<rect x="16" y="34" width="4" height="1" fill="#AC9A94"/>
<rect x="20" y="34" width="1" height="1" fill="#9B857E"/>
<rect x="16" y="35" width="4" height="1" fill="#AC9A94"/>
<rect x="20" y="35" width="1" height="1" fill="#9B857E"/>
<rect x="16" y="36" width="4" height="1" fill="#AC9A94"/>
<rect x="20" y="36" width="1" height="1" fill="#9B857E"/>
<rect x="16" y="37" width="4" height="1" fill="#AC9A94"/>
<rect x="20" y="37" width="1" height="1" fill="#9B857E"/>
<rect x="17" y="38" width="3" height="1" fill="#AC9A94"/>
<rect x="20" y="38" width="1" height="1" fill="#9B857E"/>
<rect x="17" y="39" width="3" height="1" fill="#AC9A94"/>
<rect x="20" y="39" width="1" height="1" fill="#9B857E"/>
<rect x="17" y="40" width="4" height="1" fill="#AC9A94"/>
<rect x="20" y="40" width="1" height="1" fill="#9B857E"/>
<rect x="18" y="41" width="3" height="1" fill="#AC9A94"/>
<rect x="19" y="42" width="2" height="1" fill="#AC9A94"/>
<rect x="22" y="41" width="1" height="1" fill="#9B857E"/>
<rect x="21" y="41" width="1" height="1" fill="#9B857E"/>
<rect x="23" y="42" width="1" height="1" fill="#AC9A94"/>
<rect x="23" y="41" width="1" height="1" fill="#AC9A94"/>
<rect x="21" y="42" width="1" height="1" fill="#AC9A94"/>
<rect x="22" y="42" width="1" height="1" fill="#AC9A94"/>
<rect x="12" y="13" width="1" height="1" fill="#AC9A94"/>
<rect x="12" y="13" width="1" height="1" fill="#AC9A94"/>
<rect x="12" y="14" width="1" height="1" fill="#AC9A94"/>
<rect x="12" y="15" width="1" height="1" fill="#AC9A94"/>
<rect x="12" y="16" width="1" height="3" fill="#AC9A94"/>
<rect x="12" y="19" width="1" height="1" fill="#9B857E"/>
<rect x="12" y="15" width="1" height="1" fill="#AC9A94"/>
<rect x="12" y="12" width="1" height="1" fill="#AC9A94"/>
<rect x="12" y="11" width="1" height="1" fill="#AC9A94"/>
</svg>
