<svg width="50" height="50" viewBox="0 0 50 50" fill="none" xmlns="http://www.w3.org/2000/svg">
<path d="M21 5H20V6H21V5Z" fill="#7F665B"/>
<path d="M22 5H21V6H22V5Z" fill="#7F665B"/>
<path d="M23 5H22V6H23V5Z" fill="#7F665B"/>
<path d="M29 5H28V6H29V5Z" fill="#7F665B"/>
<path d="M30 5H29V6H30V5Z" fill="#7F665B"/>
<path d="M31 5H30V6H31V5Z" fill="#7F665B"/>
<path d="M32 5H31V6H32V5Z" fill="#7F665B"/>
<path d="M20 6H19V7H20V6Z" fill="#7F665B"/>
<path d="M21 6H20V7H21V6Z" fill="#624241"/>
<path d="M22 6H21V7H22V6Z" fill="#624241"/>
<path d="M23 6H22V7H23V6Z" fill="#735155"/>
<path d="M24 6H23V7H24V6Z" fill="#7F665B"/>
<path d="M25 6H24V7H25V6Z" fill="#7F665B"/>
<path d="M26 6H25V7H26V6Z" fill="#7F665B"/>
<path d="M27 6H26V7H27V6Z" fill="#7F665B"/>
<path d="M28 6H27V7H28V6Z" fill="#7F665B"/>
<path d="M29 6H28V7H29V6Z" fill="#7F665B"/>
<path d="M30 6H29V7H30V6Z" fill="#624241"/>
<path d="M31 6H30V7H31V6Z" fill="#624241"/>
<path d="M32 6H31V7H32V6Z" fill="#7F665B"/>
<path d="M33 6H32V7H33V6Z" fill="#7F665B"/>
<path d="M20 7H19V8H20V7Z" fill="#7F665B"/>
<path d="M21 7H20V8H21V7Z" fill="#624241"/>
<path d="M22 7H21V8H22V7Z" fill="#735155"/>
<path d="M23 7H22V8H23V7Z" fill="#7F665B"/>
<path d="M24 7H23V8H24V7Z" fill="#907365"/>
<path d="M25 7H24V8H25V7Z" fill="#A2806E"/>
<path d="M26 7H25V8H26V7Z" fill="#A2806E"/>
<path d="M27 7H26V8H27V7Z" fill="#A2806E"/>
<path d="M28 7H27V8H28V7Z" fill="#907365"/>
<path d="M29 7H28V8H29V7Z" fill="#7F665B"/>
<path d="M30 7H29V8H30V7Z" fill="#87675F"/>
<path d="M31 7H30V8H31V7Z" fill="#735155"/>
<path d="M32 7H31V8H32V7Z" fill="#624241"/>
<path d="M33 7H32V8H33V7Z" fill="#7F665B"/>
<path d="M19 8H18V9H19V8Z" fill="#7F665B"/>
<path d="M20 8H19V9H20V8Z" fill="#735155"/>
<path d="M21 8H20V9H21V8Z" fill="#735155"/>
<path d="M22 8H21V9H22V8Z" fill="#7F665B"/>
<path d="M23 8H22V9H23V8Z" fill="#A2806E"/>
<path d="M24 8H23V9H24V8Z" fill="#A2806E"/>
<path d="M25 8H24V9H25V8Z" fill="#A2806E"/>
<path d="M26 8H25V9H26V8Z" fill="#A2806E"/>
<path d="M27 8H26V9H27V8Z" fill="#A2806E"/>
<path d="M28 8H27V9H28V8Z" fill="#A2806E"/>
<path d="M29 8H28V9H29V8Z" fill="#907365"/>
<path d="M30 8H29V9H30V8Z" fill="#7F665B"/>
<path d="M31 8H30V9H31V8Z" fill="#87675F"/>
<path d="M32 8H31V9H32V8Z" fill="#735155"/>
<path d="M33 8H32V9H33V8Z" fill="#7F665B"/>
<path d="M19 9H18V10H19V9Z" fill="#7F665B"/>
<path d="M20 9H19V10H20V9Z" fill="#735155"/>
<path d="M21 9H20V10H21V9Z" fill="#87675F"/>
<path d="M22 9H21V10H22V9Z" fill="#A2806E"/>
<path d="M23 9H22V10H23V9Z" fill="#A2806E"/>
<path d="M24 9H23V10H24V9Z" fill="#A2806E"/>
<path d="M25 9H24V10H25V9Z" fill="#A2806E"/>
<path d="M26 9H25V10H26V9Z" fill="#A2806E"/>
<path d="M27 9H26V10H27V9Z" fill="#A2806E"/>
<path d="M28 9H27V10H28V9Z" fill="#A2806E"/>
<path d="M29 9H28V10H29V9Z" fill="#A2806E"/>
<path d="M30 9H29V10H30V9Z" fill="#907365"/>
<path d="M31 9H30V10H31V9Z" fill="#7F665B"/>
<path d="M32 9H31V10H32V9Z" fill="#87675F"/>
<path d="M33 9H32V10H33V9Z" fill="#7F665B"/>
<path d="M20 10H19V11H20V10Z" fill="#87675F"/>
<path d="M21 10H20V11H21V10Z" fill="#7F665B"/>
<path d="M22 10H21V11H22V10Z" fill="#A2806E"/>
<path d="M23 10H22V11H23V10Z" fill="#A2806E"/>
<path d="M24 10H23V11H24V10Z" fill="#A2806E"/>
<path d="M25 10H24V11H25V10Z" fill="#A2806E"/>
<path d="M26 10H25V11H26V10Z" fill="#A2806E"/>
<path d="M27 10H26V11H27V10Z" fill="#A2806E"/>
<path d="M28 10H27V11H28V10Z" fill="#A2806E"/>
<path d="M29 10H28V11H29V10Z" fill="#A2806E"/>
<path d="M30 10H29V11H30V10Z" fill="#A2806E"/>
<path d="M31 10H30V11H31V10Z" fill="#907365"/>
<path d="M32 10H31V11H32V10Z" fill="#7F665B"/>
<path d="M33 10H32V11H33V10Z" fill="#7F665B"/>
<path d="M20 11H19V12H20V11Z" fill="#7F665B"/>
<path d="M21 11H20V12H21V11Z" fill="#A2806E"/>
<path d="M22 11H21V12H22V11Z" fill="#A2806E"/>
<path d="M23 11H22V12H23V11Z" fill="#A2806E"/>
<path d="M24 11H23V12H24V11Z" fill="#7F665B"/>
<path d="M25 11H24V12H25V11Z" fill="#A2806E"/>
<path d="M26 11H25V12H26V11Z" fill="#A2806E"/>
<path d="M27 11H26V12H27V11Z" fill="#A2806E"/>
<path d="M28 11H27V12H28V11Z" fill="#A2806E"/>
<path d="M29 11H28V12H29V11Z" fill="#7F665B"/>
<path d="M30 11H29V12H30V11Z" fill="#A2806E"/>
<path d="M31 11H30V12H31V11Z" fill="#907365"/>
<path d="M32 11H31V12H32V11Z" fill="#7F665B"/>
<path d="M20 12H19V13H20V12Z" fill="#7F665B"/>
<path d="M21 12H20V13H21V12Z" fill="#A2806E"/>
<path d="M22 12H21V13H22V12Z" fill="#907365"/>
<path d="M23 12H22V13H23V12Z" fill="#22151F"/>
<path d="M24 12H23V13H24V12Z" fill="#E5D8CE"/>
<path d="M25 12H24V13H25V12Z" fill="#A2806E"/>
<path d="M26 12H25V13H26V12Z" fill="#A2806E"/>
<path d="M27 12H26V13H27V12Z" fill="#907365"/>
<path d="M28 12H27V13H28V12Z" fill="#22151F"/>
<path d="M29 12H28V13H29V12Z" fill="#E5D8CE"/>
<path d="M30 12H29V13H30V12Z" fill="#A2806E"/>
<path d="M31 12H30V13H31V12Z" fill="#A2806E"/>
<path d="M32 12H31V13H32V12Z" fill="#907365"/>
<path d="M19 13H18V14H19V13Z" fill="#7F665B"/>
<path d="M20 13H19V14H20V13Z" fill="#A2806E"/>
<path d="M21 13H20V14H21V13Z" fill="#A2806E"/>
<path d="M22 13H21V14H22V13Z" fill="#907365"/>
<path d="M23 13H22V14H23V13Z" fill="#22151F"/>
<path d="M24 13H23V14H24V13Z" fill="#352526"/>
<path d="M25 13H24V14H25V13Z" fill="#A2806E"/>
<path d="M26 13H25V14H26V13Z" fill="#A2806E"/>
<path d="M27 13H26V14H27V13Z" fill="#907365"/>
<path d="M28 13H27V14H28V13Z" fill="#22151F"/>
<path d="M29 13H28V14H29V13Z" fill="#22151F"/>
<path d="M30 13H29V14H30V13Z" fill="#907365"/>
<path d="M31 13H30V14H31V13Z" fill="#A2806E"/>
<path d="M32 13H31V14H32V13Z" fill="#A2806E"/>
<path d="M33 13H32V14H33V13Z" fill="#7F665B"/>
<path d="M19 14H18V15H19V14Z" fill="#7F665B"/>
<path d="M20 14H19V15H20V14Z" fill="#A2806E"/>
<path d="M21 14H20V15H21V14Z" fill="#A2806E"/>
<path d="M22 14H21V15H22V14Z" fill="#A2806E"/>
<path d="M23 14H22V15H23V14Z" fill="#A2806E"/>
<path d="M24 14H23V15H24V14Z" fill="#A2806E"/>
<path d="M25 14H24V15H25V14Z" fill="#22151F"/>
<path d="M26 14H25V15H26V14Z" fill="#22151F"/>
<path d="M27 14H26V15H27V14Z" fill="#A2806E"/>
<path d="M28 14H27V15H28V14Z" fill="#A2806E"/>
<path d="M29 14H28V15H29V14Z" fill="#A2806E"/>
<path d="M30 14H29V15H30V14Z" fill="#A2806E"/>
<path d="M31 14H30V15H31V14Z" fill="#A2806E"/>
<path d="M32 14H31V15H32V14Z" fill="#A2806E"/>
<path d="M33 14H32V15H33V14Z" fill="#7F665B"/>
<path d="M19 15H18V16H19V15Z" fill="#7F665B"/>
<path d="M20 15H19V16H20V15Z" fill="#907365"/>
<path d="M21 15H20V16H21V15Z" fill="#A2806E"/>
<path d="M22 15H21V16H22V15Z" fill="#A2806E"/>
<path d="M23 15H22V16H23V15Z" fill="#896267"/>
<path d="M24 15H23V16H24V15Z" fill="#AF8971"/>
<path d="M25 15H24V16H25V15Z" fill="#534C68"/>
<path d="M26 15H25V16H26V15Z" fill="#22151F"/>
<path d="M27 15H26V16H27V15Z" fill="#AF8971"/>
<path d="M28 15H27V16H28V15Z" fill="#A2806E"/>
<path d="M29 15H28V16H29V15Z" fill="#735155"/>
<path d="M30 15H29V16H30V15Z" fill="#A2806E"/>
<path d="M31 15H30V16H31V15Z" fill="#A2806E"/>
<path d="M32 15H31V16H32V15Z" fill="#A2806E"/>
<path d="M33 15H32V16H33V15Z" fill="#7F665B"/>
<path d="M20 16H19V17H20V16Z" fill="#907365"/>
<path d="M21 16H20V17H21V16Z" fill="#A2806E"/>
<path d="M22 16H21V17H22V16Z" fill="#A2806E"/>
<path d="M23 16H22V17H23V16Z" fill="#A2806E"/>
<path d="M24 16H23V17H24V16Z" fill="#735155"/>
<path d="M25 16H24V17H25V16Z" fill="#815258"/>
<path d="M26 16H25V17H26V16Z" fill="#815258"/>
<path d="M27 16H26V17H27V16Z" fill="#735155"/>
<path d="M28 16H27V17H28V16Z" fill="#735155"/>
<path d="M29 16H28V17H29V16Z" fill="#A2806E"/>
<path d="M30 16H29V17H30V16Z" fill="#A2806E"/>
<path d="M31 16H30V17H31V16Z" fill="#A2806E"/>
<path d="M32 16H31V17H32V16Z" fill="#907365"/>
<path d="M20 17H19V18H20V17Z" fill="#7F665B"/>
<path d="M21 17H20V18H21V17Z" fill="#A2806E"/>
<path d="M22 17H21V18H22V17Z" fill="#A2806E"/>
<path d="M23 17H22V18H23V17Z" fill="#A2806E"/>
<path d="M24 17H23V18H24V17Z" fill="#B48A71"/>
<path d="M25 17H24V18H25V17Z" fill="#864950"/>
<path d="M26 17H25V18H26V17Z" fill="#864950"/>
<path d="M27 17H26V18H27V17Z" fill="#B48A71"/>
<path d="M28 17H27V18H28V17Z" fill="#A2806E"/>
<path d="M29 17H28V18H29V17Z" fill="#A2806E"/>
<path d="M30 17H29V18H30V17Z" fill="#A2806E"/>
<path d="M31 17H30V18H31V17Z" fill="#8A6C5E"/>
<path d="M32 17H31V18H32V17Z" fill="#7F665B"/>
<path d="M21 18H20V19H21V18Z" fill="#7F665B"/>
<path d="M22 18H21V19H22V18Z" fill="#A2806E"/>
<path d="M23 18H22V19H23V18Z" fill="#A2806E"/>
<path d="M24 18H23V19H24V18Z" fill="#A2806E"/>
<path d="M25 18H24V19H25V18Z" fill="#B48A71"/>
<path d="M26 18H25V19H26V18Z" fill="#B48A71"/>
<path d="M27 18H26V19H27V18Z" fill="#A2806E"/>
<path d="M28 18H27V19H28V18Z" fill="#A2806E"/>
<path d="M29 18H28V19H29V18Z" fill="#A2806E"/>
<path d="M30 18H29V19H30V18Z" fill="#907365"/>
<path d="M31 18H30V19H31V18Z" fill="#7F665B"/>
<path d="M21 19H20V20H21V19Z" fill="#7F665B"/>
<path d="M22 19H21V20H22V19Z" fill="#907365"/>
<path d="M23 19H22V20H23V19Z" fill="#A2806E"/>
<path d="M24 19H23V20H24V19Z" fill="#A2806E"/>
<path d="M25 19H24V20H25V19Z" fill="#A2806E"/>
<path d="M26 19H25V20H26V19Z" fill="#A2806E"/>
<path d="M27 19H26V20H27V19Z" fill="#A2806E"/>
<path d="M28 19H27V20H28V19Z" fill="#A2806E"/>
<path d="M29 19H28V20H29V19Z" fill="#907365"/>
<path d="M30 19H29V20H30V19Z" fill="#7F665B"/>
<path d="M31 19H30V20H31V19Z" fill="#7F665B"/>
<path d="M20 20H19V21H20V20Z" fill="#7F665B"/>
<path d="M21 20H20V21H21V20Z" fill="#A2806E"/>
<path d="M22 20H21V21H22V20Z" fill="#AC8E7B"/>
<path d="M23 20H22V21H23V20Z" fill="#907365"/>
<path d="M24 20H23V21H24V20Z" fill="#8A6C5E"/>
<path d="M25 20H24V21H25V20Z" fill="#8A6C5E"/>
<path d="M26 20H25V21H26V20Z" fill="#8A6C5E"/>
<path d="M27 20H26V21H27V20Z" fill="#8A6C5E"/>
<path d="M28 20H27V21H28V20Z" fill="#7F665B"/>
<path d="M29 20H28V21H29V20Z" fill="#7F665B"/>
<path d="M30 20H29V21H30V20Z" fill="#A2806E"/>
<path d="M31 20H30V21H31V20Z" fill="#7F665B"/>
<path d="M32 20H31V21H32V20Z" fill="#7F665B"/>
<path d="M19 21H18V22H19V21Z" fill="#7F665B"/>
<path d="M20 21H19V22H20V21Z" fill="#907365"/>
<path d="M21 21H20V22H21V21Z" fill="#A2806E"/>
<path d="M22 21H21V22H22V21Z" fill="#A2806E"/>
<path d="M23 21H22V22H23V21Z" fill="#AC8E7B"/>
<path d="M24 21H23V22H24V21Z" fill="#907365"/>
<path d="M25 21H24V22H25V21Z" fill="#907365"/>
<path d="M26 21H25V22H26V21Z" fill="#907365"/>
<path d="M27 21H26V22H27V21Z" fill="#907365"/>
<path d="M28 21H27V22H28V21Z" fill="#AC8E7B"/>
<path d="M29 21H28V22H29V21Z" fill="#A2806E"/>
<path d="M30 21H29V22H30V21Z" fill="#A2806E"/>
<path d="M31 21H30V22H31V21Z" fill="#A2806E"/>
<path d="M32 21H31V22H32V21Z" fill="#907365"/>
<path d="M33 21H32V22H33V21Z" fill="#7F665B"/>
<path d="M19 22H18V23H19V22Z" fill="#7F665B"/>
<path d="M20 22H19V23H20V22Z" fill="#A2806E"/>
<path d="M21 22H20V23H21V22Z" fill="#A2806E"/>
<path d="M22 22H21V23H22V22Z" fill="#A2806E"/>
<path d="M23 22H22V23H23V22Z" fill="#A2806E"/>
<path d="M24 22H23V23H24V22Z" fill="#A2806E"/>
<path d="M25 22H24V23H25V22Z" fill="#AC8E7B"/>
<path d="M26 22H25V23H26V22Z" fill="#AC8E7B"/>
<path d="M27 22H26V23H27V22Z" fill="#AC8E7B"/>
<path d="M28 22H27V23H28V22Z" fill="#A2806E"/>
<path d="M29 22H28V23H29V22Z" fill="#A2806E"/>
<path d="M30 22H29V23H30V22Z" fill="#A2806E"/>
<path d="M31 22H30V23H31V22Z" fill="#A2806E"/>
<path d="M32 22H31V23H32V22Z" fill="#A2806E"/>
<path d="M33 22H32V23H33V22Z" fill="#7F665B"/>
<path d="M18 23H17V24H18V23Z" fill="#7F665B"/>
<path d="M19 23H18V24H19V23Z" fill="#907365"/>
<path d="M20 23H19V24H20V23Z" fill="#A2806E"/>
<path d="M21 23H20V24H21V23Z" fill="#A2806E"/>
<path d="M22 23H21V24H22V23Z" fill="#A2806E"/>
<path d="M23 23H22V24H23V23Z" fill="#7F665B"/>
<path d="M24 23H23V24H24V23Z" fill="#A2806E"/>
<path d="M25 23H24V24H25V23Z" fill="#A2806E"/>
<path d="M26 23H25V24H26V23Z" fill="#A2806E"/>
<path d="M27 23H26V24H27V23Z" fill="#A2806E"/>
<path d="M28 23H27V24H28V23Z" fill="#7F665B"/>
<path d="M29 23H28V24H29V23Z" fill="#A2806E"/>
<path d="M30 23H29V24H30V23Z" fill="#A2806E"/>
<path d="M31 23H30V24H31V23Z" fill="#A2806E"/>
<path d="M32 23H31V24H32V23Z" fill="#A2806E"/>
<path d="M33 23H32V24H33V23Z" fill="#907365"/>
<path d="M34 23H33V24H34V23Z" fill="#7D6A55"/>
<path d="M18 24H17V25H18V24Z" fill="#7F665B"/>
<path d="M19 24H18V25H19V24Z" fill="#A2806E"/>
<path d="M20 24H19V25H20V24Z" fill="#A2806E"/>
<path d="M21 24H20V25H21V24Z" fill="#A2806E"/>
<path d="M22 24H21V25H22V24Z" fill="#A2806E"/>
<path d="M23 24H22V25H23V24Z" fill="#A2806E"/>
<path d="M24 24H23V25H24V24Z" fill="#7F665B"/>
<path d="M25 24H24V25H25V24Z" fill="#A2806E"/>
<path d="M26 24H25V25H26V24Z" fill="#7F665B"/>
<path d="M27 24H26V25H27V24Z" fill="#7F665B"/>
<path d="M28 24H27V25H28V24Z" fill="#A2806E"/>
<path d="M29 24H28V25H29V24Z" fill="#A2806E"/>
<path d="M30 24H29V25H30V24Z" fill="#A2806E"/>
<path d="M31 24H30V25H31V24Z" fill="#A2806E"/>
<path d="M32 24H31V25H32V24Z" fill="#A2806E"/>
<path d="M33 24H32V25H33V24Z" fill="#A2806E"/>
<path d="M34 24H33V25H34V24Z" fill="#7D6A55"/>
<path d="M17 25H16V26H17V25Z" fill="#7F665B"/>
<path d="M18 25H17V26H18V25Z" fill="#907365"/>
<path d="M19 25H18V26H19V25Z" fill="#A2806E"/>
<path d="M20 25H19V26H20V25Z" fill="#907365"/>
<path d="M21 25H20V26H21V25Z" fill="#907365"/>
<path d="M22 25H21V26H22V25Z" fill="#A2806E"/>
<path d="M23 25H22V26H23V25Z" fill="#A2806E"/>
<path d="M24 25H23V26H24V25Z" fill="#907365"/>
<path d="M25 25H24V26H25V25Z" fill="#A2806E"/>
<path d="M26 25H25V26H26V25Z" fill="#7F665B"/>
<path d="M27 25H26V26H27V25Z" fill="#A2806E"/>
<path d="M28 25H27V26H28V25Z" fill="#A2806E"/>
<path d="M29 25H28V26H29V25Z" fill="#A2806E"/>
<path d="M30 25H29V26H30V25Z" fill="#A2806E"/>
<path d="M31 25H30V26H31V25Z" fill="#A2806E"/>
<path d="M32 25H31V26H32V25Z" fill="#A2806E"/>
<path d="M33 25H32V26H33V25Z" fill="#A2806E"/>
<path d="M34 25H33V26H34V25Z" fill="#907365"/>
<path d="M35 25H34V26H35V25Z" fill="#7F665B"/>
<path d="M17 26H16V27H17V26Z" fill="#7F665B"/>
<path d="M18 26H17V27H18V26Z" fill="#A2806E"/>
<path d="M19 26H18V27H19V26Z" fill="#A2806E"/>
<path d="M20 26H19V27H20V26Z" fill="#A2806E"/>
<path d="M21 26H20V27H21V26Z" fill="#7F665B"/>
<path d="M22 26H21V27H22V26Z" fill="#A2806E"/>
<path d="M23 26H22V27H23V26Z" fill="#A2806E"/>
<path d="M24 26H23V27H24V26Z" fill="#A2806E"/>
<path d="M25 26H24V27H25V26Z" fill="#654C43"/>
<path d="M26 26H25V27H26V26Z" fill="#A2806E"/>
<path d="M27 26H26V27H27V26Z" fill="#A2806E"/>
<path d="M28 26H27V27H28V26Z" fill="#907365"/>
<path d="M29 26H28V27H29V26Z" fill="#7F665B"/>
<path d="M30 26H29V27H30V26Z" fill="#7F665B"/>
<path d="M31 26H30V27H31V26Z" fill="#907365"/>
<path d="M32 26H31V27H32V26Z" fill="#A2806E"/>
<path d="M33 26H32V27H33V26Z" fill="#A2806E"/>
<path d="M34 26H33V27H34V26Z" fill="#907365"/>
<path d="M35 26H34V27H35V26Z" fill="#7F665B"/>
<path d="M17 27H16V28H17V27Z" fill="#7F665B"/>
<path d="M18 27H17V28H18V27Z" fill="#A2806E"/>
<path d="M19 27H18V28H19V27Z" fill="#A2806E"/>
<path d="M20 27H19V28H20V27Z" fill="#A2806E"/>
<path d="M21 27H20V28H21V27Z" fill="#735155"/>
<path d="M22 27H21V28H22V27Z" fill="#907365"/>
<path d="M23 27H22V28H23V27Z" fill="#A2806E"/>
<path d="M24 27H23V28H24V27Z" fill="#A2806E"/>
<path d="M25 27H24V28H25V27Z" fill="#4B3333"/>
<path d="M26 27H25V28H26V27Z" fill="#A2806E"/>
<path d="M27 27H26V28H27V27Z" fill="#907365"/>
<path d="M28 27H27V28H28V27Z" fill="#735155"/>
<path d="M29 27H28V28H29V27Z" fill="#7F665B"/>
<path d="M30 27H29V28H30V27Z" fill="#A2806E"/>
<path d="M31 27H30V28H31V27Z" fill="#A2806E"/>
<path d="M32 27H31V28H32V27Z" fill="#A2806E"/>
<path d="M33 27H32V28H33V27Z" fill="#A2806E"/>
<path d="M34 27H33V28H34V27Z" fill="#A47D68"/>
<path d="M35 27H34V28H35V27Z" fill="#7F665B"/>
<path d="M17 28H16V29H17V28Z" fill="#7F665B"/>
<path d="M18 28H17V29H18V28Z" fill="#A2806E"/>
<path d="M19 28H18V29H19V28Z" fill="#A2806E"/>
<path d="M20 28H19V29H20V28Z" fill="#A2806E"/>
<path d="M21 28H20V29H21V28Z" fill="#A2806E"/>
<path d="M22 28H21V29H22V28Z" fill="#735155"/>
<path d="M23 28H22V29H23V28Z" fill="#735155"/>
<path d="M24 28H23V29H24V28Z" fill="#907365"/>
<path d="M25 28H24V29H25V28Z" fill="#302129"/>
<path d="M26 28H25V29H26V28Z" fill="#907365"/>
<path d="M27 28H26V29H27V28Z" fill="#735155"/>
<path d="M28 28H27V29H28V28Z" fill="#735155"/>
<path d="M29 28H28V29H29V28Z" fill="#A2806E"/>
<path d="M30 28H29V29H30V28Z" fill="#A2806E"/>
<path d="M31 28H30V29H31V28Z" fill="#A2806E"/>
<path d="M32 28H31V29H32V28Z" fill="#A2806E"/>
<path d="M33 28H32V29H33V28Z" fill="#A2806E"/>
<path d="M34 28H33V29H34V28Z" fill="#A47D68"/>
<path d="M35 28H34V29H35V28Z" fill="#7F665B"/>
<path d="M17 29H16V30H17V29Z" fill="#7F665B"/>
<path d="M18 29H17V30H18V29Z" fill="#A2806E"/>
<path d="M19 29H18V30H19V29Z" fill="#A2806E"/>
<path d="M20 29H19V30H20V29Z" fill="#A2806E"/>
<path d="M21 29H20V30H21V29Z" fill="#A2806E"/>
<path d="M22 29H21V30H22V29Z" fill="#603D43"/>
<path d="M23 29H22V30H23V29Z" fill="#735155"/>
<path d="M24 29H23V30H24V29Z" fill="#735155"/>
<path d="M25 29H24V30H25V29Z" fill="#302129"/>
<path d="M26 29H25V30H26V29Z" fill="#735155"/>
<path d="M27 29H26V30H27V29Z" fill="#735155"/>
<path d="M28 29H27V30H28V29Z" fill="#603D43"/>
<path d="M29 29H28V30H29V29Z" fill="#A2806E"/>
<path d="M30 29H29V30H30V29Z" fill="#A2806E"/>
<path d="M31 29H30V30H31V29Z" fill="#A2806E"/>
<path d="M32 29H31V30H32V29Z" fill="#A2806E"/>
<path d="M33 29H32V30H33V29Z" fill="#A2806E"/>
<path d="M34 29H33V30H34V29Z" fill="#A47D68"/>
<path d="M35 29H34V30H35V29Z" fill="#7F665B"/>
<path d="M17 30H16V31H17V30Z" fill="#7F665B"/>
<path d="M18 30H17V31H18V30Z" fill="#A2806E"/>
<path d="M19 30H18V31H19V30Z" fill="#A2806E"/>
<path d="M20 30H19V31H20V30Z" fill="#A2806E"/>
<path d="M21 30H20V31H21V30Z" fill="#A2806E"/>
<path d="M22 30H21V31H22V30Z" fill="#603D43"/>
<path d="M23 30H22V31H23V30Z" fill="#603D43"/>
<path d="M24 30H23V31H24V30Z" fill="#603D43"/>
<path d="M25 30H24V31H25V30Z" fill="#302129"/>
<path d="M26 30H25V31H26V30Z" fill="#603D43"/>
<path d="M27 30H26V31H27V30Z" fill="#603D43"/>
<path d="M28 30H27V31H28V30Z" fill="#603D43"/>
<path d="M29 30H28V31H29V30Z" fill="#A2806E"/>
<path d="M30 30H29V31H30V30Z" fill="#A2806E"/>
<path d="M31 30H30V31H31V30Z" fill="#A2806E"/>
<path d="M32 30H31V31H32V30Z" fill="#A2806E"/>
<path d="M33 30H32V31H33V30Z" fill="#A2806E"/>
<path d="M34 30H33V31H34V30Z" fill="#A47D68"/>
<path d="M35 30H34V31H35V30Z" fill="#7F665B"/>
<path d="M17 31H16V32H17V31Z" fill="#8A6C5E"/>
<path d="M18 31H17V32H18V31Z" fill="#A2806E"/>
<path d="M19 31H18V32H19V31Z" fill="#A2806E"/>
<path d="M20 31H19V32H20V31Z" fill="#A2806E"/>
<path d="M21 31H20V32H21V31Z" fill="#A2806E"/>
<path d="M22 31H21V32H22V31Z" fill="#A2806E"/>
<path d="M23 31H22V32H23V31Z" fill="#302129"/>
<path d="M24 31H23V32H24V31Z" fill="#302129"/>
<path d="M25 31H24V32H25V31Z" fill="#907365"/>
<path d="M26 31H25V32H26V31Z" fill="#302129"/>
<path d="M27 31H26V32H27V31Z" fill="#302129"/>
<path d="M28 31H27V32H28V31Z" fill="#907365"/>
<path d="M29 31H28V32H29V31Z" fill="#A2806E"/>
<path d="M30 31H29V32H30V31Z" fill="#A2806E"/>
<path d="M31 31H30V32H31V31Z" fill="#A2806E"/>
<path d="M32 31H31V32H32V31Z" fill="#A2806E"/>
<path d="M33 31H32V32H33V31Z" fill="#A2806E"/>
<path d="M34 31H33V32H34V31Z" fill="#A47D68"/>
<path d="M35 31H34V32H35V31Z" fill="#7F665B"/>
<path d="M17 32H16V33H17V32Z" fill="#8A6C5E"/>
<path d="M18 32H17V33H18V32Z" fill="#A2806E"/>
<path d="M19 32H18V33H19V32Z" fill="#A2806E"/>
<path d="M20 32H19V33H20V32Z" fill="#A2806E"/>
<path d="M21 32H20V33H21V32Z" fill="#A2806E"/>
<path d="M22 32H21V33H22V32Z" fill="#A2806E"/>
<path d="M23 32H22V33H23V32Z" fill="#AC8E7B"/>
<path d="M24 32H23V33H24V32Z" fill="#907365"/>
<path d="M25 32H24V33H25V32Z" fill="#AC8E7B"/>
<path d="M26 32H25V33H26V32Z" fill="#907365"/>
<path d="M27 32H26V33H27V32Z" fill="#907365"/>
<path d="M28 32H27V33H28V32Z" fill="#907365"/>
<path d="M29 32H28V33H29V32Z" fill="#A2806E"/>
<path d="M30 32H29V33H30V32Z" fill="#A2806E"/>
<path d="M31 32H30V33H31V32Z" fill="#A2806E"/>
<path d="M32 32H31V33H32V32Z" fill="#A2806E"/>
<path d="M33 32H32V33H33V32Z" fill="#A2806E"/>
<path d="M34 32H33V33H34V32Z" fill="#A47D68"/>
<path d="M35 32H34V33H35V32Z" fill="#7F665B"/>
<path d="M17 33H16V34H17V33Z" fill="#8A6C5E"/>
<path d="M18 33H17V34H18V33Z" fill="#A2806E"/>
<path d="M19 33H18V34H19V33Z" fill="#A2806E"/>
<path d="M20 33H19V34H20V33Z" fill="#A2806E"/>
<path d="M21 33H20V34H21V33Z" fill="#A2806E"/>
<path d="M22 33H21V34H22V33Z" fill="#A78675"/>
<path d="M23 33H22V34H23V33Z" fill="#AC8E7B"/>
<path d="M24 33H23V34H24V33Z" fill="#B59581"/>
<path d="M25 33H24V34H25V33Z" fill="#B59581"/>
<path d="M26 33H25V34H26V33Z" fill="#B59581"/>
<path d="M27 33H26V34H27V33Z" fill="#AC8E7B"/>
<path d="M28 33H27V34H28V33Z" fill="#AC8E7B"/>
<path d="M29 33H28V34H29V33Z" fill="#A78675"/>
<path d="M30 33H29V34H30V33Z" fill="#A2806E"/>
<path d="M31 33H30V34H31V33Z" fill="#A2806E"/>
<path d="M32 33H31V34H32V33Z" fill="#A2806E"/>
<path d="M33 33H32V34H33V33Z" fill="#A2806E"/>
<path d="M34 33H33V34H34V33Z" fill="#A47D68"/>
<path d="M35 33H34V34H35V33Z" fill="#7F665B"/>
<path d="M17 34H16V35H17V34Z" fill="#8A6C5E"/>
<path d="M18 34H17V35H18V34Z" fill="#A2806E"/>
<path d="M19 34H18V35H19V34Z" fill="#A2806E"/>
<path d="M20 34H19V35H20V34Z" fill="#A2806E"/>
<path d="M21 34H20V35H21V34Z" fill="#A2806E"/>
<path d="M22 34H21V35H22V34Z" fill="#AC8E7B"/>
<path d="M23 34H22V35H23V34Z" fill="#AC8E7B"/>
<path d="M24 34H23V35H24V34Z" fill="#B59581"/>
<path d="M25 34H24V35H25V34Z" fill="#B59581"/>
<path d="M26 34H25V35H26V34Z" fill="#B59581"/>
<path d="M27 34H26V35H27V34Z" fill="#B59581"/>
<path d="M28 34H27V35H28V34Z" fill="#AC8E7B"/>
<path d="M29 34H28V35H29V34Z" fill="#AC8E7B"/>
<path d="M30 34H29V35H30V34Z" fill="#A2806E"/>
<path d="M31 34H30V35H31V34Z" fill="#A2806E"/>
<path d="M32 34H31V35H32V34Z" fill="#A2806E"/>
<path d="M33 34H32V35H33V34Z" fill="#A2806E"/>
<path d="M34 34H33V35H34V34Z" fill="#A47D68"/>
<path d="M35 34H34V35H35V34Z" fill="#7F665B"/>
<path d="M17 35H16V36H17V35Z" fill="#8A6C5E"/>
<path d="M18 35H17V36H18V35Z" fill="#A2806E"/>
<path d="M19 35H18V36H19V35Z" fill="#A2806E"/>
<path d="M20 35H19V36H20V35Z" fill="#A2806E"/>
<path d="M21 35H20V36H21V35Z" fill="#A2806E"/>
<path d="M22 35H21V36H22V35Z" fill="#AC8E7B"/>
<path d="M23 35H22V36H23V35Z" fill="#AC8E7B"/>
<path d="M24 35H23V36H24V35Z" fill="#B59581"/>
<path d="M25 35H24V36H25V35Z" fill="#B59581"/>
<path d="M26 35H25V36H26V35Z" fill="#B59581"/>
<path d="M27 35H26V36H27V35Z" fill="#B59581"/>
<path d="M28 35H27V36H28V35Z" fill="#AC8E7B"/>
<path d="M29 35H28V36H29V35Z" fill="#AC8E7B"/>
<path d="M30 35H29V36H30V35Z" fill="#A2806E"/>
<path d="M31 35H30V36H31V35Z" fill="#A2806E"/>
<path d="M32 35H31V36H32V35Z" fill="#A2806E"/>
<path d="M33 35H32V36H33V35Z" fill="#A2806E"/>
<path d="M34 35H33V36H34V35Z" fill="#A47D68"/>
<path d="M35 35H34V36H35V35Z" fill="#7F665B"/>
<path d="M17 36H16V37H17V36Z" fill="#8A6C5E"/>
<path d="M18 36H17V37H18V36Z" fill="#A2806E"/>
<path d="M19 36H18V37H19V36Z" fill="#A2806E"/>
<path d="M20 36H19V37H20V36Z" fill="#A2806E"/>
<path d="M21 36H20V37H21V36Z" fill="#A2806E"/>
<path d="M22 36H21V37H22V36Z" fill="#AC8E7B"/>
<path d="M23 36H22V37H23V36Z" fill="#AC8E7B"/>
<path d="M24 36H23V37H24V36Z" fill="#AC8E7B"/>
<path d="M25 36H24V37H25V36Z" fill="#B59581"/>
<path d="M26 36H25V37H26V36Z" fill="#B59581"/>
<path d="M27 36H26V37H27V36Z" fill="#AC8E7B"/>
<path d="M28 36H27V37H28V36Z" fill="#AC8E7B"/>
<path d="M29 36H28V37H29V36Z" fill="#AC8E7B"/>
<path d="M30 36H29V37H30V36Z" fill="#A2806E"/>
<path d="M31 36H30V37H31V36Z" fill="#A2806E"/>
<path d="M32 36H31V37H32V36Z" fill="#A2806E"/>
<path d="M33 36H32V37H33V36Z" fill="#A2806E"/>
<path d="M34 36H33V37H34V36Z" fill="#A47D68"/>
<path d="M35 36H34V37H35V36Z" fill="#7F665B"/>
<path d="M17 37H16V38H17V37Z" fill="#8A6C5E"/>
<path d="M18 37H17V38H18V37Z" fill="#907365"/>
<path d="M19 37H18V38H19V37Z" fill="#A2806E"/>
<path d="M20 37H19V38H20V37Z" fill="#A2806E"/>
<path d="M21 37H20V38H21V37Z" fill="#A2806E"/>
<path d="M22 37H21V38H22V37Z" fill="#A78675"/>
<path d="M23 37H22V38H23V37Z" fill="#AC8E7B"/>
<path d="M24 37H23V38H24V37Z" fill="#AC8E7B"/>
<path d="M25 37H24V38H25V37Z" fill="#AC8E7B"/>
<path d="M26 37H25V38H26V37Z" fill="#AC8E7B"/>
<path d="M27 37H26V38H27V37Z" fill="#AC8E7B"/>
<path d="M28 37H27V38H28V37Z" fill="#AC8E7B"/>
<path d="M29 37H28V38H29V37Z" fill="#A78675"/>
<path d="M30 37H29V38H30V37Z" fill="#A2806E"/>
<path d="M31 37H30V38H31V37Z" fill="#A2806E"/>
<path d="M32 37H31V38H32V37Z" fill="#A2806E"/>
<path d="M33 37H32V38H33V37Z" fill="#A2806E"/>
<path d="M34 37H33V38H34V37Z" fill="#A2806E"/>
<path d="M35 37H34V38H35V37Z" fill="#7F665B"/>
<path d="M18 38H17V39H18V38Z" fill="#8A6C5E"/>
<path d="M19 38H18V39H19V38Z" fill="#A2806E"/>
<path d="M20 38H19V39H20V38Z" fill="#A2806E"/>
<path d="M21 38H20V39H21V38Z" fill="#A2806E"/>
<path d="M22 38H21V39H22V38Z" fill="#A2806E"/>
<path d="M23 38H22V39H23V38Z" fill="#A78675"/>
<path d="M24 38H23V39H24V38Z" fill="#A78675"/>
<path d="M25 38H24V39H25V38Z" fill="#AC8E7B"/>
<path d="M26 38H25V39H26V38Z" fill="#AC8E7B"/>
<path d="M27 38H26V39H27V38Z" fill="#AC8E7B"/>
<path d="M28 38H27V39H28V38Z" fill="#A78675"/>
<path d="M29 38H28V39H29V38Z" fill="#A2806E"/>
<path d="M30 38H29V39H30V38Z" fill="#A2806E"/>
<path d="M31 38H30V39H31V38Z" fill="#A2806E"/>
<path d="M32 38H31V39H32V38Z" fill="#A2806E"/>
<path d="M33 38H32V39H33V38Z" fill="#A2806E"/>
<path d="M34 38H33V39H34V38Z" fill="#A2806E"/>
<path d="M35 38H34V39H35V38Z" fill="#7F665B"/>
<path d="M18 39H17V40H18V39Z" fill="#8A6C5E"/>
<path d="M19 39H18V40H19V39Z" fill="#A2806E"/>
<path d="M20 39H19V40H20V39Z" fill="#A2806E"/>
<path d="M21 39H20V40H21V39Z" fill="#A2806E"/>
<path d="M22 39H21V40H22V39Z" fill="#A2806E"/>
<path d="M23 39H22V40H23V39Z" fill="#A2806E"/>
<path d="M24 39H23V40H24V39Z" fill="#A2806E"/>
<path d="M25 39H24V40H25V39Z" fill="#A2806E"/>
<path d="M26 39H25V40H26V39Z" fill="#A2806E"/>
<path d="M27 39H26V40H27V39Z" fill="#A2806E"/>
<path d="M28 39H27V40H28V39Z" fill="#A2806E"/>
<path d="M29 39H28V40H29V39Z" fill="#A2806E"/>
<path d="M30 39H29V40H30V39Z" fill="#A2806E"/>
<path d="M31 39H30V40H31V39Z" fill="#A2806E"/>
<path d="M32 39H31V40H32V39Z" fill="#A2806E"/>
<path d="M33 39H32V40H33V39Z" fill="#A2806E"/>
<path d="M34 39H33V40H34V39Z" fill="#A2806E"/>
<path d="M35 39H34V40H35V39Z" fill="#7F665B"/>
<path d="M18 40H17V41H18V40Z" fill="#8A6C5E"/>
<path d="M19 40H18V41H19V40Z" fill="#A2806E"/>
<path d="M20 40H19V41H20V40Z" fill="#A2806E"/>
<path d="M21 40H20V41H21V40Z" fill="#A2806E"/>
<path d="M22 40H21V41H22V40Z" fill="#A2806E"/>
<path d="M23 40H22V41H23V40Z" fill="#A2806E"/>
<path d="M24 40H23V41H24V40Z" fill="#A2806E"/>
<path d="M25 40H24V41H25V40Z" fill="#A2806E"/>
<path d="M26 40H25V41H26V40Z" fill="#A2806E"/>
<path d="M27 40H26V41H27V40Z" fill="#A2806E"/>
<path d="M28 40H27V41H28V40Z" fill="#A2806E"/>
<path d="M29 40H28V41H29V40Z" fill="#A2806E"/>
<path d="M30 40H29V41H30V40Z" fill="#A2806E"/>
<path d="M31 40H30V41H31V40Z" fill="#A2806E"/>
<path d="M32 40H31V41H32V40Z" fill="#A2806E"/>
<path d="M33 40H32V41H33V40Z" fill="#A2806E"/>
<path d="M34 40H33V41H34V40Z" fill="#A2806E"/>
<path d="M35 40H34V41H35V40Z" fill="#82685B"/>
<path d="M18 41H17V42H18V41Z" fill="#8A6C5E"/>
<path d="M19 41H18V42H19V41Z" fill="#8A6C5E"/>
<path d="M20 41H19V42H20V41Z" fill="#A2806E"/>
<path d="M21 41H20V42H21V41Z" fill="#A2806E"/>
<path d="M22 41H21V42H22V41Z" fill="#907365"/>
<path d="M23 41H22V42H23V41Z" fill="#A2806E"/>
<path d="M24 41H23V42H24V41Z" fill="#A2806E"/>
<path d="M25 41H24V42H25V41Z" fill="#A2806E"/>
<path d="M26 41H25V42H26V41Z" fill="#A2806E"/>
<path d="M27 41H26V42H27V41Z" fill="#A2806E"/>
<path d="M28 41H27V42H28V41Z" fill="#A2806E"/>
<path d="M29 41H28V42H29V41Z" fill="#907365"/>
<path d="M30 41H29V42H30V41Z" fill="#A2806E"/>
<path d="M31 41H30V42H31V41Z" fill="#A2806E"/>
<path d="M32 41H31V42H32V41Z" fill="#A2806E"/>
<path d="M33 41H32V42H33V41Z" fill="#A2806E"/>
<path d="M34 41H33V42H34V41Z" fill="#A2806E"/>
<path d="M35 41H34V42H35V41Z" fill="#82685B"/>
<path d="M19 42H18V43H19V42Z" fill="#7F665B"/>
<path d="M20 42H19V43H20V42Z" fill="#A2806E"/>
<path d="M21 42H20V43H21V42Z" fill="#A2806E"/>
<path d="M22 42H21V43H22V42Z" fill="#6E5647"/>
<path d="M23 42H22V43H23V42Z" fill="#6E5647"/>
<path d="M24 42H23V43H24V42Z" fill="#6E5647"/>
<path d="M25 42H24V43H25V42Z" fill="#6E5647"/>
<path d="M26 42H25V43H26V42Z" fill="#6E5647"/>
<path d="M27 42H26V43H27V42Z" fill="#6E5647"/>
<path d="M28 42H27V43H28V42Z" fill="#6E5647"/>
<path d="M29 42H28V43H29V42Z" fill="#6E5647"/>
<path d="M30 42H29V43H30V42Z" fill="#907365"/>
<path d="M31 42H30V43H31V42Z" fill="#A2806E"/>
<path d="M32 42H31V43H32V42Z" fill="#A2806E"/>
<path d="M33 42H32V43H33V42Z" fill="#A2806E"/>
<path d="M34 42H33V43H34V42Z" fill="#A2806E"/>
<path d="M35 42H34V43H35V42Z" fill="#82685B"/>
<path d="M19 43H18V44H19V43Z" fill="#7F665B"/>
<path d="M20 43H19V44H20V43Z" fill="#A2806E"/>
<path d="M21 43H20V44H21V43Z" fill="#A2806E"/>
<path d="M22 43H21V44H22V43Z" fill="#6E5647"/>
<path d="M30 43H29V44H30V43Z" fill="#6E5647"/>
<path d="M31 43H30V44H31V43Z" fill="#82685B"/>
<path d="M32 43H31V44H32V43Z" fill="#A2806E"/>
<path d="M33 43H32V44H33V43Z" fill="#A2806E"/>
<path d="M34 43H33V44H34V43Z" fill="#82685B"/>
<path d="M19 44H18V45H19V44Z" fill="#7F665B"/>
<path d="M20 44H19V45H20V44Z" fill="#A2806E"/>
<path d="M21 44H20V45H21V44Z" fill="#6E5647"/>
<path d="M22 44H21V45H22V44Z" fill="#6E5647"/>
<path d="M31 44H30V45H31V44Z" fill="#6E5647"/>
<path d="M32 44H31V45H32V44Z" fill="#82685B"/>
<path d="M33 44H32V45H33V44Z" fill="#A47869"/>
<path d="M34 44H33V45H34V44Z" fill="#82685B"/>
<path d="M18 45H17V46H18V45Z" fill="#7F665B"/>
<path d="M19 45H18V46H19V45Z" fill="#A47869"/>
<path d="M20 45H19V46H20V45Z" fill="#A47869"/>
<path d="M21 45H20V46H21V45Z" fill="#6E5647"/>
<path d="M31 45H30V46H31V45Z" fill="#6E5647"/>
<path d="M32 45H31V46H32V45Z" fill="#A47869"/>
<path d="M33 45H32V46H33V45Z" fill="#BB8573"/>
<path d="M34 45H33V46H34V45Z" fill="#82685B"/>
<path d="M35 45H34V46H35V45Z" fill="#82685B"/>
<path d="M17 46H16V47H17V46Z" fill="#7F665B"/>
<path d="M18 46H17V47H18V46Z" fill="#A47869"/>
<path d="M19 46H18V47H19V46Z" fill="#BB8573"/>
<path d="M20 46H19V47H20V46Z" fill="#9D6552"/>
<path d="M21 46H20V47H21V46Z" fill="#9D6552"/>
<path d="M31 46H30V47H31V46Z" fill="#9D6552"/>
<path d="M32 46H31V47H32V46Z" fill="#BB8573"/>
<path d="M33 46H32V47H33V46Z" fill="#BB8573"/>
<path d="M34 46H33V47H34V46Z" fill="#BB8573"/>
<path d="M35 46H34V47H35V46Z" fill="#9D6552"/>
<path d="M16 47H15V48H16V47Z" fill="#7F665B"/>
<path d="M17 47H16V48H17V47Z" fill="#BB8573"/>
<path d="M18 47H17V48H18V47Z" fill="#BB8573"/>
<path d="M19 47H18V48H19V47Z" fill="#BB8573"/>
<path d="M20 47H19V48H20V47Z" fill="#9D6552"/>
<path d="M31 47H30V48H31V47Z" fill="#9D6552"/>
<path d="M32 47H31V48H32V47Z" fill="#A47869"/>
<path d="M33 47H32V48H33V47Z" fill="#BB8573"/>
<path d="M34 47H33V48H34V47Z" fill="#BB8573"/>
<path d="M35 47H34V48H35V47Z" fill="#9D6552"/>
<path d="M16 48H15V49H16V48Z" fill="#9D6552"/>
<path d="M17 48H16V49H17V48Z" fill="#BB8573"/>
<path d="M18 48H17V49H18V48Z" fill="#BB8573"/>
<path d="M19 48H18V49H19V48Z" fill="#9D6552"/>
<path d="M20 48H19V49H20V48Z" fill="#9D6552"/>
<path d="M32 48H31V49H32V48Z" fill="#9D6552"/>
<path d="M33 48H32V49H33V48Z" fill="#A47869"/>
<path d="M34 48H33V49H34V48Z" fill="#BB8573"/>
<path d="M35 48H34V49H35V48Z" fill="#BB8573"/>
<path d="M36 48H35V49H36V48Z" fill="#9D6552"/>
<path d="M16 49H15V50H16V49Z" fill="#9D6552"/>
<path d="M17 49H16V50H17V49Z" fill="#9D6552"/>
<path d="M18 49H17V50H18V49Z" fill="#9D6552"/>
<path d="M33 49H32V50H33V49Z" fill="#9D6552"/>
<path d="M34 49H33V50H34V49Z" fill="#9D6552"/>
<path d="M35 49H34V50H35V49Z" fill="#9D6552"/>
<path d="M36 49H35V50H36V49Z" fill="#9D6552"/>
</svg>
