<svg width="13" height="11" viewBox="0 0 13 11" fill="none" xmlns="http://www.w3.org/2000/svg">
<path d="M8.99995 9H7.19995V10.8H8.99995V9Z" fill="#AE9A2C"/>
<path d="M7.20002 9H5.40002V10.8H7.20002V9Z" fill="#F7D25C"/>
<path d="M5.39998 9H3.59998V10.8H5.39998V9Z" fill="#D7B037"/>
<path d="M8.99995 7.20001H7.19995V9.00001H8.99995V7.20001Z" fill="#AE9A2C"/>
<path d="M7.20002 7.20001H5.40002V9.00001H7.20002V7.20001Z" fill="#F7D25C"/>
<path d="M5.39998 7.20001H3.59998V9.00001H5.39998V7.20001Z" fill="#D7B037"/>
<path d="M12.6 5.40002H10.8V7.20002H12.6V5.40002Z" fill="#6D67B8"/>
<path d="M10.8 5.40002H9V7.20002H10.8V5.40002Z" fill="#F7D25C"/>
<path d="M8.99995 5.40002H7.19995V7.20002H8.99995V5.40002Z" fill="#F7D25C"/>
<path d="M7.20002 5.40002H5.40002V7.20002H7.20002V5.40002Z" fill="#F7D25C"/>
<path d="M5.39998 5.40002H3.59998V7.20002H5.39998V5.40002Z" fill="#F7D25C"/>
<path d="M3.60005 5.40002H1.80005V7.20002H3.60005V5.40002Z" fill="#F7D25C"/>
<path d="M1.8 5.40002H0V7.20002H1.8V5.40002Z" fill="#E7C044"/>
<path d="M12.6 3.60001H10.8V5.40001H12.6V3.60001Z" fill="#6D67B8"/>
<path d="M10.8 3.60001H9V5.40001H10.8V3.60001Z" fill="#F7D25C"/>
<path d="M8.99995 3.60001H7.19995V5.40001H8.99995V3.60001Z" fill="#F7D25C"/>
<path d="M7.20002 3.60001H5.40002V5.40001H7.20002V3.60001Z" fill="#F7D25C"/>
<path d="M5.39998 3.60001H3.59998V5.40001H5.39998V3.60001Z" fill="#F7D25C"/>
<path d="M3.60005 3.60001H1.80005V5.40001H3.60005V3.60001Z" fill="#F7D25C"/>
<path d="M1.8 3.60001H0V5.40001H1.8V3.60001Z" fill="#E7C044"/>
<path d="M10.8 1.80002H9V3.60002H10.8V1.80002Z" fill="#5F5B9A"/>
<path d="M8.99995 1.80002H7.19995V3.60002H8.99995V1.80002Z" fill="#AE9A2C"/>
<path d="M7.20002 1.80002H5.40002V3.60002H7.20002V1.80002Z" fill="#F7D25C"/>
<path d="M5.39998 1.80002H3.59998V3.60002H5.39998V1.80002Z" fill="#D7B037"/>
<path d="M3.60005 1.80002H1.80005V3.60002H3.60005V1.80002Z" fill="#5F5B9A"/>
<path d="M1.8 1.80002H0V3.60002H1.8V1.80002Z" fill="#5F5B9A"/>
<path d="M8.99995 0H7.19995V1.8H8.99995V0Z" fill="#AE9A2C"/>
<path d="M7.20002 0H5.40002V1.8H7.20002V0Z" fill="#F7D25C"/>
<path d="M5.39998 0H3.59998V1.8H5.39998V0Z" fill="#D7B037"/>
</svg>
