<svg width="246" height="246" viewBox="0 0 246 246" fill="none" xmlns="http://www.w3.org/2000/svg">
<g clip-path="url(#clip0_833_91947)">
<path d="M73.8 78.7197H68.88V83.6397H73.8V78.7197Z" fill="#967699"/>
<path d="M78.72 78.7197H73.8V83.6397H78.72V78.7197Z" fill="#967699"/>
<path d="M83.64 78.7197H78.72V83.6397H83.64V78.7197Z" fill="#967699"/>
<path d="M88.56 78.7197H83.64V83.6397H88.56V78.7197Z" fill="#967699"/>
<path d="M93.4801 78.7197H88.5601V83.6397H93.4801V78.7197Z" fill="#967699"/>
<path d="M98.4 78.7197H93.48V83.6397H98.4V78.7197Z" fill="#967699"/>
<path d="M103.32 78.7197H98.4V83.6397H103.32V78.7197Z" fill="#967699"/>
<path d="M108.24 78.7197H103.32V83.6397H108.24V78.7197Z" fill="#967699"/>
<path d="M113.16 78.7197H108.24V83.6397H113.16V78.7197Z" fill="#967699"/>
<path d="M118.08 78.7197H113.16V83.6397H118.08V78.7197Z" fill="#967699"/>
<path d="M123 78.7197H118.08V83.6397H123V78.7197Z" fill="#967699"/>
<path d="M127.92 78.7197H123V83.6397H127.92V78.7197Z" fill="#967699"/>
<path d="M132.84 78.7197H127.92V83.6397H132.84V78.7197Z" fill="#967699"/>
<path d="M137.76 78.7197H132.84V83.6397H137.76V78.7197Z" fill="#967699"/>
<path d="M142.68 78.7197H137.76V83.6397H142.68V78.7197Z" fill="#967699"/>
<path d="M147.6 78.7197H142.68V83.6397H147.6V78.7197Z" fill="#967699"/>
<path d="M152.52 78.7197H147.6V83.6397H152.52V78.7197Z" fill="#967699"/>
<path d="M157.44 78.7197H152.52V83.6397H157.44V78.7197Z" fill="#967699"/>
<path d="M49.2 83.6396H44.28V88.5596H49.2V83.6396Z" fill="#967699"/>
<path d="M54.12 83.6396H49.2V88.5596H54.12V83.6396Z" fill="#967699"/>
<path d="M59.04 83.6396H54.12V88.5596H59.04V83.6396Z" fill="#967699"/>
<path d="M63.96 83.6396H59.04V88.5596H63.96V83.6396Z" fill="#967699"/>
<path d="M68.88 83.6396H63.96V88.5596H68.88V83.6396Z" fill="#967699"/>
<path d="M73.8 83.6396H68.88V88.5596H73.8V83.6396Z" fill="#967699"/>
<path d="M78.72 83.6396H73.8V88.5596H78.72V83.6396Z" fill="#967699"/>
<path d="M83.64 83.6396H78.72V88.5596H83.64V83.6396Z" fill="#967699"/>
<path d="M88.56 83.6396H83.64V88.5596H88.56V83.6396Z" fill="#967699"/>
<path d="M93.4801 83.6396H88.5601V88.5596H93.4801V83.6396Z" fill="#967699"/>
<path d="M98.4 83.6396H93.48V88.5596H98.4V83.6396Z" fill="#967699"/>
<path d="M103.32 83.6396H98.4V88.5596H103.32V83.6396Z" fill="#967699"/>
<path d="M108.24 83.6396H103.32V88.5596H108.24V83.6396Z" fill="#967699"/>
<path d="M113.16 83.6396H108.24V88.5596H113.16V83.6396Z" fill="#967699"/>
<path d="M118.08 83.6396H113.16V88.5596H118.08V83.6396Z" fill="#967699"/>
<path d="M123 83.6396H118.08V88.5596H123V83.6396Z" fill="#967699"/>
<path d="M127.92 83.6396H123V88.5596H127.92V83.6396Z" fill="#967699"/>
<path d="M132.84 83.6396H127.92V88.5596H132.84V83.6396Z" fill="#967699"/>
<path d="M137.76 83.6396H132.84V88.5596H137.76V83.6396Z" fill="#967699"/>
<path d="M142.68 83.6396H137.76V88.5596H142.68V83.6396Z" fill="#967699"/>
<path d="M147.6 83.6396H142.68V88.5596H147.6V83.6396Z" fill="#967699"/>
<path d="M152.52 83.6396H147.6V88.5596H152.52V83.6396Z" fill="#967699"/>
<path d="M157.44 83.6396H152.52V88.5596H157.44V83.6396Z" fill="#967699"/>
<path d="M162.36 83.6396H157.44V88.5596H162.36V83.6396Z" fill="#967699"/>
<path d="M167.28 83.6396H162.36V88.5596H167.28V83.6396Z" fill="#967699"/>
<path d="M172.2 83.6396H167.28V88.5596H172.2V83.6396Z" fill="#967699"/>
<path d="M177.12 83.6396H172.2V88.5596H177.12V83.6396Z" fill="#967699"/>
<path d="M182.04 83.6396H177.12V88.5596H182.04V83.6396Z" fill="#967699"/>
<path d="M34.44 88.5596H29.52V93.4796H34.44V88.5596Z" fill="#7F5B82"/>
<path d="M39.3599 88.5596H34.4399V93.4796H39.3599V88.5596Z" fill="#967699"/>
<path d="M44.28 88.5596H39.36V93.4796H44.28V88.5596Z" fill="#967699"/>
<path d="M49.2 88.5596H44.28V93.4796H49.2V88.5596Z" fill="#967699"/>
<path d="M54.12 88.5596H49.2V93.4796H54.12V88.5596Z" fill="#967699"/>
<path d="M59.04 88.5596H54.12V93.4796H59.04V88.5596Z" fill="#967699"/>
<path d="M63.96 88.5596H59.04V93.4796H63.96V88.5596Z" fill="#967699"/>
<path d="M68.88 88.5596H63.96V93.4796H68.88V88.5596Z" fill="#967699"/>
<path d="M73.8 88.5596H68.88V93.4796H73.8V88.5596Z" fill="#967699"/>
<path d="M78.72 88.5596H73.8V93.4796H78.72V88.5596Z" fill="#967699"/>
<path d="M83.64 88.5596H78.72V93.4796H83.64V88.5596Z" fill="#967699"/>
<path d="M88.56 88.5596H83.64V93.4796H88.56V88.5596Z" fill="#967699"/>
<path d="M93.4801 88.5596H88.5601V93.4796H93.4801V88.5596Z" fill="#967699"/>
<path d="M98.4 88.5596H93.48V93.4796H98.4V88.5596Z" fill="#967699"/>
<path d="M103.32 88.5596H98.4V93.4796H103.32V88.5596Z" fill="#967699"/>
<path d="M108.24 88.5596H103.32V93.4796H108.24V88.5596Z" fill="#967699"/>
<path d="M113.16 88.5596H108.24V93.4796H113.16V88.5596Z" fill="#967699"/>
<path d="M118.08 88.5596H113.16V93.4796H118.08V88.5596Z" fill="#967699"/>
<path d="M123 88.5596H118.08V93.4796H123V88.5596Z" fill="#967699"/>
<path d="M127.92 88.5596H123V93.4796H127.92V88.5596Z" fill="#967699"/>
<path d="M132.84 88.5596H127.92V93.4796H132.84V88.5596Z" fill="#967699"/>
<path d="M137.76 88.5596H132.84V93.4796H137.76V88.5596Z" fill="#967699"/>
<path d="M142.68 88.5596H137.76V93.4796H142.68V88.5596Z" fill="#967699"/>
<path d="M147.6 88.5596H142.68V93.4796H147.6V88.5596Z" fill="#967699"/>
<path d="M152.52 88.5596H147.6V93.4796H152.52V88.5596Z" fill="#967699"/>
<path d="M157.44 88.5596H152.52V93.4796H157.44V88.5596Z" fill="#967699"/>
<path d="M162.36 88.5596H157.44V93.4796H162.36V88.5596Z" fill="#967699"/>
<path d="M167.28 88.5596H162.36V93.4796H167.28V88.5596Z" fill="#967699"/>
<path d="M172.2 88.5596H167.28V93.4796H172.2V88.5596Z" fill="#967699"/>
<path d="M177.12 88.5596H172.2V93.4796H177.12V88.5596Z" fill="#967699"/>
<path d="M182.04 88.5596H177.12V93.4796H182.04V88.5596Z" fill="#967699"/>
<path d="M29.52 93.4805H24.6V98.4005H29.52V93.4805Z" fill="#7F5B82"/>
<path d="M34.44 93.4805H29.52V98.4005H34.44V93.4805Z" fill="#967699"/>
<path d="M39.3599 93.4805H34.4399V98.4005H39.3599V93.4805Z" fill="#967699"/>
<path d="M44.28 93.4805H39.36V98.4005H44.28V93.4805Z" fill="#967699"/>
<path d="M49.2 93.4805H44.28V98.4005H49.2V93.4805Z" fill="#967699"/>
<path d="M54.12 93.4805H49.2V98.4005H54.12V93.4805Z" fill="#967699"/>
<path d="M59.04 93.4805H54.12V98.4005H59.04V93.4805Z" fill="#967699"/>
<path d="M63.96 93.4805H59.04V98.4005H63.96V93.4805Z" fill="#967699"/>
<path d="M68.88 93.4805H63.96V98.4005H68.88V93.4805Z" fill="#967699"/>
<path d="M73.8 93.4805H68.88V98.4005H73.8V93.4805Z" fill="#967699"/>
<path d="M78.72 93.4805H73.8V98.4005H78.72V93.4805Z" fill="#967699"/>
<path d="M83.64 93.4805H78.72V98.4005H83.64V93.4805Z" fill="#967699"/>
<path d="M88.56 93.4805H83.64V98.4005H88.56V93.4805Z" fill="#967699"/>
<path d="M93.4801 93.4805H88.5601V98.4005H93.4801V93.4805Z" fill="#967699"/>
<path d="M98.4 93.4805H93.48V98.4005H98.4V93.4805Z" fill="#967699"/>
<path d="M103.32 93.4805H98.4V98.4005H103.32V93.4805Z" fill="#967699"/>
<path d="M108.24 93.4805H103.32V98.4005H108.24V93.4805Z" fill="#967699"/>
<path d="M113.16 93.4805H108.24V98.4005H113.16V93.4805Z" fill="#967699"/>
<path d="M118.08 93.4805H113.16V98.4005H118.08V93.4805Z" fill="#967699"/>
<path d="M123 93.4805H118.08V98.4005H123V93.4805Z" fill="#967699"/>
<path d="M127.92 93.4805H123V98.4005H127.92V93.4805Z" fill="#967699"/>
<path d="M132.84 93.4805H127.92V98.4005H132.84V93.4805Z" fill="#967699"/>
<path d="M137.76 93.4805H132.84V98.4005H137.76V93.4805Z" fill="#967699"/>
<path d="M142.68 93.4805H137.76V98.4005H142.68V93.4805Z" fill="#967699"/>
<path d="M147.6 93.4805H142.68V98.4005H147.6V93.4805Z" fill="#967699"/>
<path d="M152.52 93.4805H147.6V98.4005H152.52V93.4805Z" fill="#967699"/>
<path d="M157.44 93.4805H152.52V98.4005H157.44V93.4805Z" fill="#967699"/>
<path d="M162.36 93.4805H157.44V98.4005H162.36V93.4805Z" fill="#967699"/>
<path d="M167.28 93.4805H162.36V98.4005H167.28V93.4805Z" fill="#967699"/>
<path d="M172.2 93.4805H167.28V98.4005H172.2V93.4805Z" fill="#967699"/>
<path d="M177.12 93.4805H172.2V98.4005H177.12V93.4805Z" fill="#967699"/>
<path d="M182.04 93.4805H177.12V98.4005H182.04V93.4805Z" fill="#967699"/>
<path d="M186.96 93.4805H182.04V98.4005H186.96V93.4805Z" fill="#967699"/>
<path d="M191.88 93.4805H186.96V98.4005H191.88V93.4805Z" fill="#967699"/>
<path d="M196.8 93.4805H191.88V98.4005H196.8V93.4805Z" fill="#967699"/>
<path d="M201.72 93.4805H196.8V98.4005H201.72V93.4805Z" fill="#7F5B82"/>
<path d="M24.6001 98.4004H19.6801V103.32H24.6001V98.4004Z" fill="#7F5B82"/>
<path d="M29.52 98.4004H24.6V103.32H29.52V98.4004Z" fill="#967699"/>
<path d="M34.44 98.4004H29.52V103.32H34.44V98.4004Z" fill="#967699"/>
<path d="M39.3599 98.4004H34.4399V103.32H39.3599V98.4004Z" fill="#967699"/>
<path d="M44.28 98.4004H39.36V103.32H44.28V98.4004Z" fill="#967699"/>
<path d="M49.2 98.4004H44.28V103.32H49.2V98.4004Z" fill="#967699"/>
<path d="M54.12 98.4004H49.2V103.32H54.12V98.4004Z" fill="#967699"/>
<path d="M59.04 98.4004H54.12V103.32H59.04V98.4004Z" fill="#967699"/>
<path d="M63.96 98.4004H59.04V103.32H63.96V98.4004Z" fill="#967699"/>
<path d="M68.88 98.4004H63.96V103.32H68.88V98.4004Z" fill="#967699"/>
<path d="M73.8 98.4004H68.88V103.32H73.8V98.4004Z" fill="#967699"/>
<path d="M78.72 98.4004H73.8V103.32H78.72V98.4004Z" fill="#967699"/>
<path d="M83.64 98.4004H78.72V103.32H83.64V98.4004Z" fill="#967699"/>
<path d="M88.56 98.4004H83.64V103.32H88.56V98.4004Z" fill="#967699"/>
<path d="M93.4801 98.4004H88.5601V103.32H93.4801V98.4004Z" fill="#967699"/>
<path d="M98.4 98.4004H93.48V103.32H98.4V98.4004Z" fill="#967699"/>
<path d="M103.32 98.4004H98.4V103.32H103.32V98.4004Z" fill="#967699"/>
<path d="M108.24 98.4004H103.32V103.32H108.24V98.4004Z" fill="#7F5B82"/>
<path d="M113.16 98.4004H108.24V103.32H113.16V98.4004Z" fill="#7F5B82"/>
<path d="M118.08 98.4004H113.16V103.32H118.08V98.4004Z" fill="#7F5B82"/>
<path d="M123 98.4004H118.08V103.32H123V98.4004Z" fill="#7F5B82"/>
<path d="M127.92 98.4004H123V103.32H127.92V98.4004Z" fill="#7F5B82"/>
<path d="M132.84 98.4004H127.92V103.32H132.84V98.4004Z" fill="#7F5B82"/>
<path d="M137.76 98.4004H132.84V103.32H137.76V98.4004Z" fill="#7F5B82"/>
<path d="M142.68 98.4004H137.76V103.32H142.68V98.4004Z" fill="#967699"/>
<path d="M147.6 98.4004H142.68V103.32H147.6V98.4004Z" fill="#967699"/>
<path d="M152.52 98.4004H147.6V103.32H152.52V98.4004Z" fill="#967699"/>
<path d="M157.44 98.4004H152.52V103.32H157.44V98.4004Z" fill="#967699"/>
<path d="M162.36 98.4004H157.44V103.32H162.36V98.4004Z" fill="#967699"/>
<path d="M167.28 98.4004H162.36V103.32H167.28V98.4004Z" fill="#967699"/>
<path d="M172.2 98.4004H167.28V103.32H172.2V98.4004Z" fill="#967699"/>
<path d="M177.12 98.4004H172.2V103.32H177.12V98.4004Z" fill="#967699"/>
<path d="M182.04 98.4004H177.12V103.32H182.04V98.4004Z" fill="#967699"/>
<path d="M186.96 98.4004H182.04V103.32H186.96V98.4004Z" fill="#967699"/>
<path d="M191.88 98.4004H186.96V103.32H191.88V98.4004Z" fill="#967699"/>
<path d="M196.8 98.4004H191.88V103.32H196.8V98.4004Z" fill="#967699"/>
<path d="M201.72 98.4004H196.8V103.32H201.72V98.4004Z" fill="#967699"/>
<path d="M206.64 98.4004H201.72V103.32H206.64V98.4004Z" fill="#7F5B82"/>
<path d="M19.68 103.32H14.76V108.24H19.68V103.32Z" fill="#634E65"/>
<path d="M24.6001 103.32H19.6801V108.24H24.6001V103.32Z" fill="#967699"/>
<path d="M29.52 103.32H24.6V108.24H29.52V103.32Z" fill="#967699"/>
<path d="M34.44 103.32H29.52V108.24H34.44V103.32Z" fill="#967699"/>
<path d="M39.3599 103.32H34.4399V108.24H39.3599V103.32Z" fill="#967699"/>
<path d="M44.28 103.32H39.36V108.24H44.28V103.32Z" fill="#967699"/>
<path d="M49.2 103.32H44.28V108.24H49.2V103.32Z" fill="#967699"/>
<path d="M54.12 103.32H49.2V108.24H54.12V103.32Z" fill="#967699"/>
<path d="M59.04 103.32H54.12V108.24H59.04V103.32Z" fill="#967699"/>
<path d="M63.96 103.32H59.04V108.24H63.96V103.32Z" fill="#967699"/>
<path d="M68.88 103.32H63.96V108.24H68.88V103.32Z" fill="#967699"/>
<path d="M73.8 103.32H68.88V108.24H73.8V103.32Z" fill="#967699"/>
<path d="M78.72 103.32H73.8V108.24H78.72V103.32Z" fill="#967699"/>
<path d="M83.64 103.32H78.72V108.24H83.64V103.32Z" fill="#967699"/>
<path d="M88.56 103.32H83.64V108.24H88.56V103.32Z" fill="#967699"/>
<path d="M93.4801 103.32H88.5601V108.24H93.4801V103.32Z" fill="#967699"/>
<path d="M98.4 103.32H93.48V108.24H98.4V103.32Z" fill="#967699"/>
<path d="M103.32 103.32H98.4V108.24H103.32V103.32Z" fill="#7F5B82"/>
<path d="M108.24 103.32H103.32V108.24H108.24V103.32Z" fill="#634E65"/>
<path d="M113.16 103.32H108.24V108.24H113.16V103.32Z" fill="#634E65"/>
<path d="M118.08 103.32H113.16V108.24H118.08V103.32Z" fill="#634E65"/>
<path d="M123 103.32H118.08V108.24H123V103.32Z" fill="#634E65"/>
<path d="M127.92 103.32H123V108.24H127.92V103.32Z" fill="#634E65"/>
<path d="M132.84 103.32H127.92V108.24H132.84V103.32Z" fill="#634E65"/>
<path d="M137.76 103.32H132.84V108.24H137.76V103.32Z" fill="#634E65"/>
<path d="M142.68 103.32H137.76V108.24H142.68V103.32Z" fill="#7F5B82"/>
<path d="M147.6 103.32H142.68V108.24H147.6V103.32Z" fill="#967699"/>
<path d="M152.52 103.32H147.6V108.24H152.52V103.32Z" fill="#967699"/>
<path d="M157.44 103.32H152.52V108.24H157.44V103.32Z" fill="#967699"/>
<path d="M162.36 103.32H157.44V108.24H162.36V103.32Z" fill="#967699"/>
<path d="M167.28 103.32H162.36V108.24H167.28V103.32Z" fill="#967699"/>
<path d="M172.2 103.32H167.28V108.24H172.2V103.32Z" fill="#967699"/>
<path d="M177.12 103.32H172.2V108.24H177.12V103.32Z" fill="#967699"/>
<path d="M182.04 103.32H177.12V108.24H182.04V103.32Z" fill="#967699"/>
<path d="M186.96 103.32H182.04V108.24H186.96V103.32Z" fill="#967699"/>
<path d="M191.88 103.32H186.96V108.24H191.88V103.32Z" fill="#967699"/>
<path d="M196.8 103.32H191.88V108.24H196.8V103.32Z" fill="#967699"/>
<path d="M201.72 103.32H196.8V108.24H201.72V103.32Z" fill="#967699"/>
<path d="M206.64 103.32H201.72V108.24H206.64V103.32Z" fill="#967699"/>
<path d="M211.56 103.32H206.64V108.24H211.56V103.32Z" fill="#634E65"/>
<path d="M216.48 103.32H211.56V108.24H216.48V103.32Z" fill="#634E65"/>
<path d="M14.76 108.24H9.83997V113.16H14.76V108.24Z" fill="#634E65"/>
<path d="M19.68 108.24H14.76V113.16H19.68V108.24Z" fill="#967699"/>
<path d="M24.6001 108.24H19.6801V113.16H24.6001V108.24Z" fill="#967699"/>
<path d="M29.52 108.24H24.6V113.16H29.52V108.24Z" fill="#967699"/>
<path d="M34.44 108.24H29.52V113.16H34.44V108.24Z" fill="#967699"/>
<path d="M39.3599 108.24H34.4399V113.16H39.3599V108.24Z" fill="#967699"/>
<path d="M44.28 108.24H39.36V113.16H44.28V108.24Z" fill="#967699"/>
<path d="M49.2 108.24H44.28V113.16H49.2V108.24Z" fill="#967699"/>
<path d="M54.12 108.24H49.2V113.16H54.12V108.24Z" fill="#967699"/>
<path d="M59.04 108.24H54.12V113.16H59.04V108.24Z" fill="#967699"/>
<path d="M63.96 108.24H59.04V113.16H63.96V108.24Z" fill="#967699"/>
<path d="M68.88 108.24H63.96V113.16H68.88V108.24Z" fill="#7F5B82"/>
<path d="M73.8 108.24H68.88V113.16H73.8V108.24Z" fill="#7F5B82"/>
<path d="M78.72 108.24H73.8V113.16H78.72V108.24Z" fill="#634E65"/>
<path d="M83.64 108.24H78.72V113.16H83.64V108.24Z" fill="#634E65"/>
<path d="M88.56 108.24H83.64V113.16H88.56V108.24Z" fill="#634E65"/>
<path d="M93.4801 108.24H88.5601V113.16H93.4801V108.24Z" fill="#634E65"/>
<path d="M98.4 108.24H93.48V113.16H98.4V108.24Z" fill="#634E65"/>
<path d="M103.32 108.24H98.4V113.16H103.32V108.24Z" fill="#634E65"/>
<path d="M108.24 108.24H103.32V113.16H108.24V108.24Z" fill="#634E65"/>
<path d="M113.16 108.24H108.24V113.16H113.16V108.24Z" fill="#634E65"/>
<path d="M118.08 108.24H113.16V113.16H118.08V108.24Z" fill="#634E65"/>
<path d="M123 108.24H118.08V113.16H123V108.24Z" fill="#634E65"/>
<path d="M127.92 108.24H123V113.16H127.92V108.24Z" fill="#634E65"/>
<path d="M132.84 108.24H127.92V113.16H132.84V108.24Z" fill="#634E65"/>
<path d="M137.76 108.24H132.84V113.16H137.76V108.24Z" fill="#634E65"/>
<path d="M142.68 108.24H137.76V113.16H142.68V108.24Z" fill="#634E65"/>
<path d="M147.6 108.24H142.68V113.16H147.6V108.24Z" fill="#634E65"/>
<path d="M152.52 108.24H147.6V113.16H152.52V108.24Z" fill="#634E65"/>
<path d="M157.44 108.24H152.52V113.16H157.44V108.24Z" fill="#634E65"/>
<path d="M162.36 108.24H157.44V113.16H162.36V108.24Z" fill="#634E65"/>
<path d="M167.28 108.24H162.36V113.16H167.28V108.24Z" fill="#634E65"/>
<path d="M172.2 108.24H167.28V113.16H172.2V108.24Z" fill="#7F5B82"/>
<path d="M177.12 108.24H172.2V113.16H177.12V108.24Z" fill="#7F5B82"/>
<path d="M182.04 108.24H177.12V113.16H182.04V108.24Z" fill="#967699"/>
<path d="M186.96 108.24H182.04V113.16H186.96V108.24Z" fill="#967699"/>
<path d="M191.88 108.24H186.96V113.16H191.88V108.24Z" fill="#967699"/>
<path d="M196.8 108.24H191.88V113.16H196.8V108.24Z" fill="#967699"/>
<path d="M201.72 108.24H196.8V113.16H201.72V108.24Z" fill="#967699"/>
<path d="M206.64 108.24H201.72V113.16H206.64V108.24Z" fill="#967699"/>
<path d="M211.56 108.24H206.64V113.16H211.56V108.24Z" fill="#967699"/>
<path d="M216.48 108.24H211.56V113.16H216.48V108.24Z" fill="#967699"/>
<path d="M221.4 108.24H216.48V113.16H221.4V108.24Z" fill="#634E65"/>
<path d="M226.32 108.24H221.4V113.16H226.32V108.24Z" fill="#634E65"/>
<path d="M231.24 108.24H226.32V113.16H231.24V108.24Z" fill="#634E65"/>
<path d="M9.84004 113.16H4.92004V118.08H9.84004V113.16Z" fill="#634E65"/>
<path d="M14.76 113.16H9.83997V118.08H14.76V113.16Z" fill="#7F5B82"/>
<path d="M19.68 113.16H14.76V118.08H19.68V113.16Z" fill="#967699"/>
<path d="M24.6001 113.16H19.6801V118.08H24.6001V113.16Z" fill="#967699"/>
<path d="M29.52 113.16H24.6V118.08H29.52V113.16Z" fill="#967699"/>
<path d="M34.44 113.16H29.52V118.08H34.44V113.16Z" fill="#967699"/>
<path d="M39.3599 113.16H34.4399V118.08H39.3599V113.16Z" fill="#967699"/>
<path d="M44.28 113.16H39.36V118.08H44.28V113.16Z" fill="#967699"/>
<path d="M49.2 113.16H44.28V118.08H49.2V113.16Z" fill="#967699"/>
<path d="M54.12 113.16H49.2V118.08H54.12V113.16Z" fill="#967699"/>
<path d="M59.04 113.16H54.12V118.08H59.04V113.16Z" fill="#967699"/>
<path d="M63.96 113.16H59.04V118.08H63.96V113.16Z" fill="#967699"/>
<path d="M68.88 113.16H63.96V118.08H68.88V113.16Z" fill="#967699"/>
<path d="M73.8 113.16H68.88V118.08H73.8V113.16Z" fill="#967699"/>
<path d="M78.72 113.16H73.8V118.08H78.72V113.16Z" fill="#967699"/>
<path d="M83.64 113.16H78.72V118.08H83.64V113.16Z" fill="#967699"/>
<path d="M88.56 113.16H83.64V118.08H88.56V113.16Z" fill="#967699"/>
<path d="M93.4801 113.16H88.5601V118.08H93.4801V113.16Z" fill="#7F5B82"/>
<path d="M98.4 113.16H93.48V118.08H98.4V113.16Z" fill="#7F5B82"/>
<path d="M103.32 113.16H98.4V118.08H103.32V113.16Z" fill="#634E65"/>
<path d="M108.24 113.16H103.32V118.08H108.24V113.16Z" fill="#634E65"/>
<path d="M113.16 113.16H108.24V118.08H113.16V113.16Z" fill="#634E65"/>
<path d="M118.08 113.16H113.16V118.08H118.08V113.16Z" fill="#634E65"/>
<path d="M123 113.16H118.08V118.08H123V113.16Z" fill="#634E65"/>
<path d="M127.92 113.16H123V118.08H127.92V113.16Z" fill="#634E65"/>
<path d="M132.84 113.16H127.92V118.08H132.84V113.16Z" fill="#634E65"/>
<path d="M137.76 113.16H132.84V118.08H137.76V113.16Z" fill="#634E65"/>
<path d="M142.68 113.16H137.76V118.08H142.68V113.16Z" fill="#634E65"/>
<path d="M147.6 113.16H142.68V118.08H147.6V113.16Z" fill="#7F5B82"/>
<path d="M152.52 113.16H147.6V118.08H152.52V113.16Z" fill="#967699"/>
<path d="M157.44 113.16H152.52V118.08H157.44V113.16Z" fill="#967699"/>
<path d="M162.36 113.16H157.44V118.08H162.36V113.16Z" fill="#967699"/>
<path d="M167.28 113.16H162.36V118.08H167.28V113.16Z" fill="#967699"/>
<path d="M172.2 113.16H167.28V118.08H172.2V113.16Z" fill="#967699"/>
<path d="M177.12 113.16H172.2V118.08H177.12V113.16Z" fill="#967699"/>
<path d="M182.04 113.16H177.12V118.08H182.04V113.16Z" fill="#967699"/>
<path d="M186.96 113.16H182.04V118.08H186.96V113.16Z" fill="#967699"/>
<path d="M191.88 113.16H186.96V118.08H191.88V113.16Z" fill="#967699"/>
<path d="M196.8 113.16H191.88V118.08H196.8V113.16Z" fill="#967699"/>
<path d="M201.72 113.16H196.8V118.08H201.72V113.16Z" fill="#967699"/>
<path d="M206.64 113.16H201.72V118.08H206.64V113.16Z" fill="#967699"/>
<path d="M211.56 113.16H206.64V118.08H211.56V113.16Z" fill="#967699"/>
<path d="M216.48 113.16H211.56V118.08H216.48V113.16Z" fill="#967699"/>
<path d="M221.4 113.16H216.48V118.08H221.4V113.16Z" fill="#967699"/>
<path d="M226.32 113.16H221.4V118.08H226.32V113.16Z" fill="#967699"/>
<path d="M231.24 113.16H226.32V118.08H231.24V113.16Z" fill="#967699"/>
<path d="M236.16 113.16H231.24V118.08H236.16V113.16Z" fill="#634E65"/>
<path d="M9.84004 118.08H4.92004V123H9.84004V118.08Z" fill="#634E65"/>
<path d="M14.76 118.08H9.83997V123H14.76V118.08Z" fill="#634E65"/>
<path d="M19.68 118.08H14.76V123H19.68V118.08Z" fill="#7F5B82"/>
<path d="M24.6001 118.08H19.6801V123H24.6001V118.08Z" fill="#7F5B82"/>
<path d="M29.52 118.08H24.6V123H29.52V118.08Z" fill="#967699"/>
<path d="M34.44 118.08H29.52V123H34.44V118.08Z" fill="#967699"/>
<path d="M39.3599 118.08H34.4399V123H39.3599V118.08Z" fill="#967699"/>
<path d="M44.28 118.08H39.36V123H44.28V118.08Z" fill="#967699"/>
<path d="M49.2 118.08H44.28V123H49.2V118.08Z" fill="#967699"/>
<path d="M54.12 118.08H49.2V123H54.12V118.08Z" fill="#967699"/>
<path d="M59.04 118.08H54.12V123H59.04V118.08Z" fill="#967699"/>
<path d="M63.96 118.08H59.04V123H63.96V118.08Z" fill="#967699"/>
<path d="M68.88 118.08H63.96V123H68.88V118.08Z" fill="#967699"/>
<path d="M73.8 118.08H68.88V123H73.8V118.08Z" fill="#967699"/>
<path d="M78.72 118.08H73.8V123H78.72V118.08Z" fill="#967699"/>
<path d="M83.64 118.08H78.72V123H83.64V118.08Z" fill="#967699"/>
<path d="M88.56 118.08H83.64V123H88.56V118.08Z" fill="#967699"/>
<path d="M93.4801 118.08H88.5601V123H93.4801V118.08Z" fill="#967699"/>
<path d="M98.4 118.08H93.48V123H98.4V118.08Z" fill="#967699"/>
<path d="M103.32 118.08H98.4V123H103.32V118.08Z" fill="#967699"/>
<path d="M108.24 118.08H103.32V123H108.24V118.08Z" fill="#967699"/>
<path d="M113.16 118.08H108.24V123H113.16V118.08Z" fill="#967699"/>
<path d="M118.08 118.08H113.16V123H118.08V118.08Z" fill="#967699"/>
<path d="M123 118.08H118.08V123H123V118.08Z" fill="#7F5B82"/>
<path d="M127.92 118.08H123V123H127.92V118.08Z" fill="#634E65"/>
<path d="M132.84 118.08H127.92V123H132.84V118.08Z" fill="#634E65"/>
<path d="M137.76 118.08H132.84V123H137.76V118.08Z" fill="#7F5B82"/>
<path d="M142.68 118.08H137.76V123H142.68V118.08Z" fill="#967699"/>
<path d="M147.6 118.08H142.68V123H147.6V118.08Z" fill="#967699"/>
<path d="M152.52 118.08H147.6V123H152.52V118.08Z" fill="#967699"/>
<path d="M157.44 118.08H152.52V123H157.44V118.08Z" fill="#967699"/>
<path d="M162.36 118.08H157.44V123H162.36V118.08Z" fill="#967699"/>
<path d="M167.28 118.08H162.36V123H167.28V118.08Z" fill="#967699"/>
<path d="M172.2 118.08H167.28V123H172.2V118.08Z" fill="#967699"/>
<path d="M177.12 118.08H172.2V123H177.12V118.08Z" fill="#967699"/>
<path d="M182.04 118.08H177.12V123H182.04V118.08Z" fill="#967699"/>
<path d="M186.96 118.08H182.04V123H186.96V118.08Z" fill="#967699"/>
<path d="M191.88 118.08H186.96V123H191.88V118.08Z" fill="#967699"/>
<path d="M196.8 118.08H191.88V123H196.8V118.08Z" fill="#967699"/>
<path d="M201.72 118.08H196.8V123H201.72V118.08Z" fill="#967699"/>
<path d="M206.64 118.08H201.72V123H206.64V118.08Z" fill="#967699"/>
<path d="M211.56 118.08H206.64V123H211.56V118.08Z" fill="#967699"/>
<path d="M216.48 118.08H211.56V123H216.48V118.08Z" fill="#967699"/>
<path d="M221.4 118.08H216.48V123H221.4V118.08Z" fill="#967699"/>
<path d="M226.32 118.08H221.4V123H226.32V118.08Z" fill="#967699"/>
<path d="M231.24 118.08H226.32V123H231.24V118.08Z" fill="#967699"/>
<path d="M236.16 118.08H231.24V123H236.16V118.08Z" fill="#7F5B82"/>
<path d="M241.08 118.08H236.16V123H241.08V118.08Z" fill="#634E65"/>
<path d="M9.84004 123H4.92004V127.92H9.84004V123Z" fill="#634E65"/>
<path d="M14.76 123H9.83997V127.92H14.76V123Z" fill="#634E65"/>
<path d="M19.68 123H14.76V127.92H19.68V123Z" fill="#634E65"/>
<path d="M24.6001 123H19.6801V127.92H24.6001V123Z" fill="#634E65"/>
<path d="M29.52 123H24.6V127.92H29.52V123Z" fill="#7F5B82"/>
<path d="M34.44 123H29.52V127.92H34.44V123Z" fill="#7F5B82"/>
<path d="M39.3599 123H34.4399V127.92H39.3599V123Z" fill="#7F5B82"/>
<path d="M44.28 123H39.36V127.92H44.28V123Z" fill="#7F5B82"/>
<path d="M49.2 123H44.28V127.92H49.2V123Z" fill="#967699"/>
<path d="M54.12 123H49.2V127.92H54.12V123Z" fill="#967699"/>
<path d="M59.04 123H54.12V127.92H59.04V123Z" fill="#967699"/>
<path d="M63.96 123H59.04V127.92H63.96V123Z" fill="#967699"/>
<path d="M68.88 123H63.96V127.92H68.88V123Z" fill="#967699"/>
<path d="M73.8 123H68.88V127.92H73.8V123Z" fill="#967699"/>
<path d="M78.72 123H73.8V127.92H78.72V123Z" fill="#967699"/>
<path d="M83.64 123H78.72V127.92H83.64V123Z" fill="#967699"/>
<path d="M88.56 123H83.64V127.92H88.56V123Z" fill="#967699"/>
<path d="M93.4801 123H88.5601V127.92H93.4801V123Z" fill="#967699"/>
<path d="M98.4 123H93.48V127.92H98.4V123Z" fill="#967699"/>
<path d="M103.32 123H98.4V127.92H103.32V123Z" fill="#967699"/>
<path d="M108.24 123H103.32V127.92H108.24V123Z" fill="#967699"/>
<path d="M113.16 123H108.24V127.92H113.16V123Z" fill="#967699"/>
<path d="M118.08 123H113.16V127.92H118.08V123Z" fill="#967699"/>
<path d="M123 123H118.08V127.92H123V123Z" fill="#967699"/>
<path d="M127.92 123H123V127.92H127.92V123Z" fill="#7F5B82"/>
<path d="M132.84 123H127.92V127.92H132.84V123Z" fill="#7F5B82"/>
<path d="M137.76 123H132.84V127.92H137.76V123Z" fill="#967699"/>
<path d="M142.68 123H137.76V127.92H142.68V123Z" fill="#967699"/>
<path d="M147.6 123H142.68V127.92H147.6V123Z" fill="#967699"/>
<path d="M152.52 123H147.6V127.92H152.52V123Z" fill="#967699"/>
<path d="M157.44 123H152.52V127.92H157.44V123Z" fill="#967699"/>
<path d="M162.36 123H157.44V127.92H162.36V123Z" fill="#967699"/>
<path d="M167.28 123H162.36V127.92H167.28V123Z" fill="#967699"/>
<path d="M172.2 123H167.28V127.92H172.2V123Z" fill="#967699"/>
<path d="M177.12 123H172.2V127.92H177.12V123Z" fill="#967699"/>
<path d="M182.04 123H177.12V127.92H182.04V123Z" fill="#967699"/>
<path d="M186.96 123H182.04V127.92H186.96V123Z" fill="#967699"/>
<path d="M191.88 123H186.96V127.92H191.88V123Z" fill="#967699"/>
<path d="M196.8 123H191.88V127.92H196.8V123Z" fill="#967699"/>
<path d="M201.72 123H196.8V127.92H201.72V123Z" fill="#967699"/>
<path d="M206.64 123H201.72V127.92H206.64V123Z" fill="#967699"/>
<path d="M211.56 123H206.64V127.92H211.56V123Z" fill="#967699"/>
<path d="M216.48 123H211.56V127.92H216.48V123Z" fill="#967699"/>
<path d="M221.4 123H216.48V127.92H221.4V123Z" fill="#967699"/>
<path d="M226.32 123H221.4V127.92H226.32V123Z" fill="#967699"/>
<path d="M231.24 123H226.32V127.92H231.24V123Z" fill="#967699"/>
<path d="M236.16 123H231.24V127.92H236.16V123Z" fill="#7F5B82"/>
<path d="M241.08 123H236.16V127.92H241.08V123Z" fill="#634E65"/>
<path d="M14.76 127.92H9.83997V132.84H14.76V127.92Z" fill="#634E65"/>
<path d="M19.68 127.92H14.76V132.84H19.68V127.92Z" fill="#634E65"/>
<path d="M24.6001 127.92H19.6801V132.84H24.6001V127.92Z" fill="#634E65"/>
<path d="M29.52 127.92H24.6V132.84H29.52V127.92Z" fill="#634E65"/>
<path d="M34.44 127.92H29.52V132.84H34.44V127.92Z" fill="#634E65"/>
<path d="M39.3599 127.92H34.4399V132.84H39.3599V127.92Z" fill="#634E65"/>
<path d="M44.28 127.92H39.36V132.84H44.28V127.92Z" fill="#634E65"/>
<path d="M49.2 127.92H44.28V132.84H49.2V127.92Z" fill="#7F5B82"/>
<path d="M54.12 127.92H49.2V132.84H54.12V127.92Z" fill="#7F5B82"/>
<path d="M59.04 127.92H54.12V132.84H59.04V127.92Z" fill="#7F5B82"/>
<path d="M63.96 127.92H59.04V132.84H63.96V127.92Z" fill="#967699"/>
<path d="M68.88 127.92H63.96V132.84H68.88V127.92Z" fill="#967699"/>
<path d="M73.8 127.92H68.88V132.84H73.8V127.92Z" fill="#967699"/>
<path d="M78.72 127.92H73.8V132.84H78.72V127.92Z" fill="#967699"/>
<path d="M83.64 127.92H78.72V132.84H83.64V127.92Z" fill="#967699"/>
<path d="M88.56 127.92H83.64V132.84H88.56V127.92Z" fill="#967699"/>
<path d="M93.4801 127.92H88.5601V132.84H93.4801V127.92Z" fill="#967699"/>
<path d="M98.4 127.92H93.48V132.84H98.4V127.92Z" fill="#967699"/>
<path d="M103.32 127.92H98.4V132.84H103.32V127.92Z" fill="#967699"/>
<path d="M108.24 127.92H103.32V132.84H108.24V127.92Z" fill="#967699"/>
<path d="M113.16 127.92H108.24V132.84H113.16V127.92Z" fill="#967699"/>
<path d="M118.08 127.92H113.16V132.84H118.08V127.92Z" fill="#967699"/>
<path d="M123 127.92H118.08V132.84H123V127.92Z" fill="#967699"/>
<path d="M127.92 127.92H123V132.84H127.92V127.92Z" fill="#967699"/>
<path d="M132.84 127.92H127.92V132.84H132.84V127.92Z" fill="#967699"/>
<path d="M137.76 127.92H132.84V132.84H137.76V127.92Z" fill="#967699"/>
<path d="M142.68 127.92H137.76V132.84H142.68V127.92Z" fill="#967699"/>
<path d="M147.6 127.92H142.68V132.84H147.6V127.92Z" fill="#967699"/>
<path d="M152.52 127.92H147.6V132.84H152.52V127.92Z" fill="#967699"/>
<path d="M157.44 127.92H152.52V132.84H157.44V127.92Z" fill="#967699"/>
<path d="M162.36 127.92H157.44V132.84H162.36V127.92Z" fill="#967699"/>
<path d="M167.28 127.92H162.36V132.84H167.28V127.92Z" fill="#967699"/>
<path d="M172.2 127.92H167.28V132.84H172.2V127.92Z" fill="#967699"/>
<path d="M177.12 127.92H172.2V132.84H177.12V127.92Z" fill="#967699"/>
<path d="M182.04 127.92H177.12V132.84H182.04V127.92Z" fill="#967699"/>
<path d="M186.96 127.92H182.04V132.84H186.96V127.92Z" fill="#967699"/>
<path d="M191.88 127.92H186.96V132.84H191.88V127.92Z" fill="#967699"/>
<path d="M196.8 127.92H191.88V132.84H196.8V127.92Z" fill="#967699"/>
<path d="M201.72 127.92H196.8V132.84H201.72V127.92Z" fill="#967699"/>
<path d="M206.64 127.92H201.72V132.84H206.64V127.92Z" fill="#967699"/>
<path d="M211.56 127.92H206.64V132.84H211.56V127.92Z" fill="#967699"/>
<path d="M216.48 127.92H211.56V132.84H216.48V127.92Z" fill="#967699"/>
<path d="M221.4 127.92H216.48V132.84H221.4V127.92Z" fill="#967699"/>
<path d="M226.32 127.92H221.4V132.84H226.32V127.92Z" fill="#967699"/>
<path d="M231.24 127.92H226.32V132.84H231.24V127.92Z" fill="#967699"/>
<path d="M236.16 127.92H231.24V132.84H236.16V127.92Z" fill="#7F5B82"/>
<path d="M241.08 127.92H236.16V132.84H241.08V127.92Z" fill="#634E65"/>
<path d="M246 127.92H241.08V132.84H246V127.92Z" fill="#634E65"/>
<path d="M29.52 132.84H24.6V137.76H29.52V132.84Z" fill="#634E65"/>
<path d="M34.44 132.84H29.52V137.76H34.44V132.84Z" fill="#634E65"/>
<path d="M39.3599 132.84H34.4399V137.76H39.3599V132.84Z" fill="#634E65"/>
<path d="M44.28 132.84H39.36V137.76H44.28V132.84Z" fill="#634E65"/>
<path d="M49.2 132.84H44.28V137.76H49.2V132.84Z" fill="#634E65"/>
<path d="M54.12 132.84H49.2V137.76H54.12V132.84Z" fill="#634E65"/>
<path d="M59.04 132.84H54.12V137.76H59.04V132.84Z" fill="#634E65"/>
<path d="M63.96 132.84H59.04V137.76H63.96V132.84Z" fill="#7F5B82"/>
<path d="M68.88 132.84H63.96V137.76H68.88V132.84Z" fill="#967699"/>
<path d="M73.8 132.84H68.88V137.76H73.8V132.84Z" fill="#967699"/>
<path d="M78.72 132.84H73.8V137.76H78.72V132.84Z" fill="#967699"/>
<path d="M83.64 132.84H78.72V137.76H83.64V132.84Z" fill="#967699"/>
<path d="M88.56 132.84H83.64V137.76H88.56V132.84Z" fill="#967699"/>
<path d="M93.4801 132.84H88.5601V137.76H93.4801V132.84Z" fill="#967699"/>
<path d="M98.4 132.84H93.48V137.76H98.4V132.84Z" fill="#967699"/>
<path d="M103.32 132.84H98.4V137.76H103.32V132.84Z" fill="#967699"/>
<path d="M108.24 132.84H103.32V137.76H108.24V132.84Z" fill="#967699"/>
<path d="M113.16 132.84H108.24V137.76H113.16V132.84Z" fill="#967699"/>
<path d="M118.08 132.84H113.16V137.76H118.08V132.84Z" fill="#967699"/>
<path d="M123 132.84H118.08V137.76H123V132.84Z" fill="#967699"/>
<path d="M127.92 132.84H123V137.76H127.92V132.84Z" fill="#967699"/>
<path d="M132.84 132.84H127.92V137.76H132.84V132.84Z" fill="#967699"/>
<path d="M137.76 132.84H132.84V137.76H137.76V132.84Z" fill="#967699"/>
<path d="M142.68 132.84H137.76V137.76H142.68V132.84Z" fill="#967699"/>
<path d="M147.6 132.84H142.68V137.76H147.6V132.84Z" fill="#967699"/>
<path d="M152.52 132.84H147.6V137.76H152.52V132.84Z" fill="#967699"/>
<path d="M157.44 132.84H152.52V137.76H157.44V132.84Z" fill="#967699"/>
<path d="M162.36 132.84H157.44V137.76H162.36V132.84Z" fill="#967699"/>
<path d="M167.28 132.84H162.36V137.76H167.28V132.84Z" fill="#967699"/>
<path d="M172.2 132.84H167.28V137.76H172.2V132.84Z" fill="#967699"/>
<path d="M177.12 132.84H172.2V137.76H177.12V132.84Z" fill="#967699"/>
<path d="M182.04 132.84H177.12V137.76H182.04V132.84Z" fill="#967699"/>
<path d="M186.96 132.84H182.04V137.76H186.96V132.84Z" fill="#967699"/>
<path d="M191.88 132.84H186.96V137.76H191.88V132.84Z" fill="#967699"/>
<path d="M196.8 132.84H191.88V137.76H196.8V132.84Z" fill="#967699"/>
<path d="M201.72 132.84H196.8V137.76H201.72V132.84Z" fill="#967699"/>
<path d="M206.64 132.84H201.72V137.76H206.64V132.84Z" fill="#967699"/>
<path d="M211.56 132.84H206.64V137.76H211.56V132.84Z" fill="#967699"/>
<path d="M216.48 132.84H211.56V137.76H216.48V132.84Z" fill="#967699"/>
<path d="M221.4 132.84H216.48V137.76H221.4V132.84Z" fill="#967699"/>
<path d="M226.32 132.84H221.4V137.76H226.32V132.84Z" fill="#967699"/>
<path d="M231.24 132.84H226.32V137.76H231.24V132.84Z" fill="#7F5B82"/>
<path d="M236.16 132.84H231.24V137.76H236.16V132.84Z" fill="#634E65"/>
<path d="M241.08 132.84H236.16V137.76H241.08V132.84Z" fill="#634E65"/>
<path d="M246 132.84H241.08V137.76H246V132.84Z" fill="#634E65"/>
<path d="M49.2 137.76H44.28V142.68H49.2V137.76Z" fill="#634E65"/>
<path d="M54.12 137.76H49.2V142.68H54.12V137.76Z" fill="#634E65"/>
<path d="M59.04 137.76H54.12V142.68H59.04V137.76Z" fill="#634E65"/>
<path d="M63.96 137.76H59.04V142.68H63.96V137.76Z" fill="#634E65"/>
<path d="M68.88 137.76H63.96V142.68H68.88V137.76Z" fill="#7F5B82"/>
<path d="M73.8 137.76H68.88V142.68H73.8V137.76Z" fill="#7F5B82"/>
<path d="M78.72 137.76H73.8V142.68H78.72V137.76Z" fill="#7F5B82"/>
<path d="M83.64 137.76H78.72V142.68H83.64V137.76Z" fill="#967699"/>
<path d="M88.56 137.76H83.64V142.68H88.56V137.76Z" fill="#967699"/>
<path d="M93.4801 137.76H88.5601V142.68H93.4801V137.76Z" fill="#967699"/>
<path d="M98.4 137.76H93.48V142.68H98.4V137.76Z" fill="#967699"/>
<path d="M103.32 137.76H98.4V142.68H103.32V137.76Z" fill="#967699"/>
<path d="M108.24 137.76H103.32V142.68H108.24V137.76Z" fill="#967699"/>
<path d="M113.16 137.76H108.24V142.68H113.16V137.76Z" fill="#967699"/>
<path d="M118.08 137.76H113.16V142.68H118.08V137.76Z" fill="#967699"/>
<path d="M123 137.76H118.08V142.68H123V137.76Z" fill="#967699"/>
<path d="M127.92 137.76H123V142.68H127.92V137.76Z" fill="#967699"/>
<path d="M132.84 137.76H127.92V142.68H132.84V137.76Z" fill="#967699"/>
<path d="M137.76 137.76H132.84V142.68H137.76V137.76Z" fill="#967699"/>
<path d="M142.68 137.76H137.76V142.68H142.68V137.76Z" fill="#967699"/>
<path d="M147.6 137.76H142.68V142.68H147.6V137.76Z" fill="#967699"/>
<path d="M152.52 137.76H147.6V142.68H152.52V137.76Z" fill="#967699"/>
<path d="M157.44 137.76H152.52V142.68H157.44V137.76Z" fill="#967699"/>
<path d="M162.36 137.76H157.44V142.68H162.36V137.76Z" fill="#967699"/>
<path d="M167.28 137.76H162.36V142.68H167.28V137.76Z" fill="#967699"/>
<path d="M172.2 137.76H167.28V142.68H172.2V137.76Z" fill="#967699"/>
<path d="M177.12 137.76H172.2V142.68H177.12V137.76Z" fill="#967699"/>
<path d="M182.04 137.76H177.12V142.68H182.04V137.76Z" fill="#967699"/>
<path d="M186.96 137.76H182.04V142.68H186.96V137.76Z" fill="#967699"/>
<path d="M191.88 137.76H186.96V142.68H191.88V137.76Z" fill="#967699"/>
<path d="M196.8 137.76H191.88V142.68H196.8V137.76Z" fill="#967699"/>
<path d="M201.72 137.76H196.8V142.68H201.72V137.76Z" fill="#967699"/>
<path d="M206.64 137.76H201.72V142.68H206.64V137.76Z" fill="#967699"/>
<path d="M211.56 137.76H206.64V142.68H211.56V137.76Z" fill="#967699"/>
<path d="M216.48 137.76H211.56V142.68H216.48V137.76Z" fill="#7F5B82"/>
<path d="M221.4 137.76H216.48V142.68H221.4V137.76Z" fill="#7F5B82"/>
<path d="M226.32 137.76H221.4V142.68H226.32V137.76Z" fill="#7F5B82"/>
<path d="M231.24 137.76H226.32V142.68H231.24V137.76Z" fill="#634E65"/>
<path d="M236.16 137.76H231.24V142.68H236.16V137.76Z" fill="#634E65"/>
<path d="M241.08 137.76H236.16V142.68H241.08V137.76Z" fill="#634E65"/>
<path d="M54.12 142.68H49.2V147.6H54.12V142.68Z" fill="#634E65"/>
<path d="M59.04 142.68H54.12V147.6H59.04V142.68Z" fill="#634E65"/>
<path d="M63.96 142.68H59.04V147.6H63.96V142.68Z" fill="#634E65"/>
<path d="M68.88 142.68H63.96V147.6H68.88V142.68Z" fill="#634E65"/>
<path d="M73.8 142.68H68.88V147.6H73.8V142.68Z" fill="#634E65"/>
<path d="M78.72 142.68H73.8V147.6H78.72V142.68Z" fill="#634E65"/>
<path d="M83.64 142.68H78.72V147.6H83.64V142.68Z" fill="#7F5B82"/>
<path d="M88.56 142.68H83.64V147.6H88.56V142.68Z" fill="#7F5B82"/>
<path d="M93.4801 142.68H88.5601V147.6H93.4801V142.68Z" fill="#967699"/>
<path d="M98.4 142.68H93.48V147.6H98.4V142.68Z" fill="#967699"/>
<path d="M103.32 142.68H98.4V147.6H103.32V142.68Z" fill="#967699"/>
<path d="M108.24 142.68H103.32V147.6H108.24V142.68Z" fill="#967699"/>
<path d="M113.16 142.68H108.24V147.6H113.16V142.68Z" fill="#967699"/>
<path d="M118.08 142.68H113.16V147.6H118.08V142.68Z" fill="#967699"/>
<path d="M123 142.68H118.08V147.6H123V142.68Z" fill="#967699"/>
<path d="M127.92 142.68H123V147.6H127.92V142.68Z" fill="#967699"/>
<path d="M132.84 142.68H127.92V147.6H132.84V142.68Z" fill="#967699"/>
<path d="M137.76 142.68H132.84V147.6H137.76V142.68Z" fill="#967699"/>
<path d="M142.68 142.68H137.76V147.6H142.68V142.68Z" fill="#967699"/>
<path d="M147.6 142.68H142.68V147.6H147.6V142.68Z" fill="#967699"/>
<path d="M152.52 142.68H147.6V147.6H152.52V142.68Z" fill="#7F5B82"/>
<path d="M157.44 142.68H152.52V147.6H157.44V142.68Z" fill="#7F5B82"/>
<path d="M162.36 142.68H157.44V147.6H162.36V142.68Z" fill="#7F5B82"/>
<path d="M167.28 142.68H162.36V147.6H167.28V142.68Z" fill="#7F5B82"/>
<path d="M172.2 142.68H167.28V147.6H172.2V142.68Z" fill="#7F5B82"/>
<path d="M177.12 142.68H172.2V147.6H177.12V142.68Z" fill="#7F5B82"/>
<path d="M182.04 142.68H177.12V147.6H182.04V142.68Z" fill="#7F5B82"/>
<path d="M186.96 142.68H182.04V147.6H186.96V142.68Z" fill="#7F5B82"/>
<path d="M191.88 142.68H186.96V147.6H191.88V142.68Z" fill="#7F5B82"/>
<path d="M196.8 142.68H191.88V147.6H196.8V142.68Z" fill="#7F5B82"/>
<path d="M201.72 142.68H196.8V147.6H201.72V142.68Z" fill="#7F5B82"/>
<path d="M206.64 142.68H201.72V147.6H206.64V142.68Z" fill="#7F5B82"/>
<path d="M211.56 142.68H206.64V147.6H211.56V142.68Z" fill="#7F5B82"/>
<path d="M216.48 142.68H211.56V147.6H216.48V142.68Z" fill="#634E65"/>
<path d="M221.4 142.68H216.48V147.6H221.4V142.68Z" fill="#634E65"/>
<path d="M226.32 142.68H221.4V147.6H226.32V142.68Z" fill="#634E65"/>
<path d="M231.24 142.68H226.32V147.6H231.24V142.68Z" fill="#634E65"/>
<path d="M236.16 142.68H231.24V147.6H236.16V142.68Z" fill="#634E65"/>
<path d="M241.08 142.68H236.16V147.6H241.08V142.68Z" fill="#634E65"/>
<path d="M68.88 147.6H63.96V152.52H68.88V147.6Z" fill="#634E65"/>
<path d="M73.8 147.6H68.88V152.52H73.8V147.6Z" fill="#634E65"/>
<path d="M78.72 147.6H73.8V152.52H78.72V147.6Z" fill="#634E65"/>
<path d="M83.64 147.6H78.72V152.52H83.64V147.6Z" fill="#634E65"/>
<path d="M88.56 147.6H83.64V152.52H88.56V147.6Z" fill="#634E65"/>
<path d="M93.4801 147.6H88.5601V152.52H93.4801V147.6Z" fill="#7F5B82"/>
<path d="M98.4 147.6H93.48V152.52H98.4V147.6Z" fill="#7F5B82"/>
<path d="M103.32 147.6H98.4V152.52H103.32V147.6Z" fill="#7F5B82"/>
<path d="M108.24 147.6H103.32V152.52H108.24V147.6Z" fill="#7F5B82"/>
<path d="M113.16 147.6H108.24V152.52H113.16V147.6Z" fill="#7F5B82"/>
<path d="M118.08 147.6H113.16V152.52H118.08V147.6Z" fill="#7F5B82"/>
<path d="M123 147.6H118.08V152.52H123V147.6Z" fill="#7F5B82"/>
<path d="M127.92 147.6H123V152.52H127.92V147.6Z" fill="#7F5B82"/>
<path d="M132.84 147.6H127.92V152.52H132.84V147.6Z" fill="#7F5B82"/>
<path d="M137.76 147.6H132.84V152.52H137.76V147.6Z" fill="#7F5B82"/>
<path d="M142.68 147.6H137.76V152.52H142.68V147.6Z" fill="#7F5B82"/>
<path d="M147.6 147.6H142.68V152.52H147.6V147.6Z" fill="#7F5B82"/>
<path d="M152.52 147.6H147.6V152.52H152.52V147.6Z" fill="#634E65"/>
<path d="M157.44 147.6H152.52V152.52H157.44V147.6Z" fill="#634E65"/>
<path d="M162.36 147.6H157.44V152.52H162.36V147.6Z" fill="#634E65"/>
<path d="M167.28 147.6H162.36V152.52H167.28V147.6Z" fill="#634E65"/>
<path d="M172.2 147.6H167.28V152.52H172.2V147.6Z" fill="#634E65"/>
<path d="M177.12 147.6H172.2V152.52H177.12V147.6Z" fill="#634E65"/>
<path d="M182.04 147.6H177.12V152.52H182.04V147.6Z" fill="#634E65"/>
<path d="M186.96 147.6H182.04V152.52H186.96V147.6Z" fill="#634E65"/>
<path d="M191.88 147.6H186.96V152.52H191.88V147.6Z" fill="#634E65"/>
<path d="M196.8 147.6H191.88V152.52H196.8V147.6Z" fill="#634E65"/>
<path d="M201.72 147.6H196.8V152.52H201.72V147.6Z" fill="#634E65"/>
<path d="M206.64 147.6H201.72V152.52H206.64V147.6Z" fill="#634E65"/>
<path d="M211.56 147.6H206.64V152.52H211.56V147.6Z" fill="#634E65"/>
<path d="M216.48 147.6H211.56V152.52H216.48V147.6Z" fill="#634E65"/>
<path d="M221.4 147.6H216.48V152.52H221.4V147.6Z" fill="#634E65"/>
<path d="M226.32 147.6H221.4V152.52H226.32V147.6Z" fill="#634E65"/>
<path d="M231.24 147.6H226.32V152.52H231.24V147.6Z" fill="#634E65"/>
<path d="M78.72 152.52H73.8V157.44H78.72V152.52Z" fill="#634E65"/>
<path d="M83.64 152.52H78.72V157.44H83.64V152.52Z" fill="#634E65"/>
<path d="M88.56 152.52H83.64V157.44H88.56V152.52Z" fill="#634E65"/>
<path d="M93.4801 152.52H88.5601V157.44H93.4801V152.52Z" fill="#634E65"/>
<path d="M98.4 152.52H93.48V157.44H98.4V152.52Z" fill="#634E65"/>
<path d="M103.32 152.52H98.4V157.44H103.32V152.52Z" fill="#634E65"/>
<path d="M108.24 152.52H103.32V157.44H108.24V152.52Z" fill="#634E65"/>
<path d="M113.16 152.52H108.24V157.44H113.16V152.52Z" fill="#634E65"/>
<path d="M118.08 152.52H113.16V157.44H118.08V152.52Z" fill="#634E65"/>
<path d="M123 152.52H118.08V157.44H123V152.52Z" fill="#634E65"/>
<path d="M127.92 152.52H123V157.44H127.92V152.52Z" fill="#634E65"/>
<path d="M132.84 152.52H127.92V157.44H132.84V152.52Z" fill="#634E65"/>
<path d="M137.76 152.52H132.84V157.44H137.76V152.52Z" fill="#634E65"/>
<path d="M142.68 152.52H137.76V157.44H142.68V152.52Z" fill="#634E65"/>
<path d="M147.6 152.52H142.68V157.44H147.6V152.52Z" fill="#634E65"/>
<path d="M152.52 152.52H147.6V157.44H152.52V152.52Z" fill="#634E65"/>
<path d="M157.44 152.52H152.52V157.44H157.44V152.52Z" fill="#634E65"/>
<path d="M162.36 152.52H157.44V157.44H162.36V152.52Z" fill="#634E65"/>
<path d="M167.28 152.52H162.36V157.44H167.28V152.52Z" fill="#634E65"/>
<path d="M172.2 152.52H167.28V157.44H172.2V152.52Z" fill="#634E65"/>
<path d="M177.12 152.52H172.2V157.44H177.12V152.52Z" fill="#634E65"/>
<path d="M182.04 152.52H177.12V157.44H182.04V152.52Z" fill="#634E65"/>
<path d="M186.96 152.52H182.04V157.44H186.96V152.52Z" fill="#634E65"/>
<path d="M191.88 152.52H186.96V157.44H191.88V152.52Z" fill="#634E65"/>
<path d="M196.8 152.52H191.88V157.44H196.8V152.52Z" fill="#634E65"/>
<path d="M201.72 152.52H196.8V157.44H201.72V152.52Z" fill="#634E65"/>
<path d="M206.64 152.52H201.72V157.44H206.64V152.52Z" fill="#634E65"/>
<path d="M211.56 152.52H206.64V157.44H211.56V152.52Z" fill="#634E65"/>
<path d="M93.4801 157.44H88.5601V162.36H93.4801V157.44Z" fill="#634E65"/>
<path d="M98.4 157.44H93.48V162.36H98.4V157.44Z" fill="#634E65"/>
<path d="M103.32 157.44H98.4V162.36H103.32V157.44Z" fill="#634E65"/>
<path d="M108.24 157.44H103.32V162.36H108.24V157.44Z" fill="#634E65"/>
<path d="M113.16 157.44H108.24V162.36H113.16V157.44Z" fill="#634E65"/>
<path d="M118.08 157.44H113.16V162.36H118.08V157.44Z" fill="#634E65"/>
<path d="M123 157.44H118.08V162.36H123V157.44Z" fill="#634E65"/>
<path d="M127.92 157.44H123V162.36H127.92V157.44Z" fill="#634E65"/>
<path d="M132.84 157.44H127.92V162.36H132.84V157.44Z" fill="#634E65"/>
<path d="M137.76 157.44H132.84V162.36H137.76V157.44Z" fill="#634E65"/>
<path d="M142.68 157.44H137.76V162.36H142.68V157.44Z" fill="#634E65"/>
<path d="M147.6 157.44H142.68V162.36H147.6V157.44Z" fill="#634E65"/>
</g>
<defs>
<clipPath id="clip0_833_91947">
<rect width="246" height="246" fill="white"/>
</clipPath>
</defs>
</svg>
