<svg width="220" height="301" viewBox="0 0 220 301" fill="none" xmlns="http://www.w3.org/2000/svg">
<path d="M219.214 190.518C219.214 251.052 170.141 300.125 109.607 300.125C49.0727 300.125 0 251.052 0 190.518C0 121.128 49.0727 0 109.607 0C170.141 0 219.214 116.93 219.214 190.518Z" fill="url(#paint0_linear_452_37187)" fill-opacity="0.2"/>
<path d="M218.613 175.8C218.876 179.141 219.053 182.422 219.144 185.631L216.645 185.702C216.691 187.328 216.714 188.934 216.714 190.518C216.714 192.086 216.68 193.646 216.614 195.197L219.111 195.304C218.973 198.518 218.697 201.697 218.288 204.834L215.809 204.511C215.403 207.622 214.863 210.692 214.196 213.713L216.637 214.252C215.946 217.383 215.121 220.464 214.169 223.488L211.784 222.737C210.844 225.722 209.776 228.651 208.588 231.517L210.897 232.474C209.671 235.43 208.32 238.321 206.85 241.139L204.633 239.983C203.188 242.752 201.626 245.451 199.953 248.071L202.061 249.417C200.342 252.109 198.509 254.72 196.569 257.245L194.587 255.722C192.686 258.195 190.681 260.582 188.576 262.878L190.419 264.568C188.263 266.918 186.007 269.175 183.656 271.33L181.967 269.487C179.671 271.592 177.284 273.598 174.811 275.498L176.334 277.48C173.809 279.421 171.197 281.253 168.505 282.972L167.16 280.865C164.539 282.538 161.841 284.1 159.072 285.544L160.228 287.761C157.41 289.231 154.519 290.582 151.563 291.808L150.606 289.499C147.739 290.687 144.811 291.755 141.825 292.695L142.576 295.08C139.552 296.032 136.472 296.857 133.341 297.549L132.802 295.107C129.78 295.774 126.711 296.314 123.599 296.72L123.923 299.199C120.786 299.608 117.607 299.884 114.393 300.022L114.285 297.525C112.734 297.591 111.175 297.625 109.607 297.625C108.039 297.625 106.48 297.591 104.928 297.525L104.821 300.022C101.607 299.884 98.4282 299.608 95.2913 299.199L95.6146 296.72C92.503 296.314 89.4336 295.774 86.4123 295.107L85.8734 297.549C82.7424 296.857 79.6616 296.032 76.6375 295.08L77.3886 292.695C74.4034 291.755 71.4745 290.687 68.6084 289.499L67.6508 291.808C64.6949 290.582 61.8044 289.231 58.9857 287.761L60.1419 285.544C57.3728 284.1 54.6745 282.538 52.0537 280.865L50.7085 282.972C48.0167 281.253 45.4049 279.421 42.88 277.48L44.4033 275.498C41.9304 273.598 39.5427 271.592 37.247 269.487L35.5576 271.33C33.2069 269.175 30.9505 266.918 28.7954 264.568L30.6381 262.878C28.5334 260.582 26.5275 258.195 24.6272 255.722L22.6449 257.245C20.7046 254.72 18.8718 252.108 17.1534 249.417L19.2606 248.071C17.5875 245.451 16.0255 242.752 14.581 239.983L12.3644 241.139C10.8941 238.321 9.54277 235.43 8.31704 232.474L10.6263 231.517C9.43781 228.651 8.37019 225.722 7.42981 222.737L5.04532 223.488C4.09269 220.464 3.26763 217.383 2.57645 214.252L5.01768 213.713C4.35072 210.692 3.81132 207.622 3.40543 204.511L0.92643 204.834C0.51725 201.697 0.240704 198.518 0.102604 195.304L2.6003 195.197C2.53367 193.646 2.5 192.086 2.5 190.518C2.5 188.947 2.52558 187.348 2.57639 185.722L0.0776068 185.644C0.176909 182.467 0.370941 179.195 0.656426 175.845L3.1474 176.057C3.41491 172.918 3.76398 169.706 4.1921 166.433L1.71322 166.109C2.12996 162.924 2.62047 159.684 3.18224 156.403L5.64639 156.824C6.18537 153.676 6.79081 150.486 7.46055 147.267L5.01294 146.758C5.67048 143.597 6.38921 140.408 7.16703 137.201L9.59659 137.79C10.3543 134.666 11.1686 131.524 12.0377 128.374L9.62766 127.709C10.4919 124.576 11.4098 121.434 12.3793 118.294L14.7681 119.031C15.7217 115.941 16.7257 112.853 17.7782 109.773L15.4125 108.964C16.4682 105.875 17.5724 102.795 18.7232 99.7324L21.0634 100.612C22.2053 97.5729 23.3932 94.5518 24.6253 91.5567L22.3134 90.6056C23.561 87.5729 24.8538 84.5664 26.1899 81.5945L28.4701 82.6196C29.8063 79.6476 31.1857 76.7115 32.6065 73.8197L30.3627 72.7173C31.8146 69.7624 33.3096 66.8526 34.8459 63.9969L37.0476 65.1814C38.5944 62.3061 40.1828 59.4878 41.8103 56.7358L39.6585 55.4632C41.3442 52.6128 43.0726 49.8312 44.8413 47.1286L46.9332 48.4976C48.7294 45.7531 50.566 43.0937 52.4405 40.5302L50.4225 39.0546C52.3847 36.3712 54.3897 33.7887 56.4349 31.3193L58.3603 32.9139C60.4533 30.3869 62.5855 27.9847 64.7536 25.72L62.9477 23.9912C65.2645 21.5712 67.6257 19.3008 70.0279 17.1958L71.6756 19.0761C74.1326 16.923 76.6257 14.9542 79.1507 13.1851L77.7161 11.1376C80.4659 9.21095 83.2614 7.5073 86.098 6.04819L87.2415 8.27131C90.098 6.80197 92.9845 5.59742 95.8961 4.67609L95.1418 2.29257C98.2909 1.29608 101.482 0.610744 104.71 0.263631L104.977 2.7493C106.513 2.5841 108.056 2.5 109.607 2.5C111.164 2.5 112.714 2.58172 114.256 2.74232L114.515 0.255768C117.754 0.593083 120.957 1.25979 124.117 2.23051L123.383 4.62031C126.316 5.52118 129.222 6.70022 132.097 8.13979L133.216 5.90443C136.079 7.33808 138.9 9.01434 141.674 10.9127L140.262 12.9759C142.814 14.7216 145.332 16.6666 147.813 18.7959L149.441 16.8988C151.872 18.9858 154.262 21.2395 156.605 23.6444L154.814 25.3891C157.005 27.6367 159.158 30.0231 161.27 32.5361L163.184 30.9273C165.253 33.3882 167.28 35.9645 169.263 38.6442L167.254 40.1313C169.147 42.6896 171.001 45.346 172.813 48.0903L174.9 46.7126C176.68 49.4084 178.419 52.1854 180.114 55.0338L177.965 56.3123C179.603 59.0645 181.201 61.8857 182.755 64.7668L184.956 63.5795C186.498 66.4386 187.999 69.3545 189.455 72.3186L187.211 73.4208C188.633 76.3166 190.013 79.2596 191.348 82.2417L193.63 81.22C194.964 84.1978 196.253 87.2134 197.496 90.2586L195.181 91.2034C196.406 94.2035 197.585 97.233 198.718 100.284L201.062 99.414C202.202 102.484 203.294 105.576 204.337 108.68L201.968 109.477C203.005 112.563 203.993 115.663 204.93 118.768L207.324 118.045C208.274 121.193 209.172 124.346 210.017 127.496L207.602 128.144C208.448 131.299 209.24 134.452 209.975 137.593L212.41 137.023C213.163 140.239 213.857 143.445 214.491 146.63L212.039 147.118C212.681 150.34 213.259 153.54 213.773 156.71L216.241 156.31C216.773 159.588 217.236 162.835 217.628 166.04L215.147 166.344C215.547 169.611 215.872 172.832 216.121 175.996L218.613 175.8Z" stroke="white" stroke-opacity="0.6" stroke-width="5" stroke-dasharray="10 10"/>
<defs>
<linearGradient id="paint0_linear_452_37187" x1="109.607" y1="0" x2="109.607" y2="300.125" gradientUnits="userSpaceOnUse">
<stop stop-color="white" stop-opacity="0.2"/>
<stop offset="1" stop-color="white" stop-opacity="0.4"/>
</linearGradient>
</defs>
</svg>
