<svg width="50" height="50" viewBox="0 0 50 50" fill="none" xmlns="http://www.w3.org/2000/svg">
<path d="M30.0001 46.6667H26.6667V50H30.0001V46.6667Z" fill="#AE9A2C"/>
<path d="M26.6667 46.6667H23.3334V50H26.6667V46.6667Z" fill="#AE9A2C"/>
<path d="M23.3335 46.6667H20.0001V50H23.3335V46.6667Z" fill="#6D67B8"/>
<path d="M30.0001 43.3333H26.6667V46.6666H30.0001V43.3333Z" fill="#E7C044"/>
<path d="M26.6667 43.3333H23.3334V46.6666H26.6667V43.3333Z" fill="#F7D25C"/>
<path d="M23.3335 43.3333H20.0001V46.6666H23.3335V43.3333Z" fill="#6D67B8"/>
<path d="M30.0001 40H26.6667V43.3333H30.0001V40Z" fill="#E7C044"/>
<path d="M26.6667 40H23.3334V43.3333H26.6667V40Z" fill="#F7D25C"/>
<path d="M23.3335 40H20.0001V43.3333H23.3335V40Z" fill="#6D67B8"/>
<path d="M30.0001 36.6667H26.6667V40H30.0001V36.6667Z" fill="#E7C044"/>
<path d="M26.6667 36.6667H23.3334V40H26.6667V36.6667Z" fill="#F7D25C"/>
<path d="M23.3335 36.6667H20.0001V40H23.3335V36.6667Z" fill="#6D67B8"/>
<path d="M36.6667 33.3333H33.3334V36.6666H36.6667V33.3333Z" fill="#D7B037"/>
<path d="M33.3333 33.3333H30V36.6666H33.3333V33.3333Z" fill="#D7B037"/>
<path d="M30.0001 33.3333H26.6667V36.6666H30.0001V33.3333Z" fill="#F7D25C"/>
<path d="M26.6667 33.3333H23.3334V36.6666H26.6667V33.3333Z" fill="#F7D25C"/>
<path d="M23.3335 33.3333H20.0001V36.6666H23.3335V33.3333Z" fill="#D7B037"/>
<path d="M20.0001 33.3333H16.6667V36.6666H20.0001V33.3333Z" fill="#D7B037"/>
<path d="M16.6666 33.3333H13.3333V36.6666H16.6666V33.3333Z" fill="#6D67B8"/>
<path d="M36.6667 30H33.3334V33.3333H36.6667V30Z" fill="#E7C044"/>
<path d="M33.3333 30H30V33.3333H33.3333V30Z" fill="#F7D25C"/>
<path d="M30.0001 30H26.6667V33.3333H30.0001V30Z" fill="#F7D25C"/>
<path d="M26.6667 30H23.3334V33.3333H26.6667V30Z" fill="#F7D25C"/>
<path d="M23.3335 30H20.0001V33.3333H23.3335V30Z" fill="#F7D25C"/>
<path d="M20.0001 30H16.6667V33.3333H20.0001V30Z" fill="#F7D25C"/>
<path d="M16.6666 30H13.3333V33.3333H16.6666V30Z" fill="#6D67B8"/>
<path d="M50 26.6666H46.6666V30H50V26.6666Z" fill="#FFE07B"/>
<path d="M46.6668 26.6666H43.3335V30H46.6668V26.6666Z" fill="#FFE07B"/>
<path d="M43.3333 26.6666H40V30H43.3333V26.6666Z" fill="#E7C044"/>
<path d="M40.0002 26.6666H36.6669V30H40.0002V26.6666Z" fill="#E7C044"/>
<path d="M36.6667 26.6666H33.3334V30H36.6667V26.6666Z" fill="#F7D25C"/>
<path d="M33.3333 26.6666H30V30H33.3333V26.6666Z" fill="#F7D25C"/>
<path d="M30.0001 26.6666H26.6667V30H30.0001V26.6666Z" fill="#F7D25C"/>
<path d="M26.6667 26.6666H23.3334V30H26.6667V26.6666Z" fill="#F7D25C"/>
<path d="M23.3335 26.6666H20.0001V30H23.3335V26.6666Z" fill="#F7D25C"/>
<path d="M20.0001 26.6666H16.6667V30H20.0001V26.6666Z" fill="#F7D25C"/>
<path d="M16.6666 26.6666H13.3333V30H16.6666V26.6666Z" fill="#E7C044"/>
<path d="M13.3335 26.6666H10.0001V30H13.3335V26.6666Z" fill="#E7C044"/>
<path d="M9.99997 26.6666H6.66663V30H9.99997V26.6666Z" fill="#E7C044"/>
<path d="M6.66671 26.6666H3.33337V30H6.66671V26.6666Z" fill="#E7C044"/>
<path d="M3.33334 26.6666H0V30H3.33334V26.6666Z" fill="#6D67B8"/>
<path d="M50 23.3333H46.6666V26.6667H50V23.3333Z" fill="#E7C044"/>
<path d="M46.6668 23.3333H43.3335V26.6667H46.6668V23.3333Z" fill="#F7D25C"/>
<path d="M43.3333 23.3333H40V26.6667H43.3333V23.3333Z" fill="#F7D25C"/>
<path d="M40.0002 23.3333H36.6669V26.6667H40.0002V23.3333Z" fill="#F7D25C"/>
<path d="M36.6667 23.3333H33.3334V26.6667H36.6667V23.3333Z" fill="#F7D25C"/>
<path d="M33.3333 23.3333H30V26.6667H33.3333V23.3333Z" fill="#F7D25C"/>
<path d="M30.0001 23.3333H26.6667V26.6667H30.0001V23.3333Z" fill="#F7D25C"/>
<path d="M26.6667 23.3333H23.3334V26.6667H26.6667V23.3333Z" fill="#F7D25C"/>
<path d="M23.3335 23.3333H20.0001V26.6667H23.3335V23.3333Z" fill="#F7D25C"/>
<path d="M20.0001 23.3333H16.6667V26.6667H20.0001V23.3333Z" fill="#F7D25C"/>
<path d="M16.6666 23.3333H13.3333V26.6667H16.6666V23.3333Z" fill="#F7D25C"/>
<path d="M13.3335 23.3333H10.0001V26.6667H13.3335V23.3333Z" fill="#F7D25C"/>
<path d="M9.99997 23.3333H6.66663V26.6667H9.99997V23.3333Z" fill="#F7D25C"/>
<path d="M6.66671 23.3333H3.33337V26.6667H6.66671V23.3333Z" fill="#F7D25C"/>
<path d="M3.33334 23.3333H0V26.6667H3.33334V23.3333Z" fill="#6D67B8"/>
<path d="M50 20H46.6666V23.3334H50V20Z" fill="#6D67B8"/>
<path d="M46.6668 20H43.3335V23.3334H46.6668V20Z" fill="#6D67B8"/>
<path d="M43.3333 20H40V23.3334H43.3333V20Z" fill="#6D67B8"/>
<path d="M40.0002 20H36.6669V23.3334H40.0002V20Z" fill="#6D67B8"/>
<path d="M36.6667 20H33.3334V23.3334H36.6667V20Z" fill="#E7C044"/>
<path d="M33.3333 20H30V23.3334H33.3333V20Z" fill="#F7D25C"/>
<path d="M30.0001 20H26.6667V23.3334H30.0001V20Z" fill="#F7D25C"/>
<path d="M26.6667 20H23.3334V23.3334H26.6667V20Z" fill="#F7D25C"/>
<path d="M23.3335 20H20.0001V23.3334H23.3335V20Z" fill="#F7D25C"/>
<path d="M20.0001 20H16.6667V23.3334H20.0001V20Z" fill="#F7D25C"/>
<path d="M16.6666 20H13.3333V23.3334H16.6666V20Z" fill="#6D67B8"/>
<path d="M13.3335 20H10.0001V23.3334H13.3335V20Z" fill="#6D67B8"/>
<path d="M9.99997 20H6.66663V23.3334H9.99997V20Z" fill="#6D67B8"/>
<path d="M6.66671 20H3.33337V23.3334H6.66671V20Z" fill="#6D67B8"/>
<path d="M36.6667 16.6667H33.3334V20H36.6667V16.6667Z" fill="#E7C044"/>
<path d="M33.3333 16.6667H30V20H33.3333V16.6667Z" fill="#F7D25C"/>
<path d="M30.0001 16.6667H26.6667V20H30.0001V16.6667Z" fill="#F7D25C"/>
<path d="M26.6667 16.6667H23.3334V20H26.6667V16.6667Z" fill="#F7D25C"/>
<path d="M23.3335 16.6667H20.0001V20H23.3335V16.6667Z" fill="#F7D25C"/>
<path d="M20.0001 16.6667H16.6667V20H20.0001V16.6667Z" fill="#F7D25C"/>
<path d="M16.6666 16.6667H13.3333V20H16.6666V16.6667Z" fill="#6D67B8"/>
<path d="M36.6667 13.3333H33.3334V16.6667H36.6667V13.3333Z" fill="#5F5B9A"/>
<path d="M33.3333 13.3333H30V16.6667H33.3333V13.3333Z" fill="#5F5B9A"/>
<path d="M30.0001 13.3333H26.6667V16.6667H30.0001V13.3333Z" fill="#F7D25C"/>
<path d="M26.6667 13.3333H23.3334V16.6667H26.6667V13.3333Z" fill="#F7D25C"/>
<path d="M23.3335 13.3333H20.0001V16.6667H23.3335V13.3333Z" fill="#5F5B9A"/>
<path d="M20.0001 13.3333H16.6667V16.6667H20.0001V13.3333Z" fill="#5F5B9A"/>
<path d="M30.0001 9.99997H26.6667V13.3333H30.0001V9.99997Z" fill="#F7D25C"/>
<path d="M26.6667 9.99997H23.3334V13.3333H26.6667V9.99997Z" fill="#F7D25C"/>
<path d="M23.3335 9.99997H20.0001V13.3333H23.3335V9.99997Z" fill="#847DDD"/>
<path d="M30.0001 6.66669H26.6667V10H30.0001V6.66669Z" fill="#F7D25C"/>
<path d="M26.6667 6.66669H23.3334V10H26.6667V6.66669Z" fill="#F7D25C"/>
<path d="M23.3335 6.66669H20.0001V10H23.3335V6.66669Z" fill="#847DDD"/>
<path d="M30.0001 3.33337H26.6667V6.6667H30.0001V3.33337Z" fill="#F7D25C"/>
<path d="M26.6667 3.33337H23.3334V6.6667H26.6667V3.33337Z" fill="#F7D25C"/>
<path d="M23.3335 3.33337H20.0001V6.6667H23.3335V3.33337Z" fill="#847DDD"/>
<path d="M30.0001 0H26.6667V3.33333H30.0001V0Z" fill="#5F5B9A"/>
<path d="M26.6667 0H23.3334V3.33333H26.6667V0Z" fill="#5F5B9A"/>
</svg>
