<svg width="50" height="50" viewBox="0 0 50 50" fill="none" xmlns="http://www.w3.org/2000/svg">
<path d="M14 9H12V11H14V9Z" fill="#7F665B"/>
<path d="M16 9H14V11H16V9Z" fill="#7F665B"/>
<path d="M18 9H16V11H18V9Z" fill="#7F665B"/>
<path d="M20 9H18V11H20V9Z" fill="#7F665B"/>
<path d="M32 9H30V11H32V9Z" fill="#7F665B"/>
<path d="M34 9H32V11H34V9Z" fill="#7F665B"/>
<path d="M36 9H34V11H36V9Z" fill="#7F665B"/>
<path d="M38 9H36V11H38V9Z" fill="#7F665B"/>
<path d="M14 11H12V13H14V11Z" fill="#7F665B"/>
<path d="M16 11H14V13H16V11Z" fill="#624241"/>
<path d="M18 11H16V13H18V11Z" fill="#624241"/>
<path d="M20 11H18V13H20V11Z" fill="#7F665B"/>
<path d="M22 11H20V13H22V11Z" fill="#7F665B"/>
<path d="M24 11H22V13H24V11Z" fill="#7F665B"/>
<path d="M26 11H24V13H26V11Z" fill="#7F665B"/>
<path d="M28 11H26V13H28V11Z" fill="#7F665B"/>
<path d="M30 11H28V13H30V11Z" fill="#7F665B"/>
<path d="M32 11H30V13H32V11Z" fill="#7F665B"/>
<path d="M34 11H32V13H34V11Z" fill="#735155"/>
<path d="M36 11H34V13H36V11Z" fill="#624241"/>
<path d="M38 11H36V13H38V11Z" fill="#7F665B"/>
<path d="M40 11H38V13H40V11Z" fill="#7F665B"/>
<path d="M12 13H10V15H12V13Z" fill="#7F665B"/>
<path d="M14 13H12V15H14V13Z" fill="#624241"/>
<path d="M16 13H14V15H16V13Z" fill="#735155"/>
<path d="M18 13H16V15H18V13Z" fill="#87675F"/>
<path d="M20 13H18V15H20V13Z" fill="#7F665B"/>
<path d="M22 13H20V15H22V13Z" fill="#A2806E"/>
<path d="M24 13H22V15H24V13Z" fill="#A2806E"/>
<path d="M26 13H24V15H26V13Z" fill="#A2806E"/>
<path d="M28 13H26V15H28V13Z" fill="#A2806E"/>
<path d="M30 13H28V15H30V13Z" fill="#907365"/>
<path d="M32 13H30V15H32V13Z" fill="#7F665B"/>
<path d="M34 13H32V15H34V13Z" fill="#87675F"/>
<path d="M36 13H34V15H36V13Z" fill="#735155"/>
<path d="M38 13H36V15H38V13Z" fill="#624241"/>
<path d="M40 13H38V15H40V13Z" fill="#7F665B"/>
<path d="M12 15H10V17H12V15Z" fill="#7F665B"/>
<path d="M14 15H12V17H14V15Z" fill="#735155"/>
<path d="M16 15H14V17H16V15Z" fill="#87675F"/>
<path d="M18 15H16V17H18V15Z" fill="#7F665B"/>
<path d="M20 15H18V17H20V15Z" fill="#A2806E"/>
<path d="M22 15H20V17H22V15Z" fill="#A2806E"/>
<path d="M24 15H22V17H24V15Z" fill="#A2806E"/>
<path d="M26 15H24V17H26V15Z" fill="#A2806E"/>
<path d="M28 15H26V17H28V15Z" fill="#A2806E"/>
<path d="M30 15H28V17H30V15Z" fill="#A2806E"/>
<path d="M32 15H30V17H32V15Z" fill="#907365"/>
<path d="M34 15H32V17H34V15Z" fill="#7F665B"/>
<path d="M36 15H34V17H36V15Z" fill="#87675F"/>
<path d="M38 15H36V17H38V15Z" fill="#735155"/>
<path d="M40 15H38V17H40V15Z" fill="#7F665B"/>
<path d="M14 17H12V19H14V17Z" fill="#7F665B"/>
<path d="M16 17H14V19H16V17Z" fill="#907365"/>
<path d="M18 17H16V19H18V17Z" fill="#A2806E"/>
<path d="M20 17H18V19H20V17Z" fill="#A2806E"/>
<path d="M22 17H20V19H22V17Z" fill="#A2806E"/>
<path d="M24 17H22V19H24V17Z" fill="#A2806E"/>
<path d="M26 17H24V19H26V17Z" fill="#A2806E"/>
<path d="M28 17H26V19H28V17Z" fill="#A2806E"/>
<path d="M30 17H28V19H30V17Z" fill="#A2806E"/>
<path d="M32 17H30V19H32V17Z" fill="#A2806E"/>
<path d="M34 17H32V19H34V17Z" fill="#907365"/>
<path d="M36 17H34V19H36V17Z" fill="#7F665B"/>
<path d="M38 17H36V19H38V17Z" fill="#87675F"/>
<path d="M40 17H38V19H40V17Z" fill="#7F665B"/>
<path d="M14 19H12V21H14V19Z" fill="#7F665B"/>
<path d="M16 19H14V21H16V19Z" fill="#A2806E"/>
<path d="M18 19H16V21H18V19Z" fill="#A2806E"/>
<path d="M20 19H18V21H20V19Z" fill="#A2806E"/>
<path d="M22 19H20V21H22V19Z" fill="#A2806E"/>
<path d="M24 19H22V21H24V19Z" fill="#A2806E"/>
<path d="M26 19H24V21H26V19Z" fill="#A2806E"/>
<path d="M28 19H26V21H28V19Z" fill="#A2806E"/>
<path d="M30 19H28V21H30V19Z" fill="#A2806E"/>
<path d="M32 19H30V21H32V19Z" fill="#A2806E"/>
<path d="M34 19H32V21H34V19Z" fill="#A2806E"/>
<path d="M36 19H34V21H36V19Z" fill="#907365"/>
<path d="M38 19H36V21H38V19Z" fill="#7F665B"/>
<path d="M14 21H12V23H14V21Z" fill="#7F665B"/>
<path d="M16 21H14V23H16V21Z" fill="#A2806E"/>
<path d="M18 21H16V23H18V21Z" fill="#A2806E"/>
<path d="M20 21H18V23H20V21Z" fill="#7F665B"/>
<path d="M22 21H20V23H22V21Z" fill="#A2806E"/>
<path d="M24 21H22V23H24V21Z" fill="#A2806E"/>
<path d="M26 21H24V23H26V21Z" fill="#A2806E"/>
<path d="M28 21H26V23H28V21Z" fill="#A2806E"/>
<path d="M30 21H28V23H30V21Z" fill="#7F665B"/>
<path d="M32 21H30V23H32V21Z" fill="#A2806E"/>
<path d="M34 21H32V23H34V21Z" fill="#A2806E"/>
<path d="M36 21H34V23H36V21Z" fill="#907365"/>
<path d="M38 21H36V23H38V21Z" fill="#7F665B"/>
<path d="M14 23H12V25H14V23Z" fill="#7F665B"/>
<path d="M16 23H14V25H16V23Z" fill="#A2806E"/>
<path d="M18 23H16V25H18V23Z" fill="#7F665B"/>
<path d="M20 23H18V25H20V23Z" fill="#22151F"/>
<path d="M22 23H20V25H22V23Z" fill="#E5D8CE"/>
<path d="M24 23H22V25H24V23Z" fill="#A2806E"/>
<path d="M26 23H24V25H26V23Z" fill="#A2806E"/>
<path d="M28 23H26V25H28V23Z" fill="#7F665B"/>
<path d="M30 23H28V25H30V23Z" fill="#22151F"/>
<path d="M32 23H30V25H32V23Z" fill="#E5D8CE"/>
<path d="M34 23H32V25H34V23Z" fill="#A2806E"/>
<path d="M36 23H34V25H36V23Z" fill="#A2806E"/>
<path d="M38 23H36V25H38V23Z" fill="#907365"/>
<path d="M40 23H38V25H40V23Z" fill="#7F665B"/>
<path d="M12 25H10V27H12V25Z" fill="#7F665B"/>
<path d="M14 25H12V27H14V25Z" fill="#A2806E"/>
<path d="M16 25H14V27H16V25Z" fill="#A2806E"/>
<path d="M18 25H16V27H18V25Z" fill="#907365"/>
<path d="M20 25H18V27H20V25Z" fill="#22151F"/>
<path d="M22 25H20V27H22V25Z" fill="#352526"/>
<path d="M24 25H22V27H24V25Z" fill="#A2806E"/>
<path d="M26 25H24V27H26V25Z" fill="#A2806E"/>
<path d="M28 25H26V27H28V25Z" fill="#907365"/>
<path d="M30 25H28V27H30V25Z" fill="#22151F"/>
<path d="M32 25H30V27H32V25Z" fill="#22151F"/>
<path d="M34 25H32V27H34V25Z" fill="#907365"/>
<path d="M36 25H34V27H36V25Z" fill="#A2806E"/>
<path d="M38 25H36V27H38V25Z" fill="#907365"/>
<path d="M40 25H38V27H40V25Z" fill="#7F665B"/>
<path d="M12 27H10V29H12V27Z" fill="#7F665B"/>
<path d="M14 27H12V29H14V27Z" fill="#A2806E"/>
<path d="M16 27H14V29H16V27Z" fill="#A2806E"/>
<path d="M18 27H16V29H18V27Z" fill="#A2806E"/>
<path d="M20 27H18V29H20V27Z" fill="#A2806E"/>
<path d="M22 27H20V29H22V27Z" fill="#A2806E"/>
<path d="M24 27H22V29H24V27Z" fill="#22151F"/>
<path d="M26 27H24V29H26V27Z" fill="#22151F"/>
<path d="M28 27H26V29H28V27Z" fill="#A2806E"/>
<path d="M30 27H28V29H30V27Z" fill="#A2806E"/>
<path d="M32 27H30V29H32V27Z" fill="#A2806E"/>
<path d="M34 27H32V29H34V27Z" fill="#A2806E"/>
<path d="M36 27H34V29H36V27Z" fill="#A2806E"/>
<path d="M38 27H36V29H38V27Z" fill="#907365"/>
<path d="M40 27H38V29H40V27Z" fill="#7F665B"/>
<path d="M12 29H10V31H12V29Z" fill="#7F665B"/>
<path d="M14 29H12V31H14V29Z" fill="#A2806E"/>
<path d="M16 29H14V31H16V29Z" fill="#A2806E"/>
<path d="M18 29H16V31H18V29Z" fill="#A2806E"/>
<path d="M20 29H18V31H20V29Z" fill="#735155"/>
<path d="M22 29H20V31H22V29Z" fill="#AC8E7B"/>
<path d="M24 29H22V31H24V29Z" fill="#534C68"/>
<path d="M26 29H24V31H26V29Z" fill="#22151F"/>
<path d="M28 29H26V31H28V29Z" fill="#AC8E7B"/>
<path d="M30 29H28V31H30V29Z" fill="#735155"/>
<path d="M32 29H30V31H32V29Z" fill="#9A7968"/>
<path d="M34 29H32V31H34V29Z" fill="#A2806E"/>
<path d="M36 29H34V31H36V29Z" fill="#A2806E"/>
<path d="M38 29H36V31H38V29Z" fill="#907365"/>
<path d="M40 29H38V31H40V29Z" fill="#7F665B"/>
<path d="M12 31H10V33H12V31Z" fill="#7F665B"/>
<path d="M14 31H12V33H14V31Z" fill="#A2806E"/>
<path d="M16 31H14V33H16V31Z" fill="#A2806E"/>
<path d="M18 31H16V33H18V31Z" fill="#A2806E"/>
<path d="M20 31H18V33H20V31Z" fill="#A2806E"/>
<path d="M22 31H20V33H22V31Z" fill="#735155"/>
<path d="M24 31H22V33H24V31Z" fill="#AC8E7B"/>
<path d="M26 31H24V33H26V31Z" fill="#735155"/>
<path d="M28 31H26V33H28V31Z" fill="#735155"/>
<path d="M30 31H28V33H30V31Z" fill="#9A7968"/>
<path d="M32 31H30V33H32V31Z" fill="#A2806E"/>
<path d="M34 31H32V33H34V31Z" fill="#A2806E"/>
<path d="M36 31H34V33H36V31Z" fill="#A2806E"/>
<path d="M38 31H36V33H38V31Z" fill="#907365"/>
<path d="M40 31H38V33H40V31Z" fill="#7F665B"/>
<path d="M14 33H12V35H14V33Z" fill="#7F665B"/>
<path d="M16 33H14V35H16V33Z" fill="#A2806E"/>
<path d="M18 33H16V35H18V33Z" fill="#A2806E"/>
<path d="M20 33H18V35H20V33Z" fill="#A2806E"/>
<path d="M22 33H20V35H22V33Z" fill="#AC8E7B"/>
<path d="M24 33H22V35H24V33Z" fill="#AC8E7B"/>
<path d="M26 33H24V35H26V33Z" fill="#AC8E7B"/>
<path d="M28 33H26V35H28V33Z" fill="#9C8170"/>
<path d="M30 33H28V35H30V33Z" fill="#A2806E"/>
<path d="M32 33H30V35H32V33Z" fill="#A2806E"/>
<path d="M34 33H32V35H34V33Z" fill="#A2806E"/>
<path d="M36 33H34V35H36V33Z" fill="#907365"/>
<path d="M38 33H36V35H38V33Z" fill="#7F665B"/>
<path d="M16 35H14V37H16V35Z" fill="#7F665B"/>
<path d="M18 35H16V37H18V35Z" fill="#A2806E"/>
<path d="M20 35H18V37H20V35Z" fill="#A2806E"/>
<path d="M22 35H20V37H22V35Z" fill="#A2806E"/>
<path d="M24 35H22V37H24V35Z" fill="#A2806E"/>
<path d="M26 35H24V37H26V35Z" fill="#A2806E"/>
<path d="M28 35H26V37H28V35Z" fill="#A2806E"/>
<path d="M30 35H28V37H30V35Z" fill="#A2806E"/>
<path d="M32 35H30V37H32V35Z" fill="#A2806E"/>
<path d="M34 35H32V37H34V35Z" fill="#907365"/>
<path d="M36 35H34V37H36V35Z" fill="#7F665B"/>
<path d="M16 37H14V39H16V37Z" fill="#7F665B"/>
<path d="M18 37H16V39H18V37Z" fill="#907365"/>
<path d="M20 37H18V39H20V37Z" fill="#A2806E"/>
<path d="M22 37H20V39H22V37Z" fill="#A2806E"/>
<path d="M24 37H22V39H24V37Z" fill="#A2806E"/>
<path d="M26 37H24V39H26V37Z" fill="#A2806E"/>
<path d="M28 37H26V39H28V37Z" fill="#A2806E"/>
<path d="M30 37H28V39H30V37Z" fill="#A2806E"/>
<path d="M32 37H30V39H32V37Z" fill="#907365"/>
<path d="M34 37H32V39H34V37Z" fill="#7F665B"/>
<path d="M36 37H34V39H36V37Z" fill="#7F665B"/>
<path d="M20 39H18V41H20V39Z" fill="#907365"/>
<path d="M22 39H20V41H22V39Z" fill="#8A6C5E"/>
<path d="M24 39H22V41H24V39Z" fill="#8A6C5E"/>
<path d="M26 39H24V41H26V39Z" fill="#8A6C5E"/>
<path d="M28 39H26V41H28V39Z" fill="#8A6C5E"/>
<path d="M30 39H28V41H30V39Z" fill="#7F665B"/>
<path d="M32 39H30V41H32V39Z" fill="#7F665B"/>
</svg>
